<?xml version="1.0" encoding="utf-8"?>
<!-- Generator: Adobe Illustrator 16.0.0, SVG Export Plug-In . SVG Version: 6.00 Build 0)  -->
<!DOCTYPE svg PUBLIC "-//W3C//DTD SVG 1.1//EN" "http://www.w3.org/Graphics/SVG/1.1/DTD/svg11.dtd">
<svg version="1.1" xmlns="http://www.w3.org/2000/svg" xmlns:xlink="http://www.w3.org/1999/xlink" x="0px" y="0px" width="100px"
	 height="100px" viewBox="0 0 100 100" enable-background="new 0 0 100 100" xml:space="preserve">
<g id="Layer_1">
	<g>
		<g>
			<rect x="1" y="7.567" fill="#5A5A5A" width="48.461" height="7.539"/>
		</g>
		<g>
			<path fill="#5A5A5A" d="M49.461,34.491v18.307H26.668c-0.049-7.538-6.281-12.285-12.744-13.034v-5.272H49.461z"/>
		</g>
		<g>
			<path fill="#5A5A5A" d="M49.461,54.953v37.692h-3.229V61.48c0-0.71-0.908-1.283-1.617-1.283S43,60.771,43,61.48v31.165h-3.23
				V61.48c0-0.71-0.904-1.283-1.615-1.283c-0.709,0-1.615,0.573-1.615,1.283v31.165h-3.23V61.48c0-0.71-0.906-1.283-1.615-1.283
				c-0.711,0-1.615,0.573-1.615,1.283v31.165h-3.232V54.953H49.461z"/>
		</g>
		<g>
			<path fill="#5A5A5A" d="M49.461,18.337v14H18.234c-7.391,0-12.926-6.175-12.926-13.565v-0.435H49.461z"/>
		</g>
		<g>
			<rect x="60.232" y="73.26" fill="#5A5A5A" width="15.074" height="8.615"/>
		</g>
		<g>
			<rect x="62.385" y="73.26" fill="#EAE0D6" width="1.078" height="8.615"/>
		</g>
		<g>
			<rect x="72.078" y="73.26" fill="#EAE0D6" width="1.076" height="8.615"/>
		</g>
		<g>
			<rect x="65.615" y="82.952" fill="#5A5A5A" width="4.309" height="9.693"/>
		</g>
		<g>
			<rect x="65.615" y="38.799" fill="#5A5A5A" width="4.309" height="13.999"/>
		</g>
		<g>
			<rect x="65.615" y="7.567" fill="#5A5A5A" width="4.309" height="7.539"/>
		</g>
		<g>
			<rect x="55.924" y="68.952" fill="#5A5A5A" width="23.691" height="3.231"/>
		</g>
		<g>
			<polygon fill="#5A5A5A" points="99,21.567 99,18.337 52.693,18.337 52.693,21.104 52.693,35.567 83.549,35.567 98.229,21.567 			
				"/>
		</g>
		<g>
			<rect x="52.691" y="54.953" fill="#5A5A5A" width="30.154" height="11.846"/>
		</g>
		<g>
			
				<rect x="63.127" y="42.665" transform="matrix(0.7071 0.7072 -0.7072 0.7071 50.5307 -35.3633)" fill="#EAE0D6" width="9.643" height="1.286"/>
		</g>
		<g>
			
				<rect x="63.127" y="10.575" transform="matrix(0.7071 0.7071 -0.7071 0.7071 27.8337 -44.7611)" fill="#EAE0D6" width="9.643" height="1.286"/>
		</g>
		<g>
			
				<rect x="63.126" y="47.8" transform="matrix(0.707 0.7072 -0.7072 0.707 54.168 -33.8599)" fill="#EAE0D6" width="9.644" height="1.286"/>
		</g>
	</g>
</g>
<g id="icons">
</g>
</svg>
