<?xml version="1.0" encoding="utf-8"?>
<!-- Generator: Adobe Illustrator 16.0.0, SVG Export Plug-In . SVG Version: 6.00 Build 0)  -->
<!DOCTYPE svg PUBLIC "-//W3C//DTD SVG 1.1//EN" "http://www.w3.org/Graphics/SVG/1.1/DTD/svg11.dtd">
<svg version="1.1" id="Layer_1" xmlns="http://www.w3.org/2000/svg" xmlns:xlink="http://www.w3.org/1999/xlink" x="0px" y="0px"
	 width="100px" height="100px" viewBox="0 0 100 100" enable-background="new 0 0 100 100" xml:space="preserve">
<g id="Layer_1_1_">
</g>
<g id="icons">
	<g>
		<path fill="#FFFFFF" d="M18.029,12.524c-4.821,0-8.743,3.921-8.743,8.742c0,4.821,3.922,8.743,8.743,8.743
			c4.819,0,8.741-3.922,8.741-8.743C26.77,16.445,22.849,12.524,18.029,12.524z M18.029,27.091c-3.213,0-5.826-2.613-5.826-5.825
			s2.613-5.824,5.826-5.824c3.211,0,5.823,2.613,5.823,5.824S21.24,27.091,18.029,27.091z"/>
		<path fill="#FFFFFF" d="M83.055,12.524c-4.82,0-8.742,3.921-8.742,8.742c0,4.821,3.922,8.743,8.742,8.743
			c4.819,0,8.741-3.922,8.741-8.743C91.796,16.445,87.874,12.524,83.055,12.524z M83.055,27.091c-3.213,0-5.826-2.613-5.826-5.825
			s2.613-5.824,5.826-5.824c3.211,0,5.823,2.613,5.823,5.824S86.266,27.091,83.055,27.091z"/>
		<path fill="#FFFFFF" d="M83.055,5.78H18.029c-8.539,0-15.486,6.947-15.486,15.486S9.49,36.751,18.029,36.751
			c5.325,0,10.03-2.703,12.817-6.808V94.32c0,0.807,0.653,1.459,1.459,1.459H68.6c0.808,0,1.459-0.652,1.459-1.459V29.658
			c2.762,4.262,7.551,7.093,12.996,7.093c8.538,0,15.484-6.946,15.484-15.485S91.593,5.78,83.055,5.78z M74.042,8.698
			c-3.362,2.417-5.711,6.141-6.31,10.427H33.348c-0.597-4.286-2.946-8.009-6.307-10.427H74.042z M57.609,22.042l0.008,70.819H43.289
			V22.042H57.609z M18.029,33.833c-6.93,0-12.568-5.638-12.568-12.567c0-6.93,5.639-12.568,12.568-12.568
			c6.929,0,12.566,5.638,12.566,12.568C30.596,28.196,24.958,33.833,18.029,33.833z M33.765,22.042h6.606v70.819h-6.606V22.042z
			 M60.534,92.861l-0.007-70.819h6.613v70.819H60.534z M83.055,33.833c-6.931,0-12.568-5.638-12.568-12.567
			c0-6.93,5.64-12.568,12.568-12.568c6.93,0,12.566,5.638,12.566,12.568C95.621,28.196,89.982,33.833,83.055,33.833z"/>
	</g>
</g>
</svg>
