<?xml version="1.0" encoding="utf-8"?>
<!-- Generator: Adobe Illustrator 16.0.0, SVG Export Plug-In . SVG Version: 6.00 Build 0)  -->
<!DOCTYPE svg PUBLIC "-//W3C//DTD SVG 1.1//EN" "http://www.w3.org/Graphics/SVG/1.1/DTD/svg11.dtd">
<svg version="1.1" id="Layer_1" xmlns="http://www.w3.org/2000/svg" xmlns:xlink="http://www.w3.org/1999/xlink" x="0px" y="0px"
	 width="100px" height="100px" viewBox="0 0 100 100" enable-background="new 0 0 100 100" xml:space="preserve">
<g id="Layer_1_1_">
</g>
<g id="icons">
	<g>
		<g>
			<path fill="#FFFFFF" d="M50.001,43.505c-10.616,0-19.253-8.637-19.253-19.253S39.385,5,50.001,5s19.253,8.636,19.253,19.252
				S60.617,43.505,50.001,43.505z M50.001,7.903c-9.016,0-16.35,7.334-16.35,16.349s7.334,16.35,16.35,16.35
				c9.017,0,16.351-7.335,16.351-16.35S59.018,7.903,50.001,7.903z"/>
		</g>
		<g>
			<path fill="#FFFFFF" d="M82.861,95H17.14c-0.802,0-1.452-0.65-1.452-1.451c0-24.913,15.393-45.182,34.313-45.182
				s34.313,20.269,34.313,45.182C84.314,94.35,83.664,95,82.861,95z M18.609,92.098h62.784
				C80.823,69.453,66.96,51.271,50.001,51.271S19.179,69.453,18.609,92.098z"/>
		</g>
	</g>
</g>
</svg>
