<?xml version="1.0" encoding="utf-8"?>
<!-- Generator: Adobe Illustrator 16.0.0, SVG Export Plug-In . SVG Version: 6.00 Build 0)  -->
<!DOCTYPE svg PUBLIC "-//W3C//DTD SVG 1.1//EN" "http://www.w3.org/Graphics/SVG/1.1/DTD/svg11.dtd">
<svg version="1.1" xmlns="http://www.w3.org/2000/svg" xmlns:xlink="http://www.w3.org/1999/xlink" x="0px" y="0px" width="100px"
	 height="100px" viewBox="0 0 100 100" enable-background="new 0 0 100 100" xml:space="preserve">
<g id="Layer_1">
	<g>
		<g>
			<path fill-rule="evenodd" clip-rule="evenodd" fill="#5A5A5A" d="M21.078,80.996h57.844V4.438H21.078V80.996z M74.996,75.801
				H25.004L50,42.717L25.004,9.633h49.992L50,42.717L74.996,75.801z"/>
		</g>
		<g>
			<polygon fill-rule="evenodd" clip-rule="evenodd" fill="#5A5A5A" points="79.045,83.781 20.955,83.781 11.043,95.562 
				88.957,95.562 			"/>
		</g>
		<g>
			<path fill-rule="evenodd" clip-rule="evenodd" fill="#5A5A5A" d="M53.361,16.609c-0.01,0-0.375-1.068-1.49-1.225
				c0.053-0.271,0.09-0.562,0.09-0.86c0-1.72-0.939-3.121-2.096-3.121s-2.094,1.393-2.094,3.114c0,0.297,0.035,0.575,0.088,0.849
				c-0.646,0.142-1.154,0.822-1.609,1.678c-2.199,4.499,1.291,9.308,1.156,14.158h5.014C52.156,26.353,56.064,21.329,53.361,16.609"
				/>
		</g>
		<g>
			<polygon fill-rule="evenodd" clip-rule="evenodd" fill="#5A5A5A" points="50,39.572 59.986,26.354 40.014,26.354 			"/>
		</g>
		<g>
			<path fill-rule="evenodd" clip-rule="evenodd" fill="#5A5A5A" d="M71.34,73.645c0,0-14.172-16.238-21.34-16.238
				c-7.602,0-21.344,16.238-21.344,16.238H71.34z"/>
		</g>
	</g>
</g>
<g id="icons">
</g>
</svg>
