<?xml version="1.0" encoding="utf-8"?>
<!-- Generator: Adobe Illustrator 16.0.0, SVG Export Plug-In . SVG Version: 6.00 Build 0)  -->
<!DOCTYPE svg PUBLIC "-//W3C//DTD SVG 1.1//EN" "http://www.w3.org/Graphics/SVG/1.1/DTD/svg11.dtd">
<svg version="1.1" id="Layer_1" xmlns="http://www.w3.org/2000/svg" xmlns:xlink="http://www.w3.org/1999/xlink" x="0px" y="0px"
	 width="100px" height="100px" viewBox="0 0 100 100" enable-background="new 0 0 100 100" xml:space="preserve">
<g id="Layer_1_1_">
</g>
<g id="icons">
	<g>
		<path fill="#FFFFFF" d="M84.012,65.322c0.018-0.025,0.027-0.055,0.043-0.08c0.032-0.057,0.064-0.109,0.09-0.169
			c0.019-0.042,0.026-0.087,0.041-0.13c0.016-0.047,0.031-0.092,0.041-0.143c0.021-0.096,0.03-0.193,0.03-0.293
			c-0.001-0.361-0.001-55.16-0.001-55.715C84.256,6.703,82.553,5,80.46,5h-0.008H19.549h-0.008c-2.093,0-3.796,1.703-3.796,3.795
			v82.41c0,2.092,1.703,3.795,3.796,3.795h0.008h34.217h0.008c0.099,0,0.193-0.011,0.287-0.029c0.045-0.009,0.088-0.025,0.131-0.039
			c0.047-0.015,0.098-0.023,0.143-0.043c0.044-0.02,0.083-0.046,0.125-0.068c0.042-0.021,0.085-0.041,0.125-0.066
			c0.032-0.021,0.061-0.049,0.09-0.072c0.043-0.033,0.09-0.063,0.127-0.104l29.03-29.032C83.896,65.477,83.957,65.4,84.012,65.322z
			 M55.225,90.036V66.861c0-0.493,0.399-0.896,0.893-0.896h23.176L55.225,90.036z M18.657,91.205V8.795
			c0-0.492,0.4-0.892,0.892-0.892h60.903c0.491,0,0.892,0.399,0.892,0.892l0.002,53.326c0,0.352,0,0.662,0,0.943H56.116h-0.009
			c-2.092,0-3.795,1.703-3.795,3.797v25.234H19.549C19.058,92.098,18.657,91.697,18.657,91.205z"/>
	</g>
</g>
</svg>
