<?xml version="1.0" encoding="utf-8"?>
<!-- Generator: Adobe Illustrator 16.0.0, SVG Export Plug-In . SVG Version: 6.00 Build 0)  -->
<!DOCTYPE svg PUBLIC "-//W3C//DTD SVG 1.1//EN" "http://www.w3.org/Graphics/SVG/1.1/DTD/svg11.dtd">
<svg version="1.1" id="Layer_1" xmlns="http://www.w3.org/2000/svg" xmlns:xlink="http://www.w3.org/1999/xlink" x="0px" y="0px"
	 width="100px" height="100px" viewBox="0 0 100 100" enable-background="new 0 0 100 100" xml:space="preserve">
<g id="Layer_1_1_">
</g>
<g id="icons">
	<g>
		<path fill="#FFFFFF" d="M75.816,49.106c-0.211-0.375-0.574-0.638-0.996-0.719L65.8,46.669l10.486-10.486
			c5.157,1.001,10.378-0.581,14.108-4.312c3.793-3.794,5.381-9.202,4.244-14.465c-0.111-0.521-0.498-0.936-1.009-1.086
			c-0.512-0.151-1.062-0.01-1.438,0.366l-5.403,5.406l-7.009-1.876l-1.877-7.006l5.404-5.404c0.377-0.375,0.519-0.927,0.366-1.437
			c-0.151-0.51-0.567-0.897-1.086-1.009c-5.264-1.134-10.67,0.452-14.463,4.245c-3.729,3.731-5.312,8.952-4.312,14.11L47.407,40.123
			l-3.828-3.828c-0.111-0.111-0.236-0.204-0.363-0.292c0.037-0.187,0.057-0.378,0.057-0.574c0-0.772-0.301-1.497-0.846-2.042
			L14.888,5.847c-1.09-1.089-2.992-1.09-4.084,0.001l-4.957,4.958c-1.125,1.125-1.126,2.958-0.001,4.084l27.539,27.537
			c0.545,0.546,1.271,0.847,2.042,0.847c0.194,0,0.385-0.019,0.571-0.056c0.09,0.125,0.184,0.25,0.296,0.362l3.828,3.828
			L6.278,81.252C5.465,82.062,5,83.129,5,84.174c0,0.855,0.314,1.641,0.884,2.209l7.732,7.733C14.189,94.689,14.978,95,15.829,95
			c0.151,0,0.303-0.01,0.458-0.029c0.897-0.115,1.772-0.559,2.463-1.248l27.918-27.92l1.718,9.021
			c0.08,0.422,0.343,0.785,0.719,0.994l34.054,18.998C83.38,94.939,83.623,95,83.865,95c0.375,0,0.746-0.146,1.025-0.426
			l9.682-9.682c0.459-0.459,0.558-1.166,0.242-1.732L75.816,49.106z M66.43,25.205c0.359-0.359,0.506-0.881,0.383-1.375
			c-1.092-4.421,0.168-8.972,3.371-12.173c2.402-2.403,5.602-3.72,8.924-3.753l-3.846,3.844c-0.367,0.367-0.51,0.901-0.375,1.402
			l2.309,8.626c0.136,0.501,0.525,0.893,1.027,1.026l8.627,2.31c0.502,0.136,1.035-0.008,1.401-0.375l3.847-3.846
			c-0.033,3.323-1.35,6.523-3.755,8.929c-3.2,3.201-7.751,4.462-12.173,3.367c-0.494-0.125-1.016,0.023-1.375,0.383L62.438,45.927
			c-0.023,0.026-0.035,0.062-0.06,0.09l-11.211-2.135l-1.707-1.706L66.43,25.205z M7.899,12.859l4.937-4.958L40.374,35.42
			l-0.863,0.863c-0.005,0.005-0.011,0.008-0.017,0.013l-3.201,3.201c-0.005,0.005-0.008,0.011-0.013,0.016l-0.854,0.854
			L7.899,12.859z M16.697,91.668c-0.235,0.234-0.52,0.391-0.781,0.423c-0.147,0.019-0.229-0.009-0.246-0.026L7.937,84.33
			c-0.016-0.016-0.033-0.072-0.033-0.156c0-0.213,0.112-0.555,0.427-0.869l33.844-33.843l1.706,1.706l2.13,11.188L16.697,91.668z
			 M83.613,91.746L51.111,73.613l-4.462-23.428c-0.055-0.286-0.194-0.549-0.4-0.754l-7.901-7.88l3.191-3.19l7.891,7.89
			c0.206,0.206,0.469,0.345,0.755,0.4l23.426,4.462l18.134,32.503L83.613,91.746z"/>
	</g>
</g>
</svg>
