<?xml version="1.0" encoding="utf-8"?>
<!-- Generator: Adobe Illustrator 16.0.0, SVG Export Plug-In . SVG Version: 6.00 Build 0)  -->
<!DOCTYPE svg PUBLIC "-//W3C//DTD SVG 1.1//EN" "http://www.w3.org/Graphics/SVG/1.1/DTD/svg11.dtd">
<svg version="1.1" id="Layer_1" xmlns="http://www.w3.org/2000/svg" xmlns:xlink="http://www.w3.org/1999/xlink" x="0px" y="0px"
	 width="100px" height="100px" viewBox="0 0 100 100" enable-background="new 0 0 100 100" xml:space="preserve">
<g id="Layer_1_1_">
</g>
<g id="icons">
	<g>
		<g>
			<g>
				<path fill="#FFFFFF" d="M50.482,7.812c0.07,0,0.142,0.01,0.209,0.011c3.844,0.083,10.359,1.722,13.592,7.531
					c3.88,6.976,1.85,17.151-6.199,30.969h13.489v8.428H54.488v37.437H46.06V54.751H28.429v-8.428h14.265
					C34.646,32.507,32.612,22.33,36.49,15.354c3.232-5.809,9.751-7.448,13.594-7.531c0.005,0,0.01,0,0.015,0
					c0.06,0,0.122,0.008,0.184,0.008c0.035,0,0.07-0.002,0.104-0.011C50.417,7.814,50.45,7.812,50.482,7.812 M50.387,42.788
					c8.97-15.148,7.66-21.268,6.552-23.3c-1.604-2.939-5.717-3.21-6.573-3.234c-0.876,0.029-4.938,0.317-6.529,3.234
					C42.728,21.52,41.416,27.639,50.387,42.788 M50.482,5c-0.098,0-0.194,0.004-0.29,0.012c-0.032-0.001-0.063-0.001-0.094-0.001
					c-0.023,0-0.062,0-0.085,0.001c-5.372,0.116-12.398,2.535-15.981,8.975c-3.98,7.161-2.711,16.848,3.895,29.524h-9.498
					c-1.553,0-2.812,1.259-2.812,2.812v8.428c0,1.554,1.26,2.812,2.812,2.812h14.819v34.625c0,1.554,1.26,2.812,2.812,2.812h8.428
					c1.554,0,2.812-1.26,2.812-2.812V57.562H71.57c1.554,0,2.812-1.258,2.812-2.812v-8.428c0-1.553-1.26-2.812-2.812-2.812H62.85
					c6.605-12.676,7.873-22.362,3.892-29.524C63.169,7.564,56.172,5.14,50.797,5.012C50.684,5.004,50.582,5,50.482,5L50.482,5z
					 M50.387,37.02c-2.295-4.401-3.732-8.187-4.286-11.293c-0.562-3.159,0.015-4.543,0.204-4.893
					c0.699-1.282,2.845-1.709,4.067-1.766c1.157,0.049,3.392,0.471,4.097,1.767c0.19,0.349,0.768,1.733,0.204,4.892
					C54.12,28.833,52.682,32.618,50.387,37.02L50.387,37.02z"/>
			</g>
		</g>
	</g>
</g>
</svg>
