<?xml version="1.0" encoding="utf-8"?>
<!-- Generator: Adobe Illustrator 16.0.0, SVG Export Plug-In . SVG Version: 6.00 Build 0)  -->
<!DOCTYPE svg PUBLIC "-//W3C//DTD SVG 1.1//EN" "http://www.w3.org/Graphics/SVG/1.1/DTD/svg11.dtd">
<svg version="1.1" id="Layer_1" xmlns="http://www.w3.org/2000/svg" xmlns:xlink="http://www.w3.org/1999/xlink" x="0px" y="0px"
	 width="100px" height="100px" viewBox="0 0 100 100" enable-background="new 0 0 100 100" xml:space="preserve">
<g id="Layer_1_1_">
</g>
<g id="icons">
	<g>
		<path fill="#FFFFFF" d="M79.033,17.811h-2.707V6.452C76.326,5.65,75.676,5,74.875,5c-0.803,0-1.452,0.65-1.452,1.452v11.359
			H27.701V6.452C27.701,5.65,27.051,5,26.249,5c-0.802,0-1.452,0.65-1.452,1.452v11.359h-3.83c-6.299,0-11.424,5.125-11.424,11.425
			v64.312c0,0.802,0.649,1.451,1.452,1.451h78.012c0.802,0,1.452-0.649,1.452-1.451V29.236
			C90.459,22.937,85.334,17.811,79.033,17.811z M20.967,20.714h3.83v6.444c0,0.802,0.65,1.452,1.452,1.452
			c0.802,0,1.452-0.649,1.452-1.452v-6.444h45.722v6.444c0,0.802,0.649,1.452,1.452,1.452c0.801,0,1.451-0.649,1.451-1.452v-6.444
			h2.707c4.699,0,8.521,3.823,8.521,8.522v4.44H12.447v-4.44C12.447,24.537,16.269,20.714,20.967,20.714z M12.447,92.098V36.58
			h75.108v55.518H12.447L12.447,92.098z"/>
		<path fill="#FFFFFF" d="M46.004,50.561c-0.758-0.743-1.655-1.315-2.69-1.728c-1.032-0.407-2.163-0.612-3.386-0.612
			c-1.225,0-2.352,0.205-3.387,0.612c-1.035,0.41-1.931,0.984-2.689,1.728c-0.758,0.744-1.356,1.648-1.793,2.711
			c-0.438,1.063-0.655,2.237-0.655,3.52v14.516c0,1.282,0.218,2.454,0.655,3.52c0.438,1.064,1.036,1.967,1.793,2.71
			c0.758,0.741,1.654,1.317,2.689,1.726c1.036,0.41,2.162,0.611,3.387,0.611c1.223,0,2.354-0.201,3.386-0.611
			c1.035-0.406,1.932-0.982,2.69-1.726c0.758-0.743,1.355-1.646,1.792-2.71c0.438-1.062,0.655-2.235,0.655-3.52V56.789
			c0-1.28-0.217-2.454-0.655-3.518C47.359,52.209,46.762,51.305,46.004,50.561z M45.307,71.128c0,1.72-0.459,3.142-1.377,4.261
			c-0.922,1.123-2.253,1.688-4.002,1.688c-1.747,0-3.082-0.562-4-1.688c-0.918-1.119-1.376-2.541-1.376-4.261V56.966
			c0-1.721,0.458-3.142,1.376-4.264c0.917-1.121,2.253-1.685,4-1.685c1.749,0,3.08,0.562,4.002,1.685
			c0.918,1.122,1.377,2.543,1.377,4.264V71.128z"/>
		<polygon fill="#FFFFFF" points="56.801,53.511 56.801,57.096 62.613,51.982 62.613,79.609 65.762,79.609 65.762,48.484 
			62.613,48.484 		"/>
	</g>
</g>
</svg>
