<?xml version="1.0" encoding="utf-8"?>
<!-- Generator: Adobe Illustrator 16.0.0, SVG Export Plug-In . SVG Version: 6.00 Build 0)  -->
<!DOCTYPE svg PUBLIC "-//W3C//DTD SVG 1.1//EN" "http://www.w3.org/Graphics/SVG/1.1/DTD/svg11.dtd">
<svg version="1.1" id="Layer_1" xmlns="http://www.w3.org/2000/svg" xmlns:xlink="http://www.w3.org/1999/xlink" x="0px" y="0px"
	 width="100px" height="100px" viewBox="0 0 100 100" enable-background="new 0 0 100 100" xml:space="preserve">
<g id="Layer_1_1_">
</g>
<g id="icons">
	<path fill="#FFFFFF" d="M76.551,26.812v-8.518h4.221c2.166,0,3.862-1.43,3.862-3.255V8.255C84.634,6.43,82.938,5,80.771,5H19.231
		c-2.166,0-3.863,1.43-3.863,3.255v6.784c0,1.825,1.697,3.255,3.863,3.255h4.219v8.518c0,0.399,0.165,0.78,0.454,1.054l24.03,22.745
		L23.9,73.529c-0.287,0.271-0.45,0.652-0.45,1.05v7.127h-4.219c-2.166,0-3.863,1.431-3.863,3.255v6.784
		c0,1.825,1.697,3.255,3.863,3.255H80.77c2.166,0,3.863-1.43,3.863-3.255v-6.784c0-1.824-1.697-3.255-3.863-3.255h-4.22v-7.127
		c0-0.397-0.163-0.776-0.45-1.05L52.066,50.611l24.029-22.745C76.387,27.592,76.551,27.211,76.551,26.812z M18.271,15.04
		l-0.003-6.762c0.039-0.106,0.384-0.374,0.963-0.374H80.77c0.58,0,0.924,0.268,0.961,0.352l0.002,6.762
		c-0.039,0.106-0.383,0.374-0.963,0.374H19.231C18.651,15.392,18.308,15.124,18.271,15.04z M81.73,84.961l0.002,6.762
		c-0.039,0.106-0.383,0.375-0.963,0.375H19.231c-0.579,0-0.924-0.269-0.96-0.353l-0.003-6.763c0.039-0.105,0.384-0.373,0.963-0.373
		H80.77C81.35,84.609,81.693,84.877,81.73,84.961z M73.646,81.706H26.354v-6.505L50,52.654l23.646,22.547V81.706z M50,48.57
		L26.354,26.188v-7.893h47.294v7.893L50,48.57z"/>
</g>
</svg>
