<?xml version="1.0" encoding="utf-8"?>
<!-- Generator: Adobe Illustrator 16.0.0, SVG Export Plug-In . SVG Version: 6.00 Build 0)  -->
<!DOCTYPE svg PUBLIC "-//W3C//DTD SVG 1.1//EN" "http://www.w3.org/Graphics/SVG/1.1/DTD/svg11.dtd">
<svg version="1.1" id="Layer_1" xmlns="http://www.w3.org/2000/svg" xmlns:xlink="http://www.w3.org/1999/xlink" x="0px" y="0px"
	 width="100px" height="100px" viewBox="0 0 100 100" enable-background="new 0 0 100 100" xml:space="preserve">
<g id="Layer_1_1_">
</g>
<g id="icons">
	<g>
		<path fill="#FFFFFF" d="M94.436,92.391L7.47,5.425c-0.415-0.414-1.039-0.54-1.582-0.314C5.345,5.335,4.991,5.864,4.991,6.452
			v87.097C4.991,94.35,5.642,95,6.443,95h87.096c0.007,0,0.013,0,0.02,0c0.803,0,1.453-0.65,1.453-1.451
			C95.012,93.075,94.784,92.656,94.436,92.391z M7.895,92.098V9.956l9.002,9.001l-2.909,2.913c-0.566,0.567-0.565,1.486,0.002,2.053
			c0.283,0.283,0.654,0.424,1.025,0.424c0.372,0,0.744-0.142,1.027-0.425l2.907-2.911l5.778,5.778l-2.914,2.91
			c-0.566,0.566-0.567,1.486-0.001,2.053c0.283,0.284,0.655,0.426,1.027,0.426c0.371,0,0.742-0.142,1.025-0.424l2.915-2.911
			l5.773,5.773l-2.914,2.908c-0.567,0.566-0.568,1.485-0.003,2.053c0.284,0.284,0.656,0.426,1.028,0.426
			c0.371,0,0.742-0.142,1.025-0.424l2.917-2.91l5.773,5.774l-2.909,2.912c-0.565,0.567-0.565,1.487,0.002,2.053
			c0.283,0.283,0.654,0.424,1.025,0.424c0.372,0,0.744-0.142,1.027-0.426l2.908-2.911l5.777,5.777l-2.913,2.912
			c-0.567,0.565-0.567,1.484-0.002,2.053c0.284,0.283,0.655,0.427,1.027,0.427c0.372,0,0.742-0.144,1.026-0.427l2.914-2.909
			l5.776,5.774l-2.909,2.912c-0.566,0.566-0.564,1.486,0.001,2.053c0.284,0.283,0.654,0.427,1.026,0.427
			c0.371,0,0.742-0.144,1.027-0.427l2.905-2.912l5.776,5.777l-2.912,2.91c-0.564,0.566-0.567,1.485-0.001,2.053
			c0.282,0.285,0.653,0.426,1.026,0.426c0.371,0,0.742-0.141,1.024-0.424l2.915-2.91l5.773,5.772l-2.914,2.907
			c-0.568,0.566-0.569,1.484-0.004,2.055c0.283,0.282,0.655,0.426,1.027,0.426c0.37,0,0.741-0.142,1.025-0.424l2.916-2.91
			l5.773,5.772l-2.91,2.913c-0.564,0.566-0.563,1.486,0.002,2.053c0.283,0.283,0.654,0.426,1.025,0.426
			c0.372,0,0.744-0.144,1.027-0.427l2.906-2.911l8.457,8.457H7.895V92.098z"/>
		<path fill="#FFFFFF" d="M63.919,79.523L20.502,36.107c-0.415-0.415-1.038-0.542-1.582-0.315c-0.543,0.225-0.896,0.754-0.896,1.341
			v43.549c0,0.803,0.65,1.451,1.452,1.451h43.547c0.008,0,0.014,0,0.021,0c0.802,0,1.451-0.648,1.451-1.451
			C64.494,80.209,64.27,79.789,63.919,79.523z M20.927,79.229V40.637L59.52,79.229H20.927z"/>
	</g>
</g>
</svg>
