<?xml version="1.0" encoding="utf-8"?>
<!-- Generator: Adobe Illustrator 16.0.0, SVG Export Plug-In . SVG Version: 6.00 Build 0)  -->
<!DOCTYPE svg PUBLIC "-//W3C//DTD SVG 1.1//EN" "http://www.w3.org/Graphics/SVG/1.1/DTD/svg11.dtd">
<svg version="1.1" xmlns="http://www.w3.org/2000/svg" xmlns:xlink="http://www.w3.org/1999/xlink" x="0px" y="0px" width="100px"
	 height="100px" viewBox="0 0 100 100" enable-background="new 0 0 100 100" xml:space="preserve">
<g id="Layer_1">
	<g>
		<g>
			<rect x="12.118" y="91.811" fill="#5A5A5A" width="3.79" height="3.787"/>
		</g>
		<g>
			<rect x="82.828" y="91.811" fill="#5A5A5A" width="3.789" height="3.787"/>
		</g>
		<g>
			<path fill="#5A5A5A" d="M14.646,52.669h70.707v-3.788H60.728c-3.768-1.263-7.908-4.024-14.208-4.024l0.298,0.041
				c-1.214,0-3.131,0.119-3.131,0.256v-4.727c0-0.642-1.111-1.646-1.753-1.646h-5.822v-9.565L47.58,13.022l9.434,12.477
				l-2.731,5.556l-0.919,1.266l-1.309,3.188l0.624,0.457l2.678-2.179l0.944-1.263l5.09-4.649c0.15-0.058,0.299-0.118,0.443-0.202
				l0.346-0.201c1.355-0.784,1.82-2.519,1.039-3.872L50.251,6.263c-0.025-0.044-0.06-0.078-0.086-0.121
				c-0.011-0.015-0.021-0.023-0.028-0.036c-0.101-0.154-0.214-0.293-0.342-0.42c-0.01-0.01-0.019-0.022-0.027-0.031l-0.32-0.317
				C48.2,4.088,46.08,3.984,44.691,5.679l-13.78,19.389c-1.905,0.33-3.639,1.989-3.639,3.987v9.726h-4.863
				c-0.64,0-1.45,1.005-1.45,1.646v5.696c-2.524,0.665-4.304,1.611-6.312,2.561V52.669z"/>
		</g>
		<g>
			<polygon fill="#5A5A5A" points="87.88,17.315 87.88,55.195 12.12,55.195 12.12,17.315 8.332,17.315 8.332,49.048 8.332,90.582 
				8.332,90.549 91.668,90.549 91.668,90.582 91.668,49.048 91.668,17.315 			"/>
		</g>
		<g>
			<rect x="12.12" y="17.315" fill="#5A5A5A" width="75.76" height="2.525"/>
		</g>
	</g>
</g>
<g id="icons">
</g>
</svg>
