<?xml version="1.0" encoding="utf-8"?>
<!-- Generator: Adobe Illustrator 16.0.0, SVG Export Plug-In . SVG Version: 6.00 Build 0)  -->
<!DOCTYPE svg PUBLIC "-//W3C//DTD SVG 1.1//EN" "http://www.w3.org/Graphics/SVG/1.1/DTD/svg11.dtd">
<svg version="1.1" id="Layer_1" xmlns="http://www.w3.org/2000/svg" xmlns:xlink="http://www.w3.org/1999/xlink" x="0px" y="0px"
	 width="100px" height="100px" viewBox="0 0 100 100" enable-background="new 0 0 100 100" xml:space="preserve">
<g id="Layer_1_1_">
</g>
<g id="icons">
	<g>
		<path fill="#FFFFFF" d="M96.493,93.01C95.162,87.001,76.514,5,50.916,5C24.934,5,4.312,89.607,3.445,93.209
			c-0.103,0.434-0.004,0.889,0.272,1.238C3.993,94.796,4.412,95,4.857,95h90.268c0.008,0.001,0.016,0.001,0.02,0
			c0.804,0,1.451-0.65,1.451-1.452C96.596,93.357,96.561,93.176,96.493,93.01z M6.707,92.098
			C12.938,67.021,31.706,7.903,50.916,7.903c19.191,0,36.705,59.143,42.396,84.193H6.707V92.098z"/>
		<circle fill="#FFFFFF" cx="50.298" cy="85.015" r="1.088"/>
		<circle fill="#FFFFFF" cx="50.298" cy="77.177" r="1.089"/>
		<circle fill="#FFFFFF" cx="50.298" cy="69.339" r="1.089"/>
		<circle fill="#FFFFFF" cx="50.298" cy="61.5" r="1.088"/>
		<circle fill="#FFFFFF" cx="50.298" cy="53.66" r="1.089"/>
		<circle fill="#FFFFFF" cx="50.298" cy="45.822" r="1.089"/>
		<circle fill="#FFFFFF" cx="50.298" cy="37.983" r="1.089"/>
		<circle fill="#FFFFFF" cx="50.298" cy="30.146" r="1.089"/>
		<circle fill="#FFFFFF" cx="50.298" cy="22.306" r="1.088"/>
		<circle fill="#FFFFFF" cx="50.298" cy="14.467" r="1.089"/>
		<circle fill="#FFFFFF" cx="32.003" cy="85.024" r="1.089"/>
		<circle fill="#FFFFFF" cx="32.003" cy="77.187" r="1.089"/>
		<circle fill="#FFFFFF" cx="32.003" cy="69.347" r="1.088"/>
		<circle fill="#FFFFFF" cx="32.003" cy="61.509" r="1.089"/>
		<circle fill="#FFFFFF" cx="32.003" cy="53.67" r="1.089"/>
		<circle fill="#FFFFFF" cx="32.003" cy="45.832" r="1.088"/>
		<circle fill="#FFFFFF" cx="32.003" cy="37.992" r="1.089"/>
		<circle fill="#FFFFFF" cx="32.003" cy="30.154" r="1.088"/>
		<circle fill="#FFFFFF" cx="13.707" cy="85.024" r="1.089"/>
		<circle fill="#FFFFFF" cx="13.707" cy="77.187" r="1.089"/>
		<circle fill="#FFFFFF" cx="41.151" cy="88.913" r="1.088"/>
		<circle fill="#FFFFFF" cx="41.151" cy="81.074" r="1.089"/>
		<circle fill="#FFFFFF" cx="41.151" cy="73.235" r="1.089"/>
		<circle fill="#FFFFFF" cx="41.151" cy="65.396" r="1.089"/>
		<circle fill="#FFFFFF" cx="41.151" cy="57.558" r="1.089"/>
		<circle fill="#FFFFFF" cx="41.151" cy="49.719" r="1.088"/>
		<circle fill="#FFFFFF" cx="41.151" cy="41.881" r="1.089"/>
		<circle fill="#FFFFFF" cx="41.151" cy="34.042" r="1.089"/>
		<circle fill="#FFFFFF" cx="41.151" cy="26.204" r="1.088"/>
		<circle fill="#FFFFFF" cx="41.151" cy="18.364" r="1.089"/>
		<circle fill="#FFFFFF" cx="22.855" cy="88.913" r="1.088"/>
		<circle fill="#FFFFFF" cx="22.855" cy="81.074" r="1.089"/>
		<circle fill="#FFFFFF" cx="22.855" cy="73.235" r="1.089"/>
		<circle fill="#FFFFFF" cx="22.855" cy="65.396" r="1.089"/>
		<circle fill="#FFFFFF" cx="22.855" cy="57.558" r="1.089"/>
		<circle fill="#FFFFFF" cx="22.855" cy="49.719" r="1.088"/>
		<circle fill="#FFFFFF" cx="68.592" cy="85.024" r="1.089"/>
		<circle fill="#FFFFFF" cx="68.592" cy="77.187" r="1.089"/>
		<circle fill="#FFFFFF" cx="68.592" cy="69.347" r="1.088"/>
		<circle fill="#FFFFFF" cx="68.592" cy="61.509" r="1.089"/>
		<circle fill="#FFFFFF" cx="68.592" cy="53.67" r="1.089"/>
		<circle fill="#FFFFFF" cx="68.592" cy="45.832" r="1.088"/>
		<circle fill="#FFFFFF" cx="68.592" cy="37.992" r="1.089"/>
		<circle fill="#FFFFFF" cx="68.592" cy="30.154" r="1.088"/>
		<circle fill="#FFFFFF" cx="86.889" cy="85.024" r="1.089"/>
		<circle fill="#FFFFFF" cx="86.889" cy="77.187" r="1.089"/>
		<circle fill="#FFFFFF" cx="59.445" cy="88.913" r="1.088"/>
		<circle fill="#FFFFFF" cx="59.445" cy="81.074" r="1.089"/>
		<circle fill="#FFFFFF" cx="59.445" cy="73.235" r="1.089"/>
		<circle fill="#FFFFFF" cx="59.445" cy="65.396" r="1.089"/>
		<circle fill="#FFFFFF" cx="59.445" cy="57.558" r="1.089"/>
		<circle fill="#FFFFFF" cx="59.445" cy="49.719" r="1.088"/>
		<circle fill="#FFFFFF" cx="59.445" cy="41.881" r="1.089"/>
		<circle fill="#FFFFFF" cx="59.445" cy="34.042" r="1.089"/>
		<circle fill="#FFFFFF" cx="59.445" cy="26.204" r="1.088"/>
		<circle fill="#FFFFFF" cx="59.445" cy="18.364" r="1.089"/>
		<circle fill="#FFFFFF" cx="77.74" cy="88.913" r="1.088"/>
		<circle fill="#FFFFFF" cx="77.74" cy="81.074" r="1.089"/>
		<circle fill="#FFFFFF" cx="77.74" cy="73.235" r="1.089"/>
		<circle fill="#FFFFFF" cx="77.74" cy="65.396" r="1.089"/>
		<circle fill="#FFFFFF" cx="77.74" cy="57.558" r="1.089"/>
		<circle fill="#FFFFFF" cx="77.74" cy="49.719" r="1.088"/>
	</g>
</g>
</svg>
