<?xml version="1.0" encoding="utf-8"?>
<!-- Generator: Adobe Illustrator 16.0.0, SVG Export Plug-In . SVG Version: 6.00 Build 0)  -->
<!DOCTYPE svg PUBLIC "-//W3C//DTD SVG 1.1//EN" "http://www.w3.org/Graphics/SVG/1.1/DTD/svg11.dtd">
<svg version="1.1" id="Layer_1" xmlns="http://www.w3.org/2000/svg" xmlns:xlink="http://www.w3.org/1999/xlink" x="0px" y="0px"
	 width="100px" height="100px" viewBox="0 0 100 100" enable-background="new 0 0 100 100" xml:space="preserve">
<g id="Layer_1_1_">
</g>
<g id="icons">
	<g>
		<path fill="#FFFFFF" d="M87.283,82.484h-1.215V31.387h3.406c0.008,0,0.014,0,0.018,0c0.803,0,1.453-0.65,1.453-1.452
			c0-0.592-0.355-1.101-0.863-1.328L50.742,5.204c-0.457-0.272-1.025-0.272-1.482,0L9.783,28.688
			c-0.562,0.334-0.83,1.002-0.656,1.632c0.172,0.63,0.746,1.067,1.398,1.067h3.406v51.097h-1.213c-2.064,0-3.682,1.371-3.682,3.121
			v6.273c0,1.749,1.617,3.119,3.682,3.119h74.564c2.063,0,3.682-1.37,3.682-3.119v-6.273C90.965,83.855,89.348,82.484,87.283,82.484
			z M78.471,82.458V31.694h4.695v50.764H78.471z M75.568,82.484H65.523V31.387h10.045V82.484z M37.379,31.694h4.695v50.764h-4.695
			V31.694z M44.979,31.387h10.042v51.097H44.979V31.387z M62.621,82.458h-4.697V31.694h4.697V82.458z M50,8.141l34.195,20.343
			h-68.39L50,8.141z M21.529,31.694v50.764h-4.693V31.694H21.529z M24.434,31.387h10.043v51.097H24.434V31.387z M87.283,92.098
			H12.719c-0.482,0-0.752-0.211-0.779-0.217l-0.014-6.209c0.041-0.072,0.311-0.283,0.793-0.283h74.564
			c0.48,0,0.752,0.211,0.779,0.217l0.014,6.211C88.035,91.887,87.764,92.098,87.283,92.098z"/>
		<path fill="#FFFFFF" d="M50,12.336c-3.908,0-7.09,3.181-7.09,7.091c0,3.91,3.182,7.091,7.09,7.091c3.91,0,7.09-3.181,7.09-7.091
			C57.09,15.517,53.91,12.336,50,12.336z M50,23.615c-2.309,0-4.186-1.878-4.186-4.188c0-2.309,1.877-4.188,4.186-4.188
			c2.311,0,4.188,1.878,4.188,4.188C54.188,21.737,52.311,23.615,50,23.615z"/>
	</g>
</g>
</svg>
