<?xml version="1.0" encoding="utf-8"?>
<!-- Generator: Adobe Illustrator 16.0.0, SVG Export Plug-In . SVG Version: 6.00 Build 0)  -->
<!DOCTYPE svg PUBLIC "-//W3C//DTD SVG 1.1//EN" "http://www.w3.org/Graphics/SVG/1.1/DTD/svg11.dtd">
<svg version="1.1" xmlns="http://www.w3.org/2000/svg" xmlns:xlink="http://www.w3.org/1999/xlink" x="0px" y="0px" width="100px"
	 height="100px" viewBox="0 0 100 100" enable-background="new 0 0 100 100" xml:space="preserve">
<g id="Layer_1">
	<g>
		<g>
			<path fill="#5A5A5A" d="M44.144,55.061c-12.352-12.353-12.352-32.449-0.001-44.799c12.35-12.351,32.445-12.349,44.796,0.003
				c12.351,12.35,12.354,32.446,0.004,44.797C76.591,67.41,56.494,67.41,44.144,55.061z M85.671,13.533
				C75.123,2.984,57.961,2.983,47.413,13.531c-10.547,10.547-10.547,27.71,0,38.259c10.548,10.548,27.712,10.548,38.259,0
				C96.22,41.243,96.219,24.08,85.671,13.533z"/>
		</g>
		<g>
			<path fill="#5A5A5A" d="M48.569,50.635c-9.912-9.912-9.912-26.039-0.002-35.949c9.91-9.911,26.038-9.911,35.949,0
				c9.912,9.912,9.912,26.039,0.001,35.95C74.606,60.547,58.48,60.547,48.569,50.635z M82.587,16.617
				c-8.848-8.848-23.241-8.847-32.088,0c-8.847,8.846-8.847,23.241,0,32.088s23.242,8.846,32.088,0
				C91.434,39.858,91.434,25.464,82.587,16.617z"/>
		</g>
		<g>
			<path fill="#5A5A5A" d="M36.789,56.261C27.137,70.215,11.982,77.646,1.85,90.443c-1.146,1.521-1.161,4.171,0.128,5.46
				l0.625,0.625c1.282,1.281,4.244,1.58,5.773,0.441c12.799-10.135,20.228-25.288,34.182-34.94L36.789,56.261z"/>
		</g>
		<g>
			<path fill="#5A5A5A" d="M48.072,60.817c1.15-1.149,1.148-3.018-0.002-4.168l-5.819-5.819c-1.151-1.151-3.017-1.151-4.168,0
				l-0.37,0.371c-1.154,1.153-1.151,3.017,0,4.168l5.818,5.818c1.15,1.15,3.016,1.155,4.169,0.002L48.072,60.817z"/>
		</g>
	</g>
</g>
<g id="Isolation_Mode">
	<g>
		<g>
			<path fill="#5A5A5A" d="M55.117,22.588c-0.728,0.419-1.13,0.777-1.193,0.844l1.51,1.161c1.339-0.753,2.825-1.08,4.444-1.388
				c3.49-0.655,6.962,0.056,10.324,2.79h9.99l-0.018-2.589l-9.988-0.093C63.095,18.939,57.467,21.152,55.117,22.588"/>
		</g>
		<g>
			<path fill="#5A5A5A" d="M78.236,39.24c-0.901,1.727-2.031,2.639-3.447,2.785c-0.156,0.017-0.307,0.026-0.464,0.026
				c-4.465,0-10.652-6.382-12.724-8.929l-0.939-1.158c3.657-0.374,6.385-1.221,8.197-2.34l11.359-0.042l-0.017-2.22H69.621
				l-0.242-0.171c-3.015-2.154-6.104-2.952-9.165-2.376c-4.845,0.913-8.5,4.997-10.002,6.939c1.555,0.003,4.001,0.005,6.017,0.005
				c1.33,0,2.007,0,2.007-0.005v13.379h3.994v-7.148c0,0.712,1.386,1.498,2.289,2.272c3.751,3.237,6.957,4.875,9.818,4.875h0.002
				c0.253,0,0.504-0.02,0.747-0.042c2.454-0.257,4.4-1.737,5.788-4.396L78.236,39.24z M59.081,28.318
				c0-0.789,0.624-1.429,1.393-1.429s1.39,0.641,1.39,1.429c0,0.788-0.621,1.431-1.39,1.431S59.081,29.105,59.081,28.318"/>
		</g>
	</g>
</g>
</svg>
