<?xml version="1.0" encoding="utf-8"?>
<!-- Generator: Adobe Illustrator 16.0.0, SVG Export Plug-In . SVG Version: 6.00 Build 0)  -->
<!DOCTYPE svg PUBLIC "-//W3C//DTD SVG 1.1//EN" "http://www.w3.org/Graphics/SVG/1.1/DTD/svg11.dtd">
<svg version="1.1" id="Layer_1" xmlns="http://www.w3.org/2000/svg" xmlns:xlink="http://www.w3.org/1999/xlink" x="0px" y="0px"
	 width="100px" height="100px" viewBox="0 0 100 100" enable-background="new 0 0 100 100" xml:space="preserve">
<g id="Layer_1_1_">
</g>
<g id="icons">
	<g>
		<path fill="#FFFFFF" d="M85.875,70.371c0.039-0.068,0.068-0.127,0.098-0.195c0.01-0.02,0.021-0.039,0.029-0.059
			c0.029-0.078,0.059-0.146,0.068-0.225c0.01-0.021,0.02-0.029,0.02-0.051c0.02-0.098,0.029-0.203,0.029-0.303
			c0-0.818,0-45.576,0-46.025c0-1.875-1.523-3.389-3.389-3.389H71.002V8.389C71.002,6.523,69.488,5,67.613,5h-0.01H17.281h-0.01
			c-1.865,0-3.389,1.523-3.389,3.389v68.095c0,1.875,1.523,3.39,3.389,3.39h0.01H29.01v11.737c0,1.865,1.514,3.39,3.389,3.39H60.68
			c0.088,0,0.188-0.01,0.283-0.028c0.059-0.011,0.117-0.029,0.176-0.06c0.029-0.011,0.068-0.011,0.098-0.021
			c0.061-0.028,0.117-0.067,0.178-0.099c0.021-0.021,0.049-0.028,0.066-0.039c0.078-0.06,0.156-0.116,0.227-0.187L85.7,70.586
			c0.059-0.059,0.106-0.127,0.155-0.195C85.855,70.381,85.865,70.371,85.875,70.371z M62.125,71.494
			c0-0.264,0.225-0.488,0.488-0.488h18.555L62.125,90.049V71.494z M47.018,74.912V56.367c0-0.264,0.215-0.479,0.479-0.479h18.545
			L47.018,74.912z M16.793,76.484V8.389c0-0.264,0.225-0.488,0.488-0.488h50.322c0.271,0,0.486,0.225,0.486,0.488v44.6H47.496l0,0
			c-1.875,0-3.398,1.514-3.398,3.379v20.604H17.281C17.018,76.973,16.793,76.758,16.793,76.484z M31.91,91.611V79.873h13.643h0.01
			c0.098,0,0.195-0.01,0.283-0.029c0.068-0.01,0.127-0.029,0.186-0.049c0.029-0.01,0.059-0.02,0.088-0.029
			c0.059-0.029,0.117-0.059,0.176-0.098c0.029-0.01,0.049-0.02,0.078-0.039c0.078-0.049,0.146-0.107,0.215-0.176l23.984-23.984
			c0.067-0.068,0.137-0.146,0.186-0.225c0-0.01,0.011-0.01,0.011-0.01c0.049-0.078,0.088-0.156,0.127-0.244
			c0-0.01,0.011-0.029,0.011-0.039c0.028-0.078,0.059-0.156,0.067-0.234c0.021-0.068,0.021-0.146,0.028-0.225
			c0-0.02,0-0.039,0-0.059l0,0l0,0V23.027H82.73c0.264,0,0.486,0.215,0.486,0.488v44.062c0,0.187,0,0.353,0,0.526H62.613h-0.01
			c-1.865,0-3.391,1.522-3.391,3.39V92.1H32.398C32.125,92.1,31.91,91.875,31.91,91.611z"/>
	</g>
</g>
</svg>
