<?xml version="1.0" encoding="utf-8"?>
<!-- Generator: Adobe Illustrator 16.0.0, SVG Export Plug-In . SVG Version: 6.00 Build 0)  -->
<!DOCTYPE svg PUBLIC "-//W3C//DTD SVG 1.1//EN" "http://www.w3.org/Graphics/SVG/1.1/DTD/svg11.dtd">
<svg version="1.1" id="Layer_1" xmlns="http://www.w3.org/2000/svg" xmlns:xlink="http://www.w3.org/1999/xlink" x="0px" y="0px"
	 width="100px" height="100px" viewBox="0 0 100 100" enable-background="new 0 0 100 100" xml:space="preserve">
<g id="Layer_1_1_">
</g>
<g id="icons">
	<g>
		<path fill="#FFFFFF" d="M93.367,90.291l-6.148-6.732h4.07c1.02,0,1.958-0.551,2.455-1.438s0.475-1.979-0.059-2.847
			C93.578,79.1,82.775,61.553,69.67,43.877C51.464,19.313,38.169,6.707,29.027,5.336C27.54,5.112,26.093,5,24.729,5
			c-9.756,0-14.394,5.565-16.565,10.235C5.925,20.048,5.9,24.829,5.9,25.031c0,0.934,0.463,1.806,1.236,2.329
			c0.472,0.319,1.022,0.483,1.576,0.483c0.353,0,0.708-0.067,1.046-0.202l4.602-1.844l1.782,3.188
			c-5.472,6.827,0.959,19.288,1.997,21.191l8.966,19.35l-3.298,11.219h-7.431c-1.553,0-2.812,1.259-2.812,2.812v5.971
			c0,1.554,1.259,2.812,2.812,2.812h29.932c1.553,0,2.812-1.259,2.812-2.812v-5.971c0-1.555-1.259-2.812-2.812-2.812h-2.946v-4.148
			h7.137c1.479,0,2.692-1.144,2.803-2.594L73.9,94.195C74.426,94.712,75.133,95,75.869,95h15.42c1.115,0,2.124-0.658,2.574-1.677
			C94.312,92.303,94.118,91.113,93.367,90.291z M75.869,92.188l-2.391-2.344c-0.063-0.191-0.16-0.373-0.31-0.529L29.954,43.923
			c-0.535-0.562-1.427-0.583-1.988-0.049c-0.562,0.536-0.584,1.426-0.049,1.988l22.581,23.716v4.204h-9.949v9.774h5.759v5.969
			H16.375v-5.969h9.535l4.191-14.255L20.65,48.909c0,0-7.959-14.427-0.995-19.401l-2.924-5.233c8.942-2.181,9.497-6.757,9.531-7.29
			c0.037-0.603-0.313-1.161-0.871-1.39c-0.874-0.357-1.758-0.539-2.631-0.539c-5.58,0-8.591,7.254-8.717,7.562
			c-0.041,0.1-0.062,0.204-0.079,0.309l-5.252,2.104c0,0,0-17.219,16.017-17.219c1.201,0,2.493,0.097,3.881,0.305
			c19.898,2.984,62.679,72.628,62.679,72.628H80.842l10.447,11.442H75.869L75.869,92.188z M18.233,20.904
			c1.073-1.495,2.638-3.036,4.527-3.036c0.052,0,0.105,0.001,0.158,0.004C22.299,18.728,20.989,19.926,18.233,20.904z"/>
	</g>
</g>
</svg>
