<?xml version="1.0" encoding="utf-8"?>
<!-- Generator: Adobe Illustrator 16.0.0, SVG Export Plug-In . SVG Version: 6.00 Build 0)  -->
<!DOCTYPE svg PUBLIC "-//W3C//DTD SVG 1.1//EN" "http://www.w3.org/Graphics/SVG/1.1/DTD/svg11.dtd">
<svg version="1.1" id="Layer_1" xmlns="http://www.w3.org/2000/svg" xmlns:xlink="http://www.w3.org/1999/xlink" x="0px" y="0px"
	 width="231px" height="231px" viewBox="0 0 231 231" enable-background="new 0 0 231 231" xml:space="preserve">
<g id="Layer_1_1_">
	<g>
		<path fill="#FFFFFF" d="M182.917,67.829h-3c0-16.835-6.735-32.728-18.965-44.75C148.766,11.099,132.724,4.5,115.781,4.5
			c-16.943,0-32.984,6.599-45.171,18.579c-12.229,12.022-18.963,27.915-18.963,44.75h-3c0-17.646,7.053-34.298,19.86-46.89
			C81.259,8.404,98.047,1.5,115.781,1.5c17.734,0,34.523,6.904,47.274,19.439C175.863,33.531,182.917,50.184,182.917,67.829z"/>
	</g>
	<g>
		<polygon fill="#FFFFFF" points="182.917,224.5 48.647,224.5 48.647,157.335 51.647,157.335 51.647,221.5 179.917,221.5 
			179.917,157.335 182.917,157.335 		"/>
	</g>
	<g>
		<path fill="#FFFFFF" d="M173.785,67.829h-3c0-14.365-5.766-27.945-16.234-38.239c-10.469-10.291-24.236-15.958-38.769-15.958
			c-14.531,0-28.3,5.667-38.769,15.958C66.544,39.883,60.779,53.463,60.779,67.829h-3c0-15.178,6.084-29.518,17.13-40.378
			c11.033-10.847,25.549-16.819,40.872-16.819c15.324,0,29.839,5.973,40.873,16.819C167.701,38.313,173.785,52.653,173.785,67.829z"
			/>
	</g>
	<g>
		<polygon fill="#FFFFFF" points="173.785,215.369 57.779,215.369 57.779,157.335 60.779,157.335 60.779,212.369 170.785,212.369 
			170.785,157.335 173.785,157.335 		"/>
	</g>
	<g>
		<path fill="#FFFFFF" d="M158.945,67.684h-81.76v-9.849h81.761L158.945,67.684L158.945,67.684z M80.185,64.684h75.761v-3.849
			H80.185V64.684z"/>
	</g>
	<g>
		<path fill="#FFFFFF" d="M156.945,192.5h-81.76v-12.131h81.761L156.945,192.5L156.945,192.5z M78.185,189.5h75.761v-6.131H78.185
			V189.5z"/>
	</g>
	<g>
		<path fill="#FFFFFF" d="M117.064,50.674c-5.424,0-9.837-4.413-9.837-9.837S111.641,31,117.064,31s9.837,4.413,9.837,9.837
			S122.488,50.674,117.064,50.674z M117.064,34c-3.77,0-6.837,3.067-6.837,6.837s3.067,6.837,6.837,6.837
			c3.77,0,6.837-3.067,6.837-6.837S120.833,34,117.064,34z"/>
	</g>
	<g>
		<path fill="#FFFFFF" d="M117.064,50.674c-10.163,0-18.193-8.452-18.53-8.812l-0.96-1.025l0.96-1.025
			c0.337-0.359,8.367-8.812,18.53-8.812c10.161,0,18.193,8.452,18.53,8.812l0.96,1.025l-0.96,1.025
			C135.257,42.222,127.226,50.674,117.064,50.674z M101.798,40.837c2.372,2.131,8.389,6.837,15.267,6.837
			c6.899,0,12.901-4.704,15.269-6.835C129.962,38.708,123.943,34,117.065,34S104.17,38.706,101.798,40.837z"/>
	</g>
	<g>
		<rect x="134.5" y="39.337" fill="#FFFFFF" width="14.272" height="3"/>
	</g>
	<g>
		<rect x="87.772" y="39.337" fill="#FFFFFF" width="11.856" height="3"/>
	</g>
</g>
<g id="icons">
</g>
</svg>
