<?xml version="1.0" encoding="utf-8"?>
<!-- Generator: Adobe Illustrator 16.0.0, SVG Export Plug-In . SVG Version: 6.00 Build 0)  -->
<!DOCTYPE svg PUBLIC "-//W3C//DTD SVG 1.1//EN" "http://www.w3.org/Graphics/SVG/1.1/DTD/svg11.dtd">
<svg version="1.1" id="Layer_1" xmlns="http://www.w3.org/2000/svg" xmlns:xlink="http://www.w3.org/1999/xlink" x="0px" y="0px"
	 width="231px" height="231px" viewBox="0 0 231 231" enable-background="new 0 0 231 231" xml:space="preserve">
<g id="Layer_1_1_">
	<g>
		<path d="M192.653,65.661h-3V50.018h-24.862v15.643h-3V48.518c0-0.828,0.672-1.5,1.5-1.5h27.862
			c0.828,0,1.5,0.672,1.5,1.5V65.661z"/>
	</g>
	<g>
		<path d="M191.153,186.192h-27.862c-0.828,0-1.5-0.672-1.5-1.5v-32.69h3v31.19h24.862v-31.19h3v32.69
			C192.653,185.521,191.981,186.192,191.153,186.192z"/>
	</g>
	<g>
		<path d="M177.187,218.662L177.187,218.662c-0.602,0-1.145-0.358-1.38-0.912l-13.839-32.47
			c-0.197-0.463-0.149-0.995,0.129-1.415c0.277-0.42,0.746-0.673,1.251-0.673h27.68c0.505,0,0.974,0.253,1.251,0.673
			c0.278,0.422,0.326,0.952,0.129,1.415l-13.841,32.47C178.332,218.303,177.787,218.662,177.187,218.662z M165.617,186.192
			l11.569,27.144l11.569-27.144H165.617z"/>
	</g>
	<g>
		<path d="M185.058,200.125h-15.674c-0.827,0-1.5-0.672-1.5-1.5s0.673-1.5,1.5-1.5h15.674c0.828,0,1.5,0.672,1.5,1.5
			S185.886,200.125,185.058,200.125z"/>
	</g>
	<g>
		<rect x="168.755" y="158.012" width="3" height="27.552"/>
	</g>
	<g>
		<rect x="168.755" y="49.389" width="3" height="13.271"/>
	</g>
	<g>
		<rect x="182.688" y="158.012" width="3" height="27.552"/>
	</g>
	<g>
		<rect x="182.688" y="49.389" width="3" height="13.271"/>
	</g>
	<g>
		<path d="M191.153,25.639h-27.862c-0.828,0-1.5-0.672-1.5-1.5v-8.707C161.791,6.923,168.712,0,177.222,0
			c8.509,0,15.432,6.923,15.432,15.432v8.707C192.653,24.967,191.981,25.639,191.153,25.639z M164.791,22.639h24.862v-7.207
			C189.653,8.578,184.076,3,177.221,3s-12.433,5.577-12.433,12.432v7.207H164.791z"/>
	</g>
	<g>
		<path d="M191.153,50.018h-27.862c-0.828,0-1.5-0.672-1.5-1.5v-24.38c0-0.828,0.672-1.5,1.5-1.5h27.862
			c0.828,0,1.5,0.672,1.5,1.5v24.38C192.653,49.347,191.981,50.018,191.153,50.018z M164.791,47.018h24.862v-21.38h-24.862V47.018z"
			/>
	</g>
	<g>
		<path d="M36.834,216.667c-0.136,0-0.274-0.019-0.412-0.058c-0.797-0.228-1.259-1.056-1.032-1.853l8.396-29.506
			c0.227-0.799,1.057-1.262,1.854-1.033c0.797,0.228,1.259,1.057,1.032,1.854l-8.396,29.506
			C38.088,216.238,37.487,216.667,36.834,216.667z"/>
	</g>
	<g>
		<path d="M132.162,216.667c-0.654,0-1.254-0.43-1.441-1.09l-8.396-29.506c-0.228-0.797,0.235-1.626,1.032-1.854
			c0.792-0.229,1.626,0.234,1.853,1.033l8.396,29.506c0.229,0.797-0.234,1.625-1.031,1.853
			C132.436,216.649,132.296,216.667,132.162,216.667z"/>
	</g>
	<g>
		<rect x="83.248" y="14.318" width="3" height="7.834"/>
	</g>
	<g>
		<path d="M84.748,56.446c-9.712,0-17.613-7.9-17.613-17.61c0-9.711,7.901-17.611,17.613-17.611
			s17.613,7.9,17.613,17.611C102.361,48.546,94.46,56.446,84.748,56.446z M84.748,24.224c-8.058,0-14.613,6.555-14.613,14.611
			c0,8.056,6.556,14.61,14.613,14.61s14.613-6.554,14.613-14.61C99.361,30.779,92.806,24.224,84.748,24.224z"/>
	</g>
	<g>
		<path d="M84.562,66.459c-11.341,0-22.002-4.416-30.02-12.435c-0.586-0.586-0.586-1.535,0-2.121
			s1.535-0.586,2.121,0c7.451,7.452,17.358,11.556,27.898,11.556c10.661,0,20.647-4.185,28.12-11.783
			c0.58-0.592,1.531-0.598,2.121-0.018c0.591,0.581,0.599,1.53,0.018,2.121C106.779,61.956,96.033,66.459,84.562,66.459z"/>
	</g>
	<g>
		<path d="M94.075,65.009l-5.604-20.266c-0.575-2.023-2.002-3.287-3.721-3.287c-1.723,0-3.149,1.261-3.727,3.29
			l-4.792,19.821l-2.916-0.705l4.808-19.879c0.96-3.38,3.554-5.527,6.624-5.527c3.073,0,5.667,2.15,6.612,5.478l5.605,20.276
			L94.075,65.009z"/>
	</g>
	<g>
		<path d="M42.152,205.095c-0.856,0-1.713-0.19-2.528-0.572c-3.544-1.672-5.335-6.434-4.081-10.842l11.662-40.906
			l2.885,0.822l-11.661,40.906c-0.835,2.934,0.297,6.277,2.471,7.305c0.807,0.377,1.661,0.383,2.468,0.016
			c1.15-0.525,2.063-1.722,2.507-3.281L58.721,153.4l2.885,0.82l-12.845,45.142c-0.685,2.408-2.197,4.3-4.148,5.19
			C43.819,204.914,42.986,205.095,42.152,205.095z"/>
	</g>
	<g>
		<path fill="none" stroke="#AD8A64" stroke-width="3" stroke-linejoin="round" stroke-miterlimit="10" d="M84.74,67.11"/>
	</g>
	<g>
		<path d="M127.199,205.091c-2.98,0-5.638-2.309-6.609-5.744l-12.968-45.723l2.887-0.817l12.969,45.723
			c0.603,2.132,2.099,3.562,3.724,3.562c0.549,0,0.922-0.064,1.248-0.217c2.204-1.033,3.315-4.277,2.477-7.232l-11.527-40.613
			l2.887-0.818l11.528,40.613c1.243,4.381-0.554,9.109-4.09,10.768C128.763,205.041,127.824,205.091,127.199,205.091z"/>
	</g>
	<g>
		<path d="M90.521,15.818H78.975V0h11.547L90.521,15.818L90.521,15.818z M81.975,12.818h5.547V3h-5.547V12.818z"/>
	</g>
	<g>
		<rect x="83.379" y="39.244" width="3" height="33.866"/>
	</g>
</g>
<g id="icons">
</g>
</svg>
