<?xml version="1.0" encoding="utf-8"?>
<!-- Generator: Adobe Illustrator 16.0.0, SVG Export Plug-In . SVG Version: 6.00 Build 0)  -->
<!DOCTYPE svg PUBLIC "-//W3C//DTD SVG 1.1//EN" "http://www.w3.org/Graphics/SVG/1.1/DTD/svg11.dtd">
<svg version="1.1" xmlns="http://www.w3.org/2000/svg" xmlns:xlink="http://www.w3.org/1999/xlink" x="0px" y="0px"
	 width="230.999px" height="230.999px" viewBox="0 0 230.999 230.999" enable-background="new 0 0 230.999 230.999"
	 xml:space="preserve">
<g id="Layer_1">
	<g>
		<path fill="#AD8A64" d="M189.623,195.032c-5.901,0-10.702-4.804-10.702-10.709c0-5.903,4.801-10.705,10.702-10.705
			c5.902,0,10.705,4.802,10.705,10.705C200.328,190.229,195.525,195.032,189.623,195.032z M189.623,176.618
			c-4.247,0-7.702,3.457-7.702,7.705c0,4.251,3.455,7.709,7.702,7.709c4.249,0,7.705-3.458,7.705-7.709
			C197.328,180.075,193.872,176.618,189.623,176.618z"/>
	</g>
	<g>
		<path fill="#AD8A64" d="M189.611,223.11l-1.217-1.743c-0.743-1.065-18.196-26.205-18.196-37.038
			c0-10.754,8.697-19.608,19.427-19.824v-0.004l0.405,0.005c10.748,0.232,19.429,9.08,19.429,19.823
			c0,10.842-17.853,35.986-18.613,37.051L189.611,223.11z M189.812,167.502c-9.146,0.099-16.613,7.647-16.613,16.827
			c0,8.351,12.446,27.578,16.44,33.533c4.075-5.938,16.82-25.184,16.82-33.533C206.459,175.149,198.991,167.601,189.812,167.502z"/>
	</g>
	<g>
		<path fill="#AD8A64" d="M96.152,224.577c-2.939,0-5.928-0.327-8.849-1.125c-10.267-2.806-15.826-11.714-16.079-25.761
			c-0.009-0.524-0.014-1.086-0.02-1.677c-0.045-5.249-0.114-13.182-3.673-16.041c-1.352-1.086-3.156-1.372-5.513-0.873
			c-2.797,0.59-5.779,2.179-8.664,3.714c-1.735,0.924-3.53,1.88-5.26,2.6c-9.094,3.786-16.606,1.904-21.154-5.295
			c-4.05-6.405-3.079-14.736,2.307-19.811l2.057,2.184c-4.343,4.092-5.111,10.831-1.828,16.024
			c4.714,7.459,12.099,6.363,17.467,4.129c1.598-0.665,3.252-1.546,5.003-2.478c3.068-1.634,6.241-3.323,9.453-4.002
			c3.247-0.686,5.945-0.193,8.013,1.47c4.666,3.75,4.742,12.538,4.793,18.353c0.006,0.582,0.01,1.134,0.02,1.649
			c0.285,15.889,7.7,21.234,13.87,22.92c10.562,2.888,22.322-0.985,28.391-3.552c6.563-2.773,12.585-7.569,18.408-12.207
			c8.47-6.745,17.228-13.72,28.186-15.133l0.383,2.975c-10.127,1.307-18.177,7.718-26.699,14.505
			c-5.981,4.764-12.167,9.69-19.109,12.624C112.869,221.792,104.723,224.577,96.152,224.577z"/>
	</g>
	<g>
		<path fill="#AD8A64" d="M215.129,75.338l-2.922-0.678c2.236-9.649,0.233-19.225-6.122-29.276
			c-4.853-7.673-11.562-12.353-19.938-13.908c-15.087-2.802-32.397,5.086-43.569,13.4c-10.757,8.006-24.168,14.885-38.783,19.895
			c-5.419,1.858-10.758,3.249-15.869,4.134C77.811,70.656,68.06,70.241,59.728,67.7C49.942,64.716,42.41,59,37.341,50.711
			l2.559-1.565c4.163,6.805,17.116,22.068,47.514,16.803c4.955-0.858,10.139-2.209,15.408-4.016
			c14.325-4.91,27.453-11.641,37.965-19.463c11.679-8.693,29.87-16.919,45.907-13.943c9.232,1.714,16.609,6.846,21.927,15.254
			C215.427,54.544,217.556,64.867,215.129,75.338z"/>
	</g>
	<g>
		<rect x="62.149" y="24.767" fill="#AD8A64" width="17.115" height="3"/>
	</g>
	<g>
		<path fill="#AD8A64" d="M24.445,56.766l-2.854-0.925c2.195-6.773,4.402-14.777,6.215-22.539l2.922,0.683
			C28.897,41.826,26.666,49.916,24.445,56.766z"/>
	</g>
	<g>
		<path fill="#AD8A64" d="M73.032,59.429c-3.256,0-6.57-1.466-8.506-2.323c-6.593-2.915-12.836-8.125-18.873-13.163
			c-3.297-2.751-6.411-5.35-9.508-7.53l1.727-2.453c3.197,2.251,6.357,4.888,9.703,7.68c5.879,4.905,11.957,9.978,18.164,12.723
			c6.855,3.033,10.244,2.725,12.086-1.098c1.271-2.634-0.051-4.797-0.678-5.605c-0.915-1.179-2.016-1.681-2.469-1.592
			c-0.112,0.022-0.206,0.173-0.28,0.447l-2.896-0.779c0.377-1.403,1.319-2.354,2.585-2.608c1.75-0.355,3.886,0.704,5.431,2.694
			c2.02,2.602,2.397,5.872,1.011,8.747C78.736,58.285,75.907,59.429,73.032,59.429z"/>
	</g>
	<g>
		<path fill="#AD8A64" d="M35.081,36.686l-0.356-0.005l-0.186,0.003c-0.688,0-1.464-0.053-2.368-0.163
			c-0.73-0.082-1.472-0.199-2.188-0.347C19.948,34.26,12.248,27.6,11.925,27.318l-1.317-1.154l1.343-1.125
			c0.336-0.281,8.33-6.903,18.341-8.701l0.131-0.026c0.446-0.076,0.88-0.145,1.301-0.203l0.288-0.034
			c0.969-0.122,1.799-0.182,2.528-0.182l0.339,0.006l0.203-0.004c0.699,0,1.476,0.054,2.373,0.166
			c0.753,0.084,1.474,0.198,2.186,0.347c9.798,1.864,24.584,8.336,25.208,8.611l3.159,1.389l-3.17,1.362
			c-0.637,0.274-15.668,6.707-25.487,8.468l-0.193,0.035c-0.432,0.076-0.852,0.142-1.259,0.199l-0.199,0.024
			C36.651,36.626,35.821,36.686,35.081,36.686z M34.782,33.679l0.299,0.007c0.604,0,1.332-0.053,2.163-0.158l0.262-0.031
			c0.36-0.05,0.755-0.113,1.162-0.186l0.109-0.02c6.782-1.208,16.521-4.895,21.564-6.916c-4.972-2.039-14.521-5.739-21.29-7.027
			c-0.645-0.135-1.273-0.234-1.948-0.31c-0.782-0.097-1.456-0.145-2.022-0.145l-0.233,0.006l-0.309-0.008
			c-0.604,0-1.311,0.052-2.163,0.16l-0.224,0.026c-0.393,0.054-0.779,0.114-1.178,0.182l-0.106,0.022
			c-6.853,1.218-12.831,5.013-15.504,6.928c2.6,1.927,8.39,5.721,15.202,7.021c0.649,0.134,1.299,0.236,1.951,0.31
			c0.798,0.097,1.454,0.143,2.021,0.143L34.782,33.679z"/>
	</g>
	<g>
		<path fill="#AD8A64" d="M35.963,36.773l-0.368-1.724l1.454-0.3l-0.343-1.281c3.2-0.856,5.436-3.951,5.436-7.525
			c0-2.975-1.533-5.641-4.001-6.957l1.412-2.647c3.447,1.839,5.589,5.519,5.589,9.604c0,4.93-3.15,9.216-7.66,10.423L35.963,36.773z
			"/>
	</g>
	<g>
		<path fill="#AD8A64" d="M27.912,35.48c-3.943-1.727-6.394-5.237-6.394-9.162c0-4.711,3.571-8.785,8.686-9.905l1.521-0.333
			l0.276,1.532l-1.453,0.375l0.298,1.357c-3.726,0.816-6.328,3.685-6.328,6.975c0,2.714,1.762,5.172,4.597,6.414L27.912,35.48z"/>
	</g>
</g>
<g id="icons">
</g>
</svg>
