<?xml version="1.0" encoding="utf-8"?>
<!-- Generator: Adobe Illustrator 16.0.0, SVG Export Plug-In . SVG Version: 6.00 Build 0)  -->
<!DOCTYPE svg PUBLIC "-//W3C//DTD SVG 1.1//EN" "http://www.w3.org/Graphics/SVG/1.1/DTD/svg11.dtd">
<svg version="1.1" xmlns="http://www.w3.org/2000/svg" xmlns:xlink="http://www.w3.org/1999/xlink" x="0px" y="0px" width="100px"
	 height="100px" viewBox="0 0 100 100" enable-background="new 0 0 100 100" xml:space="preserve">
<g id="Layer_1">
	<g>
		<path fill="#FFFFFF" d="M65.218,39.59h21.139c0.016,0.291,0.047,0.6,0.047,0.912c0.002,10.613,0.014,21.232-0.002,31.846
			c-0.01,7.797-6.467,14.211-14.267,14.213c-14.754,0.002-29.512,0.002-44.268,0c-7.672-0.002-14.165-6.322-14.214-13.984
			c-0.063-10.764-0.016-21.529-0.014-32.295c0-0.201,0.025-0.404,0.045-0.68h21.087c-3.25,4.896-4.212,10.121-2.698,15.705
			c1.128,4.166,3.522,7.514,6.999,10.074c6.858,5.047,16.426,4.643,22.991-0.926C68.448,59.037,71.27,48.602,65.218,39.59"/>
		<path fill="#FFFFFF" d="M24.757,13.926v17.533h2.938V13.498h2.013v17.965h2.963V13.438h1.222c12.749,0,25.496,0,38.242,0
			c7.661,0,14.063,6.193,14.257,13.861c0.079,3.135,0.014,6.27,0.01,9.406c0,0.172-0.033,0.348-0.06,0.604h-0.891
			c-7.129,0-14.257,0.014-21.383-0.023c-0.467-0.002-1.039-0.229-1.38-0.537c-7.237-6.711-18.343-6.668-25.518,0.102
			c-0.249,0.236-0.648,0.439-0.979,0.441c-7.364,0.025-14.729,0.018-22.091,0.018c-0.118,0-0.234-0.027-0.339-0.041
			c-0.027-0.039-0.054-0.066-0.054-0.092c0.026-4.303-0.521-8.633,0.391-12.895c0.697-3.271,2.94-6.414,5.628-8.17v15.373h2.909
			v-1.094V15.928C22.636,14.293,22.93,14.004,24.757,13.926 M67.471,25.732c0,1.301-0.012,2.602,0.004,3.904
			c0.016,1.41,0.925,2.338,2.324,2.346c2.541,0.018,5.085,0.016,7.624,0c1.399-0.008,2.34-0.938,2.35-2.334
			c0.02-2.604,0.02-5.203,0-7.807c-0.01-1.371-0.891-2.324-2.245-2.344c-2.604-0.047-5.202-0.047-7.804,0
			c-1.37,0.02-2.235,0.969-2.249,2.332C67.459,23.133,67.471,24.434,67.471,25.732"/>
		<path fill="#FFFFFF" d="M49.951,64.67c-7.945,0-14.396-6.461-14.361-14.383c0.037-7.891,6.479-14.307,14.361-14.311
			c7.95-0.002,14.388,6.42,14.384,14.355C64.331,58.291,57.931,64.67,49.951,64.67 M50.024,39.762
			c-5.821,0-10.558,4.721-10.563,10.525c-0.004,5.869,4.721,10.627,10.558,10.627c5.799,0.002,10.56-4.746,10.563-10.533
			C60.586,44.486,55.885,39.766,50.024,39.762"/>
	</g>
</g>
<g id="icons">
</g>
</svg>
