<?xml version="1.0" encoding="utf-8"?>
<!-- Generator: Adobe Illustrator 16.0.0, SVG Export Plug-In . SVG Version: 6.00 Build 0)  -->
<!DOCTYPE svg PUBLIC "-//W3C//DTD SVG 1.1//EN" "http://www.w3.org/Graphics/SVG/1.1/DTD/svg11.dtd">
<svg version="1.1" xmlns="http://www.w3.org/2000/svg" xmlns:xlink="http://www.w3.org/1999/xlink" x="0px" y="0px" width="100px"
	 height="100px" viewBox="0 0 100 100" enable-background="new 0 0 100 100" xml:space="preserve">
<g id="Layer_1">
	<g>
		<path d="M49.394,38.947c-0.738-3.575-0.326-6.966,1.387-10.169c1.443-2.692,3.545-4.736,6.262-6.124
			c5.424-2.768,12.449-1.978,17.238,2.972l0.537-0.035c2.883-0.629,5.607-1.662,8.178-3.104l0.445-0.224l0.08,0.036
			c-0.232,0.819-0.592,1.578-0.992,2.321c-0.4,0.761-0.875,1.465-1.404,2.135c-0.52,0.657-1.08,1.277-1.721,1.808
			c-0.641,0.55-1.32,1.062-2.049,1.627c1.463-0.168,2.816-0.454,4.156-0.818c1.314-0.359,2.592-0.816,3.914-1.379
			c-0.352,0.783-1.896,2.729-3.24,4.106c-1.188,1.228-2.479,2.342-3.846,3.341l-0.045,0.615c0.043,1.547,0.012,3.073-0.121,4.614
			c-0.213,2.386-0.609,4.749-1.227,7.059c-1.648,6.233-4.482,11.879-8.633,16.826c-5.715,6.813-12.91,11.239-21.58,13.266
			c-2.328,0.534-4.693,0.863-7.088,1.019c-1.555,0.093-3.111,0.118-4.67,0.052c-4.875-0.209-9.578-1.244-14.088-3.11
			c-2.043-0.846-4.006-1.852-5.881-3.009l-0.408-0.283l-0.023-0.099c5.137,0.546,10.078-0.168,14.83-2.18
			c2.297-0.975,5.408-2.839,6.369-3.791l-0.215-0.104c-0.721-0.069-1.436-0.14-2.146-0.275c-4.506-0.862-8.652-3.994-10.613-8.622
			c-0.156-0.375-0.326-0.745-0.408-1.185c0.719,0.072,1.416,0.151,2.117,0.195c0.699,0.043,1.4,0,2.105-0.075
			s1.389-0.197,2.109-0.379l-0.398-0.188c-4.234-1.106-7.389-3.588-9.453-7.437c-1.059-1.973-1.588-4.1-1.645-6.341l0.029-0.509
			c0.715,0.304,1.383,0.629,2.076,0.877c0.68,0.24,1.381,0.436,2.08,0.584c0.715,0.157,1.436,0.299,2.268,0.234
			c-0.303-0.284-0.588-0.457-0.832-0.66c-0.258-0.217-0.516-0.432-0.764-0.654c-0.229-0.219-0.455-0.434-0.672-0.661
			c-0.234-0.24-0.459-0.492-0.67-0.745c-0.215-0.256-0.422-0.521-0.619-0.788c-0.191-0.275-0.375-0.556-0.553-0.83
			c-0.17-0.264-0.328-0.537-0.479-0.816c-0.158-0.295-0.311-0.595-0.451-0.893c-0.133-0.303-0.264-0.613-0.383-0.928
			c-0.113-0.31-0.223-0.627-0.314-0.948c-0.098-0.315-0.178-0.641-0.254-0.972c-0.064-0.298-0.129-0.619-0.176-0.921
			c-0.047-0.329-0.096-0.662-0.127-0.995c-0.029-0.328-0.033-0.664-0.039-0.992c-0.008-0.338-0.008-0.668,0.01-1.003
			c0.008-0.319,0.043-0.629,0.08-0.944c0.037-0.331,0.076-0.662,0.139-0.989c0.059-0.333,0.129-0.656,0.215-0.976
			c0.082-0.325,0.176-0.652,0.279-0.96c0.102-0.302,0.205-0.603,0.324-0.892c0.127-0.307,0.262-0.618,0.404-0.91
			c0.145-0.297,0.311-0.586,0.463-0.869c0.229,0.035,0.297,0.203,0.395,0.325c1.174,1.394,2.422,2.71,3.768,3.937
			c5.521,5.044,11.938,8.396,19.256,10.006c1.918,0.422,3.865,0.684,5.816,0.848c0.225,0.018,0.445,0.021,0.668,0.027L49.394,38.947
			z"/>
	</g>
</g>
<g id="icons">
</g>
</svg>
