<?xml version="1.0" encoding="utf-8"?>
<!-- Generator: Adobe Illustrator 16.0.0, SVG Export Plug-In . SVG Version: 6.00 Build 0)  -->
<!DOCTYPE svg PUBLIC "-//W3C//DTD SVG 1.1//EN" "http://www.w3.org/Graphics/SVG/1.1/DTD/svg11.dtd">
<svg version="1.1" id="Layer_1" xmlns="http://www.w3.org/2000/svg" xmlns:xlink="http://www.w3.org/1999/xlink" x="0px" y="0px"
	 width="194px" height="41px" viewBox="0 0 194 41" enable-background="new 0 0 194 41" xml:space="preserve">
<g>
	<path fill="#617AA3" d="M188.432,34.572c0,0.553-0.447,1-1,1h-179c-0.552,0-1-0.447-1-1v-28c0-0.553,0.448-1,1-1h179
		c0.553,0,1,0.447,1,1V34.572z"/>
	<rect x="35.78" y="8.072" fill="#FFFFFF" width="0.3" height="25"/>
	<g enable-background="new    ">
		<path fill="#FFFFFF" d="M47.81,15.239h1.219v8.419h4.034v1.022H47.81V15.239z"/>
		<path fill="#FFFFFF" d="M60.315,21.234c0,2.508-1.737,3.601-3.375,3.601c-1.835,0-3.25-1.345-3.25-3.488
			c0-2.27,1.485-3.6,3.362-3.6C58.999,17.747,60.315,19.162,60.315,21.234z M54.936,21.305c0,1.485,0.854,2.605,2.059,2.605
			c1.177,0,2.059-1.106,2.059-2.634c0-1.148-0.574-2.604-2.031-2.604C55.566,18.672,54.936,20.017,54.936,21.305z"/>
		<path fill="#FFFFFF" d="M67.707,17.901c-0.028,0.49-0.056,1.036-0.056,1.862V23.7c0,1.555-0.308,2.507-0.966,3.096
			c-0.659,0.616-1.611,0.812-2.465,0.812c-0.812,0-1.709-0.196-2.255-0.561l0.308-0.938c0.448,0.28,1.148,0.532,1.989,0.532
			c1.261,0,2.185-0.658,2.185-2.367v-0.757h-0.028c-0.378,0.631-1.107,1.135-2.157,1.135c-1.681,0-2.886-1.429-2.886-3.306
			c0-2.297,1.499-3.6,3.054-3.6c1.177,0,1.821,0.616,2.115,1.177h0.028l0.056-1.022H67.707z M66.432,20.576
			c0-0.21-0.014-0.392-0.07-0.56c-0.224-0.715-0.827-1.303-1.723-1.303c-1.176,0-2.017,0.994-2.017,2.562
			c0,1.331,0.672,2.438,2.003,2.438c0.756,0,1.442-0.476,1.709-1.261c0.07-0.21,0.098-0.448,0.098-0.658V20.576z"/>
		<path fill="#FFFFFF" d="M70.98,15.996c0.014,0.42-0.294,0.756-0.785,0.756c-0.434,0-0.742-0.336-0.742-0.756
			c0-0.435,0.322-0.771,0.77-0.771C70.686,15.226,70.98,15.562,70.98,15.996z M69.607,24.681v-6.779h1.233v6.779H69.607z"/>
		<path fill="#FFFFFF" d="M72.883,19.736c0-0.701-0.014-1.275-0.056-1.835h1.093l0.07,1.12h0.028
			c0.336-0.645,1.121-1.274,2.241-1.274c0.938,0,2.395,0.561,2.395,2.886v4.048h-1.232v-3.908c0-1.093-0.406-2.003-1.569-2.003
			c-0.812,0-1.443,0.574-1.653,1.261c-0.056,0.154-0.084,0.364-0.084,0.574v4.076h-1.233V19.736z"/>
		<path fill="#FFFFFF" d="M84.111,17.901l0.896,3.445c0.196,0.757,0.378,1.457,0.504,2.157h0.042
			c0.154-0.687,0.378-1.415,0.603-2.143l1.106-3.46H88.3l1.05,3.39c0.252,0.812,0.448,1.526,0.603,2.213h0.042
			c0.112-0.687,0.294-1.4,0.518-2.199l0.967-3.403h1.219l-2.186,6.779h-1.121l-1.036-3.235c-0.238-0.757-0.435-1.429-0.603-2.228
			h-0.028c-0.168,0.812-0.378,1.513-0.617,2.241l-1.092,3.222h-1.121l-2.045-6.779H84.111z"/>
		<path fill="#FFFFFF" d="M95.298,15.996c0.014,0.42-0.294,0.756-0.785,0.756c-0.434,0-0.742-0.336-0.742-0.756
			c0-0.435,0.322-0.771,0.77-0.771C95.003,15.226,95.298,15.562,95.298,15.996z M93.925,24.681v-6.779h1.233v6.779H93.925z"/>
		<path fill="#FFFFFF" d="M98.686,15.954v1.947h1.766v0.938h-1.766v3.655c0,0.841,0.238,1.317,0.924,1.317
			c0.322,0,0.561-0.042,0.715-0.084l0.057,0.924c-0.238,0.099-0.617,0.168-1.093,0.168c-0.575,0-1.036-0.182-1.331-0.518
			c-0.35-0.364-0.476-0.967-0.476-1.766V18.84H96.43v-0.938h1.051v-1.625L98.686,15.954z"/>
		<path fill="#FFFFFF" d="M101.835,14.735h1.233v4.23h0.027c0.196-0.351,0.504-0.658,0.883-0.869c0.363-0.21,0.799-0.35,1.26-0.35
			c0.911,0,2.367,0.561,2.367,2.899v4.034h-1.232v-3.895c0-1.092-0.406-2.017-1.568-2.017c-0.799,0-1.429,0.561-1.652,1.232
			c-0.07,0.168-0.084,0.351-0.084,0.589v4.09h-1.233V14.735z"/>
		<path fill="#FFFFFF" d="M112.614,15.239h5.085v1.022h-3.866v3.138h3.571v1.009h-3.571v4.272h-1.219V15.239z"/>
		<path fill="#FFFFFF" d="M122.515,24.681l-0.098-0.854h-0.042c-0.379,0.532-1.107,1.009-2.073,1.009
			c-1.373,0-2.073-0.967-2.073-1.947c0-1.639,1.457-2.535,4.076-2.521v-0.14c0-0.561-0.154-1.569-1.541-1.569
			c-0.63,0-1.289,0.196-1.765,0.505l-0.28-0.812c0.561-0.364,1.373-0.603,2.227-0.603c2.074,0,2.578,1.415,2.578,2.773v2.535
			c0,0.589,0.027,1.163,0.111,1.625H122.515z M122.333,21.221c-1.345-0.028-2.872,0.21-2.872,1.527c0,0.798,0.533,1.176,1.163,1.176
			c0.882,0,1.442-0.56,1.639-1.134c0.042-0.127,0.07-0.267,0.07-0.393V21.221z"/>
		<path fill="#FFFFFF" d="M130.341,24.429c-0.321,0.168-1.036,0.392-1.946,0.392c-2.046,0-3.377-1.387-3.377-3.459
			c0-2.088,1.43-3.601,3.643-3.601c0.729,0,1.373,0.183,1.709,0.351l-0.28,0.952c-0.294-0.168-0.757-0.322-1.429-0.322
			c-1.555,0-2.396,1.148-2.396,2.563c0,1.569,1.009,2.535,2.354,2.535c0.7,0,1.163-0.182,1.513-0.336L130.341,24.429z"/>
		<path fill="#FFFFFF" d="M132.383,21.515c0.027,1.667,1.093,2.354,2.325,2.354c0.882,0,1.415-0.154,1.877-0.351l0.21,0.883
			c-0.434,0.196-1.176,0.42-2.255,0.42c-2.087,0-3.334-1.372-3.334-3.417c0-2.046,1.204-3.656,3.18-3.656
			c2.214,0,2.802,1.947,2.802,3.193c0,0.252-0.028,0.448-0.042,0.574H132.383z M135.996,20.633c0.015-0.785-0.322-2.003-1.709-2.003
			c-1.246,0-1.793,1.148-1.891,2.003H135.996z"/>
		<path fill="#FFFFFF" d="M138.654,24.681c0.028-0.462,0.057-1.148,0.057-1.751v-8.194h1.219v4.258h0.027
			c0.435-0.756,1.219-1.246,2.312-1.246c1.681,0,2.872,1.4,2.857,3.46c0,2.423-1.526,3.628-3.04,3.628
			c-0.98,0-1.765-0.379-2.269-1.275h-0.042l-0.057,1.121H138.654z M139.93,21.963c0,0.154,0.027,0.309,0.056,0.448
			c0.237,0.854,0.952,1.443,1.849,1.443c1.289,0,2.06-1.051,2.06-2.605c0-1.359-0.7-2.521-2.017-2.521
			c-0.842,0-1.625,0.574-1.878,1.513c-0.028,0.14-0.069,0.309-0.069,0.504V21.963z"/>
		<path fill="#FFFFFF" d="M152.812,21.234c0,2.508-1.737,3.601-3.376,3.601c-1.834,0-3.25-1.345-3.25-3.488
			c0-2.27,1.485-3.6,3.362-3.6C151.495,17.747,152.812,19.162,152.812,21.234z M147.433,21.305c0,1.485,0.854,2.605,2.06,2.605
			c1.176,0,2.059-1.106,2.059-2.634c0-1.148-0.574-2.604-2.031-2.604S147.433,20.017,147.433,21.305z"/>
		<path fill="#FFFFFF" d="M160.498,21.234c0,2.508-1.737,3.601-3.376,3.601c-1.835,0-3.25-1.345-3.25-3.488
			c0-2.27,1.485-3.6,3.362-3.6C159.182,17.747,160.498,19.162,160.498,21.234z M155.119,21.305c0,1.485,0.854,2.605,2.059,2.605
			c1.177,0,2.059-1.106,2.059-2.634c0-1.148-0.574-2.604-2.03-2.604C155.749,18.672,155.119,20.017,155.119,21.305z"/>
		<path fill="#FFFFFF" d="M163.267,21.011h0.028c0.168-0.238,0.406-0.532,0.602-0.771l1.99-2.339h1.484l-2.619,2.787l2.982,3.992
			h-1.498l-2.34-3.25l-0.63,0.7v2.55h-1.219v-9.945h1.219V21.011z"/>
	</g>
	<g>
		<path fill="#FFFFFF" d="M18.992,29.072h3.53c0,0,0-4.688,0-8.494h2.382l0.309-3.002h-2.69v-1.764c0-0.662,0.439-0.816,0.748-0.816
			s1.899,0,1.899,0v-2.914l-2.615-0.01c-2.903,0-3.562,2.172-3.562,3.562v1.941h-1.679v3.002h1.679
			C18.992,24.43,18.992,29.072,18.992,29.072z"/>
	</g>
</g>
</svg>
