<?xml version="1.0" encoding="utf-8"?>
<!-- Generator: Adobe Illustrator 16.0.0, SVG Export Plug-In . SVG Version: 6.00 Build 0)  -->
<!DOCTYPE svg PUBLIC "-//W3C//DTD SVG 1.1//EN" "http://www.w3.org/Graphics/SVG/1.1/DTD/svg11.dtd">
<svg version="1.1" id="Layer_1" xmlns="http://www.w3.org/2000/svg" xmlns:xlink="http://www.w3.org/1999/xlink" x="0px" y="0px"
	 width="204px" height="146px" viewBox="0 6.25 204 146" enable-background="new 0 6.25 204 146" xml:space="preserve">
<g>
	<path fill="none" stroke="#3D3D3D" stroke-width="4" stroke-miterlimit="10" d="M48.843,146.211v-26.08
		c-18.104-3.054-31.936-18.829-31.936-37.79c0-21.131,17.19-38.322,38.321-38.322h25.551c21.13,0,38.323,17.191,38.323,38.322
		c0,20.392-16.006,37.112-36.109,38.263L48.843,146.211z"/>
	<path fill="#3D3D3D" d="M69.797,77.812c-0.307-1.48-0.136-2.884,0.573-4.21c0.599-1.115,1.468-1.96,2.593-2.535
		c2.246-1.146,5.154-0.819,7.137,1.23l0.222-0.014c1.194-0.261,2.322-0.689,3.386-1.285l0.184-0.093l0.033,0.014
		c-0.095,0.339-0.244,0.653-0.41,0.961c-0.165,0.315-0.362,0.606-0.581,0.883c-0.216,0.272-0.448,0.529-0.712,0.749
		c-0.266,0.229-0.547,0.439-0.849,0.674c0.606-0.07,1.166-0.189,1.721-0.34c0.544-0.148,1.074-0.338,1.621-0.571
		c-0.146,0.325-0.786,1.13-1.341,1.7c-0.492,0.509-1.026,0.969-1.592,1.384l-0.019,0.255c0.017,0.64,0.004,1.274-0.05,1.91
		c-0.089,0.988-0.253,1.965-0.508,2.921c-0.683,2.583-1.855,4.918-3.574,6.966c-2.367,2.821-5.345,4.655-8.934,5.493
		c-0.964,0.224-1.943,0.354-2.935,0.42c-0.643,0.04-1.288,0.05-1.933,0.021c-2.018-0.088-3.965-0.516-5.833-1.289
		c-0.846-0.349-1.657-0.766-2.434-1.244l-0.168-0.119l-0.01-0.039c2.126,0.226,4.171-0.07,6.139-0.902
		c0.951-0.404,2.239-1.174,2.637-1.57l-0.089-0.043c-0.299-0.027-0.594-0.057-0.888-0.113c-1.866-0.357-3.582-1.653-4.395-3.569
		c-0.063-0.157-0.134-0.31-0.168-0.491c0.297,0.029,0.586,0.062,0.876,0.082s0.581,0,0.872-0.031s0.575-0.084,0.873-0.158
		l-0.165-0.077c-1.752-0.46-3.058-1.487-3.912-3.08c-0.439-0.816-0.658-1.698-0.682-2.626l0.012-0.21
		c0.296,0.126,0.573,0.261,0.86,0.362c0.281,0.1,0.571,0.182,0.861,0.243c0.295,0.064,0.595,0.124,0.939,0.096
		c-0.126-0.117-0.243-0.188-0.344-0.273c-0.107-0.088-0.214-0.177-0.317-0.27c-0.094-0.09-0.188-0.178-0.278-0.275
		c-0.096-0.099-0.189-0.202-0.277-0.309c-0.088-0.105-0.175-0.215-0.256-0.325c-0.08-0.114-0.157-0.229-0.23-0.343
		c-0.071-0.11-0.136-0.224-0.198-0.338c-0.066-0.123-0.128-0.246-0.186-0.371c-0.056-0.125-0.109-0.253-0.16-0.383
		c-0.046-0.127-0.092-0.26-0.129-0.393c-0.042-0.13-0.074-0.265-0.106-0.401c-0.026-0.125-0.053-0.255-0.072-0.382
		c-0.02-0.136-0.041-0.274-0.052-0.412c-0.012-0.137-0.015-0.275-0.017-0.413c-0.003-0.139-0.003-0.275,0.004-0.415
		c0.003-0.132,0.018-0.259,0.033-0.391c0.016-0.137,0.032-0.273,0.057-0.409c0.025-0.138,0.055-0.271,0.09-0.405
		c0.034-0.134,0.073-0.267,0.115-0.397c0.042-0.125,0.085-0.249,0.136-0.369c0.051-0.127,0.107-0.254,0.167-0.376
		c0.059-0.124,0.128-0.243,0.19-0.361c0.095,0.015,0.123,0.085,0.164,0.134c0.486,0.578,1.002,1.123,1.559,1.631
		c2.287,2.087,4.942,3.475,7.972,4.142c0.794,0.174,1.601,0.283,2.409,0.35c0.093,0.008,0.185,0.009,0.277,0.011L69.797,77.812z"/>
	<path fill="#3D3D3D" d="M145.848,51.691h-3.643l-0.025-0.178c0.002-0.849-0.003-1.702,0.014-2.553
		c0.006-0.208,0.063-0.422,0.139-0.617c0.189-0.488,0.596-0.722,1.09-0.75c0.732-0.043,1.469-0.035,2.203-0.049
		c0.407-0.005,0.354,0.049,0.355-0.364c0.002-0.942-0.002-1.884,0.002-2.825c0.002-0.151-0.035-0.214-0.198-0.228
		c-1.274-0.095-2.548-0.213-3.821-0.024c-1.857,0.275-3.265,1.654-3.584,3.516c-0.077,0.448-0.109,0.91-0.123,1.368
		c-0.02,0.812-0.005,1.621-0.005,2.432v0.261h-3.205l-0.013,0.22c0,1.106,0.004,2.212-0.004,3.317
		c-0.002,0.184,0.055,0.235,0.231,0.234c0.919-0.008,1.841,0.001,2.761-0.008c0.18,0,0.232,0.046,0.232,0.229
		c-0.003,3.023-0.003,6.046,0,9.068c0,0.185-0.053,0.231-0.23,0.231c-3.854-0.003-7.707-0.001-11.562-0.007
		c-0.81,0-1.338-0.526-1.353-1.335c-0.006-0.53,0-1.061,0-1.588c0-6.74-0.002-13.478,0.004-20.217c0-0.235,0.017-0.492,0.101-0.704
		c0.198-0.496,0.585-0.766,1.125-0.798l0.267-0.003c7.221,0,14.441-0.001,21.662,0.003c0.19,0,0.389,0.003,0.568,0.053
		c0.531,0.142,0.893,0.613,0.921,1.161c0.007,0.108,0.007,0.22,0.007,0.33c0,7.185,0,14.373-0.003,21.556
		c0,0.185,0.007,0.375-0.036,0.554c-0.134,0.585-0.625,0.986-1.231,0.988c-2.04,0.008-4.083,0.001-6.12,0.006
		c-0.159,0-0.197-0.059-0.197-0.206c0.002-3.037,0.002-6.074,0-9.109c0-0.163,0.053-0.212,0.213-0.211
		c0.905,0.007,1.812-0.003,2.717,0.008c0.209,0.001,0.281-0.053,0.306-0.269c0.103-0.921,0.233-1.837,0.35-2.755
		C145.792,52.192,145.818,51.955,145.848,51.691"/>
	<path fill="none" stroke="#3D3D3D" stroke-width="4" stroke-miterlimit="10" d="M120.562,93.033
		c0.629,0.07,1.248,0.166,1.887,0.201l34.148,25.608V92.762c18.104-3.052,31.937-18.83,31.937-37.789
		c0-21.131-17.191-38.321-38.323-38.321h-25.548c-16.576,0-30.688,10.599-36.018,25.359"/>
</g>
</svg>
