<?xml version="1.0" encoding="utf-8"?>
<!-- Generator: Adobe Illustrator 16.0.0, SVG Export Plug-In . SVG Version: 6.00 Build 0)  -->
<!DOCTYPE svg PUBLIC "-//W3C//DTD SVG 1.1//EN" "http://www.w3.org/Graphics/SVG/1.1/DTD/svg11.dtd">
<svg version="1.1" id="Layer_1" xmlns="http://www.w3.org/2000/svg" xmlns:xlink="http://www.w3.org/1999/xlink" x="0px" y="0px"
	 width="570px" height="147.5px" viewBox="42.5 0 570 147.5" enable-background="new 42.5 0 570 147.5" xml:space="preserve">
<g>
	<g>
		<g>
			<g>
				<path fill="#3D3D3D" d="M162.129,38.366l-0.017,48.135c0,2.472-0.287,4.872-0.809,7.188c0.998,0.293,1.73,1.204,1.73,2.299
					c0,1.236-0.936,2.246-2.138,2.382c0.407,0.43,0.664,1.007,0.664,1.646c0,1.334-1.074,2.41-2.408,2.41
					c-0.388,0-0.744-0.1-1.069-0.261c-5.528,10.009-16.183,16.793-28.428,16.793c-17.921,0-32.453-14.533-32.453-32.457v-1.312
					c-0.123,0.01-0.24,0.037-0.365,0.037c-2.515,0-4.559-2.039-4.559-4.559c0-2.519,2.043-4.559,4.559-4.559
					c0.124,0,0.242,0.028,0.365,0.037V50.764c0-3.625,2.937-6.565,6.564-6.565h0.76c0.162-3.244,2.82-5.833,6.108-5.833h26.926
					h11.12H162.129 M165.019,35.478h-2.889h-13.447h-11.121h-26.926c-3.892,0-7.222,2.473-8.475,5.969
					c-4.449,0.765-7.846,4.651-7.846,9.317V73.66c-2.868,1.036-4.923,3.787-4.923,7.007c0,3.228,2.065,5.981,4.943,7.013
					c0.625,18.945,16.229,34.167,35.321,34.167c12.193,0,23.483-6.294,29.932-16.551c2.718-0.222,4.862-2.504,4.862-5.281
					c0-0.119-0.004-0.236-0.013-0.355c0.925-0.957,1.486-2.253,1.486-3.673c0-1.357-0.533-2.634-1.421-3.591
					c0.332-1.961,0.5-3.937,0.5-5.896l0.017-48.135L165.019,35.478L165.019,35.478z"/>
			</g>
		</g>
		<circle fill="#3D3D3D" cx="148.741" cy="79.725" r="2.407"/>
		
			<line fill="none" stroke="#3D3D3D" stroke-width="1.6702" stroke-miterlimit="10" x1="155.39" y1="37.935" x2="155.39" y2="61.313"/>
		
			<line fill="none" stroke="#3D3D3D" stroke-width="1.6702" stroke-miterlimit="10" x1="151.276" y1="37.935" x2="151.276" y2="61.313"/>
		
			<line fill="none" stroke="#3D3D3D" stroke-width="1.6702" stroke-miterlimit="10" x1="141.682" y1="37.935" x2="141.682" y2="61.313"/>
		<path fill="none" stroke="#262626" stroke-width="1.6702" stroke-miterlimit="10" d="M121.364,56.268"/>
		<path fill="none" stroke="#3D3D3D" stroke-width="1.6702" stroke-miterlimit="10" d="M95.606,74.664l20.606,9.393V70.55
			c0,0-1.007-8.229,6.492-9.237h39.194"/>
		<path fill="none" stroke="#3D3D3D" stroke-width="1.6702" stroke-miterlimit="10" d="M136.945,84.311
			c7.917,0,14.331,6.417,14.331,14.333"/>
	</g>
	<g>
		<path fill="#3D3D3D" d="M185.93,106.413l-16.353-4.438l15.959,5.691c0.017,0.006,0.034,0.011,0.052,0.016
			c0.349,0.097,0.71-0.111,0.804-0.463C186.488,106.868,186.279,106.51,185.93,106.413z"/>
		<path fill="#3D3D3D" d="M182.216,112.729l-0.003-0.005l-0.015-0.009l-0.01-0.007l-0.002-0.001l-13.929-9.722l13.162,10.787
			c0.015,0.01,0.026,0.021,0.04,0.027l0.005,0.004c0.975,0.684,1.627,1.707,1.833,2.882c0.203,1.161-0.055,2.323-0.731,3.271
			c-0.12,0.17-0.247,0.326-0.378,0.47c-0.245,0.263-0.226,0.68,0.041,0.929c0.125,0.113,0.285,0.172,0.443,0.172
			c0.178,0,0.357-0.073,0.489-0.215c0.162-0.178,0.323-0.379,0.479-0.592c0.875-1.239,1.213-2.753,0.954-4.262
			C184.323,114.939,183.481,113.616,182.216,112.729z"/>
		<path fill="#3D3D3D" d="M192.234,95.486c0-0.363-0.296-0.656-0.657-0.656l0,0c-0.363,0-0.658,0.294-0.658,0.656
			c0,1.186-0.459,2.302-1.297,3.141c-0.836,0.839-1.952,1.303-3.134,1.304h-0.005l-17.578,0.656l17.578,0.657h0.001
			c0.015,0,0.033,0,0.048,0l0.01-0.005c1.518-0.016,2.939-0.61,4.009-1.684C191.635,98.468,192.235,97.022,192.234,95.486z"/>
	</g>
</g>
<g>
	<g>
		<path fill="#262626" d="M337.867,102.909c-0.275,0.166-0.365,0.522-0.199,0.801c0.166,0.272,0.523,0.361,0.8,0.196
			c0.017-0.007,0.026-0.019,0.038-0.025l12.527-8.91L337.867,102.909z"/>
		<path fill="#262626" d="M347.846,111.277c0.298,0.111,0.635-0.045,0.746-0.346c0.008-0.013,0.014-0.029,0.017-0.042l4.117-14.507
			l-5.224,14.145C347.39,110.83,347.544,111.164,347.846,111.277z"/>
		<path fill="#262626" d="M342.496,108.564c0.01-0.01,0.018-0.022,0.027-0.034l8.729-12.212l-9.65,11.5
			c-0.207,0.247-0.172,0.614,0.072,0.819C341.921,108.848,342.29,108.812,342.496,108.564z"/>
		<path fill="#EAE0D6" d="M340.328,114.107h-0.002c-0.689,0-1.363-0.105-2.03-0.081c-0.342,0.012-0.679-0.025-1.015-0.008
			c-0.29,0.015-0.578,0-0.862,0.019c-0.446,0.029-0.888,0.052-1.321,0.088c-0.14,0.015-0.277-0.088-0.414-0.075
			c-0.504,0.051-1.207,0.054-1.696,0.054c-0.008,0-1.13,0-1.13,0v-9.666c0-1.342,0.226-2.06-1.111-2.06h-11.452V81.012
			l17.758-25.429l4.627-6.613c0.434,0.189,0.921,0.297,1.42,0.297c0.438,0,0.857-0.089,1.244-0.236l18.113,24.211l-3.261,6.516
			l-2.548,5.1l-1.965,2.641l-2.764,6.665l1.287,0.957l5.592-4.554l1.97-2.641l10.618-9.706c0.32-0.116,0.637-0.257,0.943-0.434
			l0.723-0.419c2.837-1.637,3.805-5.261,2.17-8.094l-27.099-36.231c-0.333-0.582-0.757-1.081-1.235-1.499l-0.443-0.441
			c-2.606-2.609-7.039-2.825-9.939,0.716l-28.219,40.524c-0.241,0.043-0.478,0.096-0.714,0.158c-0.012,0.004-0.024,0.006-0.037,0.01
			c-0.228,0.062-0.45,0.132-0.668,0.21c-0.018,0.006-0.036,0.014-0.054,0.019c-0.218,0.081-0.43,0.167-0.637,0.264
			c-0.015,0.007-0.03,0.015-0.045,0.022c-0.213,0.101-0.419,0.206-0.62,0.321c0,0-0.002,0.001-0.005,0.003
			c-0.823,0.478-1.558,1.086-2.175,1.803c-0.017,0.018-0.035,0.034-0.05,0.054c-0.112,0.132-0.215,0.27-0.318,0.406
			c-0.053,0.07-0.107,0.139-0.157,0.211c-0.085,0.125-0.166,0.25-0.246,0.379c-0.059,0.094-0.118,0.188-0.172,0.284
			c-0.069,0.12-0.132,0.24-0.194,0.363c-0.058,0.112-0.113,0.228-0.165,0.343c-0.053,0.117-0.104,0.234-0.151,0.354
			c-0.052,0.128-0.098,0.261-0.143,0.393c-0.04,0.113-0.079,0.227-0.112,0.343c-0.043,0.146-0.079,0.295-0.114,0.443
			c-0.026,0.107-0.053,0.217-0.076,0.328c-0.034,0.172-0.056,0.346-0.08,0.521c-0.012,0.092-0.231,0.182-0.241,0.275
			c-0.026,0.27-0.246,0.542-0.246,0.822v21.707h-10.94c-1.339,0-3.298,0.719-3.298,2.06v11.812
			c-5.025,1.344-10.051,3.297-14.239,5.423v0.005v7.467v0.107v0.136l80.86,0.877c-2.687,0-4.538-0.245-6.966-1.083h1.711l1.45,0.766
			v-0.768h4.519c-0.645,0-1.281,0-1.914-0.029l1.914,0.029h22.285v-3.952C367.035,120.896,357.209,114.107,340.328,114.107z"/>
	</g>
	<g>
		<path fill="none" stroke="#3D3D3D" stroke-width="1.6702" stroke-miterlimit="10" d="M374.08,75.761l-13.309,12.166l-4.121-3.067
			l8.045-16.087c1.93-2.592,5.595-3.127,8.184-1.197C375.473,69.504,376.009,73.169,374.08,75.761z"/>
		<g>
			<path fill="#3D3D3D" d="M341.809,29.151c1.719,0,3.389,0.702,4.638,1.953l0.667,0.664c0.021,0.022,0.039,0.045,0.059,0.065
				c0.263,0.264,0.5,0.558,0.715,0.876c0.018,0.025,0.039,0.052,0.055,0.079c0.061,0.088,0.131,0.162,0.183,0.256l26.911,35.98
				c1.375,2.068,0.803,6.512-2.033,8.147l-0.724,0.418c-0.297,0.174-0.297,0.174-0.872,0.615l-10.635,9.722l-1.971,2.642
				l-5.591,4.553l-1.288-0.957l2.762-6.664l1.969-2.643l5.809-11.614l-19.5-26.071l-23.566,33.84v21.003h11.351
				c1.337,0,2.426,1.085,2.426,2.426v9.879c2.25-0.282,4.623-0.448,7.156-0.448l0,0c17.292,0,26.807,7.71,36.977,12.21v3.156
				l-103.58-0.09v-7.467c4.185-1.978,8.639-3.947,13.776-5.333v-11.905c0-1.342,1.088-2.426,2.427-2.426h11.348v-21.34
				c0-4.179,3.031-7.641,7.011-8.331l28.219-40.526C338.018,29.978,339.941,29.151,341.809,29.151 M341.809,26.265L341.809,26.265
				c-2.891,0-5.566,1.323-7.535,3.726l-0.072,0.087l-0.063,0.093L306.55,69.788c-4.797,1.396-8.16,5.79-8.16,10.889v18.45h-8.46
				c-2.931,0-5.316,2.384-5.316,5.313v9.735c-4.659,1.438-8.668,3.26-12.122,4.893l-1.655,0.782v1.83v7.467v2.884l2.885,0.004
				l103.581,0.089l2.89,0.002v-2.891v-3.154v-1.88l-1.719-0.76c-2.271-1.005-4.521-2.181-6.901-3.429
				c-8.085-4.232-17.25-9.028-31.246-9.028c-1.44,0-2.854,0.051-4.27,0.151v-6.693c0-2.93-2.384-5.314-5.312-5.314h-8.462v-17.21
				l20.759-29.813l16.037,21.441l-4.896,9.792l-1.814,2.436l-0.217,0.289l-0.135,0.332l-2.765,6.664l-0.86,2.081l1.807,1.343
				l1.289,0.957l1.803,1.341l1.742-1.419l5.591-4.554l0.277-0.227l0.214-0.286l1.806-2.424l10.343-9.453
				c0.184-0.141,0.271-0.211,0.348-0.264c0.028-0.018,0.065-0.037,0.118-0.067l0.72-0.417c1.945-1.123,3.338-3.098,3.917-5.559
				c0.575-2.448,0.228-4.948-0.925-6.685l-0.044-0.067l-0.051-0.064l-26.837-35.882c-0.082-0.125-0.154-0.22-0.202-0.284
				c-0.018-0.022-0.031-0.044-0.048-0.066c-0.312-0.454-0.637-0.852-0.989-1.213l-0.044-0.047l-0.038-0.041l-0.041-0.04
				l-0.667-0.664C346.688,27.259,344.314,26.265,341.809,26.265L341.809,26.265L341.809,26.265z"/>
		</g>
		<path fill="none" d="M302.129,114.428h-0.002c-12.097,0-20.707,3.607-28.402,7.247v7.715l80.194,0.912
			C336.765,130.302,326.549,114.428,302.129,114.428z"/>
		<path fill="none" stroke="#262626" stroke-width="0.862" stroke-miterlimit="10" d="M305.067,76.971
			c-2.606,2.607-2.606,6.834,0,9.439l0.665,0.666c2.606,2.607,6.834,2.607,9.441,0l31.94-45.867c1.954-3.397,2.605-6.833,0-9.44
			l-0.667-0.665c-2.605-2.608-7.038-2.824-9.939,0.716L305.067,76.971z"/>
		<path fill="#EAE0D6" stroke="#3D3D3D" stroke-width="1.724" stroke-miterlimit="10" d="M305.067,76.971
			c-2.606,2.607-2.606,6.834,0,9.439l0.665,0.666c2.606,2.607,6.834,2.607,9.441,0l31.94-45.867c1.954-3.397,2.605-6.833,0-9.44
			l-0.667-0.665c-2.605-2.608-7.038-2.824-9.939,0.716L305.067,76.971z"/>
		<polygon fill="none" points="356.652,84.859 354.686,87.5 351.924,94.164 353.211,95.121 358.803,90.568 360.771,87.927 		"/>
		<polygon fill="none" stroke="#3D3D3D" stroke-width="1.6702" stroke-miterlimit="10" points="356.652,84.859 354.686,87.5 
			351.924,94.164 353.211,95.121 358.803,90.568 360.771,87.927 		"/>
		<line fill="none" x1="354.686" y1="87.5" x2="358.803" y2="90.568"/>
		
			<line fill="none" stroke="#3D3D3D" stroke-width="1.6702" stroke-miterlimit="10" x1="354.686" y1="87.5" x2="358.803" y2="90.568"/>
		<path fill="#3D3D3D" d="M351.033,94.971l-13.166,7.938c-0.275,0.166-0.365,0.522-0.199,0.801c0.166,0.272,0.523,0.361,0.8,0.196
			c0.017-0.007,0.026-0.019,0.038-0.025L351.033,94.971z"/>
		<path fill="#3D3D3D" d="M348.606,110.89l4.118-14.507l-5.224,14.145c-0.111,0.303,0.046,0.637,0.345,0.751
			c0.298,0.111,0.635-0.046,0.746-0.345C348.599,110.919,348.604,110.902,348.606,110.89"/>
		<path fill="#3D3D3D" d="M351.252,96.318l-9.65,11.5c-0.205,0.246-0.172,0.614,0.073,0.82c0.245,0.209,0.614,0.173,0.82-0.072
			c0.01-0.012,0.019-0.024,0.026-0.036L351.252,96.318z"/>
		<path fill="none" d="M319.395,80.677c0-4.675-3.788-8.464-8.462-8.464h-1.193c-4.676,0-8.464,3.79-8.464,8.464v27.338h18.12
			L319.395,80.677L319.395,80.677z"/>
		<path fill="none" d="M339.602,45.756c0,1.94,1.573,3.511,3.513,3.511c1.938,0,3.513-1.57,3.513-3.511s-1.575-3.512-3.513-3.512
			C341.175,42.245,339.602,43.816,339.602,45.756"/>
		<path fill="none" stroke="#3D3D3D" stroke-width="1.8209" stroke-miterlimit="10" d="M337.955,37.136
			c0,1.939,1.572,3.511,3.512,3.511c1.938,0,3.514-1.571,3.514-3.511c0-1.941-1.575-3.513-3.514-3.513
			C339.527,33.624,337.955,35.195,337.955,37.136z"/>
		<path fill="none" stroke="#3D3D3D" stroke-width="1.6702" stroke-miterlimit="10" d="M366.504,71.412
			c-0.459,1.72,0.562,3.486,2.281,3.945c1.717,0.463,3.484-0.557,3.947-2.276c0.459-1.719-0.562-3.485-2.28-3.947
			C368.732,68.673,366.965,69.695,366.504,71.412z"/>
		<path fill="none" stroke="#262626" stroke-width="0.862" stroke-miterlimit="10" d="M313.644,81.479
			c0,1.779-1.443,3.223-3.221,3.223c-1.781,0-3.225-1.443-3.225-3.223c0-1.78,1.444-3.224,3.225-3.224
			C312.201,78.255,313.644,79.698,313.644,81.479"/>
		<path fill="#EAE0D6" stroke="#3D3D3D" stroke-width="1.724" stroke-miterlimit="10" d="M319.395,80.677
			c0-4.675-3.788-8.464-8.462-8.464h-1.193c-4.676,0-8.464,3.79-8.464,8.464v27.338h18.12L319.395,80.677L319.395,80.677z"/>
		<path fill="#EAE0D6" stroke="#3D3D3D" stroke-width="1.724" stroke-miterlimit="10" d="M333.17,114.319v-9.879
			c0-1.341-1.089-2.426-2.426-2.426h-40.817c-1.339,0-2.427,1.085-2.427,2.426v12.299"/>
		<path fill="none" stroke="#3D3D3D" stroke-width="0.862" stroke-miterlimit="10" d="M333.17,116.978V104.44
			c0-1.341-1.089-2.426-2.426-2.426h-40.817c-1.339,0-2.427,1.085-2.427,2.426v12.537H333.17z"/>
		<path fill="#EAE0D6" stroke="#3D3D3D" stroke-width="1.724" stroke-miterlimit="10" d="M288.537,128.568
			c17.155,0,27.37-14.697,51.79-14.697l0,0l0,0c16.882,0,26.977,7.024,37.268,11.359v4.005h-23.63"/>
		<polyline fill="none" points="343.523,128.578 343.523,118.266 321.353,118.266 		"/>
		<path fill="#EAE0D6" stroke="#3D3D3D" stroke-width="1.724" stroke-miterlimit="10" d="M273.725,121.675
			c8.06-3.867,15.574-7.174,28.402-7.247l0,0h0.002c21.586,1.556,34.285,15.021,51.837,14.825h-80.242V121.675L273.725,121.675z"/>
		<circle fill="none" stroke="#3D3D3D" stroke-width="1.6702" stroke-miterlimit="10" cx="310.422" cy="81.479" r="3.223"/>
		<polyline fill="none" stroke="#3D3D3D" stroke-width="1.724" stroke-miterlimit="10" points="349.805,129.948 349.805,119.543 
			322.688,119.543 		"/>
	</g>
</g>
<polyline fill="none" stroke="#3D3D3D" stroke-width="2" stroke-miterlimit="10" points="419.688,67.727 431.694,79.732 
	419.688,91.737 "/>
<polyline fill="none" stroke="#3D3D3D" stroke-width="2" stroke-miterlimit="10" points="226.835,67.727 238.842,79.732 
	226.835,91.737 "/>
<g>
	<path fill="none" stroke="#3D3D3D" stroke-width="3.8414" stroke-miterlimit="10" d="M544.855,42.731"/>
	<g>
		<g>
			<polyline fill="#EAE0D6" stroke="#3D3D3D" stroke-width="4" stroke-miterlimit="10" points="544.855,107.52 489.429,79.732 
				544.855,51.944 			"/>
			<polygon fill="#EAE0D6" stroke="#3D3D3D" stroke-width="4" stroke-miterlimit="10" points="543.167,110.89 481.019,79.732 
				543.167,48.575 546.545,55.314 497.839,79.732 546.545,104.149 			"/>
		</g>
		<circle fill="#EAE0D6" stroke="#3D3D3D" stroke-width="4" stroke-miterlimit="10" cx="489.429" cy="79.732" r="11.205"/>
		<circle fill="#EAE0D6" stroke="#3D3D3D" stroke-width="4" stroke-miterlimit="10" cx="544.855" cy="51.944" r="11.204"/>
		<circle fill="#EAE0D6" stroke="#3D3D3D" stroke-width="4" stroke-miterlimit="10" cx="544.855" cy="107.519" r="11.204"/>
	</g>
</g>
</svg>
