<?xml version="1.0" encoding="utf-8"?>
<!-- Generator: Adobe Illustrator 16.0.0, SVG Export Plug-In . SVG Version: 6.00 Build 0)  -->
<!DOCTYPE svg PUBLIC "-//W3C//DTD SVG 1.1//EN" "http://www.w3.org/Graphics/SVG/1.1/DTD/svg11.dtd">
<svg version="1.1" id="Layer_1" xmlns="http://www.w3.org/2000/svg" xmlns:xlink="http://www.w3.org/1999/xlink" x="0px" y="0px"
	 width="194px" height="41px" viewBox="0 0 194 41" enable-background="new 0 0 194 41" xml:space="preserve">
<g>
	<path fill="#0AB8ED" d="M187.5,34.499c0,0.554-0.445,1-1,1H7.5c-0.552,0-1-0.446-1-1V6.501c0-0.554,0.448-1,1-1h179
		c0.555,0,1,0.446,1,1V34.499z"/>
	<rect x="34.85" y="7.999" fill="#FFFFFF" width="0.3" height="25"/>
	<g enable-background="new    ">
		<path fill="#FFFFFF" d="M46.879,15.168h1.219v8.419h4.034v1.022h-5.253V15.168z"/>
		<path fill="#FFFFFF" d="M59.385,21.163c0,2.508-1.737,3.601-3.375,3.601c-1.835,0-3.25-1.345-3.25-3.488
			c0-2.27,1.485-3.6,3.362-3.6C58.068,17.676,59.385,19.091,59.385,21.163z M54.006,21.233c0,1.485,0.854,2.605,2.059,2.605
			c1.177,0,2.059-1.106,2.059-2.634c0-1.148-0.574-2.604-2.031-2.604C54.636,18.601,54.006,19.945,54.006,21.233z"/>
		<path fill="#FFFFFF" d="M66.776,17.83c-0.028,0.49-0.056,1.036-0.056,1.862v3.937c0,1.555-0.308,2.507-0.966,3.096
			c-0.659,0.616-1.611,0.812-2.465,0.812c-0.812,0-1.709-0.196-2.255-0.561l0.308-0.938c0.448,0.28,1.148,0.532,1.989,0.532
			c1.261,0,2.185-0.658,2.185-2.367v-0.757h-0.028c-0.378,0.631-1.107,1.135-2.157,1.135c-1.681,0-2.886-1.429-2.886-3.306
			c0-2.297,1.499-3.6,3.054-3.6c1.177,0,1.821,0.616,2.115,1.177h0.028l0.056-1.022H66.776z M65.501,20.505
			c0-0.21-0.014-0.392-0.07-0.56c-0.224-0.715-0.827-1.303-1.723-1.303c-1.176,0-2.017,0.994-2.017,2.562
			c0,1.331,0.672,2.438,2.003,2.438c0.756,0,1.442-0.476,1.709-1.261c0.07-0.21,0.098-0.448,0.098-0.658V20.505z"/>
		<path fill="#FFFFFF" d="M70.05,15.925c0.014,0.42-0.294,0.756-0.785,0.756c-0.434,0-0.742-0.336-0.742-0.756
			c0-0.435,0.322-0.771,0.77-0.771C69.756,15.154,70.05,15.49,70.05,15.925z M68.677,24.609V17.83h1.233v6.779H68.677z"/>
		<path fill="#FFFFFF" d="M71.953,19.665c0-0.701-0.014-1.275-0.056-1.835h1.093l0.07,1.12h0.028
			c0.336-0.645,1.121-1.274,2.241-1.274c0.938,0,2.395,0.561,2.395,2.886v4.048h-1.232v-3.908c0-1.093-0.406-2.003-1.569-2.003
			c-0.812,0-1.443,0.574-1.653,1.261c-0.056,0.154-0.084,0.364-0.084,0.574v4.076h-1.233V19.665z"/>
		<path fill="#FFFFFF" d="M83.181,17.83l0.896,3.445c0.196,0.757,0.378,1.457,0.504,2.157h0.042
			c0.154-0.687,0.378-1.415,0.603-2.143l1.106-3.46h1.037l1.05,3.39c0.252,0.812,0.448,1.526,0.603,2.213h0.042
			c0.112-0.687,0.294-1.4,0.518-2.199l0.967-3.403h1.219l-2.186,6.779h-1.121l-1.036-3.235c-0.238-0.757-0.435-1.429-0.603-2.228
			h-0.028c-0.168,0.812-0.378,1.513-0.617,2.241l-1.092,3.222h-1.121L81.92,17.83H83.181z"/>
		<path fill="#FFFFFF" d="M94.368,15.925c0.014,0.42-0.294,0.756-0.785,0.756c-0.434,0-0.742-0.336-0.742-0.756
			c0-0.435,0.322-0.771,0.77-0.771C94.073,15.154,94.368,15.49,94.368,15.925z M92.995,24.609V17.83h1.233v6.779H92.995z"/>
		<path fill="#FFFFFF" d="M97.756,15.883v1.947h1.765v0.938h-1.765v3.655c0,0.841,0.238,1.317,0.924,1.317
			c0.322,0,0.561-0.042,0.715-0.084l0.056,0.924c-0.237,0.099-0.616,0.168-1.093,0.168c-0.574,0-1.036-0.182-1.331-0.518
			c-0.35-0.364-0.476-0.967-0.476-1.766v-3.697H95.5V17.83h1.051v-1.625L97.756,15.883z"/>
		<path fill="#FFFFFF" d="M100.904,14.664h1.233v4.23h0.028c0.195-0.351,0.504-0.658,0.882-0.869c0.364-0.21,0.799-0.35,1.261-0.35
			c0.91,0,2.367,0.561,2.367,2.899v4.034h-1.232v-3.895c0-1.092-0.406-2.017-1.568-2.017c-0.799,0-1.43,0.561-1.653,1.232
			c-0.07,0.168-0.084,0.351-0.084,0.589v4.09h-1.233V14.664z"/>
		<path fill="#FFFFFF" d="M112.903,16.205h-2.872v-1.037h6.99v1.037h-2.885v8.404h-1.233V16.205z"/>
		<path fill="#FFFFFF" d="M117.957,17.83l0.896,3.445c0.195,0.757,0.378,1.457,0.504,2.157h0.042
			c0.154-0.687,0.378-1.415,0.603-2.143l1.106-3.46h1.036l1.051,3.39c0.252,0.812,0.448,1.526,0.603,2.213h0.042
			c0.111-0.687,0.294-1.4,0.518-2.199l0.967-3.403h1.219l-2.186,6.779h-1.12l-1.036-3.235c-0.238-0.757-0.435-1.429-0.603-2.228
			h-0.028c-0.168,0.812-0.378,1.513-0.616,2.241l-1.093,3.222h-1.12l-2.046-6.779H117.957z"/>
		<path fill="#FFFFFF" d="M129.144,15.925c0.014,0.42-0.294,0.756-0.784,0.756c-0.435,0-0.742-0.336-0.742-0.756
			c0-0.435,0.321-0.771,0.77-0.771C128.85,15.154,129.144,15.49,129.144,15.925z M127.771,24.609V17.83h1.233v6.779H127.771z"/>
		<path fill="#FFFFFF" d="M132.531,15.883v1.947h1.766v0.938h-1.766v3.655c0,0.841,0.238,1.317,0.924,1.317
			c0.322,0,0.561-0.042,0.715-0.084l0.057,0.924c-0.238,0.099-0.617,0.168-1.093,0.168c-0.575,0-1.036-0.182-1.331-0.518
			c-0.35-0.364-0.477-0.967-0.477-1.766v-3.697h-1.051V17.83h1.051v-1.625L132.531,15.883z"/>
		<path fill="#FFFFFF" d="M137.165,15.883v1.947h1.765v0.938h-1.765v3.655c0,0.841,0.238,1.317,0.925,1.317
			c0.322,0,0.561-0.042,0.715-0.084l0.055,0.924c-0.237,0.099-0.615,0.168-1.092,0.168c-0.574,0-1.037-0.182-1.331-0.518
			c-0.351-0.364-0.476-0.967-0.476-1.766v-3.697h-1.051V17.83h1.051v-1.625L137.165,15.883z"/>
		<path fill="#FFFFFF" d="M140.916,21.443c0.028,1.667,1.094,2.354,2.326,2.354c0.882,0,1.414-0.154,1.877-0.351l0.209,0.883
			c-0.434,0.196-1.176,0.42-2.254,0.42c-2.088,0-3.334-1.372-3.334-3.417c0-2.046,1.204-3.656,3.18-3.656
			c2.213,0,2.801,1.947,2.801,3.193c0,0.252-0.027,0.448-0.041,0.574H140.916z M144.53,20.562c0.015-0.785-0.322-2.003-1.709-2.003
			c-1.247,0-1.793,1.148-1.891,2.003H144.53z"/>
		<path fill="#FFFFFF" d="M147.244,19.945c0-0.799-0.014-1.485-0.057-2.115h1.079l0.042,1.33h0.057
			c0.308-0.91,1.051-1.484,1.877-1.484c0.14,0,0.238,0.014,0.35,0.042v1.162c-0.126-0.027-0.252-0.042-0.42-0.042
			c-0.869,0-1.484,0.659-1.652,1.583c-0.029,0.168-0.057,0.364-0.057,0.574v3.614h-1.219V19.945z"/>
	</g>
	<g>
		<path fill="#FFFFFF" d="M28.364,13.847c-0.674,0.399-1.421,0.688-2.216,0.849c-0.635-0.681-1.542-1.103-2.545-1.103
			c-1.926,0-3.487,1.562-3.487,3.485c0,0.273,0.03,0.539,0.089,0.795c-2.897-0.145-5.468-1.532-7.188-3.645
			c-0.301,0.516-0.474,1.115-0.474,1.754c0,1.211,0.616,2.277,1.553,2.902c-0.571-0.018-1.109-0.174-1.579-0.436
			c0,0.014,0,0.028,0,0.045c0,1.688,1.201,3.1,2.798,3.42c-0.293,0.08-0.603,0.121-0.92,0.121c-0.226,0-0.443-0.021-0.656-0.062
			c0.444,1.387,1.732,2.395,3.259,2.424c-1.193,0.934-2.698,1.492-4.332,1.492c-0.282,0-0.56-0.017-0.832-0.05
			c1.544,0.99,3.377,1.566,5.348,1.566c6.416,0,9.923-5.314,9.923-9.924c0-0.15-0.002-0.302-0.009-0.451
			c0.681-0.49,1.271-1.105,1.738-1.806c-0.624,0.277-1.297,0.466-2.003,0.55C27.55,15.345,28.103,14.661,28.364,13.847z"/>
	</g>
</g>
</svg>
