<?xml version="1.0" encoding="utf-8"?>
<!-- Generator: Adobe Illustrator 16.0.0, SVG Export Plug-In . SVG Version: 6.00 Build 0)  -->
<!DOCTYPE svg PUBLIC "-//W3C//DTD SVG 1.1//EN" "http://www.w3.org/Graphics/SVG/1.1/DTD/svg11.dtd">
<svg version="1.1" id="Layer_1" xmlns="http://www.w3.org/2000/svg" xmlns:xlink="http://www.w3.org/1999/xlink" x="0px" y="0px"
	 width="114px" height="110px" viewBox="0 0 114 110" enable-background="new 0 0 114 110" xml:space="preserve">
<g>
	<g>
		<path fill="none" stroke="#3D3D3D" stroke-width="9.6" stroke-miterlimit="10" d="M17.188,35.3
			c7.262-14.646,22.36-24.71,39.812-24.71"/>
		<path fill="none" stroke="#3D3D3D" stroke-width="9.6" stroke-miterlimit="10" d="M23.182,83.784
			C16.576,76.03,12.591,65.982,12.591,55c0-7.074,1.658-13.763,4.598-19.7"/>
		<path fill="none" stroke="#3D3D3D" stroke-width="9.6" stroke-miterlimit="10" d="M101.409,55c0,24.526-19.88,44.41-44.408,44.41
			c-13.543,0-25.672-6.065-33.819-15.626"/>
		<path fill="none" stroke="#3D3D3D" stroke-width="2" stroke-miterlimit="10" d="M57.001,10.59
			c24.528,0,44.408,19.886,44.408,44.41"/>
	</g>
	<g>
		<g>
			<path fill="#3D3D3D" d="M35.712,63.966V49.514l-4.091,3.553v-4.71l4.091-3.553h4.414v19.162H35.712z"/>
			<path fill="#3D3D3D" d="M47.662,57.157v-4.845h4.844v4.845H47.662z M47.662,63.966v-4.845h4.844v4.845H47.662z"/>
			<path fill="#3D3D3D" d="M69.272,58.233c0,1.005-0.175,1.875-0.524,2.61c-0.35,0.736-0.816,1.346-1.399,1.83
				s-1.261,0.848-2.032,1.09s-1.579,0.363-2.422,0.363c-0.79,0-1.565-0.112-2.328-0.336c-0.763-0.225-1.444-0.574-2.045-1.05
				c-0.602-0.476-1.086-1.094-1.454-1.857c-0.367-0.762-0.552-1.682-0.552-2.758h4.414c0,0.682,0.188,1.188,0.565,1.521
				s0.843,0.498,1.399,0.498c0.574,0,1.045-0.171,1.413-0.512c0.367-0.341,0.552-0.852,0.552-1.534c0-0.574-0.193-1.054-0.579-1.439
				s-0.874-0.579-1.467-0.579h-0.619v-3.821h0.619c0.664,0,1.135-0.192,1.413-0.579c0.278-0.386,0.417-0.794,0.417-1.225
				c0-0.609-0.175-1.067-0.524-1.372s-0.758-0.458-1.225-0.458s-0.875,0.157-1.225,0.472c-0.35,0.313-0.524,0.758-0.524,1.332
				h-4.414c0-0.897,0.161-1.704,0.484-2.423c0.323-0.717,0.763-1.327,1.318-1.83c0.557-0.502,1.207-0.883,1.951-1.144
				c0.745-0.26,1.548-0.39,2.409-0.39c0.896,0,1.718,0.139,2.463,0.417c0.744,0.278,1.395,0.668,1.951,1.171
				c0.556,0.502,0.986,1.103,1.292,1.803c0.305,0.7,0.457,1.463,0.457,2.288c0,0.521-0.059,0.981-0.175,1.386
				c-0.117,0.403-0.27,0.753-0.458,1.05c-0.188,0.296-0.399,0.547-0.632,0.753c-0.233,0.207-0.476,0.391-0.727,0.552
				c0.269,0.18,0.533,0.391,0.794,0.633c0.26,0.242,0.493,0.529,0.699,0.861s0.377,0.718,0.512,1.157S69.272,57.659,69.272,58.233z"
				/>
			<path fill="#3D3D3D" d="M85.339,58.152c0,0.987-0.17,1.854-0.511,2.598s-0.799,1.368-1.373,1.87
				c-0.574,0.503-1.233,0.879-1.978,1.131c-0.745,0.251-1.512,0.376-2.302,0.376c-0.789,0-1.557-0.125-2.301-0.376
				c-0.744-0.252-1.404-0.628-1.978-1.131c-0.575-0.502-1.032-1.126-1.373-1.87s-0.512-1.61-0.512-2.598v-7.535
				c0-0.987,0.171-1.853,0.512-2.598c0.341-0.744,0.798-1.368,1.373-1.87c0.573-0.502,1.233-0.879,1.978-1.131
				c0.744-0.251,1.512-0.376,2.301-0.376c0.79,0,1.557,0.125,2.302,0.376c0.744,0.252,1.403,0.629,1.978,1.131
				s1.032,1.126,1.373,1.87c0.341,0.745,0.511,1.61,0.511,2.598V58.152z M80.926,50.617c0-0.682-0.175-1.185-0.525-1.508
				c-0.35-0.322-0.758-0.484-1.225-0.484s-0.874,0.162-1.225,0.484c-0.35,0.323-0.524,0.826-0.524,1.508v7.562
				c0,0.682,0.175,1.18,0.524,1.493c0.351,0.314,0.758,0.472,1.225,0.472s0.875-0.157,1.225-0.472
				c0.351-0.313,0.525-0.812,0.525-1.493V50.617z"/>
		</g>
	</g>
</g>
</svg>
