<?xml version="1.0" encoding="utf-8"?>
<!-- Generator: Adobe Illustrator 16.0.0, SVG Export Plug-In . SVG Version: 6.00 Build 0)  -->
<!DOCTYPE svg PUBLIC "-//W3C//DTD SVG 1.1//EN" "http://www.w3.org/Graphics/SVG/1.1/DTD/svg11.dtd">
<svg version="1.1" id="Layer_1" xmlns="http://www.w3.org/2000/svg" xmlns:xlink="http://www.w3.org/1999/xlink" x="0px" y="0px"
	 width="114px" height="110px" viewBox="0 0 114 110" enable-background="new 0 0 114 110" xml:space="preserve">
<path fill="#3D3D3D" d="M12.887,32.815C9.504,39.644,7.79,46.989,7.79,54.645c0,11.684,4.168,23.012,11.737,31.897l0.001-0.001
	C28.902,97.545,42.56,103.854,57,103.854c27.134,0,49.208-22.075,49.208-49.21c0-27.135-22.074-49.21-49.208-49.21
	c-18.836,0-35.739,10.49-44.112,27.377 M57,94.255c-11.624,0-22.618-5.081-30.165-13.939l-0.001,0.001
	c-6.09-7.15-9.444-16.268-9.444-25.671c0-6.165,1.379-12.077,4.1-17.57l0,0C28.231,23.479,41.838,15.034,57,15.034
	c21.84,0,39.608,17.769,39.608,39.61S78.84,94.255,57,94.255z"/>
</svg>
