<?xml version="1.0" encoding="utf-8"?>
<!-- Generator: Adobe Illustrator 16.0.0, SVG Export Plug-In . SVG Version: 6.00 Build 0)  -->
<!DOCTYPE svg PUBLIC "-//W3C//DTD SVG 1.1//EN" "http://www.w3.org/Graphics/SVG/1.1/DTD/svg11.dtd">
<svg version="1.1" id="Layer_1" xmlns="http://www.w3.org/2000/svg" xmlns:xlink="http://www.w3.org/1999/xlink" x="0px" y="0px"
	 width="190px" height="120px" viewBox="0 35 190 120" enable-background="new 0 35 190 120" xml:space="preserve">
<g>
	<rect x="36.5" y="47" fill="none" stroke="#3D3D3D" stroke-width="2" stroke-miterlimit="10" width="117" height="96"/>
	<g>
		<path fill="#3D3D3D" d="M129.078,100.732c-0.182-1.728-1.604-3.074-3.361-3.127v-1.606c0-0.959-0.752-1.735-1.697-1.788v-1.607
			c0-2.239-1.43-4.148-3.418-4.876c0.008-0.072,0.022-0.146,0.022-0.219c0-14.104-11.476-25.576-25.578-25.576
			c-14.101,0-25.577,11.473-25.577,25.576c0,0.073,0.013,0.146,0.021,0.219c-1.99,0.728-3.416,2.637-3.416,4.876v1.607
			c-0.946,0.053-1.701,0.829-1.701,1.788v8.492c0,0.959,0.755,1.737,1.701,1.788v1.605c0,2.863,2.327,5.197,5.191,5.197h3.397
			c0.994,0,1.798-0.809,1.798-1.8v-22.08c0-0.792-0.516-1.458-1.228-1.697c-0.181-0.059-0.368-0.101-0.57-0.101h-1.595
			c0.054-12.075,9.891-21.88,21.977-21.88c12.085,0,21.922,9.805,21.978,21.88h-1.597c-0.2,0-0.388,0.041-0.567,0.101
			c-0.715,0.239-1.229,0.905-1.229,1.697v22.08c0,0.991,0.806,1.8,1.798,1.8h3.398c2.863,0,5.193-2.331,5.193-5.197v-1.604
			c0.658-0.038,1.217-0.428,1.498-0.982v5.985c0,0.399-0.164,9.53-13.916,10.062c-0.555-0.896-1.5-1.521-2.604-1.636
			c-0.116-0.024-0.239-0.037-0.364-0.037h-5.095c-0.124,0-0.245,0.013-0.362,0.037c-1.755,0.187-3.133,1.656-3.133,3.461
			c0,1.804,1.378,3.274,3.133,3.459c0.117,0.022,0.239,0.035,0.362,0.035h5.095c0.125,0,0.248-0.013,0.364-0.035
			c1.127-0.12,2.087-0.764,2.637-1.692c17.267-0.621,17.482-13.521,17.482-13.653v-10.191
			C129.113,100.971,129.102,100.85,129.078,100.732z M72.866,109.486h-1.599c-0.881,0-1.599-0.717-1.599-1.602V92.604
			c0-0.884,0.717-1.601,1.603-1.601h1.596L72.866,109.486L72.866,109.486z M120.423,107.889c0,0.883-0.716,1.603-1.599,1.603h-1.6
			V91.004h1.6c0.883,0,1.599,0.719,1.599,1.6V107.889z"/>
	</g>
</g>
</svg>
