<?xml version="1.0" encoding="utf-8"?>
<!-- Generator: Adobe Illustrator 16.0.0, SVG Export Plug-In . SVG Version: 6.00 Build 0)  -->
<!DOCTYPE svg PUBLIC "-//W3C//DTD SVG 1.1//EN" "http://www.w3.org/Graphics/SVG/1.1/DTD/svg11.dtd">
<svg version="1.1" id="Layer_1" xmlns="http://www.w3.org/2000/svg" xmlns:xlink="http://www.w3.org/1999/xlink" x="0px" y="0px"
	 width="190px" height="120px" viewBox="0 35 190 120" enable-background="new 0 35 190 120" xml:space="preserve">
<g>
	<g>
		<rect x="36.5" y="47" fill="none" stroke="#3D3D3D" stroke-width="2" stroke-miterlimit="10" width="117" height="96"/>
	</g>
	<g>
		<path fill="none" stroke="#3D3D3D" stroke-width="4" stroke-linecap="round" stroke-miterlimit="10" d="M113.5,84v13.5
			c0,10.477-8.523,19-19,19c-10.477,0-19-8.523-19-19V84"/>
		<path fill="none" stroke="#3D3D3D" stroke-width="4" stroke-linecap="round" stroke-miterlimit="10" d="M105.5,98
			c0,6.075-4.925,11-11,11l0,0c-6.075,0-11-4.925-11-11V75c0-6.075,4.925-11,11-11l0,0c6.075,0,11,4.925,11,11V98z"/>
		
			<line fill="none" stroke="#3D3D3D" stroke-width="4" stroke-linecap="round" stroke-miterlimit="10" x1="94.5" y1="118" x2="94.5" y2="127"/>
		
			<line fill="none" stroke="#3D3D3D" stroke-width="4" stroke-linecap="round" stroke-miterlimit="10" x1="106.5" y1="127" x2="82.5" y2="127"/>
		<path fill="#3D3D3D" d="M70.604,87.083c0,2.744,1.509,4.966,4.896,5.065V82.017C72.109,82.118,70.604,84.339,70.604,87.083z"/>
		<path fill="#3D3D3D" d="M118.396,87.083c0,2.744-1.896,4.966-4.896,5.065V82.017C116.5,82.118,118.396,84.339,118.396,87.083z"/>
	</g>
</g>
</svg>
