<?xml version="1.0" encoding="utf-8"?>
<!-- Generator: Adobe Illustrator 16.0.0, SVG Export Plug-In . SVG Version: 6.00 Build 0)  -->
<!DOCTYPE svg PUBLIC "-//W3C//DTD SVG 1.1//EN" "http://www.w3.org/Graphics/SVG/1.1/DTD/svg11.dtd">
<svg version="1.1" id="Layer_1" xmlns="http://www.w3.org/2000/svg" xmlns:xlink="http://www.w3.org/1999/xlink" x="0px" y="0px"
	 width="163px" height="120px" viewBox="0 0 163 120" enable-background="new 0 0 163 120" xml:space="preserve">
<g>
	<g>
		<rect x="22.5" y="12" fill="none" stroke="#3D3D3D" stroke-width="2" stroke-miterlimit="10" width="118" height="96"/>
		<g id="Your_Icon_1_">
			<path fill="#3D3D3D" d="M83.805,31.443V20.681h-2.999v10.763C63.561,32.019,62.064,42.67,62.064,44.852v32.744
				c0,5.35,5.558,17.822,20.245,17.822c14.701,0,20.242-12.719,20.242-17.822V44.852C102.551,42.67,101.05,32.02,83.805,31.443z
				 M99.553,44.852v13.132c-2.25,0.599-7.498,1.855-15.748,1.992v-3.052c1.502-0.511,2.252-1.612,2.252-2.896v-10.72
				c0-1.281-0.75-2.382-2.252-2.895v-5.984C98.053,34.922,99.553,42.48,99.553,44.852z M82.869,54.015
				c-0.021,0.066-0.227,0.23-0.561,0.23c-0.336,0-0.542-0.164-0.562-0.216l-0.002-10.706c0.023-0.067,0.227-0.229,0.562-0.229
				c0.334,0,0.541,0.162,0.559,0.214L82.869,54.015z M80.806,34.429v5.984c-1.498,0.511-2.249,1.613-2.249,2.895V54.03
				c0,1.283,0.751,2.385,2.249,2.896v3.051c-8.247-0.137-13.493-1.395-15.743-1.992V44.852
				C65.063,42.48,66.561,34.922,80.806,34.429z M82.309,92.43c-12.499,0-17.246-11.109-17.246-14.834V61.102
				c2.998,0.765,8.562,1.881,17.246,1.881c8.68,0,14.244-1.118,17.244-1.881v16.494C99.553,81.614,94.004,92.43,82.309,92.43z"/>
		</g>
	</g>
</g>
</svg>
