<?xml version="1.0" encoding="utf-8"?>
<!-- Generator: Adobe Illustrator 16.0.0, SVG Export Plug-In . SVG Version: 6.00 Build 0)  -->
<!DOCTYPE svg PUBLIC "-//W3C//DTD SVG 1.1//EN" "http://www.w3.org/Graphics/SVG/1.1/DTD/svg11.dtd">
<svg version="1.1" id="Layer_1" xmlns="http://www.w3.org/2000/svg" xmlns:xlink="http://www.w3.org/1999/xlink" x="0px" y="0px"
	 width="163px" height="120px" viewBox="0 0 163 120" enable-background="new 0 0 163 120" xml:space="preserve">
<g>
	<path fill="#3D3D3D" d="M140,2v92H24V2H140 M142,0H22v96h120V0L142,0z"/>
</g>
<g>
	<path fill="#3D3D3D" d="M78.319,26.752l1.733,41.773l0.672-41.824c0-0.032-0.002,0.035-0.005,0
		c-0.036-0.662-0.607-1.268-1.272-1.224C78.781,25.518,78.279,26.087,78.319,26.752z"/>
	<path fill="#3D3D3D" d="M91.273,43.672l-0.007,0.008l-0.005,0.032l-0.006,0.02l-0.001,0.003l-3.013,21.25l5.308-20.541
		c0.009-0.031,0.022-0.058,0.028-0.084l0.002-0.01c0.617-2.094,2.01-3.826,3.93-4.872c1.895-1.032,4.065-1.265,6.106-0.646
		c0.364,0.106,0.708,0.237,1.032,0.381c0.604,0.269,1.315-0.008,1.59-0.615c0.123-0.285,0.133-0.596,0.039-0.871
		c-0.104-0.31-0.335-0.576-0.656-0.723c-0.406-0.178-0.85-0.338-1.309-0.484c-2.666-0.794-5.489-0.496-7.954,0.84
		C93.873,38.721,92.07,40.958,91.273,43.672z"/>
	<path fill="#3D3D3D" d="M55.477,36.384c-0.629,0.212-0.966,0.897-0.754,1.525l0,0c0.213,0.63,0.895,0.97,1.525,0.757
		c2.059-0.695,4.262-0.55,6.211,0.412c1.945,0.961,3.401,2.625,4.096,4.679l0.003,0.008l4.411,20.997l-2.131-21.767v-0.003
		c-0.009-0.025-0.02-0.058-0.028-0.083l-0.013-0.015c-0.916-2.626-2.781-4.743-5.271-5.972
		C61.004,35.676,58.141,35.481,55.477,36.384z"/>
</g>
</svg>
