<?xml version="1.0" encoding="utf-8"?>
<!-- Generator: Adobe Illustrator 16.0.0, SVG Export Plug-In . SVG Version: 6.00 Build 0)  -->
<!DOCTYPE svg PUBLIC "-//W3C//DTD SVG 1.1//EN" "http://www.w3.org/Graphics/SVG/1.1/DTD/svg11.dtd">
<svg version="1.1" id="Layer_1" xmlns="http://www.w3.org/2000/svg" xmlns:xlink="http://www.w3.org/1999/xlink" x="0px" y="0px"
	 width="130px" height="130px" viewBox="0 0 130 130" enable-background="new 0 0 130 130" xml:space="preserve">
<g>
	<rect x="20.439" y="25.642" fill="none" stroke="#3D3D3D" stroke-miterlimit="10" width="89.758" height="79.167"/>
	<g>
		<g>
			<path fill="#3D3D3D" d="M51.665,41.45c0.681,0,1.416,0.07,2.184,0.208c8.912,1.596,27.592,29.729,32.233,37.211h-3.871h-2.269
				l1.53,1.675l4.108,4.496h-5.646L66.536,71.904l-1.7-1.667v2.381v2.489h-4.368h-1v1v5.275v1h1h2.107v1.221H48.424v-1.221h4.146
				h0.748l0.211-0.718l2.262-7.691l0.106-0.361l-0.158-0.342l-5.101-11.006l-0.015-0.032l-0.017-0.031
				c-0.039-0.07-3.782-7.065-0.832-9.172l0.729-0.521l-0.437-0.781l-2.184-3.907l-0.429-0.768l-0.816,0.327l-2.197,0.881
				C44.846,45.84,46.317,41.45,51.665,41.45 M51.665,40.45c-8.335,0-8.378,9.351-8.378,9.351l3.723-1.492l2.184,3.907
				c-3.758,2.684,0.537,10.469,0.537,10.469l5.101,11.007l-2.262,7.691h-5.146v3.221h16.151v-3.221h-3.107v-5.275h5.368v-3.489
				l13.691,13.421h8.322l-5.639-6.171h5.639c0.001,0.001,0.002,0.002,0.002,0.002c0.045,0-22.86-37.233-33.826-39.197
				C53.173,40.52,52.388,40.45,51.665,40.45L51.665,40.45z"/>
		</g>
	</g>
</g>
</svg>
