<?xml version="1.0" encoding="utf-8"?>
<!-- Generator: Adobe Illustrator 16.0.0, SVG Export Plug-In . SVG Version: 6.00 Build 0)  -->
<!DOCTYPE svg PUBLIC "-//W3C//DTD SVG 1.1//EN" "http://www.w3.org/Graphics/SVG/1.1/DTD/svg11.dtd">
<svg version="1.1" id="Layer_1" xmlns="http://www.w3.org/2000/svg" xmlns:xlink="http://www.w3.org/1999/xlink" x="0px" y="0px"
	 width="130px" height="130px" viewBox="0 0 130 130" enable-background="new 0 0 130 130" xml:space="preserve">
<g>
	<g>
		<g>
			<path fill="#3D3D3D" d="M97.055,70.09v-0.733l2.282-3.034h-2.155v-0.823h3.297v0.732l-2.301,3.035h2.301v0.823H97.055z"/>
		</g>
	</g>
	<g>
		<g>
			<path fill="#3D3D3D" d="M100.07,61.866v-1.051l3.271-4.352h-3.089v-1.18h4.726v1.051l-3.298,4.351h3.298v1.181H100.07z"/>
		</g>
	</g>
	<g>
		<g>
			<path fill="#3D3D3D" d="M106.482,55.366v-1.249l3.889-5.171h-3.673v-1.403h5.618v1.249l-3.921,5.171h3.921v1.403H106.482z"/>
		</g>
	</g>
	<g>
		<path fill="#EAE0D6" stroke="#3D3D3D" stroke-width="1.2949" stroke-miterlimit="10" d="M85.617,27.859
			c0.545-3.261-1.656-6.347-4.916-6.891l-0.832-0.14c-3.261-0.546-6.347,1.656-6.893,4.918l0.14,37.117
			c0.344,3.498,1.657,6.346,4.918,6.893l0.832,0.137c3.262,0.548,6.609-1.604,6.883-5.699L85.617,27.859z"/>
		<g>
			<g>
				<path fill="#EAE0D6" stroke="#3D3D3D" stroke-width="1.2949" stroke-miterlimit="10" d="M76.338,69.998l14.02,8.056l3.009-3.487
					L83.189,62.053c-2.194-1.893-5.506-1.647-7.397,0.548C73.899,64.793,74.145,68.105,76.338,69.998z"/>
				<polygon fill="#EAE0D6" stroke="#3D3D3D" stroke-width="1.2949" stroke-miterlimit="10" points="93.366,74.566 95.603,76.495 
					99.319,81.79 98.379,82.879 92.598,79.983 90.357,78.054 				"/>
				
					<line fill="#EAE0D6" stroke="#3D3D3D" stroke-width="1.2949" stroke-miterlimit="10" x1="95.603" y1="76.495" x2="92.598" y2="79.983"/>
				<circle fill="#EAE0D6" stroke="#3D3D3D" stroke-width="1.2949" stroke-miterlimit="10" cx="79.558" cy="66.053" r="2.891"/>
			</g>
		</g>
		<path fill="#EAE0D6" stroke="#3D3D3D" stroke-width="1.2949" stroke-miterlimit="10" d="M45.86,62.843
			c-2.338,2.338-2.338,6.128,0,8.465l0.596,0.597c2.337,2.338,6.129,2.338,8.468,0l28.643-41.133c1.753-3.047,2.337-6.128,0-8.466
			l-0.598-0.596c-2.337-2.34-6.312-2.533-8.914,0.643L45.86,62.843z"/>
		<circle fill="none" stroke="#3D3D3D" stroke-width="1.3677" stroke-miterlimit="10" cx="78.504" cy="27.119" r="3.151"/>
		<path fill="#EAE0D6" stroke="#3D3D3D" stroke-width="1.2949" stroke-miterlimit="10" d="M58.709,66.165
			c0-4.192-3.396-7.59-7.587-7.59h-1.07c-4.193,0-7.591,3.397-7.591,7.59v24.518h16.248V66.165z"/>
		<path fill="#EAE0D6" stroke="#3D3D3D" stroke-width="1.2949" stroke-miterlimit="10" d="M71.062,102.823V87.477
			c0-1.202-0.975-2.176-2.174-2.176H32.284c-1.2,0-2.177,0.974-2.177,2.176v11.028"/>
		<path fill="#EAE0D6" stroke="#3D3D3D" stroke-width="1.2949" stroke-miterlimit="10" d="M31.037,109.114
			c15.385,0,24.544-13.181,46.443-13.181l0,0l0,0c15.141,0,24.191,6.3,33.421,10.188v3.591H89.712"/>
		<path fill="#EAE0D6" stroke="#3D3D3D" stroke-width="1.2949" stroke-miterlimit="10" d="M17.753,102.932
			c7.229-3.469,13.966-6.433,25.472-6.499l0,0h0.002c19.357,1.396,30.744,13.47,46.485,13.296H17.753V102.932z"/>
		<circle fill="none" stroke="#3D3D3D" stroke-width="1.2545" stroke-miterlimit="10" cx="50.662" cy="66.885" r="2.89"/>
	</g>
	<g>
		<path fill="#3D3D3D" d="M78.809,19.959c1.542,0,3.039,0.628,4.16,1.75l0.547,0.545c1.595,1.316,2.467,3.419,2.103,5.604
			l0.131,36.335c-0.021,0.3-0.062,0.586-0.112,0.865l7.729,9.506l2.237,1.93l3.717,5.295l-0.939,1.089l-5.779-2.896l-2.234-1.93
			l-14.011-8.056c-0.656-0.565-1.117-1.261-1.419-2.013c-1.052-1.27-1.549-3.083-1.75-5.121l0.01-16.994L59,66.467V85.5h9.889
			c1.199,0,2.111,0.774,2.111,1.977v8.86c2-0.255,4.164-0.837,6.436-0.837h0.005c15.141,0,24.56,6.733,33.56,10.621v4.379H89.712
			l-1.709-0.026c0.565,0.025,1.133,0.026,1.709,0.026h-3.677h-1.678H18v-7.568c3-1.907,7-3.657,12-4.862V87.477
			c0-1.202,1.084-1.977,2.284-1.977H42V66.165c0-3.747,2.947-6.852,6.519-7.471l25.418-36.342
			C75.292,20.7,77.135,19.959,78.809,19.959 M78.809,17.706L78.809,17.706c-2.489,0-4.796,1.143-6.497,3.218l-0.056,0.068
			l-0.05,0.072L47.294,56.691C43.076,57.864,40,61.702,40,66.165V83.5h-7.716C29.917,83.5,28,84.883,28,87.477v8.83
			c-5,1.263-8.4,2.965-11.651,4.616L15,101.549v1.383v7.109v2.459h2.684h66.674h1.678h3.677l0,0h21.109H113v-2.459v-3.92v-1.482
			l-1.323-0.587c-1.771-0.764-3.531-1.623-5.413-2.532c-7.61-3.675-16.359-7.84-28.966-7.84c-1.391,0-2.298,0.052-4.298,0.171
			v-6.375c0-2.468-1.698-3.977-4.111-3.977H61V67.168l9.847-14.055L71,62.863v0.111l-0.021,0.111
			c0.256,2.594,0.907,4.582,2.021,6.06c0.453,1.001,1.083,1.861,1.894,2.56l0.158,0.14l0.184,0.107L89.059,79.9l2.071,1.789
			l0.212,0.183l0.25,0.126l5.779,2.896l1.569,0.786l1.146-1.329l0.939-1.089l1.147-1.33l-1.009-1.437l-3.717-5.295l-0.161-0.229
			l-0.212-0.183l-2.086-1.799l-6.995-8.602c0.001-0.013,0.001-0.026,0.002-0.039L88,64.267v-0.081l-0.129-36.16
			c0.392-2.786-0.681-5.608-2.834-7.436l-0.479-0.477C83.01,18.562,80.967,17.707,78.809,17.706L78.809,17.706L78.809,17.706z"/>
	</g>
</g>
</svg>
