<?xml version="1.0" encoding="utf-8"?>
<!-- Generator: Adobe Illustrator 16.0.0, SVG Export Plug-In . SVG Version: 6.00 Build 0)  -->
<!DOCTYPE svg PUBLIC "-//W3C//DTD SVG 1.1//EN" "http://www.w3.org/Graphics/SVG/1.1/DTD/svg11.dtd">
<svg version="1.1" id="Layer_1" xmlns="http://www.w3.org/2000/svg" xmlns:xlink="http://www.w3.org/1999/xlink" x="0px" y="0px"
	 width="130px" height="130px" viewBox="0 0 130 130" enable-background="new 0 0 130 130" xml:space="preserve">
<g>
	<g>
		<path fill="#EAE0D6" stroke="#3D3D3D" stroke-width="1.2949" stroke-miterlimit="10" d="M90.531,27.859
			c0.545-3.262-1.656-6.347-4.916-6.891l-0.832-0.14c-3.26-0.546-6.347,1.656-6.893,4.918l0.141,37.117
			c0.343,3.498,1.656,6.346,4.916,6.893l0.833,0.137c3.262,0.548,6.609-1.604,6.883-5.7L90.531,27.859z"/>
		<g>
			<g>
				<path fill="#EAE0D6" stroke="#3D3D3D" stroke-width="1.2949" stroke-miterlimit="10" d="M81.252,69.998l14.02,8.056l3.009-3.488
					L88.104,62.053c-2.194-1.893-5.506-1.647-7.397,0.548C78.813,64.793,79.059,68.106,81.252,69.998z"/>
				<polygon fill="#EAE0D6" stroke="#3D3D3D" stroke-width="1.2949" stroke-miterlimit="10" points="98.28,74.565 100.516,76.495 
					104.232,81.79 103.293,82.879 97.512,79.983 95.271,78.054 				"/>
				
					<line fill="#EAE0D6" stroke="#3D3D3D" stroke-width="1.2949" stroke-miterlimit="10" x1="100.516" y1="76.495" x2="97.512" y2="79.983"/>
				<circle fill="#EAE0D6" stroke="#3D3D3D" stroke-width="1.2949" stroke-miterlimit="10" cx="84.472" cy="66.053" r="2.891"/>
			</g>
		</g>
		<path fill="#EAE0D6" stroke="#3D3D3D" stroke-width="1.2949" stroke-miterlimit="10" d="M50.773,62.842
			c-2.337,2.339-2.337,6.129,0,8.466l0.597,0.596c2.337,2.34,6.13,2.34,8.467,0L88.48,30.771c1.753-3.047,2.337-6.128,0-8.466
			l-0.598-0.596c-2.337-2.34-6.312-2.533-8.914,0.643L50.773,62.842z"/>
		<circle fill="none" stroke="#3D3D3D" stroke-width="1.3677" stroke-miterlimit="10" cx="83.418" cy="27.119" r="3.151"/>
		<path fill="#EAE0D6" stroke="#3D3D3D" stroke-width="1.2949" stroke-miterlimit="10" d="M63.623,66.165
			c0-4.192-3.396-7.59-7.587-7.59h-1.07c-4.192,0-7.591,3.397-7.591,7.59v24.518h16.248V66.165z"/>
		<path fill="#EAE0D6" stroke="#3D3D3D" stroke-width="1.2949" stroke-miterlimit="10" d="M75.977,102.823V87.477
			c0-1.202-0.975-2.176-2.174-2.176H37.199c-1.201,0-2.178,0.974-2.178,2.176v11.028"/>
		<path fill="#EAE0D6" stroke="#3D3D3D" stroke-width="1.2949" stroke-miterlimit="10" d="M35.951,109.114
			c15.385,0,24.544-13.181,46.443-13.181l0,0l0,0c15.141,0,24.191,6.3,33.42,10.188v3.591H94.626"/>
		<path fill="#EAE0D6" stroke="#3D3D3D" stroke-width="1.2949" stroke-miterlimit="10" d="M22.667,102.933
			c7.229-3.469,13.966-6.434,25.472-6.5l0,0h0.002c19.357,1.396,30.744,13.47,46.485,13.296H22.667V102.933z"/>
		<circle fill="none" stroke="#3D3D3D" stroke-width="1.2545" stroke-miterlimit="10" cx="55.576" cy="66.885" r="2.889"/>
	</g>
	<g>
		<path fill="#3D3D3D" d="M83.723,19.959c1.542,0,3.04,0.628,4.16,1.75l0.547,0.545c1.596,1.315,2.467,3.419,2.102,5.604
			l0.132,36.334c-0.021,0.301-0.062,0.587-0.112,0.866l7.729,9.506l2.237,1.93l3.717,5.295l-0.939,1.089l-5.779-2.896l-2.234-1.93
			L81.27,69.998c-0.655-0.565-1.116-1.261-1.418-2.013c-1.053-1.27-1.549-3.083-1.75-5.121l0.053-16.994L64,66.467V85h9.803
			C75.002,85,76,86.274,76,87.477v8.86C78,96.082,80.078,96,82.35,96h0.006C97.495,96,107,102.233,116,106.121V110H94.626
			l-1.709-0.026c0.565,0.025,1.133,0.026,1.709,0.026h-3.677h-1.678H23v-7.067c3-1.908,7-3.658,12-4.863V87.477
			C35,86.274,35.998,85,37.199,85H47V66.165c0-3.747,2.904-6.852,6.476-7.471l25.397-36.342
			C80.227,20.7,82.049,19.959,83.723,19.959 M83.723,17.706L83.723,17.706c-2.488,0-4.796,1.143-6.497,3.218l-0.056,0.068
			l-0.051,0.072L52.251,56.691C48.033,57.864,45,61.702,45,66.165V83h-7.801C34.832,83,33,84.884,33,87.477v8.83
			c-5,1.264-8.402,2.966-11.652,4.617L20,101.55v1.383v7.108V112h2.598h66.674h1.678h3.677l0,0h21.109H118v-1.959v-3.92v-1.482
			l-1.366-0.587c-1.771-0.764-3.551-1.622-5.433-2.53c-7.61-3.676-16.328-7.841-28.934-7.841c-1.393,0-2.268,0.052-4.268,0.171
			v-6.375C78,85.009,76.217,83,73.803,83H66V67.168l9.848-14.055L76,62.863v0.111l-0.064,0.111c0.256,2.595,0.886,4.583,2,6.061
			c0.452,1,1.071,1.859,1.881,2.558l0.153,0.141l0.182,0.106l13.822,7.948l2.07,1.789l0.212,0.184l0.25,0.126l5.779,2.896
			l1.569,0.786l1.146-1.329l0.939-1.089l1.147-1.329l-1.009-1.438l-3.717-5.295l-0.161-0.229l-0.212-0.183l-2.086-1.8l-6.995-8.602
			c0.001-0.014,0.043-0.027,0.045-0.041L93,64.266v-0.081l-0.173-36.158c0.394-2.788-0.7-5.61-2.854-7.437l-0.488-0.476
			C87.935,18.562,85.881,17.707,83.723,17.706L83.723,17.706L83.723,17.706z"/>
	</g>
	<g>
		<g>
			<path fill="#3D3D3D" d="M26.391,76.448c-5.518,0-10.008-4.49-10.008-10.008c0-5.519,4.49-10.008,10.008-10.008
				s10.008,4.489,10.008,10.008C36.398,71.958,31.908,76.448,26.391,76.448z M26.391,59.864c-3.626,0-6.576,2.949-6.576,6.576
				c0,3.626,2.95,6.576,6.576,6.576c3.627,0,6.576-2.95,6.576-6.576C32.967,62.813,30.018,59.864,26.391,59.864z"/>
		</g>
		<g>
			<g>
				<path fill="#3D3D3D" d="M26.391,71.038c-2.535,0-4.598-2.062-4.598-4.598s2.062-4.598,4.598-4.598s4.598,2.062,4.598,4.598
					S28.926,71.038,26.391,71.038z M26.391,63.419c-1.666,0-3.021,1.355-3.021,3.021s1.355,3.021,3.021,3.021
					s3.021-1.355,3.021-3.021S28.057,63.419,26.391,63.419z"/>
			</g>
			<g>
				<path fill="#3D3D3D" d="M24.658,78.507c-1.152-0.164-2.273-0.49-3.333-0.973l1.29-2.833c0.788,0.358,1.621,0.602,2.479,0.723
					L24.658,78.507z M28.122,78.503l-0.44-3.082c0.855-0.123,1.688-0.367,2.473-0.728l1.299,2.829
					C30.396,78.008,29.273,78.337,28.122,78.503z M18.407,75.661c-0.88-0.761-1.646-1.641-2.276-2.616l2.615-1.689
					c0.469,0.728,1.04,1.384,1.696,1.95L18.407,75.661z M34.368,75.644l-2.042-2.351c0.656-0.567,1.225-1.226,1.693-1.954
					l2.618,1.685C36.01,74,35.245,74.882,34.368,75.644z M14.684,69.892c-0.328-1.111-0.496-2.266-0.498-3.434l3.113-0.004
					c0.002,0.87,0.125,1.73,0.369,2.556L14.684,69.892z M38.295,69.866l-3.094-0.874c0.241-0.826,0.524-1.687,0.524-2.558L39,66.391
					v0.044C39,67.603,38.62,68.757,38.295,69.866z M17.657,63.895l-2.988-0.869c0.323-1.114,0.807-2.177,1.435-3.158l2.622,1.677
					C18.258,62.275,17.898,63.066,17.657,63.895z M35.081,63.84c-0.246-0.827-0.609-1.615-1.081-2.342l2.609-1.696
					c0.635,0.978,1.125,2.038,1.455,3.152L35.081,63.84z M20.414,59.588l-2.046-2.347c0.878-0.766,1.858-1.4,2.913-1.886
					l1.301,2.828C21.798,58.545,21.068,59.017,20.414,59.588z M32.299,59.551c-0.658-0.566-1.391-1.034-2.179-1.391l1.286-2.836
					c1.057,0.479,2.04,1.107,2.923,1.867L32.299,59.551z M25.057,57.45l-0.449-3.08c1.137-0.166,2.32-0.17,3.465-0.011l-0.43,3.083
					C26.789,57.323,25.905,57.327,25.057,57.45z"/>
			</g>
		</g>
	</g>
</g>
</svg>
