<?xml version="1.0" encoding="utf-8"?>
<!-- Generator: Adobe Illustrator 16.0.0, SVG Export Plug-In . SVG Version: 6.00 Build 0)  -->
<!DOCTYPE svg PUBLIC "-//W3C//DTD SVG 1.1//EN" "http://www.w3.org/Graphics/SVG/1.1/DTD/svg11.dtd">
<svg version="1.1" id="Layer_1" xmlns="http://www.w3.org/2000/svg" xmlns:xlink="http://www.w3.org/1999/xlink" x="0px" y="0px"
	 width="570px" height="129.75px" viewBox="-18 0 570 129.75" enable-background="new -18 0 570 129.75" xml:space="preserve">
<g>
	<rect x="20" y="21" fill="none" stroke="#3D3D3D" stroke-width="2" stroke-miterlimit="10" width="117" height="96"/>
	<g>
		<path fill="#3D3D3D" d="M112.578,74.732c-0.182-1.726-1.604-3.074-3.361-3.127v-1.606c0-0.959-0.752-1.735-1.698-1.788v-1.608
			c0-2.239-1.429-4.148-3.418-4.876c0.009-0.072,0.023-0.146,0.023-0.219c0-14.104-11.475-25.576-25.578-25.576
			c-14.101,0-25.577,11.473-25.577,25.576c0,0.073,0.013,0.146,0.021,0.219c-1.99,0.728-3.416,2.637-3.416,4.876v1.608
			c-0.946,0.053-1.701,0.829-1.701,1.788v8.492c0,0.959,0.755,1.737,1.701,1.789v1.606c0,2.863,2.327,5.197,5.191,5.197h3.397
			c0.994,0,1.798-0.807,1.798-1.8v-22.08c0-0.792-0.516-1.458-1.228-1.697c-0.181-0.059-0.368-0.101-0.57-0.101h-1.595
			c0.054-12.075,9.891-21.88,21.977-21.88c12.085,0,21.922,9.805,21.977,21.88h-1.596c-0.2,0-0.388,0.041-0.568,0.101
			c-0.714,0.239-1.23,0.905-1.23,1.697v22.08c0,0.993,0.804,1.8,1.798,1.8h3.398c2.864,0,5.194-2.331,5.194-5.197v-1.604
			c0.659-0.038,1.218-0.426,1.498-0.982v5.985c0,0.401-0.164,9.532-13.915,10.063c-0.555-0.898-1.501-1.521-2.606-1.636
			c-0.116-0.024-0.239-0.037-0.364-0.037h-5.095c-0.124,0-0.245,0.013-0.362,0.037c-1.755,0.187-3.133,1.656-3.133,3.461
			c0,1.804,1.378,3.274,3.133,3.459c0.117,0.023,0.239,0.035,0.362,0.035h5.095c0.125,0,0.248-0.012,0.364-0.035
			c1.127-0.12,2.087-0.764,2.637-1.692c17.266-0.621,17.482-13.521,17.482-13.655V75.094
			C112.614,74.971,112.601,74.85,112.578,74.732z M56.366,83.486h-1.599c-0.881,0-1.599-0.717-1.599-1.6V66.603
			c0-0.883,0.717-1.6,1.603-1.6h1.596L56.366,83.486L56.366,83.486z M103.923,81.889c0,0.883-0.716,1.601-1.599,1.601h-1.599V65.004
			h1.599c0.883,0,1.599,0.718,1.599,1.599V81.889z"/>
	</g>
</g>
<g>
	<g>
		<rect x="397" y="21" fill="none" stroke="#3D3D3D" stroke-width="2" stroke-miterlimit="10" width="117" height="96"/>
	</g>
	<g>
		<path fill="none" stroke="#3D3D3D" stroke-width="4" stroke-linecap="round" stroke-miterlimit="10" d="M474,58v13.5
			c0,10.477-8.523,19-19,19s-19-8.523-19-19V58"/>
		<path fill="none" stroke="#3D3D3D" stroke-width="4" stroke-linecap="round" stroke-miterlimit="10" d="M466,72
			c0,6.075-4.925,11-11,11l0,0c-6.075,0-11-4.925-11-11V49c0-6.075,4.925-11,11-11l0,0c6.075,0,11,4.925,11,11V72z"/>
		
			<line fill="none" stroke="#3D3D3D" stroke-width="4" stroke-linecap="round" stroke-miterlimit="10" x1="455" y1="92" x2="455" y2="101"/>
		
			<line fill="none" stroke="#3D3D3D" stroke-width="4" stroke-linecap="round" stroke-miterlimit="10" x1="467" y1="101" x2="443" y2="101"/>
		<path fill="#3D3D3D" d="M431.104,61.083c0,2.744,1.508,4.966,4.896,5.066V56.017C432.609,56.118,431.104,58.339,431.104,61.083z"
			/>
		<path fill="#3D3D3D" d="M478.897,61.083c0,2.744-1.897,4.966-4.897,5.066V56.017C477,56.118,478.897,58.339,478.897,61.083z"/>
	</g>
</g>
<g>
	<g>
		<g>
			<rect x="206" y="21" fill="none" stroke="#3D3D3D" stroke-width="2" stroke-miterlimit="10" width="118" height="96"/>
		</g>
	</g>
	<g>
		<g>
			<path fill="#3D3D3D" d="M277.549,56c0,19-8.181,19.977-19.505,21.561C244.674,79.43,228.053,82,221.116,114h3.899
				c6.465-29,20.844-30.896,33.556-32.675C270.286,79.688,281.352,78,281.352,56H277.549z"/>
		</g>
		<g>
			<path fill="#EAE0D6" stroke="#3D3D3D" stroke-width="4" stroke-linejoin="round" stroke-miterlimit="10" d="M280.268,38.003
				c-0.119,0-0.268,0.014-0.268,0.018v18.42c0,0.005,0.146,0.019,0.268,0.019c5.098,0,9.229-4.132,9.229-9.229
				C289.495,42.135,285.363,38.003,280.268,38.003z"/>
			<path fill="#EAE0D6" stroke="#3D3D3D" stroke-width="4" stroke-linejoin="round" stroke-miterlimit="10" d="M280,38.051
				c-1,0.215-6,0-6,3.03V53.38c0,3.03,5,2.816,6,3.03V38.051z"/>
		</g>
		<path fill="#EAE0D6" stroke="#3D3D3D" stroke-width="3.8026" stroke-linejoin="round" stroke-miterlimit="10" d="M257.585,56.275
			c0.068,17.584-5.682,24-12.085,25.975"/>
		<g>
			<path fill="#EAE0D6" stroke="#3D3D3D" stroke-width="4" stroke-linejoin="round" stroke-miterlimit="10" d="M257.663,38.003
				c0.12,0,0.337,0.014,0.337,0.018v18.42c0,0.005-0.218,0.019-0.337,0.019c-5.097,0-9.228-4.132-9.228-9.229
				C248.435,42.135,252.566,38.003,257.663,38.003z"/>
			<path fill="#EAE0D6" stroke="#3D3D3D" stroke-width="4" stroke-linejoin="round" stroke-miterlimit="10" d="M258,38.051
				c1,0.215,6,0,6,3.03V53.38c0,3.03-5,2.816-6,3.03V38.051z"/>
		</g>
		<path fill="#EAE0D6" stroke="#3D3D3D" stroke-width="3.654" stroke-miterlimit="10" d="M232.998,97.752
			c-0.993,1.744-3.21,2.354-4.954,1.359l-0.071-0.039c-1.744-0.993-2.353-3.211-1.36-4.955l3.675-6.456
			c0.993-1.744,3.21-2.353,4.954-1.36l0.071,0.041c1.744,0.992,2.353,3.211,1.36,4.954L232.998,97.752z"/>
	</g>
</g>
</svg>
