<?xml version="1.0" encoding="utf-8"?>
<!-- Generator: Adobe Illustrator 16.0.0, SVG Export Plug-In . SVG Version: 6.00 Build 0)  -->
<!DOCTYPE svg PUBLIC "-//W3C//DTD SVG 1.1//EN" "http://www.w3.org/Graphics/SVG/1.1/DTD/svg11.dtd">
<svg version="1.1" id="titolo_EN" xmlns="http://www.w3.org/2000/svg" xmlns:xlink="http://www.w3.org/1999/xlink" x="0px" y="0px"
	 width="473.386px" height="104.882px" viewBox="-0.594 4.172 473.386 104.882"
	 enable-background="new -0.594 4.172 473.386 104.882" xml:space="preserve">
<g>
	<g>
		<g>
			<path d="M9.002,45.819c0,0-1.296,0.192-1.92,0.192c-2.878,0-3.887-1.775-3.887-4.368c0-0.576,0.049-1.198,0.145-1.871
				l2.591-18.147h3.694L7.129,39.052c-0.048,0.432-0.191,1.344-0.191,1.824c0,1.2,0.432,1.679,1.584,1.679h0.623L9.002,45.819z
				 M7.227,12.023h3.981l-0.623,4.706H6.602L7.227,12.023z"/>
		</g>
		<g>
			<path d="M17.397,21.624h3.646l0.816-5.758h3.742l-0.816,5.758h6.861l-0.479,3.41h-6.86l-1.967,14.161
				c-0.048,0.432-0.096,0.816-0.096,1.151c0,1.729,0.816,2.353,2.158,2.353c2.256,0,3.982-0.287,3.982-0.287l-0.192,3.263
				c0,0-2.351,0.432-4.559,0.432c-3.646,0-5.229-2.16-5.229-5.04c0-0.383,0.048-0.768,0.096-1.199l2.062-14.832h-3.646
				L17.397,21.624z"/>
		</g>
		<g>
			<path d="M37.788,12.023h4.077l-0.575,4.321c-0.719,4.994-3.742,6.001-5.422,6.001l0.239-1.823c1.487,0,2.398-1.441,2.591-3.025
				c0.048-0.383,0.096-0.767,0.096-0.767h-1.63L37.788,12.023z"/>
		</g>
		<g>
			<path d="M61.872,25.321c0,0-3.551-0.767-6.573-0.767c-2.446,0-5.037,1.008-5.037,3.744c0,4.655,11.659,2.063,11.659,9.505
				c0,6.288-4.654,8.304-10.076,8.304c-4.03,0-7.437-1.15-7.437-1.15l0.911-3.266c0,0,3.551,1.009,6.766,1.009
				c2.926,0,5.997-0.577,5.997-3.984c0-4.896-11.61-2.209-11.61-9.601c0-5.667,4.413-7.971,9.308-7.971
				c3.981,0,6.956,0.865,6.956,0.865L61.872,25.321z"/>
		</g>
		<g>
			<path d="M82.597,21.624h3.646l0.815-5.758h3.743l-0.816,5.758h6.861l-0.479,3.41h-6.861l-1.968,14.161
				c-0.048,0.432-0.096,0.816-0.096,1.151c0,1.729,0.815,2.353,2.159,2.353c2.255,0,3.981-0.287,3.981-0.287l-0.191,3.263
				c0,0-2.351,0.432-4.559,0.432c-3.646,0-5.229-2.16-5.229-5.04c0-0.383,0.048-0.768,0.096-1.199l2.062-14.832h-3.646
				L82.597,21.624z"/>
		</g>
		<g>
			<path d="M106.777,45.819c0,0-1.295,0.192-1.918,0.192c-2.88,0-3.887-1.775-3.887-4.368c0-0.576,0.048-1.198,0.144-1.871
				l2.59-18.147h3.694l-2.495,17.428c-0.048,0.432-0.192,1.344-0.192,1.824c0,1.2,0.433,1.679,1.583,1.679h0.625L106.777,45.819z
				 M105.002,12.023h3.981l-0.623,4.706h-3.982L105.002,12.023z"/>
		</g>
		<g>
			<path d="M144.2,39.052c-0.048,0.431-0.191,1.343-0.191,1.824c0,1.2,0.432,1.679,1.583,1.679h0.625l-0.146,3.265
				c0,0-1.296,0.192-1.919,0.192c-2.879,0-3.887-1.775-3.887-4.368c0-0.576,0.048-1.198,0.144-1.871l1.487-10.562
				c0.048-0.289,0.048-0.625,0.048-0.912c0-2.305-1.295-3.744-3.358-3.744c-2.397,0-5.181,2.256-5.181,2.256l-2.64,18.818h-3.741
				l2.398-17.089c0.048-0.24,0.048-0.432,0.048-0.673c0-1.729-0.958-3.312-2.975-3.312c-2.59,0-5.901,2.352-5.901,2.352
				l-2.591,18.723h-3.694l3.358-24.004h3.454v1.777c0,0,3.358-2.258,6.43-2.258c3.406,0,4.798,2.785,4.798,2.785
				s3.502-2.785,6.908-2.785c3.934,0,6.477,2.354,6.477,6.338c0,0.48-0.048,0.961-0.096,1.439L144.2,39.052z"/>
		</g>
		<g>
			<path d="M169.292,44.957c0,0-3.215,1.15-8.3,1.15c-4.894,0-7.917-2.687-7.917-6.72c0-1.679,0.673-6.623,1.393-10.466
				c0.767-4.225,4.414-7.777,10.17-7.777c4.559,0,7.629,2.882,7.629,6.338c0,4.755-3.263,6.624-6.956,7.776l-8.397,2.641
				c0,0-0.048,0.625-0.048,0.768c0,2.112,1.487,4.033,4.606,4.033c4.174,0,7.772-0.96,7.772-0.96L169.292,44.957z M157.344,34.25
				l8.204-2.735c1.68-0.576,2.879-1.537,2.879-3.266c0-2.352-1.535-3.695-4.271-3.695c-3.454,0-5.612,2.256-5.996,4.656
				L157.344,34.25z"/>
		</g>
		<g>
			<path d="M191.84,21.624h3.646l0.816-5.758h3.741l-0.815,5.758h6.861l-0.479,3.41h-6.86l-1.967,14.161
				c-0.048,0.432-0.096,0.816-0.096,1.151c0,1.729,0.814,2.353,2.158,2.353c2.256,0,3.982-0.287,3.982-0.287l-0.192,3.263
				c0,0-2.351,0.432-4.558,0.432c-3.647,0-5.23-2.16-5.23-5.04c0-0.383,0.048-0.768,0.096-1.199l2.062-14.832h-3.646L191.84,21.624z
				"/>
		</g>
		<g>
			<path d="M218.563,46.106c-5.757,0-8.732-3.022-8.732-6.911c0-1.824,0.672-6.529,1.344-10.274
				c0.767-4.271,4.462-7.777,10.411-7.777c5.421,0,8.588,3.074,8.588,6.964c0,1.774-0.72,6.431-1.344,10.224
				C228.112,42.652,224.129,46.106,218.563,46.106z M221.297,24.553c-3.502,0-5.949,2.016-6.429,4.561
				c-0.575,2.927-1.247,7.968-1.247,9.505c0,2.305,1.871,4.08,5.181,4.08c3.503,0,5.854-2.017,6.333-4.561
				c0.575-2.929,1.248-7.536,1.248-9.505C226.383,26.33,224.609,24.553,221.297,24.553z"/>
		</g>
		<g>
			<path d="M263.374,24.553c-4.413,0-8.107,4.129-8.107,4.129l-2.352,16.945h-3.743l3.359-24.004h3.503l-0.287,2.931
				c0,0,3.501-3.362,8.107-3.41L263.374,24.553z"/>
		</g>
		<g>
			<path d="M283.38,44.957c0,0-3.215,1.15-8.3,1.15c-4.895,0-7.918-2.687-7.918-6.72c0-1.679,0.672-6.623,1.391-10.466
				c0.768-4.225,4.415-7.777,10.173-7.777c4.559,0,7.628,2.882,7.628,6.338c0,4.755-3.263,6.624-6.957,7.776L271,37.899
				c0,0-0.049,0.625-0.049,0.768c0,2.112,1.488,4.033,4.606,4.033c4.174,0,7.773-0.96,7.773-0.96L283.38,44.957z M271.432,34.25
				l8.204-2.735c1.68-0.576,2.881-1.537,2.881-3.266c0-2.352-1.537-3.695-4.271-3.695c-3.453,0-5.613,2.256-5.997,4.656
				L271.432,34.25z"/>
		</g>
		<g>
			<path d="M293.742,29.114c0.721-4.321,3.982-7.874,9.931-7.874c2.783,0,5.807,0.912,5.807,0.912l1.438-10.13h3.695l-3.887,27.652
				c-0.049,0.336-0.146,1.055-0.146,1.344c0,1.057,0.434,1.534,1.729,1.534h0.48l-0.145,3.266c0,0-1.199,0.192-2.064,0.192
				c-1.821,0-3.261-0.816-3.692-3.071c-0.576,0.431-4.365,3.024-7.771,3.024c-4.655,0-6.719-2.784-6.719-6.529
				C292.398,37.562,293.119,32.81,293.742,29.114z M296.189,38.715c0,2.112,1.104,3.84,3.695,3.84c3.118,0,7.292-3.84,7.292-3.84
				L309,25.657c0,0-1.967-1.008-5.807-1.008c-3.358,0-5.324,2.352-5.755,4.752C296.908,32.377,296.189,37.802,296.189,38.715z"/>
		</g>
		<g>
			<path d="M326.032,45.819c0,0-1.295,0.192-1.92,0.192c-2.879,0-3.887-1.775-3.887-4.368c0-0.576,0.049-1.198,0.145-1.871
				l2.59-18.147h3.695l-2.496,17.428c-0.047,0.432-0.191,1.344-0.191,1.824c0,1.2,0.432,1.679,1.584,1.679h0.623L326.032,45.819z
				 M324.256,12.023h3.981l-0.625,4.706h-3.981L324.256,12.023z"/>
		</g>
		<g>
			<path d="M350.21,25.321c0,0-3.551-0.767-6.571-0.767c-2.449,0-5.039,1.008-5.039,3.744c0,4.655,11.659,2.063,11.659,9.505
				c0,6.288-4.654,8.304-10.075,8.304c-4.03,0-7.437-1.15-7.437-1.15l0.912-3.266c0,0,3.548,1.009,6.763,1.009
				c2.928,0,5.999-0.577,5.999-3.984c0-4.896-11.611-2.209-11.611-9.601c0-5.667,4.413-7.971,9.308-7.971
				c3.981,0,6.958,0.865,6.958,0.865L350.21,25.321z"/>
		</g>
		<g>
			<path d="M372.234,45.292c0,0-3.168,0.814-7.006,0.814c-5.278,0-7.821-2.927-7.821-6.815c0-1.488,0.719-6.529,1.393-10.37
				c0.719-4.271,4.269-7.777,9.978-7.777c3.55,0,6.382,0.576,6.382,0.576l-0.816,3.41c0,0-3.165-0.576-6.093-0.576
				c-3.119,0-5.375,2.159-5.757,4.561c-0.527,3.07-1.295,8.208-1.295,9.505c0,2.208,1.534,4.08,4.509,4.08
				c3.84,0,6.527-0.768,6.527-0.768V45.292z"/>
		</g>
		<g>
			<path d="M388.113,46.106c-5.758,0-8.731-3.022-8.731-6.911c0-1.824,0.672-6.529,1.341-10.274
				c0.768-4.271,4.463-7.777,10.411-7.777c5.424,0,8.589,3.074,8.589,6.964c0,1.774-0.721,6.431-1.344,10.224
				C397.661,42.652,393.678,46.106,388.113,46.106z M390.846,24.553c-3.501,0-5.948,2.016-6.429,4.561
				c-0.576,2.927-1.246,7.968-1.246,9.505c0,2.305,1.871,4.08,5.182,4.08c3.503,0,5.853-2.017,6.333-4.561
				c0.576-2.929,1.248-7.536,1.248-9.505C395.934,26.33,394.159,24.553,390.846,24.553z"/>
		</g>
		<g>
			<path d="M425.487,35.162c-0.767,5.521-5.134,10.897-12.09,10.897c-4.176,0-6.909-2.497-6.909-6.145c0-0.337,0-0.673,0.049-1.01
				l2.397-17.282h3.742l-2.303,16.034c-0.047,0.289-0.096,0.865-0.096,1.489c0,1.969,1.535,3.505,3.453,3.505
				c3.981,0,7.39-3.12,8.015-7.441l0.959-6.673c0.047-0.288,0.096-1.151,0.096-1.296c0-2.064-1.344-2.641-2.928-2.641l0.48-3.264
				c3.168,0,6.142,1.969,6.142,5.857c0,0.335,0,0.718-0.049,1.055L425.487,35.162z"/>
		</g>
		<g>
			<path d="M449.237,44.957c0,0-3.215,1.15-8.302,1.15c-4.895,0-7.915-2.687-7.915-6.72c0-1.679,0.671-6.623,1.39-10.466
				c0.768-4.225,4.414-7.777,10.173-7.777c4.557,0,7.626,2.882,7.626,6.338c0,4.755-3.261,6.624-6.956,7.776l-8.396,2.641
				c0,0-0.049,0.625-0.049,0.768c0,2.112,1.488,4.033,4.607,4.033c4.173,0,7.771-0.96,7.771-0.96L449.237,44.957z M437.289,34.25
				l8.204-2.735c1.68-0.576,2.879-1.537,2.879-3.266c0-2.352-1.535-3.695-4.27-3.695c-3.454,0-5.614,2.256-5.997,4.656
				L437.289,34.25z"/>
		</g>
		<g>
			<path d="M471.976,24.553c-4.413,0-8.108,4.129-8.108,4.129l-2.35,16.945h-3.741l3.356-24.004h3.502l-0.287,2.931
				c0,0,3.502-3.362,8.108-3.41L471.976,24.553z"/>
		</g>
	</g>
	<g>
		<g>
			<path d="M10.037,83.406v17.618H5.875V83.406H0.305V79.69h15.303v3.716H10.037z"/>
		</g>
		<g>
			<path d="M35.851,93.713c0,1.138-0.204,2.166-0.614,3.084c-0.408,0.921-0.968,1.704-1.676,2.354
				c-0.709,0.649-1.537,1.154-2.486,1.513c-0.948,0.361-1.972,0.541-3.069,0.541c-1.099,0-2.122-0.18-3.069-0.541
				c-0.948-0.358-1.777-0.863-2.486-1.513s-1.269-1.433-1.677-2.354c-0.41-0.918-0.614-1.946-0.614-3.084V79.69h4.163v13.873
				c0,1.237,0.329,2.201,0.988,2.89c0.658,0.69,1.557,1.034,2.695,1.034c1.138,0,2.041-0.344,2.71-1.034
				c0.669-0.688,1.003-1.653,1.003-2.89V79.69h4.133V93.713z"/>
		</g>
		<g>
			<path d="M53.311,101.024l-4.163-8.51h-2.994v8.51h-4.163V79.69h8.354c1.078,0,2.046,0.173,2.905,0.523
				c0.857,0.35,1.587,0.818,2.186,1.41c0.6,0.587,1.053,1.278,1.363,2.064c0.309,0.791,0.464,1.635,0.464,2.534
				c0,0.738-0.105,1.411-0.314,2.022c-0.21,0.608-0.494,1.149-0.854,1.616c-0.359,0.471-0.773,0.87-1.242,1.199
				c-0.469,0.33-0.963,0.585-1.481,0.764l4.761,9.198h-4.82V101.024z M53.101,86.207c0-0.835-0.274-1.51-0.823-2.026
				c-0.55-0.518-1.283-0.773-2.201-0.773h-3.923v5.603h3.923c0.917,0,1.65-0.259,2.201-0.776
				C52.827,87.716,53.101,87.043,53.101,86.207z"/>
		</g>
		<g>
			<path d="M63.074,101.024V79.69h4.162v21.334H63.074z"/>
		</g>
		<g>
			<path d="M86.312,101.024L77.867,87.93v13.094h-4.163V79.69h3.714l8.444,13.063V79.69h4.164v21.334H86.312z"/>
		</g>
		<g>
			<path d="M96.043,86.49v-6.8h4.073v3.716L96.043,86.49z"/>
		</g>
		<g>
			<path d="M119.942,94.731c0,1.039-0.205,1.959-0.614,2.757c-0.408,0.798-0.968,1.474-1.677,2.021
				c-0.709,0.549-1.542,0.969-2.5,1.258c-0.958,0.29-1.997,0.437-3.114,0.437c-1.618,0-3.056-0.206-4.312-0.616
				c-1.259-0.409-2.416-1.143-3.475-2.2l2.695-2.697c0.679,0.68,1.457,1.148,2.337,1.409c0.878,0.259,1.816,0.389,2.814,0.389
				c1.238,0,2.175-0.224,2.815-0.673c0.638-0.451,0.958-1.104,0.958-1.964c0-0.779-0.22-1.377-0.658-1.797
				c-0.221-0.2-0.465-0.354-0.734-0.465c-0.269-0.108-0.653-0.204-1.152-0.283l-2.576-0.361c-1.818-0.258-3.194-0.849-4.133-1.767
				c-1.019-1.021-1.526-2.416-1.526-4.195c0-0.959,0.168-1.832,0.508-2.62c0.339-0.79,0.828-1.47,1.468-2.038
				c0.639-0.57,1.418-1.014,2.336-1.333c0.918-0.32,1.956-0.48,3.114-0.48c1.478,0,2.766,0.192,3.863,0.569
				c1.098,0.379,2.106,1.02,3.024,1.918l-2.635,2.605c-0.679-0.638-1.403-1.042-2.171-1.212c-0.769-0.169-1.502-0.255-2.2-0.255
				c-1.118,0-1.947,0.266-2.486,0.795s-0.809,1.164-0.809,1.903c0,0.278,0.05,0.548,0.149,0.807c0.101,0.261,0.26,0.5,0.479,0.719
				c0.219,0.201,0.494,0.375,0.823,0.525c0.33,0.15,0.715,0.254,1.153,0.313l2.517,0.361c0.978,0.141,1.786,0.343,2.425,0.615
				c0.639,0.269,1.188,0.612,1.648,1.032c0.578,0.539,0.998,1.188,1.258,1.946C119.812,92.913,119.942,93.773,119.942,94.731z"/>
		</g>
		<g>
			<path d="M133.806,101.024V79.69h14.045v3.716h-9.882v5.002h8.414v3.715h-8.414v5.186h9.882v3.714h-14.045V101.024z"/>
		</g>
		<g>
			<path d="M168.605,92.252c0,1.543-0.15,2.819-0.449,3.83c-0.301,1.012-0.829,1.907-1.588,2.688
				c-0.859,0.901-1.792,1.531-2.8,1.891c-1.009,0.36-2.081,0.543-3.22,0.543c-1.178,0-2.241-0.2-3.189-0.599
				c-0.948-0.401-1.802-0.979-2.561-1.739c-0.54-0.54-0.954-1.113-1.242-1.722c-0.29-0.611-0.494-1.265-0.614-1.963
				c-0.12-0.7-0.19-1.449-0.21-2.247c-0.02-0.801-0.029-1.657-0.029-2.577c0-0.919,0.01-1.777,0.029-2.578
				c0.02-0.799,0.09-1.547,0.21-2.245c0.12-0.7,0.325-1.354,0.614-1.962c0.288-0.611,0.703-1.187,1.242-1.725
				c0.759-0.761,1.607-1.338,2.545-1.738c0.938-0.399,2.007-0.599,3.204-0.599c1.238,0,2.326,0.185,3.265,0.554
				s1.737,0.869,2.396,1.498c0.657,0.63,1.183,1.361,1.571,2.189s0.654,1.691,0.793,2.591h-4.191
				c-0.24-1.019-0.67-1.794-1.287-2.323c-0.62-0.529-1.468-0.794-2.546-0.794c-0.579,0-1.094,0.106-1.541,0.315
				c-0.449,0.21-0.823,0.484-1.124,0.825c-0.199,0.22-0.365,0.464-0.494,0.732c-0.13,0.271-0.234,0.625-0.314,1.063
				s-0.135,0.994-0.165,1.662c-0.03,0.67-0.045,1.514-0.045,2.533c0,1.018,0.015,1.868,0.045,2.546
				c0.03,0.68,0.085,1.239,0.165,1.677c0.08,0.439,0.185,0.794,0.314,1.064c0.13,0.27,0.295,0.516,0.494,0.733
				c0.301,0.339,0.674,0.61,1.124,0.81c0.448,0.199,0.963,0.299,1.541,0.299c0.639,0,1.208-0.105,1.707-0.315
				c0.5-0.21,0.918-0.503,1.259-0.885c0.34-0.398,0.584-0.833,0.733-1.303c0.15-0.467,0.224-0.982,0.224-1.542v-0.809h-3.923v-3.504
				h8.056v3.123H168.605z"/>
		</g>
		<g>
			<path d="M182.469,92.273v8.751h-4.133v-8.751l-6.408-12.583h4.521l3.983,8.6l3.923-8.6h4.521L182.469,92.273z"/>
		</g>
		<g>
			<path d="M208.253,86.342c0,0.897-0.16,1.754-0.479,2.561c-0.32,0.811-0.784,1.519-1.393,2.128
				c-0.608,0.61-1.347,1.089-2.216,1.439c-0.868,0.349-1.853,0.523-2.95,0.523h-4.103v8.031h-4.163V79.69h8.266
				c1.098,0,2.082,0.173,2.95,0.523c0.868,0.35,1.607,0.828,2.216,1.439c0.608,0.609,1.072,1.318,1.393,2.125
				C208.093,84.589,208.253,85.442,208.253,86.342z M204.091,86.342c0-0.88-0.275-1.587-0.823-2.128
				c-0.549-0.539-1.303-0.807-2.261-0.807h-3.894v5.842h3.894c0.958,0,1.712-0.265,2.261-0.797
				C203.816,87.926,204.091,87.221,204.091,86.342z"/>
		</g>
		<g>
			<path d="M221.4,83.406v17.618h-4.163V83.406h-5.569V79.69h15.303v3.716H221.4z"/>
		</g>
		<g>
			<path d="M231.851,101.024V79.69h4.162v21.334H231.851z"/>
		</g>
		<g>
			<path d="M254.611,101.024l-1.259-3.776h-7.577l-1.286,3.776h-4.343l7.757-21.334h3.263l7.787,21.334H254.611z M249.639,85.981
				l-2.695,7.76h5.301L249.639,85.981z"/>
		</g>
		<g>
			<path d="M275.693,101.024l-8.444-13.094v13.094h-4.163V79.69h3.713l8.444,13.063V79.69h4.163v21.334H275.693z"/>
		</g>
		<g>
			<path d="M302.465,83.406v17.618h-4.163V83.406h-5.57V79.69h15.304v3.716H302.465z"/>
		</g>
		<g>
			<path d="M324.238,101.024l-4.163-8.51h-2.994v8.51h-4.163V79.69h8.356c1.077,0,2.046,0.173,2.903,0.523
				c0.858,0.35,1.588,0.818,2.188,1.41c0.599,0.587,1.052,1.278,1.361,2.064c0.31,0.791,0.465,1.635,0.465,2.534
				c0,0.738-0.106,1.411-0.316,2.022c-0.209,0.608-0.494,1.149-0.853,1.616c-0.358,0.471-0.773,0.87-1.242,1.199
				c-0.468,0.33-0.963,0.585-1.481,0.764l4.76,9.198h-4.821V101.024z M324.028,86.207c0-0.835-0.274-1.51-0.824-2.026
				c-0.55-0.518-1.282-0.773-2.2-0.773h-3.923v5.603h3.923c0.918,0,1.65-0.259,2.2-0.776S324.028,87.043,324.028,86.207z"/>
		</g>
		<g>
			<path d="M334,101.024V79.69h14.045v3.716h-9.884v5.002h8.416v3.715h-8.416v5.186h9.884v3.714H334V101.024z"/>
		</g>
		<g>
			<path d="M365.742,101.024l-1.257-3.776h-7.577l-1.288,3.776h-4.343l7.757-21.334h3.265l7.785,21.334H365.742z M360.772,85.981
				l-2.695,7.76h5.301L360.772,85.981z"/>
		</g>
		<g>
			<path d="M387.993,94.731c0,1.039-0.204,1.959-0.613,2.757c-0.411,0.798-0.971,1.474-1.678,2.021
				c-0.708,0.549-1.541,0.969-2.502,1.258c-0.956,0.29-1.995,0.437-3.112,0.437c-1.616,0-3.056-0.206-4.313-0.616
				c-1.257-0.409-2.415-1.143-3.472-2.2l2.695-2.697c0.677,0.68,1.456,1.148,2.333,1.409c0.88,0.259,1.818,0.389,2.815,0.389
				c1.24,0,2.177-0.224,2.816-0.673c0.639-0.45,0.956-1.104,0.956-1.964c0-0.779-0.22-1.377-0.657-1.797
				c-0.22-0.2-0.464-0.354-0.733-0.465c-0.271-0.108-0.655-0.204-1.153-0.283l-2.576-0.361c-1.815-0.258-3.193-0.849-4.132-1.767
				c-1.019-1.021-1.527-2.416-1.527-4.195c0-0.959,0.169-1.832,0.509-2.62c0.338-0.79,0.829-1.47,1.466-2.038
				c0.64-0.57,1.419-1.014,2.337-1.333c0.919-0.319,1.957-0.48,3.113-0.48c1.478,0,2.765,0.192,3.863,0.569
				c1.098,0.379,2.107,1.02,3.025,1.918l-2.634,2.605c-0.681-0.638-1.405-1.042-2.173-1.212c-0.77-0.169-1.502-0.255-2.2-0.255
				c-1.12,0-1.946,0.266-2.485,0.795c-0.542,0.529-0.811,1.164-0.811,1.903c0,0.278,0.051,0.548,0.15,0.807
				c0.102,0.261,0.261,0.5,0.48,0.719c0.22,0.201,0.495,0.375,0.824,0.525c0.328,0.15,0.713,0.254,1.15,0.313l2.517,0.361
				c0.979,0.141,1.785,0.343,2.427,0.615c0.637,0.269,1.187,0.612,1.646,1.032c0.578,0.539,0.998,1.188,1.258,1.946
				C387.862,92.913,387.993,93.773,387.993,94.731z"/>
		</g>
		<g>
			<path d="M408.776,93.713c0,1.138-0.204,2.166-0.615,3.084c-0.409,0.921-0.967,1.704-1.676,2.354
				c-0.71,0.649-1.539,1.154-2.485,1.513c-0.948,0.361-1.973,0.541-3.07,0.541c-1.097,0-2.121-0.18-3.067-0.541
				c-0.948-0.358-1.777-0.863-2.485-1.513c-0.711-0.649-1.269-1.433-1.678-2.354c-0.409-0.918-0.615-1.946-0.615-3.084V79.69h4.163
				v13.873c0,1.237,0.328,2.201,0.987,2.89c0.66,0.69,1.558,1.034,2.695,1.034c1.141,0,2.042-0.344,2.712-1.034
				c0.668-0.688,1.002-1.653,1.002-2.89V79.69h4.135v14.022H408.776z"/>
		</g>
		<g>
			<path d="M426.234,101.024l-4.161-8.51h-2.994v8.51h-4.163V79.69h8.354c1.079,0,2.046,0.173,2.905,0.523
				c0.859,0.35,1.588,0.818,2.187,1.41c0.599,0.587,1.055,1.278,1.364,2.064c0.309,0.791,0.462,1.635,0.462,2.534
				c0,0.738-0.104,1.411-0.313,2.022c-0.21,0.608-0.495,1.149-0.854,1.616c-0.36,0.471-0.773,0.87-1.241,1.199
				c-0.471,0.33-0.963,0.585-1.482,0.764l4.76,9.198h-4.823V101.024z M426.025,86.207c0-0.835-0.275-1.51-0.822-2.026
				c-0.55-0.518-1.285-0.773-2.203-0.773h-3.923v5.603H423c0.918,0,1.653-0.259,2.203-0.776
				C425.75,87.716,426.025,87.043,426.025,86.207z"/>
		</g>
		<g>
			<path d="M435.998,101.024V79.69h14.045v3.716h-9.882v5.002h8.414v3.715h-8.414v5.186h9.882v3.714h-14.045V101.024z"/>
		</g>
		<g>
			<path d="M469.389,94.731c0,1.039-0.206,1.959-0.615,2.757c-0.411,0.798-0.969,1.474-1.678,2.021
				c-0.708,0.549-1.541,0.969-2.5,1.258c-0.956,0.29-1.995,0.437-3.114,0.437c-1.616,0-3.054-0.206-4.312-0.616
				c-1.257-0.409-2.415-1.143-3.474-2.2l2.695-2.697c0.678,0.68,1.456,1.148,2.333,1.409c0.882,0.259,1.818,0.389,2.815,0.389
				c1.24,0,2.177-0.224,2.815-0.673c0.64-0.451,0.959-1.104,0.959-1.964c0-0.779-0.22-1.377-0.659-1.797
				c-0.22-0.2-0.465-0.354-0.733-0.465c-0.271-0.108-0.653-0.204-1.152-0.283l-2.577-0.361c-1.815-0.258-3.191-0.849-4.13-1.767
				c-1.021-1.021-1.529-2.416-1.529-4.195c0-0.959,0.169-1.832,0.509-2.62c0.338-0.79,0.829-1.47,1.468-2.038
				c0.638-0.57,1.417-1.014,2.335-1.333c0.918-0.32,1.957-0.48,3.115-0.48c1.476,0,2.765,0.192,3.863,0.569
				c1.098,0.379,2.105,1.02,3.023,1.918l-2.635,2.605c-0.68-0.638-1.402-1.042-2.172-1.212c-0.77-0.169-1.502-0.255-2.2-0.255
				c-1.118,0-1.946,0.266-2.486,0.795c-0.539,0.529-0.808,1.164-0.808,1.903c0,0.278,0.049,0.548,0.15,0.807
				c0.1,0.261,0.259,0.5,0.479,0.719c0.22,0.201,0.494,0.375,0.824,0.525c0.328,0.15,0.713,0.254,1.152,0.313l2.515,0.361
				c0.979,0.141,1.787,0.343,2.427,0.615c0.639,0.269,1.187,0.612,1.646,1.032c0.578,0.539,0.997,1.188,1.258,1.946
				C469.256,92.915,469.389,93.773,469.389,94.731z"/>
		</g>
	</g>
	<g>
		<rect x="-0.593" y="62.225" width="473.386" height="0.946"/>
	</g>
</g>
</svg>
