<?xml version="1.0" encoding="utf-8"?>
<!-- Generator: Adobe Illustrator 16.0.0, SVG Export Plug-In . SVG Version: 6.00 Build 0)  -->
<!DOCTYPE svg PUBLIC "-//W3C//DTD SVG 1.1//EN" "http://www.w3.org/Graphics/SVG/1.1/DTD/svg11.dtd">
<svg version="1.1" id="titolo_EN" xmlns="http://www.w3.org/2000/svg" xmlns:xlink="http://www.w3.org/1999/xlink" x="0px" y="0px"
	 width="473.386px" height="104.882px" viewBox="-0.594 4.172 473.386 104.882"
	 enable-background="new -0.594 4.172 473.386 104.882" xml:space="preserve">
<g>
	<g>
		<path d="M17.716,43.811c0,0-4.447,1.368-8.951,1.368c-5.645,0-9.122-3.422-9.122-7.641c0-1.939,0.912-8.381,1.71-12.887
			c0.855-4.847,5.132-8.78,11.803-8.78c5.53,0,8.382,3.079,8.382,7.014c0,5.302-3.421,7.527-7.582,8.838L2.723,35.316
			c0,0-0.114,0.854-0.114,1.767c0,3.308,2.339,5.588,6.558,5.588c3.878,0,8.496-1.369,8.496-1.369L17.716,43.811z M3.121,32.464
			l11.573-3.763c2.453-0.799,3.934-2.339,3.934-5.075c0-3.479-1.652-5.244-5.872-5.244c-4.961,0-7.926,3.021-8.553,6.557
			C3.748,27.445,3.406,29.956,3.121,32.464z M11.787,11.995L5.343,4.867h4.562l5.188,7.128H11.787z"/>
		<path d="M41.717,16.271h4.618l0.97-6.843h2.851l-0.97,6.843h8.325l-0.342,2.509h-8.325l-2.565,18.075
			c-0.113,0.798-0.171,1.481-0.171,2.394c0,2.565,1.197,3.421,3.478,3.421c1.824,0,3.935-0.343,3.935-0.343l-0.113,2.28
			c0,0-2.737,0.571-4.505,0.571c-4.048,0-5.701-2.281-5.701-5.474c0-0.741,0.057-1.597,0.113-2.11l2.68-18.815h-4.618L41.717,16.271
			z"/>
		<path d="M78.264,43.811c0,0-4.448,1.368-8.952,1.368c-5.645,0-9.122-3.422-9.122-7.641c0-1.939,0.912-8.381,1.711-12.887
			c0.854-4.847,5.131-8.78,11.802-8.78c5.53,0,8.382,3.079,8.382,7.014c0,5.302-3.42,7.527-7.582,8.838L63.27,35.316
			c0,0-0.113,0.854-0.113,1.767c0,3.308,2.338,5.588,6.557,5.588c3.878,0,8.496-1.369,8.496-1.369L78.264,43.811z M63.667,32.464
			l11.573-3.763c2.453-0.799,3.934-2.339,3.934-5.075c0-3.479-1.652-5.244-5.872-5.244c-4.96,0-7.926,3.021-8.553,6.557
			C64.294,27.445,63.952,29.956,63.667,32.464z"/>
		<path d="M121.025,25.052c0.058-0.57,0.113-1.026,0.113-1.539c0-3.136-1.597-5.189-4.675-5.189c-3.649,0-7.355,3.25-7.355,3.25
			l-3.25,23.206h-2.851l2.908-20.696c0.057-0.399,0.057-0.8,0.057-1.197c0-2.508-1.14-4.562-4.161-4.562
			c-3.592,0-8.097,3.479-8.097,3.479l-3.25,22.978h-2.851l3.991-28.509h2.622l-0.171,2.737c0,0,4.618-3.192,8.268-3.192
			c4.846,0,6.101,3.479,6.101,3.479s4.104-3.479,8.609-3.479c4.447,0,7.014,2.508,7.014,6.898c0,0.57-0.057,1.312-0.113,1.882
			l-1.996,14.082c-0.114,0.799-0.229,1.483-0.229,2.054c0,1.254,0.457,1.938,1.882,1.938c0.57,0,1.14-0.057,1.14-0.057l-0.113,2.337
			c0,0-1.197,0.229-2.053,0.229c-2.736,0-3.706-1.54-3.706-4.05c0-0.456,0.058-1.253,0.113-1.767L121.025,25.052z"/>
		<path d="M135.218,16.271h2.622l-0.171,2.737c0,0,4.96-3.137,9.579-3.137c5.417,0,7.697,2.966,7.697,7.128
			c0,2.167-0.969,8.724-1.71,13.229c-0.856,4.901-4.391,8.951-11.289,8.951c-4.106,0-7.755-1.482-7.755-1.482l-1.54,11.346h-2.851
			L135.218,16.271z M152.04,23.398c0-2.908-1.312-5.016-5.075-5.016c-4.562,0-9.637,3.478-9.637,3.478l-2.736,19.158
			c0,0,2.623,1.652,7.754,1.652c4.847,0,7.47-3.307,8.04-6.728C151.07,32.008,152.04,25.85,152.04,23.398z"/>
		<path d="M170.966,45.179c-6.442,0-9.807-3.707-9.807-7.698c0-2.053,0.912-7.981,1.652-12.715c0.799-4.847,4.22-8.896,11.518-8.896
			c6.044,0,9.579,3.535,9.579,7.926c0,1.883-0.854,7.64-1.653,12.487C181.401,41.245,177.752,45.179,170.966,45.179z
			 M181.001,24.083c0-3.307-2.28-5.701-6.956-5.701c-5.075,0-7.697,2.907-8.325,6.557c-0.627,3.535-1.652,10.605-1.652,12.03
			c0,3.364,2.394,5.701,6.955,5.701c5.188,0,7.697-2.851,8.324-6.557C179.975,32.349,181.001,26.135,181.001,24.083z"/>
		<path d="M211.9,45.179c-5.359,0-7.697-2.908-7.697-6.958c0-2.052,0.97-8.665,1.711-13.227c0.798-4.904,4.39-9.123,11.289-9.123
			c4.104,0,7.754,1.482,7.754,1.482l1.768-12.487h2.851l-4.789,33.811c-0.113,0.799-0.229,1.483-0.229,2.054
			c0,1.254,0.284,1.938,1.711,1.938c0.569,0,1.368-0.057,1.368-0.057l-0.171,2.337c0,0-1.197,0.229-2.053,0.229
			c-2.794,0-3.706-1.54-3.764-3.593C221.65,41.587,216.292,45.179,211.9,45.179z M207.167,37.652c0,2.851,1.255,5.018,5.018,5.018
			c4.562,0,9.749-3.935,9.749-3.935l2.681-18.701c0,0-2.623-1.652-7.754-1.652c-4.847,0-7.47,3.478-8.039,6.897
			C208.137,29.215,207.167,35.543,207.167,37.652z"/>
		<path d="M240.977,16.271l-3.137,22.407c-0.112,0.799-0.171,1.483-0.171,2.054c0,1.311,0.4,1.938,1.825,1.938
			c0.57,0,1.197-0.057,1.197-0.057l-0.171,2.337c0,0-1.197,0.229-2.053,0.229c-2.737,0-3.707-1.482-3.707-3.935
			c0-0.57,0.058-1.196,0.171-1.881l3.192-23.093L240.977,16.271L240.977,16.271z M239.666,4.867h3.137l-0.799,5.588h-3.136
			L239.666,4.867z"/>
		<path d="M276.896,18.21c-4.733,0-9.694,5.587-9.694,5.587l-2.907,20.982h-2.85l3.99-28.509h2.566l-0.285,4.104
			c0,0,4.562-4.675,9.636-4.675L276.896,18.21z"/>
		<path d="M286.816,16.271l-3.137,22.407c-0.113,0.799-0.171,1.483-0.171,2.054c0,1.311,0.399,1.938,1.824,1.938
			c0.572,0,1.198-0.057,1.198-0.057l-0.172,2.337c0,0-1.197,0.229-2.053,0.229c-2.737,0-3.707-1.482-3.707-3.935
			c0-0.57,0.058-1.196,0.171-1.881l3.193-23.093L286.816,16.271L286.816,16.271z M285.503,4.867h3.137l-0.798,5.588h-3.137
			L285.503,4.867z"/>
		<path d="M312.813,19.235c0,0-3.306-0.854-7.07-0.854c-4.104,0-7.127,1.995-7.127,5.757c0,6.671,14.026,2.851,14.026,11.804
			c0,6.785-4.845,9.237-11.288,9.237c-4.448,0-8.153-1.197-8.153-1.197l0.798-2.509c0,0,3.878,1.197,7.412,1.197
			c4.731,0,8.21-1.311,8.21-6.101c0-6.898-13.912-2.908-13.912-11.917c0-5.815,4.277-8.78,10.377-8.78
			c3.991,0,7.525,0.855,7.525,0.855L312.813,19.235z"/>
		<path d="M336.131,44.324c0,0-3.708,0.855-7.355,0.855c-6.044,0-9.122-3.309-9.122-7.641c0-2.11,0.912-8.098,1.767-12.887
			c0.798-4.789,4.505-8.78,11.29-8.78c3.136,0,6.897,0.627,6.897,0.627l-0.627,2.453c0,0-3.878-0.628-6.558-0.628
			c-4.732,0-7.525,3.079-8.152,6.558c-0.628,3.707-1.653,10.206-1.653,12.146c0,3.079,2.223,5.701,6.5,5.701
			c3.762,0,6.954-0.798,6.954-0.798L336.131,44.324z"/>
		<path d="M353.007,45.179c-6.443,0-9.809-3.707-9.809-7.698c0-2.053,0.912-7.981,1.653-12.715c0.8-4.847,4.223-8.896,11.521-8.896
			c6.042,0,9.576,3.535,9.576,7.926c0,1.883-0.853,7.64-1.652,12.487C363.441,41.245,359.792,45.179,353.007,45.179z
			 M363.042,24.083c0-3.307-2.279-5.701-6.956-5.701c-5.075,0-7.697,2.907-8.324,6.557c-0.627,3.535-1.653,10.605-1.653,12.03
			c0,3.364,2.395,5.701,6.957,5.701c5.188,0,7.697-2.851,8.324-6.557C362.016,32.349,363.042,26.135,363.042,24.083z"/>
		<path d="M376.039,16.271h2.624l-0.171,2.737c0,0,4.959-3.137,9.578-3.137c5.415,0,7.697,2.966,7.697,7.128
			c0,2.167-0.972,8.724-1.712,13.229c-0.854,4.901-4.39,8.951-11.289,8.951c-4.104,0-7.754-1.482-7.754-1.482l-1.541,11.346h-2.848
			L376.039,16.271z M392.86,23.398c0-2.908-1.313-5.016-5.075-5.016c-4.562,0-9.636,3.478-9.636,3.478l-2.737,19.158
			c0,0,2.624,1.652,7.754,1.652c4.845,0,7.469-3.307,8.039-6.728C391.889,32.008,392.86,25.85,392.86,23.398z"/>
		<path d="M416.918,18.21c-4.733,0-9.694,5.587-9.694,5.587l-2.907,20.982h-2.85l3.99-28.509h2.566l-0.284,4.104
			c0,0,4.562-4.675,9.635-4.675L416.918,18.21z"/>
		<path d="M426.839,16.271l-3.138,22.407c-0.114,0.799-0.171,1.483-0.171,2.054c0,1.311,0.399,1.938,1.824,1.938
			c0.572,0,1.199-0.057,1.199-0.057l-0.171,2.337c0,0-1.199,0.229-2.055,0.229c-2.738,0-3.707-1.482-3.707-3.935
			c0-0.57,0.058-1.196,0.171-1.881l3.194-23.093L426.839,16.271L426.839,16.271z M425.526,4.867h3.137l-0.798,5.588h-3.137
			L425.526,4.867z"/>
		<path d="M448.789,18.21c-4.733,0-9.694,5.587-9.694,5.587l-2.907,20.982h-2.85l3.99-28.509h2.566l-0.285,4.104
			c0,0,4.561-4.675,9.636-4.675L448.789,18.21z"/>
		<path d="M468.971,43.811c0,0-4.446,1.368-8.951,1.368c-5.646,0-9.122-3.422-9.122-7.641c0-1.939,0.912-8.381,1.71-12.887
			c0.854-4.847,5.132-8.78,11.804-8.78c5.531,0,8.381,3.079,8.381,7.014c0,5.302-3.42,7.527-7.583,8.838l-11.231,3.593
			c0,0-0.114,0.854-0.114,1.767c0,3.308,2.337,5.588,6.558,5.588c3.878,0,8.495-1.369,8.495-1.369L468.971,43.811z M454.375,32.464
			l11.576-3.763c2.45-0.799,3.933-2.339,3.933-5.075c0-3.479-1.653-5.244-5.873-5.244c-4.961,0-7.926,3.021-8.553,6.557
			C455.001,27.445,454.66,29.956,454.375,32.464z"/>
	</g>
	<g>
		<path d="M0.917,108.07V73.838H7.6v34.234H0.917V108.07z"/>
		<path d="M40.777,79.8v28.271h-6.684V79.8H25.15v-5.964h24.57V79.8H40.777z"/>
		<path d="M55.633,108.07V73.838h22.551v5.963H62.318v8.029h13.51v5.963h-13.51v8.316h15.867v5.964H55.633V108.07z"/>
		<path d="M107.273,97.973c0,1.668-0.329,3.144-0.985,4.424c-0.658,1.282-1.556,2.366-2.692,3.245
			c-1.139,0.883-2.476,1.555-4.015,2.019c-1.539,0.465-3.206,0.699-5,0.699c-2.597,0-4.904-0.327-6.924-0.984
			c-2.021-0.658-3.879-1.835-5.578-3.535l4.328-4.327c1.089,1.091,2.339,1.844,3.75,2.26c1.41,0.416,2.916,0.625,4.52,0.625
			c1.987,0,3.494-0.36,4.52-1.081c1.025-0.72,1.538-1.771,1.538-3.148c0-1.25-0.353-2.213-1.058-2.886
			c-0.353-0.322-0.745-0.57-1.178-0.745c-0.433-0.177-1.051-0.329-1.852-0.457l-4.135-0.577c-2.917-0.416-5.129-1.362-6.635-2.838
			c-1.635-1.635-2.453-3.878-2.453-6.73c0-1.539,0.271-2.941,0.817-4.208c0.545-1.266,1.33-2.355,2.356-3.27
			c1.024-0.914,2.275-1.627,3.75-2.14s3.141-0.77,5-0.77c2.371,0,4.439,0.306,6.203,0.914c1.763,0.609,3.381,1.635,4.856,3.076
			l-4.232,4.184c-1.09-1.023-2.252-1.672-3.485-1.946c-1.235-0.272-2.412-0.409-3.534-0.409c-1.796,0-3.126,0.426-3.991,1.274
			c-0.866,0.849-1.299,1.867-1.299,3.055c0,0.448,0.079,0.882,0.24,1.296c0.16,0.417,0.416,0.803,0.769,1.154
			c0.353,0.321,0.794,0.601,1.323,0.841c0.528,0.242,1.146,0.41,1.851,0.505l4.039,0.578c1.569,0.224,2.868,0.554,3.895,0.985
			c1.025,0.434,1.907,0.985,2.644,1.659c0.931,0.865,1.604,1.907,2.021,3.125C107.064,95.058,107.273,96.436,107.273,97.973z"/>
		<path d="M138.19,90.955c0,1.474-0.017,2.854-0.048,4.135c-0.032,1.281-0.152,2.485-0.361,3.607
			c-0.208,1.121-0.545,2.17-1.01,3.148c-0.465,0.978-1.13,1.899-1.995,2.765c-1.218,1.217-2.572,2.148-4.062,2.789
			s-3.214,0.961-5.169,0.961s-3.687-0.32-5.193-0.961s-2.868-1.572-4.087-2.789c-0.865-0.865-1.53-1.788-1.996-2.765
			c-0.464-0.979-0.793-2.027-0.984-3.148c-0.192-1.122-0.306-2.325-0.337-3.607c-0.032-1.281-0.048-2.661-0.048-4.135
			s0.016-2.853,0.048-4.136c0.031-1.281,0.145-2.483,0.337-3.607c0.192-1.121,0.521-2.17,0.984-3.148
			c0.466-0.979,1.13-1.897,1.996-2.765c1.218-1.217,2.58-2.146,4.087-2.787c1.507-0.641,3.238-0.963,5.193-0.963
			c1.954,0,3.679,0.322,5.169,0.963c1.49,0.642,2.845,1.57,4.062,2.787c0.865,0.867,1.53,1.788,1.995,2.765
			c0.464,0.979,0.802,2.027,1.01,3.148c0.209,1.124,0.329,2.325,0.361,3.607C138.173,88.101,138.19,89.481,138.19,90.955z
			 M131.505,90.955c0-1.635-0.024-2.988-0.072-4.063c-0.048-1.073-0.137-1.963-0.265-2.669c-0.128-0.705-0.304-1.273-0.528-1.707
			s-0.497-0.824-0.816-1.179c-0.481-0.542-1.082-0.984-1.804-1.321c-0.722-0.338-1.547-0.505-2.476-0.505
			c-0.931,0-1.764,0.167-2.501,0.505c-0.737,0.335-1.347,0.777-1.827,1.321c-0.32,0.354-0.586,0.745-0.793,1.179
			c-0.208,0.434-0.377,1.002-0.504,1.707c-0.129,0.706-0.217,1.595-0.265,2.669c-0.048,1.075-0.071,2.429-0.071,4.063
			c0,1.634,0.023,2.987,0.071,4.062c0.049,1.075,0.136,1.962,0.265,2.67c0.128,0.704,0.296,1.272,0.504,1.706
			s0.474,0.826,0.793,1.179c0.48,0.545,1.09,0.985,1.827,1.322s1.57,0.504,2.501,0.504c0.93,0,1.755-0.167,2.476-0.504
			c0.722-0.336,1.322-0.776,1.804-1.322c0.319-0.353,0.592-0.745,0.816-1.179s0.4-1.002,0.528-1.706
			c0.128-0.708,0.217-1.594,0.265-2.67C131.481,93.942,131.505,92.589,131.505,90.955z"/>
		<path d="M163.672,108.07l-6.684-13.654h-4.809v13.654h-6.683V73.838h13.415c1.731,0,3.286,0.281,4.664,0.841
			c1.378,0.562,2.548,1.315,3.511,2.26c0.962,0.947,1.689,2.053,2.188,3.318c0.496,1.267,0.745,2.621,0.745,4.063
			c0,1.185-0.169,2.268-0.505,3.245c-0.335,0.977-0.793,1.845-1.369,2.595c-0.577,0.754-1.242,1.395-1.996,1.925
			c-0.754,0.529-1.547,0.938-2.381,1.226l7.646,14.762h-7.742V108.07z M163.336,84.295c0-1.34-0.44-2.422-1.322-3.253
			c-0.882-0.829-2.061-1.241-3.535-1.241h-6.299v8.99h6.299c1.475,0,2.652-0.413,3.535-1.244
			C162.896,86.718,163.336,85.635,163.336,84.295z"/>
		<path d="M177.423,108.07V73.838h6.684v34.234h-6.684V108.07z"/>
		<path d="M229.063,90.809c0,1.282,0,2.557,0,3.823c0,1.266-0.096,2.492-0.289,3.679c-0.191,1.185-0.528,2.323-1.009,3.414
			c-0.48,1.089-1.201,2.114-2.164,3.075c-1.122,1.121-2.459,1.948-4.015,2.475c-1.555,0.53-3.229,0.795-5.024,0.795h-12.357V73.838
			h12.357c1.795,0,3.47,0.265,5.024,0.794c1.555,0.527,2.893,1.354,4.015,2.476c0.963,0.961,1.684,1.971,2.164,3.029
			c0.48,1.057,0.817,2.163,1.009,3.318c0.193,1.151,0.289,2.348,0.289,3.581C229.063,88.27,229.063,89.529,229.063,90.809z
			 M222.379,90.809c0-1.313-0.017-2.435-0.048-3.365c-0.032-0.932-0.096-1.747-0.192-2.454c-0.097-0.704-0.24-1.297-0.433-1.779
			c-0.193-0.48-0.449-0.912-0.77-1.297c-0.576-0.704-1.267-1.233-2.067-1.587c-0.801-0.353-1.778-0.527-2.933-0.527h-5.049v22.308
			h5.049c1.154,0,2.132-0.176,2.933-0.527c0.801-0.353,1.491-0.882,2.067-1.587c0.32-0.385,0.577-0.833,0.77-1.346
			c0.191-0.514,0.336-1.139,0.433-1.875c0.096-0.737,0.159-1.594,0.192-2.574C222.363,93.221,222.379,92.092,222.379,90.809z"/>
		<path d="M236.372,108.07V73.838h22.551v5.963h-15.867v8.029h13.51v5.963h-13.51v8.316h15.867v5.964h-22.551V108.07z"/>
		<path d="M265.942,108.07V73.838h6.683v28.271h15.529v5.964h-22.212V108.07z"/>
		<path d="M294.07,108.07V73.838h6.684v28.271h15.528v5.964H294.07V108.07z"/>
		<path d="M314.262,84.751V73.838h6.539v5.963L314.262,84.751z"/>
		<path d="M328.592,108.07V73.838h22.551v5.963h-15.867v8.029h13.51v5.963h-13.51v8.316h15.867v5.964h-22.551V108.07z"/>
		<path d="M382.492,93.996c0,2.476-0.24,4.523-0.721,6.146c-0.482,1.623-1.331,3.061-2.549,4.314
			c-1.378,1.445-2.877,2.456-4.495,3.036c-1.62,0.58-3.343,0.868-5.169,0.868c-1.891,0-3.597-0.32-5.122-0.961
			c-1.522-0.641-2.891-1.572-4.107-2.789c-0.868-0.865-1.533-1.788-1.997-2.765c-0.465-0.979-0.792-2.027-0.985-3.148
			c-0.191-1.122-0.306-2.325-0.336-3.607c-0.033-1.281-0.049-2.661-0.049-4.135s0.016-2.853,0.049-4.136
			c0.03-1.281,0.145-2.483,0.336-3.607c0.193-1.121,0.521-2.17,0.985-3.148c0.464-0.979,1.129-1.897,1.997-2.765
			c1.217-1.217,2.579-2.146,4.085-2.787c1.507-0.641,3.223-0.963,5.145-0.963c1.987,0,3.734,0.298,5.242,0.89
			c1.507,0.595,2.789,1.395,3.846,2.405c1.057,1.01,1.899,2.181,2.524,3.51c0.625,1.331,1.051,2.717,1.274,4.158h-6.732
			c-0.385-1.634-1.072-2.877-2.066-3.725c-0.993-0.849-2.355-1.275-4.088-1.275c-0.93,0-1.755,0.167-2.476,0.505
			c-0.721,0.336-1.323,0.778-1.802,1.321c-0.321,0.354-0.586,0.745-0.794,1.179c-0.209,0.434-0.376,1.002-0.505,1.707
			c-0.128,0.706-0.215,1.595-0.265,2.669c-0.046,1.075-0.071,2.429-0.071,4.063c0,1.634,0.025,2.997,0.071,4.088
			c0.05,1.089,0.137,1.987,0.265,2.691c0.129,0.706,0.296,1.274,0.505,1.708c0.208,0.432,0.473,0.824,0.794,1.177
			c0.48,0.545,1.081,0.979,1.802,1.299c0.721,0.321,1.546,0.48,2.476,0.48c1.026,0,1.94-0.167,2.742-0.504
			c0.801-0.336,1.475-0.809,2.02-1.419c0.546-0.64,0.938-1.338,1.179-2.091c0.24-0.755,0.36-1.579,0.36-2.476v-1.299h-6.299v-5.625
			h12.934v5.01H382.492z"/>
		<path d="M389.751,108.07V73.838h6.684v34.234h-6.684V108.07z"/>
		<path d="M402.829,108.07v-5.384L417.446,79.8h-13.992v-5.964h21.877v5.289l-14.664,22.982h14.664v5.963H402.829z"/>
		<path d="M431.727,108.07V73.838h6.684v34.234h-6.684V108.07z"/>
		<path d="M471.009,90.955c0,1.474-0.019,2.854-0.049,4.135c-0.033,1.281-0.152,2.485-0.36,3.607c-0.21,1.121-0.546,2.17-1.01,3.148
			c-0.466,0.978-1.13,1.899-1.995,2.765c-1.22,1.217-2.573,2.148-4.063,2.789s-3.215,0.961-5.169,0.961
			c-1.956,0-3.687-0.32-5.191-0.961c-1.508-0.641-2.87-1.572-4.088-2.789c-0.865-0.865-1.532-1.788-1.997-2.765
			c-0.464-0.979-0.792-2.027-0.983-3.148c-0.193-1.122-0.305-2.325-0.338-3.607c-0.032-1.281-0.047-2.661-0.047-4.135
			s0.015-2.853,0.047-4.136c0.033-1.281,0.145-2.483,0.338-3.607c0.191-1.121,0.52-2.17,0.983-3.148
			c0.465-0.979,1.132-1.897,1.997-2.765c1.218-1.217,2.58-2.146,4.088-2.787c1.505-0.641,3.235-0.963,5.191-0.963
			c1.954,0,3.679,0.322,5.169,0.963c1.49,0.642,2.844,1.57,4.063,2.787c0.865,0.867,1.529,1.788,1.995,2.765
			c0.462,0.979,0.8,2.027,1.01,3.148c0.208,1.124,0.327,2.325,0.36,3.607C470.993,88.102,471.009,89.481,471.009,90.955z
			 M464.326,90.955c0-1.635-0.024-2.988-0.071-4.063c-0.049-1.073-0.139-1.963-0.265-2.669c-0.128-0.705-0.306-1.273-0.531-1.707
			c-0.224-0.434-0.497-0.824-0.816-1.179c-0.48-0.542-1.081-0.984-1.802-1.321c-0.721-0.338-1.547-0.505-2.478-0.505
			c-0.928,0-1.761,0.167-2.498,0.505c-0.738,0.335-1.348,0.777-1.828,1.321c-0.321,0.354-0.586,0.745-0.794,1.179
			c-0.209,0.434-0.376,1.002-0.503,1.707c-0.13,0.706-0.218,1.595-0.265,2.669c-0.049,1.075-0.073,2.429-0.073,4.063
			c0,1.634,0.024,2.987,0.073,4.062c0.047,1.075,0.135,1.962,0.265,2.67c0.127,0.704,0.294,1.272,0.503,1.706
			c0.208,0.434,0.473,0.826,0.794,1.179c0.48,0.545,1.09,0.985,1.828,1.322c0.737,0.337,1.57,0.504,2.498,0.504
			c0.931,0,1.757-0.167,2.478-0.504c0.721-0.336,1.323-0.776,1.802-1.322c0.321-0.353,0.593-0.745,0.816-1.179
			c0.226-0.434,0.403-1.002,0.531-1.706c0.126-0.708,0.216-1.594,0.265-2.67C464.301,93.941,464.326,92.589,464.326,90.955z"/>
	</g>
	<g>
		<rect x="-0.593" y="59.636" width="472.539" height="2.324"/>
	</g>
</g>
</svg>
