<?xml version="1.0" encoding="utf-8"?>
<!-- Generator: Adobe Illustrator 16.0.0, SVG Export Plug-In . SVG Version: 6.00 Build 0)  -->
<!DOCTYPE svg PUBLIC "-//W3C//DTD SVG 1.1//EN" "http://www.w3.org/Graphics/SVG/1.1/DTD/svg11.dtd">
<svg version="1.1" id="Layer_1" xmlns="http://www.w3.org/2000/svg" xmlns:xlink="http://www.w3.org/1999/xlink" x="0px" y="0px"
	 width="100px" height="100px" viewBox="0 0 100 100" enable-background="new 0 0 100 100" xml:space="preserve">
<g id="Layer_1_1_">
</g>
<g id="icons">
	<g>
		<path fill="#FFFFFF" d="M84.256,8.794C84.256,6.702,82.553,5,80.459,5h-0.008H19.549h-0.008c-2.094,0-3.795,1.702-3.795,3.794
			v82.411c0,2.092,1.701,3.795,3.795,3.795h0.008h34.215h0.01c0.098,0,0.193-0.011,0.287-0.029c0.031-0.006,0.061-0.019,0.088-0.025
			c0.062-0.019,0.125-0.031,0.186-0.059c0.021-0.01,0.043-0.021,0.062-0.033c0.146-0.07,0.285-0.16,0.402-0.276l29.027-29.028
			c0.068-0.066,0.131-0.146,0.186-0.229c0.002-0.002,0.004-0.006,0.006-0.008c0.049-0.076,0.092-0.154,0.127-0.238
			c0.006-0.016,0.01-0.029,0.016-0.045c0.025-0.072,0.055-0.147,0.068-0.228c0.016-0.075,0.021-0.153,0.021-0.229
			c0.002-0.021,0.006-0.036,0.006-0.056v-0.002l0,0V8.794L84.256,8.794z M79.27,66.104L55.223,90.036V66.859
			c0-0.351,0.205-0.646,0.498-0.791C55.721,66.068,79.248,66.1,79.27,66.104z M18.656,91.205V66.068H22.9
			c0.801,0,1.451-0.649,1.451-1.451c0-0.803-0.65-1.451-1.451-1.451h-4.244V36.748H22.9c0.801,0,1.451-0.649,1.451-1.451
			c0-0.802-0.65-1.452-1.451-1.452h-4.244V8.794c0-0.491,0.4-0.891,0.893-0.891h60.902c0.492,0,0.893,0.399,0.893,0.891v25.051
			h-4.25c-0.801,0-1.451,0.65-1.451,1.452c0,0.802,0.65,1.451,1.451,1.451h4.25v26.434l-35.217-0.016
			c-0.803,0-1.354,0.648-1.354,1.451c0,0.802,0.65,1.451,1.354,1.451h6.172c0.043,0.257,0.012,0.521,0.012,0.791v25.236H19.549
			C19.057,92.098,18.656,91.697,18.656,91.205z"/>
		<path fill="#FFFFFF" d="M38.385,33.845h-7.742c-0.803,0-1.451,0.65-1.451,1.452c0,0.802,0.648,1.451,1.451,1.451h7.742
			c0.801,0,1.451-0.649,1.451-1.451C39.836,34.495,39.186,33.845,38.385,33.845z"/>
		<path fill="#FFFFFF" d="M61.609,36.748h7.742c0.801,0,1.449-0.649,1.449-1.451c0-0.802-0.648-1.452-1.449-1.452h-7.742
			c-0.801,0-1.451,0.65-1.451,1.452C60.158,36.099,60.809,36.748,61.609,36.748z"/>
		<path fill="#FFFFFF" d="M46.127,36.748h7.74c0.803,0,1.453-0.649,1.453-1.451c0-0.802-0.65-1.452-1.453-1.452h-7.74
			c-0.803,0-1.453,0.65-1.453,1.452C44.674,36.099,45.324,36.748,46.127,36.748z"/>
		<path fill="#FFFFFF" d="M38.385,63.166h-7.742c-0.803,0-1.451,0.648-1.451,1.451c0,0.802,0.648,1.451,1.451,1.451h7.742
			c0.801,0,1.451-0.649,1.451-1.451C39.836,63.814,39.186,63.166,38.385,63.166z"/>
	</g>
</g>
</svg>
