<?xml version="1.0" encoding="utf-8"?>
<!-- Generator: Adobe Illustrator 16.0.0, SVG Export Plug-In . SVG Version: 6.00 Build 0)  -->
<!DOCTYPE svg PUBLIC "-//W3C//DTD SVG 1.1//EN" "http://www.w3.org/Graphics/SVG/1.1/DTD/svg11.dtd">
<svg version="1.1" xmlns="http://www.w3.org/2000/svg" xmlns:xlink="http://www.w3.org/1999/xlink" x="0px" y="0px" width="100px"
	 height="100px" viewBox="0 0 100 100" enable-background="new 0 0 100 100" xml:space="preserve">
<g id="Layer_1">
	<g>
		<g>
			<rect x="16.659" y="38.933" fill-rule="evenodd" clip-rule="evenodd" fill="#5A5A5A" width="7.02" height="42.114"/>
		</g>
		<g>
			<rect x="35.376" y="38.933" fill-rule="evenodd" clip-rule="evenodd" fill="#5A5A5A" width="8.189" height="42.114"/>
		</g>
		<g>
			<rect x="16.659" y="30.744" fill-rule="evenodd" clip-rule="evenodd" fill="#5A5A5A" width="66.682" height="7.019"/>
		</g>
		<g>
			<rect x="9.64" y="82.217" fill-rule="evenodd" clip-rule="evenodd" fill="#5A5A5A" width="80.721" height="5.85"/>
		</g>
		<g>
			<rect x="1.452" y="89.235" fill-rule="evenodd" clip-rule="evenodd" fill="#5A5A5A" width="97.096" height="7.02"/>
		</g>
		<g>
			<rect x="56.435" y="38.933" fill-rule="evenodd" clip-rule="evenodd" fill="#5A5A5A" width="8.189" height="42.114"/>
		</g>
		<g>
			<rect x="76.321" y="38.933" fill-rule="evenodd" clip-rule="evenodd" fill="#5A5A5A" width="7.02" height="42.114"/>
		</g>
		<g>
			<polygon fill-rule="evenodd" clip-rule="evenodd" fill="#5A5A5A" points="16.226,29.574 49.747,3.745 83.271,29.574 			"/>
		</g>
		<g>
			<path fill-rule="evenodd" clip-rule="evenodd" fill="#EAE0D6" d="M55.853,19.531c0,3.373-2.732,6.105-6.105,6.105
				c-3.371,0-6.104-2.732-6.104-6.105c0-3.371,2.732-6.104,6.104-6.104C53.12,13.427,55.853,16.16,55.853,19.531"/>
		</g>
	</g>
</g>
<g id="icons">
</g>
</svg>
