<?xml version="1.0" encoding="utf-8"?>
<!-- Generator: Adobe Illustrator 16.0.0, SVG Export Plug-In . SVG Version: 6.00 Build 0)  -->
<!DOCTYPE svg PUBLIC "-//W3C//DTD SVG 1.1//EN" "http://www.w3.org/Graphics/SVG/1.1/DTD/svg11.dtd">
<svg version="1.1" id="Layer_1" xmlns="http://www.w3.org/2000/svg" xmlns:xlink="http://www.w3.org/1999/xlink" x="0px" y="0px"
	 width="100px" height="100px" viewBox="0 0 100 100" enable-background="new 0 0 100 100" xml:space="preserve">
<g id="Layer_1_1_">
</g>
<g id="icons">
	<g>
		<path fill="#FFFFFF" d="M85.596,57.198L56.927,35.484L85.693,15.04c0.517-0.365,0.733-1.022,0.543-1.624
			c-0.191-0.603-0.752-1.011-1.383-1.011H25.543V8.834c0-2.113-1.721-3.833-3.834-3.833H17.51c-2.113,0-3.833,1.72-3.833,3.833
			v82.334c0,2.113,1.72,3.833,3.833,3.833h4.199c2.113,0,3.834-1.72,3.834-3.833V59.91h59.311c0.008,0,0.016,0,0.021,0
			c0.802,0,1.451-0.65,1.451-1.452C86.324,57.92,86.031,57.449,85.596,57.198z M22.641,91.168c0,0.514-0.417,0.93-0.931,0.93h-4.199
			c-0.514,0-0.93-0.416-0.93-0.93V8.834c0-0.513,0.416-0.93,0.93-0.93h4.199c0.514,0,0.931,0.417,0.931,0.93v5.023v44.601V91.168z
			 M25.544,57.007V15.309h54.761L53.633,34.263c-0.376,0.268-0.604,0.699-0.609,1.162c-0.008,0.462,0.207,0.899,0.574,1.178
			l26.938,20.404H25.544z"/>
	</g>
</g>
</svg>
