<?xml version="1.0" encoding="utf-8"?>
<!-- Generator: Adobe Illustrator 16.0.0, SVG Export Plug-In . SVG Version: 6.00 Build 0)  -->
<!DOCTYPE svg PUBLIC "-//W3C//DTD SVG 1.1//EN" "http://www.w3.org/Graphics/SVG/1.1/DTD/svg11.dtd">
<svg version="1.1" id="Layer_1" xmlns="http://www.w3.org/2000/svg" xmlns:xlink="http://www.w3.org/1999/xlink" x="0px" y="0px"
	 width="100px" height="100px" viewBox="0 0 100 100" enable-background="new 0 0 100 100" xml:space="preserve">
<g id="Layer_1_1_">
</g>
<g id="icons">
	<g>
		<g>
			<path fill="#FFFFFF" d="M67.773,95c-0.371,0-0.742-0.143-1.025-0.425l-4.92-4.919c-0.271-0.272-0.426-0.641-0.426-1.026
				c0-0.385,0.152-0.755,0.426-1.026l5.539-5.539l-2.871-2.871l-5.539,5.539c-0.271,0.272-0.643,0.428-1.025,0.428l0,0
				c-0.386,0-0.756-0.153-1.027-0.428l-4.924-4.924c-0.565-0.565-0.565-1.484,0-2.053l8-8L35.99,45.769
				c-3.041,2.417-6.797,3.734-10.722,3.734c-4.602,0-8.932-1.792-12.189-5.045l-0.908-0.907c-6.717-6.728-6.717-17.67-0.001-24.393
				l9.107-9.108C24.538,6.793,28.871,5,33.474,5c4.604,0,8.936,1.793,12.195,5.05l0.907,0.907
				c6.277,6.285,6.751,16.096,1.313,22.915l42.519,42.519c3.279,3.281,3.281,8.619,0.002,11.896
				c-1.59,1.589-3.703,2.463-5.951,2.463l0,0c-2.249,0-4.361-0.874-5.949-2.462l-1.71-1.712l-7.999,7.998
				C68.518,94.857,68.146,95,67.773,95z M64.906,88.63l2.867,2.866l8-8c0.271-0.271,0.642-0.426,1.024-0.426l0,0
				c0.386,0,0.754,0.154,1.026,0.427l2.734,2.739c1.041,1.039,2.424,1.611,3.896,1.611c1.472,0,2.857-0.574,3.898-1.613
				c2.146-2.146,2.146-5.645-0.002-7.793L44.883,34.97c-0.554-0.554-0.569-1.447-0.033-2.019c5.316-5.677,5.174-14.437-0.327-19.942
				l-0.906-0.906c-2.71-2.708-6.312-4.2-10.143-4.2c-3.829,0-7.432,1.492-10.145,4.2l-9.106,9.107
				c-5.585,5.591-5.585,14.693,0.001,20.289l0.907,0.906c2.709,2.705,6.31,4.195,10.138,4.195c3.657,0,7.138-1.375,9.803-3.87
				c0.571-0.535,1.466-0.521,2.019,0.033L63.059,68.73c0.271,0.271,0.426,0.641,0.426,1.023c0,0.387-0.152,0.755-0.426,1.027
				l-7.998,7.996l2.871,2.873l5.539-5.541c0.271-0.271,0.643-0.424,1.025-0.424l0,0c0.385,0,0.755,0.152,1.025,0.424l4.924,4.927
				c0.271,0.271,0.427,0.644,0.427,1.024c0,0.385-0.153,0.754-0.427,1.026L64.906,88.63z M25.271,39.835
				c-2.021,0-3.922-0.785-5.355-2.212l-0.909-0.909c-2.947-2.96-2.943-7.767,0.006-10.716l9.106-9.107
				c1.433-1.433,3.336-2.222,5.36-2.222c2.021,0,3.922,0.787,5.354,2.215l0.908,0.908c2.947,2.953,2.947,7.76,0,10.717l-9.108,9.109
				C29.196,39.05,27.293,39.835,25.271,39.835z M33.479,17.573c-1.248,0-2.423,0.486-3.308,1.371l-9.106,9.106
				c-1.82,1.82-1.821,4.787-0.004,6.613l0.905,0.904c0.883,0.879,2.058,1.364,3.305,1.364c1.25,0,2.426-0.486,3.311-1.368
				l9.105-9.105c1.817-1.825,1.818-4.793,0.001-6.614l-0.907-0.906C35.899,18.059,34.726,17.573,33.479,17.573z"/>
		</g>
	</g>
</g>
</svg>
