<?xml version="1.0" encoding="utf-8"?>
<!-- Generator: Adobe Illustrator 16.0.0, SVG Export Plug-In . SVG Version: 6.00 Build 0)  -->
<!DOCTYPE svg PUBLIC "-//W3C//DTD SVG 1.1//EN" "http://www.w3.org/Graphics/SVG/1.1/DTD/svg11.dtd">
<svg version="1.1" id="Layer_1" xmlns="http://www.w3.org/2000/svg" xmlns:xlink="http://www.w3.org/1999/xlink" x="0px" y="0px"
	 width="100px" height="100px" viewBox="0 0 100 100" enable-background="new 0 0 100 100" xml:space="preserve">
<g id="Layer_1_1_">
</g>
<g id="icons">
	<g>
		<g>
			<path fill="#FFFFFF" d="M56.417,95c-9.818,0-19.039-3.812-25.964-10.736c-11.818-11.818-11.818-31.049,0-42.866
				c4.749-4.75,11.073-7.365,17.808-7.365c6.735,0,13.059,2.616,17.807,7.365c3.981,3.982,6.177,9.276,6.177,14.907
				s-2.193,10.926-6.177,14.908c-3.359,3.361-7.83,5.215-12.586,5.215c-4.758,0-9.229-1.854-12.588-5.215
				c-2.867-2.865-4.446-6.678-4.446-10.732c0-0.801,0.65-1.451,1.452-1.451h6.453c0.802,0,1.452,0.65,1.452,1.451
				c0,1.557,0.605,3.018,1.705,4.115c1.595,1.596,3.717,2.475,5.973,2.475s4.375-0.879,5.971-2.475
				c2.215-2.213,3.436-5.158,3.436-8.291s-1.221-6.077-3.436-8.29c-2.982-2.985-6.957-4.628-11.19-4.628
				c-4.232,0-8.207,1.644-11.191,4.628c-8.168,8.168-8.168,21.461,0,29.631c5.159,5.158,12.029,8,19.347,8
				c7.317,0,14.188-2.842,19.349-8.002c13.791-13.789,13.791-36.229,0-50.021c-8.56-8.557-19.955-13.27-32.091-13.27
				c-12.137,0-23.533,4.713-32.091,13.271c-0.272,0.272-0.642,0.425-1.026,0.425l0,0c-0.385,0-0.754-0.153-1.026-0.425L4.97,23.062
				c-0.567-0.567-0.567-1.486,0-2.053C15.289,10.685,29.036,5,43.675,5c14.638,0,28.384,5.685,38.705,16.008
				c8.437,8.435,13.081,19.667,13.081,31.626c0,11.962-4.645,23.193-13.081,31.628C75.457,91.188,66.236,95,56.417,95z
				 M48.261,36.936c-5.959,0-11.555,2.313-15.755,6.515c-10.686,10.686-10.686,28.072,0,38.76
				c6.376,6.376,14.868,9.887,23.911,9.887s17.535-3.511,23.911-9.887c7.886-7.887,12.229-18.391,12.229-29.575
				c0-11.184-4.344-21.687-12.229-29.574C70.553,13.286,57.536,7.903,43.675,7.903c-13.377,0-25.967,5.013-35.615,14.145
				l2.513,2.513c8.979-8.465,20.676-13.109,33.102-13.109c12.911,0,25.036,5.014,34.144,14.121
				c14.924,14.923,14.923,39.202-0.002,54.125c-5.707,5.708-13.308,8.852-21.397,8.852S40.727,85.407,35.02,79.7
				c-9.3-9.302-9.3-24.437,0-33.737c3.533-3.533,8.236-5.478,13.244-5.478c5.007,0,9.71,1.945,13.243,5.478
				c2.765,2.761,4.285,6.436,4.285,10.344s-1.521,7.582-4.285,10.344c-2.144,2.145-4.989,3.324-8.021,3.324
				c-3.032,0-5.881-1.182-8.024-3.324c-1.301-1.301-2.14-2.938-2.436-4.717h-3.587c0.319,2.729,1.539,5.256,3.511,7.229
				c2.812,2.814,6.555,4.363,10.536,4.365c3.979-0.002,7.722-1.551,10.533-4.364c3.436-3.435,5.326-8,5.326-12.854
				s-1.893-9.419-5.326-12.854C59.814,39.249,54.221,36.936,48.261,36.936z"/>
		</g>
	</g>
</g>
</svg>
