<?xml version="1.0" encoding="utf-8"?>
<!-- Generator: Adobe Illustrator 16.0.0, SVG Export Plug-In . SVG Version: 6.00 Build 0)  -->
<!DOCTYPE svg PUBLIC "-//W3C//DTD SVG 1.1//EN" "http://www.w3.org/Graphics/SVG/1.1/DTD/svg11.dtd">
<svg version="1.1" id="Layer_1" xmlns="http://www.w3.org/2000/svg" xmlns:xlink="http://www.w3.org/1999/xlink" x="0px" y="0px"
	 width="100px" height="100px" viewBox="0 0 100 100" enable-background="new 0 0 100 100" xml:space="preserve">
<g id="Layer_1_1_">
</g>
<g id="icons">
	<path fill="#FFFFFF" d="M49.905,95.569l-0.017-0.006c-0.202-0.013-0.4-0.056-0.594-0.129c-0.253-0.101-0.427-0.209-0.59-0.349
		l-0.094-0.069L28.951,75.875L9.317,94.994c-0.381,0.369-0.881,0.573-1.409,0.573c-0.271,0-0.534-0.054-0.783-0.157
		c-0.751-0.32-1.235-1.051-1.235-1.861V25.832c0-0.562,0.237-1.103,0.65-1.484L27.63,4.913l0.025-0.016
		c0.059-0.047,0.124-0.089,0.188-0.129c0.077-0.052,0.135-0.093,0.196-0.126l0.021-0.017l0.086-0.04
		c0.056-0.025,0.124-0.044,0.194-0.06c0.158-0.046,0.232-0.067,0.307-0.08l0.047-0.008l0.143-0.006h0.226
		c0.058,0,0.115,0.003,0.173,0.011c0.083,0.012,0.161,0.034,0.24,0.059c0.153,0.041,0.217,0.058,0.279,0.084l0.067,0.028
		l0.037,0.027c0.049,0.027,0.093,0.056,0.136,0.086c0.104,0.065,0.178,0.113,0.242,0.163l0.031,0.018l19.729,18.183L69.727,4.909
		c0,0,0.098-0.063,0.123-0.079c0.101-0.072,0.193-0.137,0.292-0.189l0.035-0.03l0.141-0.049l0.087-0.022
		c0.114-0.038,0.232-0.074,0.354-0.093l0.043-0.007l0.136-0.006h0.222c0.058,0,0.115,0.003,0.173,0.012
		c0.102,0.013,0.207,0.044,0.311,0.079c0.049,0.012,0.101,0.023,0.156,0.043l0.107,0.027l0.059,0.052
		c0.1,0.053,0.187,0.114,0.267,0.173c0.032,0.02,0.133,0.085,0.133,0.085l21.097,19.444c0.413,0.378,0.651,0.919,0.651,1.483v67.717
		c0,0.812-0.484,1.542-1.233,1.859c-0.253,0.105-0.517,0.159-0.786,0.159c-0.53,0-1.031-0.204-1.409-0.574L71.049,75.871
		L51.355,95.049l-0.099,0.057c-0.103,0.105-0.286,0.225-0.481,0.306l-0.101,0.032c-0.168,0.064-0.359,0.106-0.554,0.119
		l-0.013,0.005l-0.105,0.002H49.905z M9.927,88.764l17.005-16.558V11.047L9.927,26.717V88.764z M52.021,88.764l17.006-16.56V11.045
		L52.021,26.717V88.764z M47.975,88.764V26.717l-17.004-15.67v61.159L47.975,88.764z M90.075,88.764V26.717L73.07,11.045v61.159
		L90.075,88.764z"/>
</g>
</svg>
