<?xml version="1.0" encoding="utf-8"?>
<!-- Generator: Adobe Illustrator 16.0.0, SVG Export Plug-In . SVG Version: 6.00 Build 0)  -->
<!DOCTYPE svg PUBLIC "-//W3C//DTD SVG 1.1//EN" "http://www.w3.org/Graphics/SVG/1.1/DTD/svg11.dtd">
<svg version="1.1" id="Layer_1" xmlns="http://www.w3.org/2000/svg" xmlns:xlink="http://www.w3.org/1999/xlink" x="0px" y="0px"
	 width="100px" height="100px" viewBox="0 0 100 100" enable-background="new 0 0 100 100" xml:space="preserve">
<g id="Layer_1_1_">
</g>
<g id="icons">
	<g>
		<g>
			<g>
				<path fill="#FFFFFF" d="M48.089,31.452H9.807c-0.802,0-1.452-0.65-1.452-1.451c0-0.802,0.65-1.452,1.452-1.452h38.282
					c5.69,0,10.321-4.631,10.321-10.321c0-5.692-4.631-10.323-10.321-10.323c-5.692,0-10.323,4.631-10.323,10.323
					c0,0.801-0.649,1.451-1.452,1.451c-0.802,0-1.452-0.65-1.452-1.451c0-7.294,5.933-13.227,13.227-13.227
					c7.292,0,13.226,5.933,13.226,13.227C61.314,25.52,55.381,31.452,48.089,31.452z"/>
			</g>
			<g>
				<path fill="#FFFFFF" d="M48.089,95.001c-7.293,0-13.227-5.933-13.227-13.226c0-0.801,0.65-1.451,1.452-1.451
					c0.802,0,1.452,0.65,1.452,1.451c0,5.689,4.631,10.322,10.323,10.322c5.69,0,10.321-4.633,10.321-10.322
					c0-5.691-4.631-10.322-10.321-10.322H9.807c-0.802,0-1.452-0.65-1.452-1.452c0-0.801,0.65-1.451,1.452-1.451h38.282
					c7.292,0,13.226,5.933,13.226,13.226S55.381,95.001,48.089,95.001z"/>
			</g>
		</g>
		<g>
			<g>
				<path fill="#FFFFFF" d="M78.42,45.591H9.807c-0.802,0-1.452-0.65-1.452-1.452c0-0.802,0.65-1.451,1.452-1.451H78.42
					c5.691,0,10.323-4.631,10.323-10.322c0-5.692-4.632-10.323-10.323-10.323S68.1,26.674,68.1,32.366
					c0,0.802-0.648,1.451-1.453,1.451c-0.801,0-1.451-0.649-1.451-1.451c0-7.293,5.935-13.227,13.227-13.227
					c7.293,0,13.229,5.934,13.229,13.227C91.646,39.657,85.713,45.591,78.42,45.591z"/>
			</g>
			<g>
				<path fill="#FFFFFF" d="M78.42,80.864c-7.292,0-13.225-5.935-13.225-13.229c0-0.802,0.647-1.45,1.451-1.45
					c0.803,0,1.451,0.648,1.451,1.45c0,5.692,4.631,10.323,10.32,10.323c5.691,0,10.323-4.631,10.323-10.323
					c0-5.69-4.632-10.321-10.322-10.321H9.807c-0.802,0-1.452-0.649-1.452-1.451c0-0.803,0.65-1.452,1.452-1.452H78.42
					c7.293,0,13.227,5.935,13.227,13.228S85.713,80.864,78.42,80.864z"/>
			</g>
		</g>
	</g>
</g>
</svg>
