<?xml version="1.0" encoding="utf-8"?>
<!-- Generator: Adobe Illustrator 16.0.0, SVG Export Plug-In . SVG Version: 6.00 Build 0)  -->
<!DOCTYPE svg PUBLIC "-//W3C//DTD SVG 1.1//EN" "http://www.w3.org/Graphics/SVG/1.1/DTD/svg11.dtd">
<svg version="1.1" id="Layer_1" xmlns="http://www.w3.org/2000/svg" xmlns:xlink="http://www.w3.org/1999/xlink" x="0px" y="0px"
	 width="100px" height="100px" viewBox="0 0 100 100" enable-background="new 0 0 100 100" xml:space="preserve">
<g id="Layer_1_1_">
</g>
<g id="icons">
	<g>
		<path fill="#FFFFFF" d="M50.001,5C33.534,5,20.137,18.397,20.137,34.865c0,15.943,27.483,57.714,28.653,59.482
			C49.059,94.755,49.514,95,50.001,95s0.942-0.245,1.211-0.65c1.17-1.771,28.653-43.539,28.653-59.482
			C79.865,18.397,66.469,5,50.001,5z M50.001,90.883C44.604,82.488,23.04,48.125,23.04,34.865c0-14.867,12.095-26.962,26.961-26.962
			s26.961,12.095,26.961,26.962C76.962,48.122,55.398,82.488,50.001,90.883z"/>
		<path fill="#FFFFFF" d="M50.001,21.549c-7.523,0-13.645,6.121-13.645,13.645S42.477,48.84,50.001,48.84
			c7.524,0,13.646-6.121,13.646-13.646C63.646,27.67,57.523,21.549,50.001,21.549z M50.001,45.936
			c-5.923,0-10.741-4.819-10.741-10.742c0-5.922,4.818-10.741,10.741-10.741s10.741,4.819,10.741,10.741
			C60.742,41.116,55.924,45.936,50.001,45.936z"/>
	</g>
</g>
</svg>
