<?xml version="1.0" encoding="utf-8"?>
<!-- Generator: Adobe Illustrator 16.0.0, SVG Export Plug-In . SVG Version: 6.00 Build 0)  -->
<!DOCTYPE svg PUBLIC "-//W3C//DTD SVG 1.1//EN" "http://www.w3.org/Graphics/SVG/1.1/DTD/svg11.dtd">
<svg version="1.1" xmlns="http://www.w3.org/2000/svg" xmlns:xlink="http://www.w3.org/1999/xlink" x="0px" y="0px" width="100px"
	 height="100px" viewBox="0 0 100 100" enable-background="new 0 0 100 100" xml:space="preserve">
<g id="Layer_1">
	<g>
		<g>
			<path fill-rule="evenodd" clip-rule="evenodd" fill="#5A5A5A" d="M50,3.883c-17.744,0-32.127,14.386-32.127,32.128v60.106h64.254
				V36.011C82.127,18.269,67.742,3.883,50,3.883 M76.484,90.03H23.516V36.321C23.516,21.717,35.395,9.836,50,9.836
				c14.604,0,26.484,11.881,26.484,26.485V90.03z"/>
		</g>
		<g>
			<path fill-rule="evenodd" clip-rule="evenodd" fill="#5A5A5A" d="M45.371,51.143c0-0.968-0.783-1.752-1.75-1.752
				c-0.969,0-1.752,0.784-1.752,1.752c0,0.966,0.783,1.75,1.752,1.75C44.588,52.893,45.371,52.108,45.371,51.143"/>
		</g>
		<g>
			<path fill-rule="evenodd" clip-rule="evenodd" fill="#5A5A5A" d="M50,13.113c-12.797,0-23.207,10.412-23.207,23.207v50.431
				h46.414V36.32C73.207,23.525,62.795,13.113,50,13.113 M68.424,47.623H55.859c-4.23-2.85-8.596-3.886-12.988-3.081
				c-2.039,0.373-3.906,1.113-5.588,2.034l-1.9-1.421c0.08-0.079,0.582-0.522,1.502-1.034c2.955-1.759,10.029-4.642,18.953,0.72
				l12.564-0.055L68.424,47.623z M62.004,71.686c-0.311,0.032-0.623,0.047-0.943,0.047h-0.002c-3.598,0-7.805-2.002-12.525-5.965
				c-1.135-0.95-2.168-1.906-3.057-2.777v7.855h-3.77V55.353c-0.061,0.003-1.299,0.006-2.973,0.006c-2.533,0-6.064-0.004-8.02-0.006
				c1.889-2.38,6.488-7.383,12.578-8.501c3.854-0.708,7.74,0.27,11.533,2.908l0.301,0.212h13.312l0.02,2.72l-14.291,0.052
				c-2.279,1.372-5.709,2.406-10.311,2.865l1.182,1.418c2.607,3.121,10.391,10.94,16.004,10.94c0.197,0,0.391-0.01,0.582-0.029
				c1.785-0.183,3.205-1.3,4.338-3.413l3.32,1.779C67.537,69.562,65.088,71.372,62.004,71.686"/>
		</g>
	</g>
</g>
<g id="icons">
</g>
</svg>
