<?xml version="1.0" encoding="utf-8"?>
<!-- Generator: Adobe Illustrator 16.0.0, SVG Export Plug-In . SVG Version: 6.00 Build 0)  -->
<!DOCTYPE svg PUBLIC "-//W3C//DTD SVG 1.1//EN" "http://www.w3.org/Graphics/SVG/1.1/DTD/svg11.dtd">
<svg version="1.1" id="Layer_1" xmlns="http://www.w3.org/2000/svg" xmlns:xlink="http://www.w3.org/1999/xlink" x="0px" y="0px"
	 width="100px" height="100px" viewBox="0 0 100 100" enable-background="new 0 0 100 100" xml:space="preserve">
<g id="Layer_1_1_">
</g>
<g id="icons">
	<path fill="#FFFFFF" d="M95.466,92.871L76.537,36.714c-0.199-0.591-0.753-0.988-1.376-0.988h-5.479
		c1.299-2.826,1.986-5.909,1.984-9.05C71.666,14.724,61.943,5,49.992,5C38.04,5,28.316,14.724,28.316,26.676
		c0,3.141,0.688,6.224,1.987,9.05h-4.7c-0.616,0-1.165,0.39-1.369,0.971L4.45,93.068c-0.155,0.441-0.087,0.936,0.186,1.317
		C4.909,94.77,5.35,95,5.82,95h88.342c0.007,0.001,0.015,0,0.02,0c0.803,0,1.451-0.65,1.451-1.451
		C95.633,93.305,95.572,93.073,95.466,92.871z M31.22,26.676c0-10.351,8.421-18.772,18.772-18.772
		c10.351,0,18.771,8.421,18.771,18.773c0.002,3.178-0.811,6.287-2.332,9.049h-8.654c2.547-2.194,4.166-5.434,4.166-9.05
		c0-6.59-5.36-11.952-11.95-11.952c-6.591,0-11.953,5.362-11.953,11.952c0,3.616,1.621,6.856,4.167,9.05h-8.653
		C32.03,32.964,31.22,29.854,31.22,26.676z M40.942,26.676c0-4.989,4.06-9.049,9.05-9.049c4.988,0,9.048,4.06,9.048,9.049
		c0,4.99-4.06,9.05-9.048,9.05C45.002,35.726,40.942,31.666,40.942,26.676z M7.868,92.098l18.765-53.469h40.6
		c0.015,0,0.027,0.006,0.043,0.006c0.017,0,0.029-0.005,0.045-0.006h6.8l18.021,53.469H7.868z"/>
</g>
</svg>
