<?xml version="1.0" encoding="utf-8"?>
<!-- Generator: Adobe Illustrator 16.0.0, SVG Export Plug-In . SVG Version: 6.00 Build 0)  -->
<!DOCTYPE svg PUBLIC "-//W3C//DTD SVG 1.1//EN" "http://www.w3.org/Graphics/SVG/1.1/DTD/svg11.dtd">
<svg version="1.1" id="Layer_1" xmlns="http://www.w3.org/2000/svg" xmlns:xlink="http://www.w3.org/1999/xlink" x="0px" y="0px"
	 width="100px" height="100px" viewBox="0 0 100 100" enable-background="new 0 0 100 100" xml:space="preserve">
<g id="Layer_1_1_">
</g>
<g id="icons">
	<g>
		<g>
			<g>
				<path fill="#FFFFFF" d="M85.212,95c-0.371,0-0.741-0.143-1.026-0.426L64.624,75.014l-2.188,17.358
					c-0.08,0.636-0.566,1.146-1.199,1.25c-0.635,0.103-1.26-0.218-1.543-0.791L29.627,31.665c-0.273-0.558-0.162-1.228,0.277-1.667
					c0.439-0.438,1.11-0.551,1.666-0.276l61.167,30.066c0.576,0.282,0.897,0.909,0.793,1.541c-0.105,0.634-0.613,1.121-1.252,1.2
					L74.92,64.719L94.48,84.279c0.271,0.271,0.426,0.643,0.426,1.027c0,0.383-0.153,0.754-0.426,1.024l-8.242,8.241
					C85.955,94.857,85.583,95,85.212,95z M63.555,70.438c0.379,0,0.75,0.148,1.026,0.428l20.631,20.632l6.188-6.188L70.771,64.675
					c-0.395-0.393-0.526-0.973-0.349-1.497c0.181-0.523,0.644-0.9,1.191-0.97l15.491-1.952L34.111,34.205l26.051,52.997
					l1.951-15.493c0.07-0.55,0.445-1.012,0.971-1.191C63.238,70.464,63.396,70.438,63.555,70.438z"/>
			</g>
		</g>
		<g>
			<path fill="#FFFFFF" d="M23.481,24.861c-0.372,0-0.743-0.142-1.026-0.425L11.429,13.41c-0.567-0.567-0.567-1.485,0-2.053
				c0.567-0.568,1.485-0.567,2.053,0l11.026,11.026c0.566,0.566,0.566,1.485,0,2.053C24.224,24.72,23.853,24.861,23.481,24.861z"/>
		</g>
		<g>
			<path fill="#FFFFFF" d="M30.019,24.854c-0.372,0-0.743-0.142-1.026-0.425c-0.567-0.567-0.567-1.486,0-2.053l11.025-11.025
				c0.567-0.566,1.486-0.566,2.053,0c0.567,0.567,0.567,1.485,0,2.053L31.045,24.43C30.761,24.713,30.39,24.854,30.019,24.854z"/>
		</g>
		<g>
			<path fill="#FFFFFF" d="M12.461,42.413c-0.371,0-0.742-0.142-1.026-0.426c-0.566-0.566-0.566-1.485,0-2.052l11.026-11.026
				c0.567-0.567,1.485-0.567,2.053,0c0.568,0.567,0.567,1.485,0,2.053L13.487,41.987C13.204,42.271,12.833,42.413,12.461,42.413z"/>
		</g>
		<g>
			<path fill="#FFFFFF" d="M26.75,23.496c-0.802,0-1.451-0.65-1.451-1.452V6.451C25.299,5.65,25.948,5,26.75,5
				s1.452,0.65,1.452,1.451v15.593C28.202,22.846,27.552,23.496,26.75,23.496z"/>
		</g>
		<g>
			<path fill="#FFFFFF" d="M22.141,28.115H6.547c-0.802,0-1.451-0.65-1.451-1.451c0-0.802,0.649-1.452,1.451-1.452h15.594
				c0.802,0,1.451,0.65,1.451,1.452C23.592,27.465,22.942,28.115,22.141,28.115z"/>
		</g>
	</g>
</g>
</svg>
