<?xml version="1.0" encoding="utf-8"?>
<!-- Generator: Adobe Illustrator 16.0.0, SVG Export Plug-In . SVG Version: 6.00 Build 0)  -->
<!DOCTYPE svg PUBLIC "-//W3C//DTD SVG 1.1//EN" "http://www.w3.org/Graphics/SVG/1.1/DTD/svg11.dtd">
<svg version="1.1" id="Layer_1" xmlns="http://www.w3.org/2000/svg" xmlns:xlink="http://www.w3.org/1999/xlink" x="0px" y="0px"
	 width="231px" height="231px" viewBox="0 0 231 231" enable-background="new 0 0 231 231" xml:space="preserve">
<g id="Layer_1_1_">
	<g>
		<path fill="#FFFFFF" d="M168.772,220.83h-10c-0.828,0-1.5-0.672-1.5-1.5v-53.5h3v52h7v-50h3v51.5
			C170.272,220.158,169.601,220.83,168.772,220.83z"/>
	</g>
	<g>
		<path fill="#FFFFFF" d="M148.772,220.83h-10c-0.828,0-1.5-0.672-1.5-1.5v-41.5h3v40h7v-39h3v40.5
			C150.272,220.158,149.601,220.83,148.772,220.83z"/>
	</g>
	<g>
		<path fill="#FFFFFF" d="M92.772,220.83h-10c-0.828,0-1.5-0.672-1.5-1.5v-45.5h3v44h7v-39h3v40.5
			C94.272,220.158,93.601,220.83,92.772,220.83z"/>
	</g>
	<g>
		<path fill="#FFFFFF" d="M72.772,220.83h-10c-0.828,0-1.5-0.672-1.5-1.5v-47.5h3v46h7v-49h3v50.5
			C74.272,220.158,73.601,220.83,72.772,220.83z"/>
	</g>
	<g>
		<path fill="#FFFFFF" d="M130.272,219.83h-3v-26.131c0-6.215-5.159-11.271-11.5-11.271s-11.5,5.057-11.5,11.271v26.131h-3v-26.131
			c0-7.869,6.505-14.27,14.5-14.27s14.5,6.4,14.5,14.27V219.83z"/>
	</g>
	<g>
		<path fill="#FFFFFF" d="M182.173,70.819c-0.141-20.781-0.258-52.552-0.283-59.997c-7.697,0.504-41.592,2.622-67.463,2.622
			c-25.801,0-58.652-2.106-66.247-2.618l0.236,59.976l-3,0.012L45.174,9.225c-0.002-0.417,0.171-0.816,0.476-1.102
			c0.305-0.285,0.718-0.426,1.131-0.4c0.382,0.027,38.537,2.721,67.646,2.721c29.114,0,68.46-2.694,68.854-2.721
			c0.422-0.03,0.821,0.115,1.125,0.398c0.305,0.282,0.479,0.678,0.479,1.093c0.002,0.377,0.131,38.039,0.289,61.584L182.173,70.819z
			"/>
	</g>
	<g>
		<path fill="#FFFFFF" d="M98.48,181.248c-1.639,0-3.106-0.121-4.173-0.328c-3.816-0.741-7.097-2.684-10.269-4.562
			c-1.457-0.862-2.834-1.678-4.263-2.387c-0.726-0.361-1.591-0.859-2.594-1.437c-3.049-1.757-8.155-4.695-10.702-3.922
			c-0.562,0.17-0.961,0.53-1.259,1.133c-0.386,0.78-0.573,1.764-0.771,2.805c-0.392,2.053-0.88,4.607-3.294,6.15
			c-2.948,1.885-6.364,0.639-8.855-0.271c-0.126-0.047-0.303-0.113-5.56-2.946c-0.479-0.258-0.779-0.754-0.788-1.298l-0.213-14.211
			l3-0.045l0.199,13.33c1.776,0.955,4.048,2.172,4.453,2.375c2.099,0.768,4.464,1.613,6.148,0.537
			c1.261-0.805,1.567-2.114,1.962-4.184c0.228-1.191,0.463-2.424,1.028-3.572c0.663-1.34,1.727-2.265,3.078-2.674
			c3.791-1.152,9.156,1.936,13.07,4.191c0.96,0.553,1.788,1.029,2.431,1.35c1.528,0.758,3.018,1.639,4.457,2.492
			c3.088,1.829,6.005,3.557,9.312,4.197c3.771,0.732,11.826,0.008,13.896-2.193c0.62-0.66,0.706-1.545,0.795-2.936
			c0.064-1.021,0.139-2.182,0.612-3.277c0.614-1.43,1.794-2.51,3.409-3.119c2.95-1.111,6.954-0.527,9.383,0.627
			c2.4,1.137,4.57,2.637,6.671,4.086c2.094,1.443,4.069,2.809,6.253,3.844c4.07,1.935,13.702,3.498,16.602,0.148
			c0.783-0.904,0.785-1.975,0.724-3.645c-0.076-2.039-0.171-4.575,2.5-6.33c5.468-3.602,11.417,0.182,15.761,2.945l0.708,0.449
			c3.759,2.367,8.229,4.913,10.515,5.918c-0.004-0.207-0.009-0.426-0.012-0.654c-0.039-2.426-0.084-6.657-0.133-13.873l3-0.021
			c0.066,10.038,0.128,14.083,0.167,15.696c0.063,0.166,0.099,0.345,0.099,0.532c0,0.026-0.002,0.053-0.002,0.078
			c-0.017,0.621-0.078,2.108-1.531,2.108c-0.006,0-0.014,0-0.021,0c-0.655-0.006-1.028-0.14-1.245-0.603
			c-1.748-0.469-5.186-2.076-12.438-6.646l-0.719-0.457c-3.854-2.452-8.65-5.505-12.502-2.97c-1.205,0.792-1.224,1.763-1.15,3.711
			c0.064,1.727,0.145,3.875-1.451,5.72c-4.445,5.134-16.062,2.546-20.156,0.599c-2.4-1.14-4.57-2.637-6.671-4.086
			c-2.094-1.445-4.069-2.811-6.253-3.844c-1.797-0.855-4.996-1.299-7.038-0.529c-0.858,0.324-1.419,0.813-1.713,1.498
			c-0.268,0.621-0.319,1.428-0.374,2.283c-0.094,1.479-0.211,3.319-1.603,4.799C108.59,180.356,102.911,181.248,98.48,181.248z"/>
	</g>
</g>
<g id="icons">
</g>
</svg>
