<?xml version="1.0" encoding="utf-8"?>
<!-- Generator: Adobe Illustrator 16.0.0, SVG Export Plug-In . SVG Version: 6.00 Build 0)  -->
<!DOCTYPE svg PUBLIC "-//W3C//DTD SVG 1.1//EN" "http://www.w3.org/Graphics/SVG/1.1/DTD/svg11.dtd">
<svg version="1.1" id="Layer_1" xmlns="http://www.w3.org/2000/svg" xmlns:xlink="http://www.w3.org/1999/xlink" x="0px" y="0px"
	 width="231px" height="231px" viewBox="0 0 231 231" enable-background="new 0 0 231 231" xml:space="preserve">
<g id="Layer_1_1_">
	<g>
		<rect x="114.5" y="159" fill="#AD8A64" width="3" height="62.023"/>
	</g>
	<g>
		<rect x="114.5" y="8.024" fill="#AD8A64" width="3" height="64.708"/>
	</g>
	<g>
		<path fill="#AD8A64" d="M102.998,71.499h-31c-0.828,0-1.5-0.671-1.5-1.5V35.523c0-0.829,0.672-1.5,1.5-1.5h31
			c0.828,0,1.5,0.671,1.5,1.5v34.476C104.498,70.828,103.826,71.499,102.998,71.499z M73.498,68.499h28V37.023h-28V68.499z"/>
	</g>
	<g>
		<path fill="#AD8A64" d="M145,41.023h-18c-0.828,0-1.5-0.671-1.5-1.5v-19c0-0.829,0.672-1.5,1.5-1.5h18c0.828,0,1.5,0.671,1.5,1.5
			v19C146.5,40.352,145.828,41.023,145,41.023z M128.5,38.023h15v-16h-15V38.023z"/>
	</g>
	<g>
		<path fill="#AD8A64" d="M99.998,202.024h-33c-0.828,0-1.5-0.672-1.5-1.5v-32.999c0-0.829,0.672-1.5,1.5-1.5h33
			c0.828,0,1.5,0.671,1.5,1.5v32.999C101.498,201.353,100.826,202.024,99.998,202.024z M68.498,199.024h30v-29.999h-30V199.024z"/>
	</g>
	<g>
		<path fill="#AD8A64" d="M164,182.023h-33c-0.828,0-1.5-0.671-1.5-1.5v-19.998c0-0.829,0.672-1.5,1.5-1.5h33
			c0.828,0,1.5,0.671,1.5,1.5v19.998C165.5,181.352,164.828,182.023,164,182.023z M132.5,179.023h30v-16.998h-30V179.023z"/>
	</g>
</g>
<g id="icons">
</g>
</svg>
