<?xml version="1.0" encoding="utf-8"?>
<!-- Generator: Adobe Illustrator 16.0.0, SVG Export Plug-In . SVG Version: 6.00 Build 0)  -->
<!DOCTYPE svg PUBLIC "-//W3C//DTD SVG 1.1//EN" "http://www.w3.org/Graphics/SVG/1.1/DTD/svg11.dtd">
<svg version="1.1" xmlns="http://www.w3.org/2000/svg" xmlns:xlink="http://www.w3.org/1999/xlink" x="0px" y="0px" width="100px"
	 height="100px" viewBox="0 0 100 100" enable-background="new 0 0 100 100" xml:space="preserve">
<g id="Layer_1">
	<g>
		<path d="M70.758,38.283h-4.22V35.85c-1.599,1.83-2.953,2.756-4.43,2.756c-1.299,0-2.197-0.609-2.648-1.715
			c-0.276-0.674-0.468-1.721-0.468-3.264V15.87h4.217v16.649v1.552c0.097,0.625,0.364,0.854,0.898,0.854
			c0.809,0,1.538-0.704,2.431-1.96V15.87h4.22V38.283z"/>
		<path d="M55.884,23.194c0-2.396-0.482-4.191-1.334-5.326c-1.122-1.535-2.884-2.16-4.66-2.16
			c-2.009,0-3.538,0.625-4.661,2.16c-0.863,1.135-1.327,2.951-1.327,5.348l-0.004,7.971c0,2.384,0.41,4.031,1.275,5.149
			c1.12,1.531,2.939,2.343,4.717,2.343c1.776,0,3.627-0.812,4.751-2.343c0.85-1.118,1.243-2.766,1.243-5.149V23.194z M51.666,31.63
			c0.221,2.22-0.466,3.323-1.776,3.323c-1.309,0-1.998-1.104-1.777-3.323v-8.878c-0.221-2.226,0.469-3.263,1.777-3.263
			c1.311,0,2.001,1.037,1.778,3.263L51.666,31.63z"/>
		<path d="M39.234,26.08v12.203h-4.439V26.08c0,0-4.601-14.969-5.549-17.76h4.661l3.115,11.694L40.123,8.32h4.661
			L39.234,26.08z"/>
		<path d="M56.816,63.967c-0.662,0-1.419,0.355-2.09,1.02l-0.006,13.463c0.671,0.672,1.434,1.01,2.096,1.01
			c1.159,0,1.682-0.85,1.682-3.068v-9.549C58.498,64.625,57.976,63.967,56.816,63.967"/>
		<path d="M73.372,66.639c0-2.049-0.532-2.672-1.863-2.672c-1.342,0-1.911,0.57-1.911,2.639v2.465l3.774-0.006
			V66.639z"/>
		<path d="M82.482,55.281c0,0-0.646-4.547-2.636-6.553c-2.519-2.626-5.346-2.64-6.641-2.793
			c-9.276-0.669-23.19-0.669-23.19-0.669h-0.029c0,0-13.916,0-23.19,0.669c-1.297,0.153-4.12,0.167-6.643,2.793
			c-1.985,2.006-2.632,6.553-2.632,6.553s-0.666,5.338-0.666,10.678v5.01c0,5.338,0.666,10.68,0.666,10.68s0.646,4.545,2.632,6.547
			c2.522,2.629,5.836,2.545,7.311,2.82c5.303,0.51,22.538,0.664,22.538,0.664s13.928-0.021,23.204-0.689
			c1.295-0.152,4.122-0.166,6.641-2.795c1.989-2.002,2.636-6.547,2.636-6.547s0.662-5.342,0.662-10.68v-5.01
			C83.145,60.619,82.482,55.281,82.482,55.281 M31.416,82.826h-4.44V57.299h-4.662v-4.213l13.987-0.006v4.219h-4.885V82.826z
			 M47.4,82.826h-4.219v-2.439c-1.6,1.832-2.954,2.756-4.433,2.756c-1.297,0-2.196-0.609-2.647-1.717
			c-0.271-0.672-0.467-1.721-0.467-3.26V60.627h4.218v16.428v1.553c0.097,0.625,0.363,0.852,0.897,0.852
			c0.81,0,1.537-0.699,2.432-1.959V60.627H47.4V82.826z M62.718,76.17c0,2.049-0.177,3.496-0.445,4.438
			c-0.536,1.648-1.705,2.508-3.306,2.508c-1.431,0-2.892-0.863-4.236-2.523l-0.006,2.234h-3.995V53.08h3.995l-0.004,9.697
			c1.298-1.596,2.768-2.506,4.246-2.506c1.601,0,2.677,0.926,3.213,2.586c0.267,0.893,0.538,2.33,0.538,4.43V76.17z M71.547,79.459
			c0.989,0,1.566-0.535,1.796-1.609c0.037-0.221,0.029-1.18,0.029-2.793h4.218v0.631c0,1.293-0.106,2.213-0.144,2.613
			c-0.136,0.889-0.449,1.697-0.938,2.408c-1.113,1.609-2.762,2.406-4.862,2.406c-2.1,0-3.702-0.756-4.863-2.275
			c-0.854-1.107-1.401-2.758-1.401-5.117v-7.77c0-2.371,0.497-4.203,1.351-5.324c1.161-1.52,2.764-2.32,4.815-2.32
			c2.015,0,3.615,0.801,4.742,2.32c0.84,1.121,1.309,2.855,1.309,5.227v4.533h-8v3.992C69.585,78.428,70.167,79.459,71.547,79.459"
			/>
	</g>
</g>
<g id="icons">
</g>
</svg>
