<?xml version="1.0" encoding="utf-8"?>
<!-- Generator: Adobe Illustrator 16.0.0, SVG Export Plug-In . SVG Version: 6.00 Build 0)  -->
<!DOCTYPE svg PUBLIC "-//W3C//DTD SVG 1.1//EN" "http://www.w3.org/Graphics/SVG/1.1/DTD/svg11.dtd">
<svg version="1.1" xmlns="http://www.w3.org/2000/svg" xmlns:xlink="http://www.w3.org/1999/xlink" x="0px" y="0px" width="100px"
	 height="100px" viewBox="0 0 100 100" enable-background="new 0 0 100 100" xml:space="preserve">
<g id="Layer_1">
	<g>
		<path d="M56.104,87.945c0.008-11.103,0.008-22.2,0-33.296c0-0.596,0.191-0.774,0.776-0.771
			c3.31,0.023,6.627-0.012,9.935,0.027c0.759,0.004,1.025-0.189,1.112-0.987c0.374-3.361,0.852-6.71,1.281-10.066
			c0.11-0.861,0.103-0.769,0.209-1.732l0.101-0.962H56.21l-0.099-0.646c0.014-3.111-0.008-6.223,0.052-9.335
			c0.02-0.759,0.232-1.545,0.506-2.255c0.694-1.787,2.177-2.641,3.98-2.75c2.679-0.155,5.367-0.121,8.056-0.175
			c1.486-0.019,1.297,0.175,1.301-1.331c0.012-3.449-0.004-6.885,0.012-10.326c0.008-0.555-0.134-0.781-0.729-0.832
			c-4.655-0.346-9.31-0.777-13.965-0.085c-6.789,1.005-11.932,6.044-13.101,12.851c-0.281,1.631-0.399,3.328-0.447,4.998
			c-0.067,2.967-0.02,5.928-0.02,8.892v0.954H30.043l-0.049,0.803c0,4.044,0.016,8.089-0.012,12.128
			c-0.014,0.67,0.195,0.857,0.844,0.854c3.358-0.027,6.729,0.004,10.094-0.027c0.65,0,0.848,0.169,0.848,0.838
			c-0.012,11.052-0.012,22.102,0,33.145L56.104,87.945z"/>
	</g>
</g>
<g id="icons">
</g>
</svg>
