<?xml version="1.0" encoding="utf-8"?>
<!-- Generator: Adobe Illustrator 16.0.0, SVG Export Plug-In . SVG Version: 6.00 Build 0)  -->
<!DOCTYPE svg PUBLIC "-//W3C//DTD SVG 1.1//EN" "http://www.w3.org/Graphics/SVG/1.1/DTD/svg11.dtd">
<svg version="1.1" id="Livello_1" xmlns="http://www.w3.org/2000/svg" xmlns:xlink="http://www.w3.org/1999/xlink" x="0px" y="0px"
	 width="127.182px" height="122.939px" viewBox="0 0 127.182 122.939" enable-background="new 0 0 127.182 122.939"
	 xml:space="preserve">
<g id="Layer_1" display="none">
	<g display="inline">
		<polygon fill="#3D3D3D" points="452.109,384.302 470.092,384.302 470.092,390.281 490.846,390.281 507.467,394.854 
			514.325,394.854 526.901,397.142 526.901,402.857 514.325,405.144 507.467,405.144 490.846,409.717 470.092,409.717 
			470.092,414.202 470.092,415.697 452.109,415.697 452.109,420.296 470.092,420.296 474.689,420.296 474.689,415.697 
			474.689,414.316 490.846,414.316 491.467,414.316 492.065,414.151 508.089,409.743 514.325,409.743 514.74,409.743 
			515.147,409.669 527.725,407.382 531.498,406.696 531.498,402.857 531.498,397.142 531.498,393.304 527.725,392.617 
			515.147,390.33 514.74,390.256 514.325,390.256 508.089,390.256 492.065,385.848 491.467,385.683 490.846,385.683 
			474.689,385.683 474.689,384.302 474.689,379.703 470.092,379.703 452.109,379.703 		"/>
		<g opacity="0.2">
			<path fill="#262626" d="M473.381,387.914h10.646V293.43c0-33.158,26.88-60.039,60.039-60.039h213.141
				c33.157,0,60.038,26.881,60.038,60.039v213.14c0,33.158-26.881,60.039-60.038,60.039H544.065
				c-33.159,0-60.039-26.881-60.039-60.039v-94.482h-10.646v165.171h354.511V222.744H473.381V387.914z"/>
		</g>
		<g>
			<path fill="#3D3D3D" d="M823.469,227.166v345.668H477.802V227.166H823.469 M827.891,222.744H473.381v354.512h354.511V222.744
				L827.891,222.744z"/>
		</g>
		<rect x="471.001" y="391" fill="#EAE0D6" width="21" height="18"/>
		<g>
			<polyline fill="none" stroke="#3D3D3D" stroke-width="2.1419" stroke-miterlimit="10" points="452.109,415.697 470.092,415.697 
				470.092,384.302 452.109,384.302 			"/>
			<g>
				<polygon fill="none" stroke="#3D3D3D" stroke-width="2.1419" stroke-miterlimit="10" points="514.325,394.854 514.325,405.144 
					526.901,402.858 526.901,397.142 				"/>
				
					<rect x="507.467" y="394.854" fill="none" stroke="#3D3D3D" stroke-width="2.1419" stroke-miterlimit="10" width="6.857" height="10.289"/>
				<polygon fill="none" stroke="#3D3D3D" stroke-width="2.1419" stroke-miterlimit="10" points="490.846,409.717 490.846,409.717 
					507.467,405.144 507.467,394.854 490.846,390.281 490.846,390.281 				"/>
			</g>
			<polyline fill="none" stroke="#3D3D3D" stroke-width="2.1419" stroke-miterlimit="10" points="452.109,409.717 490.846,409.717 
				490.846,390.281 452.109,390.281 			"/>
			
				<line fill="none" stroke="#3D3D3D" stroke-width="2.1419" stroke-miterlimit="10" x1="470.092" y1="415.538" x2="470.092" y2="384.302"/>
		</g>
	</g>
</g>
<g id="Layer_7" display="none">
	<g display="inline">
		<g>
			<path fill="#3D3D3D" d="M591.073,459.073v-24.25c-16.56-3.131-28.506-17.496-28.506-34.431c0-19.322,15.719-35.041,35.04-35.041
				h22.806c19.322,0,35.042,15.719,35.042,35.041c0,18.478-14.373,33.787-32.766,34.972L591.073,459.073z M597.608,367.023
				c-18.4,0-33.37,14.973-33.37,33.371c0,16.354,11.696,30.19,27.813,32.908l0.693,0.117v22.313l29.35-22.007l0.251-0.016
				c17.633-1.011,31.442-15.646,31.442-33.318c0-18.398-14.971-33.371-33.373-33.371L597.608,367.023L597.608,367.023z"/>
		</g>
		<g>
			<path fill="#3D3D3D" d="M610.612,396.352c-0.271-1.321-0.121-2.574,0.512-3.758c0.534-0.995,1.313-1.75,2.314-2.263
				c2.005-1.022,4.602-0.731,6.37,1.098l0.198-0.013c1.063-0.232,2.069-0.615,3.021-1.146l0.164-0.083l0.029,0.013
				c-0.085,0.306-0.218,0.583-0.366,0.858c-0.146,0.281-0.323,0.541-0.519,0.788c-0.192,0.243-0.399,0.473-0.639,0.669
				c-0.234,0.203-0.485,0.392-0.758,0.602c0.541-0.062,1.041-0.169,1.536-0.304c0.485-0.132,0.958-0.302,1.446-0.51
				c-0.132,0.29-0.701,1.009-1.197,1.518c-0.439,0.454-0.916,0.865-1.421,1.235l-0.02,0.228c0.019,0.571,0.005,1.141-0.045,1.705
				c-0.079,0.885-0.226,1.754-0.453,2.607c-0.606,2.305-1.653,4.39-3.188,6.218c-2.112,2.521-4.771,4.157-7.978,4.903
				c-0.857,0.199-1.731,0.315-2.616,0.375c-0.574,0.037-1.149,0.045-1.729,0.021c-1.8-0.078-3.539-0.461-5.206-1.147
				c-0.755-0.313-1.479-0.687-2.173-1.111l-0.148-0.104l-0.011-0.035c1.898,0.201,3.727-0.063,5.479-0.81
				c0.849-0.356,1.999-1.047,2.353-1.398l-0.079-0.039c-0.267-0.025-0.527-0.051-0.793-0.104c-1.665-0.315-3.194-1.476-3.922-3.186
				c-0.057-0.141-0.12-0.275-0.147-0.438c0.266,0.026,0.521,0.059,0.779,0.073c0.262,0.02,0.521,0,0.778-0.028
				c0.26-0.024,0.514-0.07,0.779-0.141l-0.147-0.068c-1.563-0.407-2.729-1.324-3.492-2.749c-0.392-0.729-0.587-1.516-0.605-2.344
				l0.011-0.188c0.266,0.109,0.512,0.229,0.771,0.32c0.251,0.092,0.51,0.162,0.769,0.22c0.264,0.058,0.531,0.107,0.838,0.086
				c-0.111-0.104-0.217-0.168-0.307-0.244c-0.099-0.079-0.191-0.158-0.283-0.241c-0.084-0.08-0.168-0.159-0.248-0.245
				c-0.086-0.088-0.169-0.181-0.247-0.272c-0.079-0.097-0.156-0.192-0.229-0.29c-0.071-0.104-0.143-0.203-0.205-0.31
				c-0.063-0.098-0.121-0.196-0.18-0.302c-0.059-0.109-0.111-0.22-0.166-0.331c-0.05-0.111-0.098-0.226-0.143-0.342
				c-0.041-0.113-0.082-0.232-0.115-0.354c-0.037-0.113-0.063-0.233-0.095-0.355c-0.023-0.111-0.047-0.229-0.064-0.341
				c-0.018-0.121-0.035-0.244-0.047-0.367c-0.011-0.122-0.013-0.246-0.015-0.368c-0.003-0.124-0.003-0.246,0.004-0.37
				c0.003-0.118,0.016-0.229,0.029-0.349c0.014-0.122,0.025-0.244,0.051-0.365c0.021-0.123,0.049-0.242,0.08-0.361
				c0.03-0.118,0.063-0.235,0.103-0.354c0.038-0.111,0.076-0.222,0.121-0.329c0.046-0.113,0.099-0.227,0.149-0.336
				c0.053-0.11,0.114-0.217,0.17-0.322c0.085,0.017,0.108,0.076,0.146,0.12c0.437,0.516,0.896,1.002,1.395,1.456
				c2.041,1.863,4.411,3.102,7.115,3.697c0.709,0.152,1.429,0.253,2.147,0.312c0.083,0.007,0.165,0.008,0.247,0.011L610.612,396.352
				z"/>
		</g>
		<g>
			<path fill="#3D3D3D" d="M678.493,373.036h-3.25l-0.021-0.158c0.002-0.758-0.002-1.521,0.012-2.279
				c0.006-0.186,0.058-0.377,0.123-0.551c0.17-0.438,0.533-0.646,0.973-0.67c0.654-0.039,1.313-0.031,1.97-0.044
				c0.36-0.005,0.313,0.044,0.315-0.325c0.002-0.841-0.002-1.682,0.002-2.521c0.002-0.135-0.028-0.188-0.178-0.2
				c-1.137-0.085-2.271-0.19-3.41-0.021c-1.658,0.246-2.914,1.479-3.198,3.139c-0.066,0.4-0.099,0.813-0.107,1.224
				c-0.018,0.725-0.004,1.444-0.004,2.171v0.23h-2.861l-0.012,0.196c0,0.987,0.004,1.978-0.002,2.961
				c-0.004,0.164,0.047,0.21,0.205,0.209c0.817-0.007,1.645,0.001,2.465-0.007c0.16,0,0.207,0.041,0.207,0.205
				c-0.002,2.698-0.002,5.396,0,8.094c0,0.165-0.047,0.206-0.205,0.206c-3.439-0.003-6.879-0.001-10.32-0.006
				c-0.721,0-1.19-0.47-1.205-1.192c-0.006-0.473,0-0.943,0-1.417c0-6.017-0.002-12.027,0.002-18.046
				c0-0.21,0.019-0.438,0.092-0.628c0.179-0.439,0.521-0.684,1.005-0.712l0.235-0.003c6.445,0,12.894-0.001,19.336,0.003
				c0.17,0,0.349,0.003,0.508,0.047c0.476,0.127,0.798,0.547,0.82,1.036c0.008,0.097,0.008,0.196,0.008,0.294
				c0,6.413,0,12.829-0.004,19.241c0,0.165,0.006,0.335-0.028,0.494c-0.121,0.521-0.563,0.88-1.103,0.882
				c-1.822,0.007-3.645,0.001-5.463,0.006c-0.143,0-0.176-0.053-0.176-0.184c0.002-2.711,0.002-5.422,0-8.131
				c0-0.146,0.047-0.189,0.188-0.188c0.812,0.006,1.617-0.003,2.429,0.007c0.186,0.001,0.25-0.047,0.271-0.239
				c0.092-0.82,0.209-1.641,0.313-2.46C678.445,373.483,678.469,373.271,678.493,373.036"/>
		</g>
		<g>
			<path fill="#3D3D3D" d="M688.926,434.646l-31.618-23.711c-0.334-0.027-0.664-0.065-0.994-0.106l-0.48-0.06l0.188-1.66l0.5,0.063
				c0.377,0.047,0.752,0.094,1.137,0.115l0.252,0.016l29.351,22.006V408.99l0.692-0.114c16.114-2.72,27.813-16.559,27.813-32.907
				c0-18.401-14.971-33.371-33.371-33.371h-22.805c-13.99,0-26.598,8.875-31.364,22.084l-1.571-0.567
				c5.008-13.866,18.244-23.187,32.938-23.187h22.805c19.321,0,35.041,15.719,35.041,35.041c0,16.932-11.946,31.3-28.507,34.431
				v24.249L688.926,434.646L688.926,434.646z"/>
		</g>
	</g>
</g>
<g id="Layer_6" display="none">
	<g display="inline">
		<path fill="#3D3D3D" d="M683.138,408.58c-0.242-2.304-2.144-4.104-4.484-4.17v-2.146c0-1.279-1.004-2.313-2.266-2.386v-2.146
			c0-2.985-1.906-5.534-4.563-6.506c0.015-0.097,0.031-0.19,0.031-0.291c0-18.813-15.309-34.123-34.125-34.123
			c-18.812,0-34.122,15.31-34.122,34.123c0,0.098,0.021,0.194,0.028,0.291c-2.655,0.972-4.559,3.521-4.559,6.506v2.146
			c-1.264,0.068-2.271,1.104-2.271,2.386v11.33c0,1.279,1.007,2.318,2.271,2.387v2.146c0,3.817,3.104,6.934,6.927,6.934h4.53
			c1.325,0,2.398-1.076,2.398-2.4v-29.456c0-1.06-0.688-1.945-1.639-2.267c-0.241-0.078-0.491-0.135-0.762-0.135h-2.129
			c0.072-16.109,13.195-29.191,29.32-29.191c16.124,0,29.247,13.082,29.32,29.191h-2.13c-0.269,0-0.52,0.055-0.759,0.135
			c-0.953,0.318-1.642,1.207-1.642,2.267v29.456c0,1.326,1.072,2.4,2.396,2.4h4.532c3.821,0,6.933-3.109,6.933-6.934v-2.146
			c0.879-0.051,1.625-0.563,1.997-1.311v7.983c0,0.537-0.221,12.719-18.563,13.428c-0.74-1.198-2.003-2.025-3.479-2.182
			c-0.153-0.032-0.316-0.05-0.483-0.05h-6.797c-0.165,0-0.327,0.018-0.483,0.05c-2.342,0.247-4.18,2.21-4.18,4.617
			c0,2.406,1.838,4.369,4.18,4.615c0.156,0.028,0.318,0.047,0.483,0.047h6.797c0.167,0,0.33-0.019,0.483-0.047
			c1.506-0.16,2.784-1.021,3.52-2.263c23.035-0.825,23.324-18.041,23.324-18.219V409.06
			C683.187,408.898,683.17,408.738,683.138,408.58z M608.144,420.262h-2.133c-1.177,0-2.132-0.957-2.132-2.135v-20.396
			c0-1.178,0.955-2.134,2.138-2.134h2.129v24.661L608.144,420.262L608.144,420.262z M671.592,418.127
			c0,1.178-0.955,2.135-2.134,2.135h-2.135v-24.66h2.135c1.179,0,2.134,0.958,2.134,2.133V418.127z"/>
	</g>
</g>
<g id="Layer_5" display="none">
	<g id="Your_Icon_2_" display="inline">
		<path fill="#3D3D3D" d="M641.996,364.504v-14.359h-4v14.359c-23.008,0.768-25.004,14.977-25.004,17.889v43.686
			c0,7.14,7.414,23.777,27.008,23.777c19.613,0,27.009-16.969,27.009-23.777v-43.686
			C667.008,379.482,665.006,365.272,641.996,364.504z M663.008,382.393v17.521c-3.001,0.798-10.004,2.476-21.013,2.654v-4.067
			c2.008-0.685,3.006-2.151,3.006-3.862v-14.306c0-1.709-0.998-3.181-3.006-3.861v-7.983
			C661.008,369.145,663.008,379.229,663.008,382.393z M640.748,394.617c-0.026,0.089-0.303,0.308-0.747,0.308
			c-0.447,0-0.72-0.219-0.746-0.287l-0.004-14.284c0.03-0.09,0.303-0.307,0.75-0.307c0.444,0,0.721,0.217,0.743,0.285
			L640.748,394.617z M637.996,368.487v7.983c-1.998,0.682-3,2.152-3,3.861v14.306c0,1.711,1.002,3.181,3,3.864v4.065
			c-11.002-0.182-18.002-1.856-21.004-2.654v-17.521C616.992,379.229,618.99,369.145,637.996,368.487z M640.001,445.866
			c-16.676,0-23.01-14.819-23.01-19.791V404.07c4,1.019,11.423,2.513,23.01,2.513c11.58,0,19.006-1.494,23.007-2.513v22.006
			C663.008,431.439,655.605,445.866,640.001,445.866z"/>
	</g>
</g>
<g id="Layer_4" display="none">
	<g display="inline">
		<g>
			<g>
				<g>
					<path fill="#3D3D3D" d="M665.45,351.889l-0.021,57.471c0,2.951-0.342,5.818-0.963,8.584c1.188,0.353,2.063,1.438,2.063,2.744
						c0,1.477-1.117,2.682-2.553,2.844c0.486,0.515,0.791,1.201,0.791,1.965c0,1.595-1.283,2.879-2.873,2.879
						c-0.463,0-0.889-0.116-1.279-0.312c-6.6,11.95-19.317,20.049-33.938,20.049c-21.397,0-38.747-17.351-38.747-38.752v-1.563
						c-0.146,0.012-0.286,0.043-0.438,0.043c-3.003,0-5.44-2.437-5.44-5.442s2.438-5.44,5.44-5.44c0.148,0,0.288,0.031,0.438,0.044
						v-30.306c0-4.324,3.507-7.839,7.836-7.839h0.909c0.19-3.873,3.367-6.964,7.293-6.964h32.146h13.278h16.055 M668.9,348.44
						h-3.449h-16.055h-13.278H603.97c-4.646,0-8.623,2.952-10.118,7.127c-5.313,0.913-9.368,5.556-9.368,11.124v27.336
						c-3.424,1.237-5.878,4.521-5.878,8.366c0,3.854,2.465,7.146,5.901,8.374c0.746,22.618,19.377,40.792,42.171,40.792
						c14.557,0,28.036-7.513,35.736-19.759c3.242-0.267,5.806-2.99,5.806-6.308c0-0.143-0.006-0.28-0.019-0.424
						c1.104-1.141,1.775-2.688,1.775-4.385c0-1.621-0.637-3.145-1.697-4.287c0.396-2.342,0.599-4.701,0.599-7.041l0.02-57.47
						L668.9,348.44L668.9,348.44z"/>
				</g>
			</g>
			<g>
				<circle fill="#3D3D3D" cx="649.466" cy="401.269" r="2.875"/>
			</g>
			<g>
				<rect x="656.568" y="351.373" fill="#3D3D3D" width="1.67" height="27.913"/>
			</g>
			<g>
				<rect x="651.657" y="351.373" fill="#3D3D3D" width="1.67" height="27.913"/>
			</g>
			<g>
				<rect x="640.203" y="351.373" fill="#3D3D3D" width="1.669" height="27.913"/>
			</g>
			<g>
				<path fill="none" stroke="#262626" stroke-width="1.6702" stroke-miterlimit="10" d="M616.778,373.263"/>
			</g>
			<g>
				<path fill="#3D3D3D" d="M611.463,407.738l-25.783-11.752l0.689-1.52l23.421,10.676v-14.786
					c-0.08-0.858-0.807-10.648,8.478-11.896l0.111-0.007h46.793v1.67h-46.736c-7.959,1.106-7.023,9.726-6.979,10.093l0.009,0.1
					L611.463,407.738L611.463,407.738z"/>
			</g>
			<g>
				<path fill="#3D3D3D" d="M653.327,423.857h-1.67c0-8.977-7.301-16.274-16.273-16.274v-1.671
					C645.277,405.909,653.327,413.961,653.327,423.857z"/>
			</g>
		</g>
		<g>
			<g>
				<path fill="#3D3D3D" d="M693.865,433.135l-19.521-5.299l19.054,6.795c0.021,0.007,0.04,0.013,0.063,0.019
					c0.416,0.115,0.849-0.133,0.959-0.553S694.283,433.245,693.865,433.135z"/>
			</g>
			<g>
				<path fill="#3D3D3D" d="M689.433,440.676l-0.004-0.006l-0.021-0.013l-0.011-0.008l-0.002-0.001l-16.632-11.605l15.716,12.878
					c0.018,0.012,0.031,0.023,0.046,0.032l0.006,0.006c1.165,0.814,1.944,2.036,2.19,3.439c0.242,1.386-0.066,2.774-0.874,3.906
					c-0.145,0.203-0.294,0.388-0.45,0.559c-0.292,0.316-0.271,0.813,0.049,1.109c0.15,0.136,0.34,0.206,0.529,0.206
					c0.213,0,0.426-0.087,0.583-0.255c0.192-0.217,0.386-0.454,0.572-0.707c1.046-1.481,1.447-3.287,1.139-5.088
					C691.948,443.313,690.942,441.733,689.433,440.676z"/>
			</g>
			<g>
				<path fill="#3D3D3D" d="M701.394,420.086c0-0.435-0.354-0.783-0.785-0.783l0,0c-0.434,0-0.785,0.352-0.785,0.785
					c0,1.416-0.549,2.746-1.549,3.75c-0.999,1.002-2.33,1.553-3.743,1.555h-0.006l-20.981,0.785l20.981,0.783h0.002
					c0.021,0,0.04,0,0.061,0l0.012-0.004c1.813-0.021,3.509-0.73,4.786-2.015C700.679,423.648,701.396,421.92,701.394,420.086z"/>
			</g>
		</g>
	</g>
</g>
<g id="Layer_3">
	<g>
		<g>
			<path fill="#262626" d="M79.059,89.149c-0.328,0.198-0.436,0.624-0.238,0.956c0.199,0.322,0.629,0.432,0.955,0.231
				c0.02-0.008,0.031-0.021,0.045-0.026L94.78,79.667L79.059,89.149z"/>
			<path fill="#262626" d="M90.971,99.14c0.357,0.133,0.76-0.056,0.895-0.412c0.008-0.019,0.014-0.035,0.018-0.054L96.8,81.357
				l-6.236,16.889C90.428,98.607,90.614,99.004,90.971,99.14z"/>
			<path fill="#262626" d="M84.587,95.902c0.012-0.012,0.02-0.027,0.031-0.041L95.04,81.28L83.518,95.008
				c-0.246,0.296-0.205,0.734,0.086,0.98C83.897,96.24,84.341,96.197,84.587,95.902z"/>
			<path fill="#EAE0D6" d="M81.997,102.515h-0.002c-0.822,0-1.627-0.123-2.422-0.097c-0.41,0.017-0.813-0.028-1.215-0.01
				c-0.346,0.021-0.688,0.002-1.027,0.024c-0.533,0.033-1.061,0.063-1.578,0.104c-0.166,0.017-0.33-0.108-0.494-0.091
				c-0.602,0.059-1.441,0.062-2.025,0.062c-0.01,0-1.535,0-1.535,0V90.97c0-1.601,0.455-2.462-1.141-2.462h-13.86v-25.51
				L77.993,32.64l5.57-7.896c0.52,0.229,1.121,0.354,1.723,0.354c0.52,0,1.033-0.106,1.494-0.281l21.635,28.907l-3.891,7.777
				l-3.043,6.09l-2.344,3.15l-3.299,7.957l1.537,1.146l6.676-5.438l2.355-3.154l12.674-11.587c0.385-0.14,0.762-0.308,1.129-0.518
				l0.863-0.501c3.385-1.954,4.543-6.281,2.59-9.663L91.307,5.734c-0.396-0.695-0.904-1.29-1.475-1.789l-0.531-0.527
				c-3.111-3.112-8.402-3.372-11.867,0.855L43.745,52.657c-0.289,0.051-0.572,0.114-0.854,0.188
				c-0.015,0.005-0.029,0.007-0.044,0.012c-0.271,0.073-0.537,0.157-0.798,0.251c-0.021,0.008-0.043,0.017-0.064,0.023
				c-0.26,0.096-0.513,0.197-0.76,0.313c-0.019,0.008-0.036,0.02-0.055,0.026c-0.254,0.12-0.5,0.246-0.74,0.385
				c0,0-0.003,0.002-0.006,0.004c-0.982,0.569-1.86,1.297-2.597,2.151c-0.021,0.021-0.041,0.042-0.063,0.063
				c-0.134,0.157-0.257,0.321-0.38,0.486c-0.063,0.084-0.128,0.165-0.188,0.251c-0.104,0.146-0.198,0.299-0.295,0.451
				c-0.068,0.11-0.142,0.225-0.205,0.341c-0.081,0.143-0.156,0.287-0.231,0.434c-0.069,0.137-0.135,0.271-0.196,0.41
				c-0.063,0.14-0.125,0.279-0.181,0.422c-0.063,0.153-0.117,0.313-0.171,0.469c-0.047,0.138-0.094,0.271-0.134,0.409
				c-0.055,0.177-0.097,0.354-0.139,0.53c-0.028,0.129-0.063,0.257-0.09,0.39c-0.041,0.205-0.065,0.415-0.096,0.623
				c-0.016,0.11-0.37,0.22-0.381,0.328c-0.031,0.323-0.39,0.65-0.39,0.983v25.915H21.816c-1.599,0-4.126,0.858-4.126,2.462v14.104
				c-6,1.604-12,3.935-17,6.473v0.009v8.912v0.131v0.16l96.639,1.047c-3.207,0-5.324-0.297-8.227-1.297h2.043l1.545,0.919v-0.919
				h5.584c-0.771,0-1.531,0-2.287-0.035l2.289,0.035h26.422v-4.718C113.698,110.623,102.151,102.515,81.997,102.515z"/>
		</g>
		<g>
			<path fill="none" stroke="#262626" stroke-width="1.6702" stroke-miterlimit="10" d="M122.296,56.735L106.407,71.26l-4.918-3.661
				l9.604-19.207c2.305-3.098,6.68-3.734,9.771-1.432C123.96,49.265,124.598,53.641,122.296,56.735z"/>
			<path fill="none" stroke="#3D3D3D" stroke-width="3.448" stroke-miterlimit="10" d="M110.544,56.564
				c1.951,3.385,6.281,4.543,9.666,2.591l0.859-0.5c3.389-1.954,4.547-6.281,2.594-9.663L91.307,5.734
				c-1.951-3.386-6.279-4.543-9.664-2.592l-0.865,0.499c-3.379,1.956-4.541,6.278-2.588,9.665L110.544,56.564z"/>
			<path fill="none" stroke="#3D3D3D" stroke-width="3.448" stroke-miterlimit="10" d="M81.997,102.238L81.997,102.238
				c-3.025,0-5.857,0.197-8.545,0.535V90.977c0-1.604-1.301-2.896-2.896-2.896H57.003V63.004l28.136-40.401l23.281,31.129
				L101.483,67.6l-2.348,3.15l-3.299,7.957l1.539,1.146l6.674-5.438l2.355-3.152L119.1,59.655c0.375-0.138,0.748-0.292,1.104-0.498
				l0.863-0.5c3.387-1.954,4.545-6.281,2.59-9.663l-32.35-43.26c-0.063-0.111-0.146-0.2-0.219-0.306
				c-0.021-0.032-0.045-0.063-0.064-0.097c-0.26-0.38-0.541-0.729-0.854-1.046c-0.023-0.021-0.045-0.051-0.07-0.078l-0.797-0.793
				c-3.111-3.112-8.402-3.372-11.867,0.855L43.745,52.655c-4.75,0.824-8.369,4.957-8.369,9.947v25.476h-13.55
				c-1.6,0-2.896,1.296-2.896,2.896v14.216c-6.134,1.651-11.451,4.006-16.448,6.367v8.913l123.667,0.105v-3.766
				C114.001,111.443,102.643,102.238,81.997,102.238z"/>
			<path fill="none" d="M36.39,102.902h-0.003c-14.443,0-24.722,4.307-33.911,8.649v9.214l95.748,1.09
				C77.743,121.855,65.546,102.902,36.39,102.902z"/>
			<path fill="none" stroke="#3D3D3D" stroke-width="0.862" stroke-miterlimit="10" d="M122.296,56.735L106.407,71.26l-4.918-3.661
				l9.604-19.207c2.305-3.098,6.68-3.734,9.771-1.432C123.96,49.265,124.598,53.641,122.296,56.735"/>
			<path fill="none" stroke="#262626" stroke-width="0.862" stroke-miterlimit="10" d="M39.896,58.18
				c-3.109,3.11-3.109,8.157,0,11.27l0.794,0.794c3.111,3.113,8.159,3.113,11.272,0l38.134-54.762c2.334-4.057,3.111-8.158,0-11.271
				l-0.795-0.793c-3.111-3.112-8.404-3.372-11.867,0.855L39.896,58.18z"/>
			<g>
				<path fill="#EAE0D6" d="M39.896,58.18c-3.109,3.11-3.109,8.157,0,11.27l0.794,0.794c3.111,3.113,8.159,3.113,11.272,0
					l38.134-54.762c2.334-4.057,3.111-8.158,0-11.271l-0.795-0.793c-3.111-3.112-8.404-3.372-11.867,0.855L39.896,58.18z"/>
				<path fill="none" stroke="#3D3D3D" stroke-width="1.724" stroke-miterlimit="10" d="M39.896,58.18
					c-3.109,3.11-3.109,8.157,0,11.27l0.794,0.794c3.111,3.113,8.159,3.113,11.272,0l38.134-54.762
					c2.334-4.057,3.111-8.158,0-11.271l-0.795-0.793c-3.111-3.112-8.404-3.372-11.867,0.855L39.896,58.18z"/>
			</g>
			<polygon fill="none" points="101.489,67.599 99.139,70.75 95.843,78.707 97.38,79.851 104.053,74.414 106.407,71.26 			"/>
			<polygon fill="none" stroke="#3D3D3D" stroke-width="1.6702" stroke-miterlimit="10" points="101.489,67.599 99.139,70.75 
				95.843,78.707 97.38,79.851 104.053,74.414 106.407,71.26 			"/>
			<line fill="none" x1="99.139" y1="70.75" x2="104.053" y2="74.414"/>
			
				<line fill="none" stroke="#3D3D3D" stroke-width="1.6702" stroke-miterlimit="10" x1="99.139" y1="70.75" x2="104.053" y2="74.414"/>
			<path fill="#3D3D3D" d="M94.778,79.669l-15.721,9.479c-0.328,0.198-0.436,0.624-0.236,0.956c0.197,0.322,0.627,0.432,0.953,0.231
				c0.021-0.008,0.031-0.021,0.047-0.026L94.778,79.669z"/>
			<path fill="#3D3D3D" d="M91.882,98.674l4.916-17.318l-6.236,16.89c-0.133,0.361,0.057,0.76,0.412,0.895
				c0.355,0.136,0.758-0.053,0.891-0.409C91.872,98.711,91.878,98.693,91.882,98.674"/>
			<path fill="#3D3D3D" d="M95.04,81.28L83.518,95.008c-0.246,0.293-0.205,0.732,0.088,0.979c0.293,0.25,0.732,0.207,0.979-0.086
				c0.012-0.016,0.021-0.029,0.033-0.043L95.04,81.28z"/>
			<path fill="none" d="M57.005,62.605c0-5.583-4.522-10.106-10.104-10.106h-1.425c-5.583,0-10.104,4.523-10.104,10.106v32.641
				h21.633V62.605z"/>
			<path fill="none" d="M81.13,20.911c0,2.317,1.879,4.192,4.195,4.192c2.313,0,4.191-1.875,4.191-4.192
				c0-2.314-1.879-4.19-4.191-4.19C83.009,16.719,81.13,18.594,81.13,20.911"/>
			<path fill="none" stroke="#3D3D3D" stroke-width="1.8209" stroke-miterlimit="10" d="M79.165,10.619
				c0,2.316,1.877,4.192,4.191,4.192s4.195-1.876,4.195-4.192c0-2.315-1.881-4.191-4.195-4.191
				C81.042,6.427,79.165,8.302,79.165,10.619z"/>
			<path fill="none" stroke="#3D3D3D" stroke-width="1.6702" stroke-miterlimit="10" d="M113.251,51.543
				c-0.549,2.057,0.672,4.163,2.723,4.712c2.051,0.553,4.162-0.663,4.713-2.72c0.549-2.052-0.67-4.16-2.723-4.712
				C115.911,48.274,113.802,49.493,113.251,51.543z"/>
			<path fill="none" stroke="#262626" stroke-width="0.862" stroke-miterlimit="10" d="M50.137,63.563
				c0,2.124-1.723,3.847-3.846,3.847c-2.126,0-3.852-1.723-3.852-3.847c0-2.125,1.726-3.852,3.852-3.852
				C48.415,59.712,50.137,61.437,50.137,63.563"/>
			<g>
				<path fill="#EAE0D6" d="M57.005,62.605c0-5.583-4.522-10.106-10.104-10.106h-1.425c-5.583,0-10.104,4.523-10.104,10.106v32.641
					h21.633V62.605z"/>
				<path fill="none" stroke="#3D3D3D" stroke-width="1.724" stroke-miterlimit="10" d="M57.005,62.605
					c0-5.583-4.522-10.106-10.104-10.106h-1.425c-5.583,0-10.104,4.523-10.104,10.106v32.641h21.633V62.605z"/>
			</g>
			<g>
				<path fill="#EAE0D6" d="M73.452,102.773V90.977c0-1.604-1.301-2.896-2.896-2.896H21.823c-1.601,0-2.897,1.296-2.897,2.896
					v14.685"/>
				<path fill="none" stroke="#3D3D3D" stroke-width="1.724" stroke-miterlimit="10" d="M73.452,102.773V90.977
					c0-1.604-1.301-2.896-2.896-2.896H21.823c-1.601,0-2.897,1.296-2.897,2.896v14.685"/>
			</g>
			<path fill="none" stroke="#3D3D3D" stroke-width="0.862" stroke-miterlimit="10" d="M73.452,105.947v-14.97
				c0-1.604-1.301-2.896-2.896-2.896H21.823c-1.601,0-2.897,1.296-2.897,2.896v14.97H73.452z"/>
			<g>
				<path fill="#EAE0D6" d="M20.162,119.784c20.479,0,32.677-17.547,61.833-17.547l0,0h0.002c20.154,0,32.207,8.387,44.494,13.562
					v4.781H98.28"/>
				<path fill="none" stroke="#3D3D3D" stroke-width="1.724" stroke-miterlimit="10" d="M20.162,119.784
					c20.479,0,32.677-17.547,61.833-17.547l0,0h0.002c20.154,0,32.207,8.387,44.494,13.562v4.781H98.28"/>
			</g>
			<polyline fill="none" points="85.811,119.795 85.811,107.484 59.342,107.484 			"/>
			<g>
				<path fill="#EAE0D6" d="M2.477,111.551c9.623-4.614,18.594-8.563,33.911-8.649l0,0h0.003
					c25.772,1.854,40.936,17.934,61.893,17.701H2.477V111.551z"/>
				<path fill="none" stroke="#3D3D3D" stroke-width="1.724" stroke-miterlimit="10" d="M2.477,111.551
					c9.623-4.614,18.594-8.563,33.911-8.649l0,0h0.003c25.772,1.854,40.936,17.934,61.893,17.701H2.477V111.551z"/>
			</g>
			<circle fill="none" stroke="#3D3D3D" stroke-width="1.6702" stroke-miterlimit="10" cx="46.29" cy="63.563" r="3.847"/>
			<polyline fill="none" stroke="#3D3D3D" stroke-width="1.724" stroke-miterlimit="10" points="93.311,121.433 93.311,109.006 
				60.935,109.006 			"/>
		</g>
	</g>
</g>
<g id="Layer_2" display="none">
	<g display="inline">
		<g>
			<g>
				<g>
					<rect x="584.351" y="343.326" fill="#EAE0D6" width="105.602" height="118.719"/>
				</g>
			</g>
			<g>
				<g>
					<g>
						<path fill="#3D3D3D" d="M688.229,345.048V460.32H586.073V345.048H688.229 M691.677,341.601h-3.447H586.073h-3.447v3.447
							V460.32v3.449h3.447h102.156h3.447v-3.449V345.048L691.677,341.601L691.677,341.601z"/>
					</g>
				</g>
			</g>
			<g>
				<path fill="#3D3D3D" d="M679.867,434.741h-85.434v-81.561h85.434V434.741z M595.897,433.281h82.508v-78.635h-82.508V433.281z"/>
			</g>
			<g>
				<g>
					<path fill="#3D3D3D" d="M663.528,386.64h-1.463c0-2.098-1.707-3.805-3.807-3.805h-42.217c-2.101,0-3.808,1.707-3.808,3.805
						h-1.463c0-2.904,2.363-5.268,5.269-5.268h42.219C661.164,381.373,663.528,383.736,663.528,386.64z"/>
				</g>
			</g>
			<g>
				<g>
					<g>
						<path fill="#3D3D3D" d="M656.642,364.791v4.52h0.565c2.81,0,5.087,2.277,5.087,5.084v19.664
							c0.094-0.008,0.184-0.029,0.28-0.029c1.949,0,3.531,1.582,3.531,3.531c0,1.951-1.582,3.534-3.531,3.534
							c-0.1,0-0.188-0.021-0.28-0.029v1.019c0,13.889-11.261,25.145-25.146,25.145c-13.887,0-25.145-11.256-25.145-25.145v-1.019
							c-0.097,0.008-0.188,0.029-0.283,0.029c-1.947,0-3.529-1.583-3.529-3.534c0-1.949,1.582-3.531,3.529-3.531
							c0.098,0,0.188,0.021,0.283,0.029v-19.664c0-2.807,2.272-5.084,5.086-5.084h0.588c0.125-2.514,2.186-4.52,4.729-4.52h20.859
							h8.617H656.642 M660.09,361.341h-3.447h-4.754h-8.617h-20.859c-3.297,0-6.147,1.951-7.44,4.789
							c-3.685,0.947-6.408,4.293-6.408,8.264v16.945c-2.262,1.156-3.814,3.512-3.814,6.221c0,2.73,1.576,5.103,3.865,6.247
							c0.896,14.967,13.355,26.867,28.541,26.867s27.645-11.902,28.539-26.865c2.289-1.146,3.865-3.518,3.865-6.249
							c0-2.709-1.555-5.063-3.814-6.221v-16.945c0-3.69-2.356-6.848-5.649-8.031v-1.569v-3.45L660.09,361.341L660.09,361.341z"/>
					</g>
				</g>
			</g>
			<g>
				<g>
					<path fill="#3D3D3D" d="M622.931,398.642c0,1.121-0.904,2.027-2.021,2.027c-1.116,0-2.024-0.906-2.024-2.027
						c0-1.115,0.908-2.021,2.024-2.021C622.026,396.619,622.931,397.527,622.931,398.642z"/>
				</g>
			</g>
			<g>
				<g>
					<path fill="#3D3D3D" d="M654.573,398.642c0,1.121-0.906,2.027-2.021,2.027c-1.119,0-2.025-0.906-2.025-2.027
						c0-1.115,0.906-2.021,2.025-2.021C653.667,396.619,654.573,397.527,654.573,398.642z"/>
				</g>
			</g>
			<g>
				<g>
					<rect x="656.278" y="364.572" fill="#3D3D3D" width="1.463" height="17.531"/>
				</g>
			</g>
			<g>
				<g>
					<rect x="652.821" y="364.572" fill="#3D3D3D" width="1.463" height="17.531"/>
				</g>
			</g>
			<g>
				<g>
					<rect x="644.754" y="364.572" fill="#3D3D3D" width="1.463" height="17.531"/>
				</g>
			</g>
			<g>
				<g>
					<path fill="none" stroke="#3D3D3D" stroke-width="1.4632" stroke-miterlimit="10" d="M629.522,378.916"/>
				</g>
			</g>
			<path fill="#3D3D3D" d="M637.14,419.02c-5.451,0-10.533-2.934-13.264-7.656l1.268-0.729c2.469,4.271,7.064,6.926,11.996,6.926
				c4.926,0,9.52-2.652,11.99-6.922l1.266,0.732C647.664,416.088,642.588,419.02,637.14,419.02z"/>
		</g>
		<g>
			<g>
				<polygon fill="#EAE0D6" points="684.78,352.31 693.619,364.638 681.295,355.796 668.963,364.638 677.808,352.31 
					668.965,339.982 681.295,348.823 693.621,339.982 				"/>
			</g>
		</g>
		<g>
			<g>
				<path fill="#3D3D3D" d="M697.371,368.39l-16.077-11.533l-16.082,11.533l11.534-16.08l-11.534-16.08l16.082,11.533l16.08-11.533
					l-11.531,16.08L697.371,368.39z M681.295,354.736l8.573,6.152l-6.147-8.578l6.147-8.576l-8.573,6.15l-8.578-6.15l6.149,8.576
					l-6.151,8.578L681.295,354.736z"/>
			</g>
		</g>
	</g>
</g>
</svg>
