<?xml version="1.0" encoding="utf-8"?>
<!-- Generator: Adobe Illustrator 16.0.0, SVG Export Plug-In . SVG Version: 6.00 Build 0)  -->
<!DOCTYPE svg PUBLIC "-//W3C//DTD SVG 1.1//EN" "http://www.w3.org/Graphics/SVG/1.1/DTD/svg11.dtd">
<svg version="1.1" id="Layer_1" xmlns="http://www.w3.org/2000/svg" xmlns:xlink="http://www.w3.org/1999/xlink" x="0px" y="0px"
	 width="65.571px" height="62.01px" viewBox="0 0 65.571 62.01" enable-background="new 0 0 65.571 62.01" xml:space="preserve">
<g>
	<g>
		<path fill="#FFFFFF" d="M19.58,9.09c0.681,0,1.416,0.07,2.184,0.208c8.912,1.596,27.594,29.729,32.234,37.211h-3.872h-2.269
			l1.53,1.675l4.109,4.496h-5.646L34.452,39.544l-1.7-1.667v2.38v2.489h-4.369h-1v1v5.275v1h1h2.107v1.221H16.338v-1.221h4.146
			h0.748l0.211-0.718l2.262-7.691l0.106-0.361l-0.158-0.341l-5.101-11.007l-0.015-0.032l-0.017-0.031
			c-0.039-0.07-3.783-7.065-0.832-9.172l0.729-0.521l-0.437-0.781l-2.183-3.907l-0.429-0.768l-0.816,0.327l-2.203,0.883
			C12.747,13.484,14.207,9.09,19.58,9.09 M19.58,8.09c-8.335,0-8.377,9.351-8.377,9.351l3.723-1.492l2.183,3.907
			c-3.758,2.684,0.537,10.469,0.537,10.469l5.101,11.007l-2.262,7.691h-5.146v3.221H31.49v-3.221h-3.107v-5.275h5.369v-3.489
			l13.691,13.421h8.322l-5.64-6.171h5.64c0.001,0.001,0.002,0.002,0.002,0.002c0.045,0-22.861-37.233-33.827-39.197
			C21.087,8.16,20.302,8.09,19.58,8.09L19.58,8.09z"/>
	</g>
	<line fill="none" stroke="#FFFFFF" stroke-miterlimit="10" x1="23.25" y1="28.446" x2="42.106" y2="48.25"/>
</g>
</svg>
