<?xml version="1.0" encoding="utf-8"?>
<!-- Generator: Adobe Illustrator 16.0.0, SVG Export Plug-In . SVG Version: 6.00 Build 0)  -->
<!DOCTYPE svg PUBLIC "-//W3C//DTD SVG 1.1//EN" "http://www.w3.org/Graphics/SVG/1.1/DTD/svg11.dtd">
<svg version="1.1" id="Layer_1" xmlns="http://www.w3.org/2000/svg" xmlns:xlink="http://www.w3.org/1999/xlink" x="0px" y="0px"
	 width="655px" height="186px" viewBox="0 0 655 186" enable-background="new 0 0 655 186" xml:space="preserve">
<g>
	<g>
		<g>
			<g>
				<path fill="#3D3D3D" d="M123.771,22.569l-0.02,57.471c0,2.95-0.342,5.818-0.965,8.583c1.191,0.35,2.066,1.438,2.066,2.744
					c0,1.477-1.117,2.682-2.552,2.844c0.485,0.513,0.792,1.202,0.792,1.966c0,1.592-1.283,2.878-2.875,2.878
					c-0.463,0-0.889-0.119-1.277-0.312c-6.6,11.951-19.322,20.05-33.941,20.05c-21.397,0-38.747-17.351-38.747-38.752v-1.567
					c-0.146,0.012-0.286,0.044-0.435,0.044c-3.003,0-5.443-2.434-5.443-5.442c0-3.007,2.44-5.443,5.443-5.443
					c0.148,0,0.288,0.034,0.435,0.044V37.372c0-4.327,3.507-7.839,7.837-7.839h0.908c0.193-3.873,3.367-6.964,7.293-6.964h32.148
					h13.277H123.771 M127.221,19.121h-3.449h-16.055H94.439H62.291c-4.646,0-8.623,2.953-10.118,7.127
					c-5.312,0.913-9.368,5.554-9.368,11.124v27.336c-3.424,1.237-5.878,4.521-5.878,8.366c0,3.854,2.465,7.143,5.901,8.373
					C43.574,104.066,62.205,122.24,85,122.24c14.558,0,28.037-7.513,35.737-19.759c3.245-0.265,5.805-2.991,5.805-6.305
					c0-0.143-0.005-0.284-0.015-0.425c1.104-1.141,1.774-2.69,1.774-4.385c0-1.621-0.637-3.144-1.697-4.287
					c0.396-2.341,0.596-4.7,0.596-7.04l0.02-57.47L127.221,19.121L127.221,19.121z"/>
			</g>
		</g>
		<circle fill="#3D3D3D" cx="107.786" cy="71.949" r="2.874"/>
		
			<line fill="none" stroke="#3D3D3D" stroke-width="1.6702" stroke-miterlimit="10" x1="115.725" y1="22.054" x2="115.725" y2="49.967"/>
		
			<line fill="none" stroke="#3D3D3D" stroke-width="1.6702" stroke-miterlimit="10" x1="110.814" y1="22.054" x2="110.814" y2="49.967"/>
		
			<line fill="none" stroke="#3D3D3D" stroke-width="1.6702" stroke-miterlimit="10" x1="99.359" y1="22.054" x2="99.359" y2="49.967"/>
		<path fill="none" stroke="#262626" stroke-width="1.6702" stroke-miterlimit="10" d="M75.1,43.943"/>
		<path fill="none" stroke="#3D3D3D" stroke-width="1.6702" stroke-miterlimit="10" d="M44.346,65.907l24.603,11.214V60.995
			c0,0-1.202-9.825,7.751-11.028h46.795"/>
		<path fill="none" stroke="#3D3D3D" stroke-width="1.6702" stroke-miterlimit="10" d="M93.703,77.425
			c9.453,0,17.111,7.661,17.111,17.112"/>
	</g>
	<g>
		<path fill="#3D3D3D" d="M152.188,103.815l-19.525-5.3l19.055,6.796c0.02,0.007,0.041,0.013,0.062,0.019
			c0.416,0.115,0.848-0.133,0.959-0.553C152.854,104.357,152.605,103.929,152.188,103.815z"/>
		<path fill="#3D3D3D" d="M147.754,111.356l-0.004-0.006l-0.018-0.01l-0.012-0.008l-0.002-0.001l-16.631-11.609l15.715,12.879
			c0.018,0.012,0.031,0.026,0.047,0.035l0.006,0.003c1.164,0.817,1.943,2.039,2.189,3.442c0.242,1.386-0.066,2.774-0.873,3.906
			c-0.143,0.203-0.295,0.388-0.451,0.559c-0.292,0.316-0.27,0.813,0.049,1.109c0.15,0.136,0.34,0.206,0.529,0.206
			c0.213,0,0.426-0.087,0.584-0.255c0.193-0.214,0.385-0.454,0.572-0.707c1.045-1.481,1.449-3.287,1.139-5.088
			C150.27,113.994,149.264,112.414,147.754,111.356z"/>
		<path fill="#3D3D3D" d="M159.715,90.767c0-0.433-0.354-0.783-0.785-0.783l0,0c-0.434,0-0.785,0.351-0.785,0.784
			c0,1.416-0.549,2.747-1.549,3.75c-0.998,1.002-2.33,1.554-3.742,1.555h-0.006l-20.986,0.785l20.986,0.784h0.002
			c0.018,0,0.039,0,0.057,0l0.012-0.005c1.812-0.019,3.509-0.729,4.787-2.011C159,94.328,159.717,92.601,159.715,90.767z"/>
	</g>
</g>
<g>
	<g>
		<g>
			<text transform="matrix(1 0 0 1 65.0625 169.5332)" fill="#3D3D3D" font-family="'DIN-Bold'" font-size="19.9445">SOFFIA</text>
		</g>
	</g>
</g>
<g>
	<g>
		<g>
			<text transform="matrix(1 0 0 1 513.1582 169.5332)" fill="#3D3D3D" font-family="'DIN-Bold'" font-size="19.9445">CONDIVIDI</text>
		</g>
	</g>
</g>
<g>
	<g>
		<g>
			<text transform="matrix(1 0 0 1 285.9834 169.5332)" fill="#3D3D3D" font-family="'DIN-Bold'" font-size="19.9445">SCOPRI</text>
		</g>
	</g>
</g>
<g>
	<g>
		<path fill="#262626" d="M337.175,99.631c-0.328,0.197-0.436,0.623-0.238,0.955c0.199,0.326,0.626,0.432,0.955,0.234
			c0.018-0.008,0.031-0.02,0.045-0.029l14.958-10.639L337.175,99.631z"/>
		<path fill="#262626" d="M349.088,109.621c0.356,0.133,0.759-0.053,0.891-0.412c0.009-0.016,0.015-0.035,0.019-0.051l4.916-17.32
			l-6.236,16.889C348.544,109.088,348.729,109.486,349.088,109.621z"/>
		<path fill="#262626" d="M342.701,106.383c0.012-0.012,0.023-0.027,0.032-0.041l10.422-14.58l-11.52,13.729
			c-0.247,0.295-0.206,0.734,0.086,0.98C342.015,106.721,342.455,106.678,342.701,106.383z"/>
		<path fill="#EAE0D6" d="M340.112,113h-0.002c-0.822,0-1.628-0.125-2.422-0.096c-0.41,0.014-0.811-0.031-1.212-0.01
			c-0.346,0.018-0.691,0-1.031,0.023c-0.533,0.035-1.058,0.061-1.577,0.107c-0.167,0.016-0.331-0.107-0.495-0.09
			c-0.601,0.059-1.44,0.064-2.024,0.064c-0.01,0-1.349,0-1.349,0v-11.541c0-1.602,0.269-2.459-1.328-2.459H315V73.486l21.202-30.361
			l5.526-7.895c0.516,0.226,1.098,0.354,1.695,0.354c0.522,0,1.024-0.106,1.485-0.281l21.626,28.907l-3.891,7.779l-3.043,6.088
			l-2.346,3.154l-3.299,7.957l1.537,1.143l6.676-5.436l2.352-3.154l12.675-11.588c0.384-0.139,0.762-0.307,1.128-0.518l0.863-0.5
			c3.386-1.955,4.544-6.282,2.59-9.664l-32.354-43.258c-0.399-0.695-0.904-1.29-1.475-1.789l-0.53-0.527
			c-3.111-3.115-8.403-3.372-11.867,0.855l-33.692,48.384c-0.289,0.051-0.572,0.114-0.852,0.188
			c-0.015,0.005-0.029,0.007-0.044,0.012c-0.271,0.073-0.537,0.157-0.798,0.251c-0.021,0.008-0.043,0.017-0.064,0.023
			c-0.26,0.096-0.513,0.2-0.76,0.315c-0.019,0.008-0.036,0.018-0.055,0.026c-0.254,0.121-0.5,0.246-0.74,0.384
			c0,0-0.003,0.002-0.006,0.004c-0.982,0.57-1.86,1.297-2.597,2.152c-0.02,0.021-0.041,0.041-0.06,0.064
			c-0.134,0.158-0.257,0.322-0.38,0.486c-0.063,0.084-0.128,0.166-0.188,0.252c-0.102,0.148-0.198,0.299-0.293,0.451
			c-0.07,0.113-0.141,0.225-0.206,0.34c-0.082,0.143-0.157,0.287-0.232,0.434c-0.069,0.135-0.135,0.271-0.196,0.41
			c-0.063,0.139-0.125,0.279-0.181,0.422c-0.062,0.154-0.117,0.311-0.171,0.469c-0.047,0.135-0.094,0.271-0.134,0.41
			c-0.052,0.174-0.094,0.352-0.136,0.529c-0.031,0.129-0.063,0.258-0.09,0.391c-0.041,0.205-0.067,0.414-0.096,0.623
			c-0.014,0.109-0.276,0.217-0.288,0.328c-0.031,0.322-0.293,0.648-0.293,0.982V99h-13.062c-1.599,0-3.938,0.857-3.938,2.459v14.104
			c-6,1.604-12,3.934-17,6.473v0.006v8.914v0.129v0.162l96.543,1.047c-3.207,0-5.418-0.293-8.317-1.293h2.043l1.731,0.914V131h5.396
			c-0.771,0-1.532,0-2.287-0.035l2.287,0.035H383v-4.719C372,121.105,360.269,113,340.112,113z"/>
	</g>
	<g>
		<path fill="none" stroke="#3D3D3D" stroke-width="1.6702" stroke-miterlimit="10" d="M380.41,67.217l-15.889,14.525l-4.918-3.662
			l9.604-19.207c2.305-3.095,6.68-3.734,9.772-1.429C382.074,59.747,382.714,64.123,380.41,67.217z"/>
		<g>
			<path fill="#3D3D3D" d="M341.88,11.568c2.053,0,4.046,0.837,5.538,2.331l0.796,0.793c0.025,0.027,0.047,0.054,0.07,0.078
				c0.315,0.315,0.597,0.666,0.855,1.046c0.02,0.03,0.046,0.062,0.065,0.094c0.071,0.105,0.156,0.194,0.218,0.306l32.13,42.958
				c1.64,2.469,0.958,7.774-2.428,9.727l-0.863,0.5c-0.356,0.207-0.356,0.207-1.042,0.734l-12.698,11.607l-2.352,3.154l-6.675,5.436
				l-1.538-1.143l3.298-7.957l2.349-3.154l6.935-13.867l-23.281-31.128L315.12,73.486v25.076h13.552
				c1.597,0,2.895,1.295,2.895,2.896v11.795c2.688-0.338,5.52-0.535,8.544-0.535h0.001c20.647,0,32.005,9.205,44.149,14.578v3.766
				l-123.669-0.107v-8.914c4.997-2.361,10.314-4.713,16.448-6.367v-14.215c0-1.602,1.3-2.896,2.898-2.896h13.549V73.086
				c0-4.99,3.619-9.123,8.369-9.947l33.694-48.385C337.354,12.554,339.651,11.568,341.88,11.568 M341.88,8.121L341.88,8.121
				c-3.45,0-6.646,1.58-8.996,4.449l-0.086,0.104l-0.076,0.111l-32.94,47.301c-5.727,1.666-9.742,6.912-9.742,13v22.028h-10.101
				c-3.499,0-6.347,2.847-6.347,6.345v11.623c-5.563,1.717-10.35,3.893-14.473,5.842l-1.976,0.933v2.185v8.914v3.445l3.445,0.003
				l123.669,0.107l3.451,0.003v-3.451v-3.766v-2.245l-2.053-0.908c-2.712-1.199-5.396-2.604-8.239-4.093
				c-9.653-5.053-20.596-10.78-37.306-10.78c-1.719,0-3.408,0.06-5.097,0.18v-7.991c0-3.498-2.846-6.345-6.343-6.345h-10.104V74.568
				l24.788-35.596l19.146,25.6l-5.846,11.691l-2.167,2.909l-0.256,0.344l-0.164,0.396l-3.298,7.957l-1.029,2.484l2.159,1.604
				l1.538,1.143l2.153,1.6l2.08-1.693l6.675-5.436l0.331-0.271l0.256-0.343l2.155-2.892l12.35-11.288
				c0.216-0.167,0.324-0.252,0.415-0.314c0.033-0.021,0.077-0.045,0.139-0.081l0.86-0.498c2.323-1.34,3.986-3.698,4.676-6.637
				c0.687-2.923,0.273-5.907-1.104-7.981l-0.053-0.08l-0.059-0.077l-32.042-42.841c-0.098-0.149-0.185-0.263-0.243-0.339
				c-0.019-0.026-0.037-0.053-0.056-0.079c-0.371-0.542-0.759-1.017-1.181-1.448l-0.052-0.056l-0.045-0.049l-0.048-0.047
				l-0.796-0.793C347.705,9.308,344.872,8.121,341.88,8.121L341.88,8.121L341.88,8.121z"/>
		</g>
		<path fill="none" d="M294.506,113.383h-0.003c-14.443,0-24.723,4.307-33.911,8.652v9.211l95.748,1.09
			C335.858,132.336,323.661,113.383,294.506,113.383z"/>
		<path fill="none" stroke="#262626" stroke-width="0.862" stroke-miterlimit="10" d="M298.013,68.662
			c-3.112,3.113-3.112,8.158,0,11.27l0.794,0.795c3.111,3.113,8.159,3.113,11.272,0l38.135-54.763c2.333-4.057,3.111-8.158,0-11.271
			l-0.796-0.793c-3.111-3.115-8.403-3.372-11.867,0.855L298.013,68.662z"/>
		<path fill="#EAE0D6" stroke="#3D3D3D" stroke-width="1.724" stroke-miterlimit="10" d="M298.013,68.662
			c-3.112,3.113-3.112,8.158,0,11.27l0.794,0.795c3.111,3.113,8.159,3.113,11.272,0l38.135-54.763c2.333-4.057,3.111-8.158,0-11.271
			l-0.796-0.793c-3.111-3.115-8.403-3.372-11.867,0.855L298.013,68.662z"/>
		<polygon fill="none" points="359.604,78.08 357.255,81.232 353.957,89.189 355.495,90.332 362.17,84.896 364.521,81.742 		"/>
		<polygon fill="none" stroke="#3D3D3D" stroke-width="1.6702" stroke-miterlimit="10" points="359.604,78.08 357.255,81.232 
			353.957,89.189 355.495,90.332 362.17,84.896 364.521,81.742 		"/>
		<line fill="#A49B99" x1="357.255" y1="81.232" x2="362.17" y2="84.896"/>
		
			<line fill="none" stroke="#3D3D3D" stroke-width="1.6702" stroke-miterlimit="10" x1="357.255" y1="81.232" x2="362.17" y2="84.896"/>
		<path fill="#3D3D3D" d="M352.895,90.152l-15.72,9.479c-0.328,0.197-0.436,0.623-0.238,0.955c0.199,0.326,0.626,0.432,0.955,0.234
			c0.018-0.008,0.031-0.02,0.045-0.029L352.895,90.152z"/>
		<path fill="#3D3D3D" d="M349.997,109.158l4.916-17.32l-6.236,16.889c-0.133,0.361,0.053,0.76,0.411,0.895
			c0.356,0.133,0.759-0.053,0.891-0.412C349.987,109.193,349.993,109.174,349.997,109.158"/>
		<path fill="#3D3D3D" d="M353.155,91.762l-11.521,13.73c-0.246,0.293-0.205,0.732,0.087,0.979c0.293,0.25,0.733,0.207,0.979-0.086
			c0.012-0.014,0.023-0.029,0.032-0.043L353.155,91.762z"/>
		<path fill="none" d="M315.12,73.086c0-5.582-4.522-10.106-10.102-10.106h-1.425c-5.583,0-10.106,4.524-10.106,10.106v32.641
			h21.633V73.086z"/>
		<path fill="none" d="M339.245,31.393c0,2.317,1.879,4.192,4.194,4.192s4.195-1.875,4.195-4.192s-1.88-4.193-4.195-4.193
			S339.245,29.076,339.245,31.393"/>
		<path fill="none" stroke="#3D3D3D" stroke-width="1.8209" stroke-miterlimit="10" d="M337.279,21.101
			c0,2.316,1.878,4.192,4.194,4.192c2.315,0,4.195-1.876,4.195-4.192c0-2.318-1.88-4.194-4.195-4.194
			C339.157,16.907,337.279,18.783,337.279,21.101z"/>
		<path fill="none" stroke="#3D3D3D" stroke-width="1.6702" stroke-miterlimit="10" d="M371.366,62.025
			c-0.549,2.053,0.671,4.163,2.723,4.711c2.05,0.551,4.161-0.666,4.713-2.719c0.548-2.052-0.671-4.161-2.723-4.712
			C374.025,58.755,371.916,59.974,371.366,62.025z"/>
		<path fill="none" stroke="#262626" stroke-width="0.862" stroke-miterlimit="10" d="M308.253,74.043
			c0,2.125-1.723,3.848-3.846,3.848c-2.126,0-3.849-1.723-3.849-3.848s1.723-3.848,3.849-3.848
			C306.53,70.195,308.253,71.918,308.253,74.043"/>
		<path fill="#EAE0D6" stroke="#3D3D3D" stroke-width="1.724" stroke-miterlimit="10" d="M315.12,73.086
			c0-5.582-4.522-10.106-10.102-10.106h-1.425c-5.583,0-10.106,4.524-10.106,10.106v32.641h21.633V73.086z"/>
		<path fill="#EAE0D6" stroke="#3D3D3D" stroke-width="1.724" stroke-miterlimit="10" d="M331.566,113.254v-11.795
			c0-1.602-1.298-2.896-2.895-2.896h-48.733c-1.599,0-2.898,1.295-2.898,2.896v14.684"/>
		<path fill="none" stroke="#3D3D3D" stroke-width="0.862" stroke-miterlimit="10" d="M331.566,116.428v-14.969
			c0-1.602-1.298-2.896-2.895-2.896h-48.733c-1.599,0-2.898,1.295-2.898,2.896v14.969H331.566z"/>
		<path fill="#EAE0D6" stroke="#3D3D3D" stroke-width="1.724" stroke-miterlimit="10" d="M278.277,130.266
			c20.482,0,32.678-17.547,61.833-17.547l0,0h0.001c20.157,0,32.208,8.387,44.495,13.562v4.781h-28.211"/>
		<polyline fill="none" points="343.929,130.277 343.929,117.965 317.457,117.965 		"/>
		<path fill="#EAE0D6" stroke="#3D3D3D" stroke-width="1.724" stroke-miterlimit="10" d="M260.592,122.035
			c9.623-4.617,18.594-8.564,33.911-8.652l0,0h0.003c25.772,1.857,40.933,17.934,61.89,17.701h-95.804V122.035z"/>
		<circle fill="none" stroke="#3D3D3D" stroke-width="1.6702" stroke-miterlimit="10" cx="304.406" cy="74.043" r="3.847"/>
		<polyline fill="none" stroke="#3D3D3D" stroke-width="1.724" stroke-miterlimit="10" points="351.427,131.914 351.427,119.49 
			319.051,119.49 		"/>
	</g>
</g>
<polyline fill="none" stroke="#3D3D3D" stroke-width="2" stroke-miterlimit="10" points="445.609,57.624 459.944,71.958 
	445.609,86.292 "/>
<polyline fill="none" stroke="#3D3D3D" stroke-width="2" stroke-miterlimit="10" points="204.609,57.624 218.944,71.958 
	204.609,86.292 "/>
<g>
	<path fill="none" stroke="#3D3D3D" stroke-width="3.8414" stroke-miterlimit="10" d="M596.247,27.781"/>
	<g>
		<g>
			<polyline fill="#EAE0D6" stroke="#3D3D3D" stroke-width="4" stroke-miterlimit="10" points="596.247,105.135 530.07,71.958 
				596.247,38.781 			"/>
			<polygon fill="#EAE0D6" stroke="#3D3D3D" stroke-width="4" stroke-miterlimit="10" points="594.23,109.158 520.029,71.958 
				594.23,34.758 598.264,42.804 540.111,71.958 598.264,101.111 			"/>
		</g>
		<circle fill="#EAE0D6" stroke="#3D3D3D" stroke-width="4" stroke-miterlimit="10" cx="530.07" cy="71.958" r="13.378"/>
		<circle fill="#EAE0D6" stroke="#3D3D3D" stroke-width="4" stroke-miterlimit="10" cx="596.247" cy="38.781" r="13.377"/>
		<circle fill="#EAE0D6" stroke="#3D3D3D" stroke-width="4" stroke-miterlimit="10" cx="596.247" cy="105.134" r="13.377"/>
	</g>
</g>
</svg>
