<?xml version="1.0" encoding="utf-8"?>
<!-- Generator: Adobe Illustrator 16.0.0, SVG Export Plug-In . SVG Version: 6.00 Build 0)  -->
<!DOCTYPE svg PUBLIC "-//W3C//DTD SVG 1.1//EN" "http://www.w3.org/Graphics/SVG/1.1/DTD/svg11.dtd">
<svg version="1.1" id="Layer_1" xmlns="http://www.w3.org/2000/svg" xmlns:xlink="http://www.w3.org/1999/xlink" x="0px" y="0px"
	 width="655px" height="186px" viewBox="0 0 655 186" enable-background="new 0 0 655 186" xml:space="preserve">
<g>
	<path fill="none" stroke="#3D3D3D" stroke-width="4" stroke-miterlimit="10" d="M48.843,146.211v-26.08
		c-18.104-3.054-31.936-18.829-31.936-37.79c0-21.131,17.19-38.322,38.321-38.322h25.551c21.13,0,38.323,17.191,38.323,38.322
		c0,20.392-16.007,37.112-36.11,38.263L48.843,146.211z"/>
	<path fill="#3D3D3D" d="M69.797,77.812c-0.307-1.48-0.136-2.884,0.573-4.21c0.599-1.115,1.468-1.96,2.593-2.535
		c2.246-1.146,5.154-0.819,7.137,1.23l0.222-0.014c1.194-0.261,2.322-0.689,3.386-1.285l0.184-0.093l0.033,0.014
		c-0.095,0.339-0.244,0.653-0.41,0.961c-0.165,0.315-0.362,0.606-0.581,0.883c-0.216,0.272-0.448,0.529-0.712,0.749
		c-0.266,0.228-0.547,0.439-0.849,0.674c0.606-0.07,1.166-0.189,1.721-0.34c0.544-0.148,1.074-0.338,1.621-0.571
		c-0.146,0.325-0.786,1.13-1.341,1.7c-0.492,0.509-1.026,0.969-1.592,1.384l-0.019,0.255c0.017,0.64,0.004,1.274-0.05,1.91
		c-0.089,0.988-0.253,1.965-0.508,2.921c-0.683,2.582-1.855,4.918-3.574,6.966c-2.367,2.821-5.345,4.656-8.934,5.493
		c-0.964,0.224-1.943,0.356-2.935,0.42c-0.643,0.04-1.288,0.05-1.933,0.022c-2.018-0.087-3.965-0.515-5.833-1.288
		c-0.846-0.349-1.657-0.766-2.434-1.245l-0.168-0.118l-0.01-0.04c2.126,0.226,4.171-0.07,6.139-0.902
		c0.951-0.404,2.239-1.174,2.637-1.57l-0.089-0.043c-0.299-0.028-0.594-0.057-0.888-0.114c-1.866-0.357-3.582-1.653-4.395-3.569
		c-0.063-0.157-0.134-0.309-0.168-0.491c0.297,0.029,0.586,0.062,0.876,0.082c0.29,0.02,0.581,0,0.872-0.032
		c0.291-0.031,0.575-0.083,0.873-0.158l-0.165-0.077c-1.752-0.459-3.058-1.487-3.912-3.08c-0.439-0.816-0.658-1.698-0.682-2.626
		l0.012-0.21c0.296,0.126,0.573,0.261,0.86,0.362c0.281,0.1,0.571,0.182,0.861,0.243c0.295,0.064,0.595,0.124,0.939,0.096
		c-0.126-0.117-0.243-0.188-0.344-0.273c-0.107-0.088-0.214-0.177-0.317-0.27c-0.094-0.09-0.188-0.178-0.278-0.275
		c-0.096-0.099-0.189-0.202-0.277-0.309c-0.088-0.105-0.175-0.215-0.256-0.325c-0.08-0.114-0.157-0.228-0.23-0.343
		c-0.071-0.11-0.136-0.224-0.198-0.338c-0.066-0.123-0.128-0.246-0.186-0.371c-0.056-0.125-0.109-0.253-0.16-0.383
		c-0.046-0.127-0.092-0.26-0.129-0.393c-0.042-0.13-0.074-0.265-0.106-0.401c-0.026-0.125-0.053-0.255-0.072-0.382
		c-0.02-0.136-0.041-0.274-0.052-0.412c-0.012-0.137-0.015-0.275-0.017-0.413c-0.003-0.139-0.003-0.275,0.004-0.415
		c0.003-0.132,0.018-0.259,0.033-0.391c0.016-0.137,0.032-0.273,0.057-0.409c0.025-0.138,0.055-0.271,0.09-0.405
		c0.034-0.134,0.073-0.267,0.115-0.397c0.042-0.125,0.085-0.249,0.136-0.369c0.051-0.127,0.107-0.254,0.167-0.376
		c0.059-0.124,0.128-0.243,0.19-0.361c0.095,0.015,0.123,0.085,0.164,0.134c0.486,0.578,1.002,1.123,1.559,1.631
		c2.287,2.087,4.942,3.475,7.972,4.142c0.794,0.174,1.601,0.283,2.409,0.35c0.093,0.008,0.185,0.009,0.277,0.011L69.797,77.812z"/>
	<path fill="#3D3D3D" d="M145.847,51.691h-3.642l-0.026-0.178c0.003-0.849-0.002-1.702,0.015-2.553
		c0.005-0.208,0.063-0.422,0.138-0.617c0.19-0.488,0.596-0.722,1.09-0.75c0.733-0.043,1.468-0.035,2.203-0.049
		c0.407-0.005,0.354,0.049,0.355-0.364c0.003-0.942-0.001-1.884,0.003-2.825c0.002-0.151-0.036-0.214-0.199-0.228
		c-1.274-0.095-2.547-0.213-3.821-0.024c-1.858,0.275-3.265,1.654-3.584,3.516c-0.077,0.448-0.109,0.91-0.123,1.368
		c-0.019,0.812-0.005,1.621-0.005,2.432v0.261h-3.205l-0.013,0.22c0,1.106,0.004,2.212-0.003,3.317
		c-0.003,0.184,0.054,0.235,0.231,0.234c0.919-0.008,1.841,0.001,2.761-0.008c0.179,0,0.232,0.046,0.232,0.229
		c-0.003,3.023-0.003,6.046,0,9.068c0,0.185-0.053,0.231-0.231,0.231c-3.854-0.003-7.707-0.001-11.561-0.007
		c-0.809,0-1.338-0.526-1.352-1.335c-0.006-0.53,0-1.061,0-1.588c0-6.74-0.002-13.478,0.003-20.217c0-0.235,0.017-0.492,0.101-0.704
		c0.198-0.496,0.585-0.766,1.125-0.798l0.267-0.003c7.22,0,14.441-0.001,21.662,0.003c0.19,0,0.388,0.003,0.568,0.053
		c0.531,0.142,0.893,0.613,0.921,1.161c0.007,0.108,0.007,0.22,0.007,0.33c0,7.185,0,14.373-0.003,21.556
		c0,0.185,0.006,0.375-0.036,0.554c-0.134,0.585-0.626,0.986-1.232,0.988c-2.04,0.008-4.083,0.001-6.12,0.006
		c-0.159,0-0.197-0.059-0.197-0.206c0.002-3.037,0.002-6.074,0-9.109c0-0.163,0.053-0.212,0.212-0.211
		c0.906,0.007,1.813-0.003,2.718,0.008c0.208,0.001,0.281-0.053,0.305-0.269c0.102-0.921,0.233-1.837,0.35-2.755
		C145.792,52.192,145.819,51.955,145.847,51.691"/>
	<path fill="none" stroke="#3D3D3D" stroke-width="4" stroke-miterlimit="10" d="M120.563,93.033
		c0.629,0.071,1.248,0.166,1.886,0.202l34.148,25.608V92.762c18.105-3.052,31.937-18.83,31.937-37.789
		c0-21.131-17.191-38.321-38.323-38.321h-25.548c-16.576,0-30.688,10.599-36.018,25.359"/>
</g>
<g>
	<g>
		<g>
			<text transform="matrix(1 0 0 1 239.8877 82.3877)" fill="#3D3D3D" font-family="'DIN-Bold'" font-size="22.9028">Accedi con Facebook o Twitter!</text>
		</g>
	</g>
</g>
<g>
	<g>
		<g>
			<text transform="matrix(1 0 0 1 66.8516 167.6318)" fill="#3D3D3D" font-family="'DIN-Bold'" font-size="19.9445">ACCEDI</text>
		</g>
	</g>
</g>
<g>
	<path fill="#617AA3" d="M424.431,146.572c0,0.553-0.447,1-1,1H244.43c-0.552,0-1-0.447-1-1v-28c0-0.553,0.448-1,1-1h179.001
		c0.553,0,1,0.447,1,1V146.572z"/>
	<rect x="271.78" y="120.072" fill="#FFFFFF" width="0.3" height="25"/>
	<text transform="matrix(1 0 0 1 282.7451 136.6807)" fill="#FFFFFF" font-family="'MyriadPro-Regular'" font-size="14">Login with Facebook</text>
	<g>
		<path fill="#FFFFFF" d="M254.992,141.072h3.53c0,0,0-4.688,0-8.494h2.382l0.309-3.002h-2.69v-1.764
			c0-0.662,0.439-0.816,0.748-0.816s1.899,0,1.899,0v-2.914l-2.615-0.01c-2.903,0-3.562,2.172-3.562,3.562v1.941h-1.679v3.002h1.679
			C254.992,136.43,254.992,141.072,254.992,141.072z"/>
	</g>
</g>
<g>
	<path fill="#0AB8ED" d="M633.263,146.571c0,0.553-0.447,1-1,1H453.262c-0.552,0-1-0.447-1-1v-27.998c0-0.553,0.448-1,1-1h179.001
		c0.553,0,1,0.447,1,1V146.571z"/>
	<rect x="480.612" y="120.071" fill="#FFFFFF" width="0.3" height="25"/>
	<text transform="matrix(1 0 0 1 491.5771 136.6807)" fill="#FFFFFF" font-family="'MyriadPro-Regular'" font-size="14">Login with Twitter</text>
	<g>
		<path fill="#FFFFFF" d="M474.126,125.919c-0.674,0.4-1.421,0.689-2.216,0.848c-0.635-0.68-1.542-1.102-2.545-1.102
			c-1.926,0-3.487,1.561-3.487,3.486c0,0.273,0.03,0.539,0.089,0.795c-2.898-0.145-5.468-1.533-7.188-3.645
			c-0.3,0.516-0.473,1.115-0.473,1.754c0,1.211,0.616,2.277,1.552,2.902c-0.571-0.018-1.109-0.174-1.579-0.436
			c0,0.014,0,0.029,0,0.045c0,1.689,1.201,3.1,2.798,3.42c-0.293,0.08-0.602,0.121-0.92,0.121c-0.225,0-0.443-0.021-0.656-0.062
			c0.444,1.387,1.732,2.395,3.259,2.424c-1.194,0.934-2.698,1.492-4.332,1.492c-0.282,0-0.56-0.016-0.832-0.049
			c1.544,0.99,3.377,1.566,5.347,1.566c6.416,0,9.923-5.314,9.923-9.924c0-0.15-0.002-0.301-0.009-0.451
			c0.681-0.49,1.272-1.105,1.739-1.805c-0.624,0.277-1.297,0.465-2.003,0.549C473.312,127.417,473.865,126.733,474.126,125.919z"/>
	</g>
</g>
</svg>
