<?xml version="1.0" encoding="utf-8"?>
<!-- Generator: Adobe Illustrator 16.0.0, SVG Export Plug-In . SVG Version: 6.00 Build 0)  -->
<!DOCTYPE svg PUBLIC "-//W3C//DTD SVG 1.1//EN" "http://www.w3.org/Graphics/SVG/1.1/DTD/svg11.dtd">
<svg version="1.1" id="Livello_1" xmlns="http://www.w3.org/2000/svg" xmlns:xlink="http://www.w3.org/1999/xlink" x="0px" y="0px"
	 width="375.781px" height="354.512px" viewBox="0 0 375.781 354.512" enable-background="new 0 0 375.781 354.512"
	 xml:space="preserve">
<g id="Layer_1">
	<g>
		<polygon fill="#3D3D3D" points="0,161.557 17.982,161.557 17.982,167.536 38.737,167.536 55.357,172.109 62.216,172.109 
			74.792,174.397 74.792,180.112 62.216,182.399 55.357,182.399 38.737,186.973 17.982,186.973 17.982,191.457 17.982,192.951 
			0,192.951 0,197.551 17.982,197.551 22.58,197.551 22.58,192.951 22.58,191.571 38.737,191.571 39.357,191.571 39.956,191.406 
			55.979,186.998 62.216,186.998 62.631,186.998 63.038,186.924 75.616,184.637 79.388,183.951 79.388,180.112 79.388,174.397 
			79.388,170.559 75.616,169.873 63.038,167.586 62.631,167.511 62.216,167.511 55.979,167.511 39.956,163.103 39.357,162.938 
			38.737,162.938 22.58,162.938 22.58,161.557 22.58,156.959 17.982,156.959 0,156.959 		"/>
		<g opacity="0.2">
			<path fill="#262626" d="M21.271,165.17h10.646V70.685c0-33.158,26.88-60.039,60.039-60.039h213.14
				c33.158,0,60.039,26.881,60.039,60.039v213.139c0,33.158-26.881,60.039-60.039,60.039H91.956
				c-33.159,0-60.039-26.881-60.039-60.039v-94.482H21.271v165.17h354.51V0H21.271V165.17z"/>
		</g>
		<g>
			<path fill="#3D3D3D" d="M371.36,4.422V350.09H25.693V4.422H371.36 M375.781,0H21.271v354.512h354.51V0L375.781,0z"/>
		</g>
		<rect x="18.891" y="168.256" fill="#EAE0D6" width="21" height="18"/>
		<g>
			<polyline fill="none" stroke="#3D3D3D" stroke-width="2.1419" stroke-miterlimit="10" points="0,192.951 17.982,192.951 
				17.982,161.557 0,161.557 			"/>
			<g>
				<polygon fill="none" stroke="#3D3D3D" stroke-width="2.1419" stroke-miterlimit="10" points="62.216,172.109 62.216,182.399 
					74.792,180.114 74.792,174.397 				"/>
				
					<rect x="55.357" y="172.109" fill="none" stroke="#3D3D3D" stroke-width="2.1419" stroke-miterlimit="10" width="6.858" height="10.29"/>
				<polygon fill="none" stroke="#3D3D3D" stroke-width="2.1419" stroke-miterlimit="10" points="38.737,186.973 38.737,186.973 
					55.357,182.399 55.357,172.109 38.737,167.536 38.737,167.536 				"/>
			</g>
			<polyline fill="none" stroke="#3D3D3D" stroke-width="2.1419" stroke-miterlimit="10" points="0,186.973 38.737,186.973 
				38.737,167.536 0,167.536 			"/>
			
				<line fill="none" stroke="#3D3D3D" stroke-width="2.1419" stroke-miterlimit="10" x1="17.982" y1="192.793" x2="17.982" y2="161.557"/>
		</g>
	</g>
</g>
<g id="Layer_7" display="none">
	<g display="inline">
		<g>
			<path fill="#3D3D3D" d="M591.073,459.073v-24.25c-16.56-3.131-28.506-17.497-28.506-34.431c0-19.322,15.719-35.041,35.04-35.041
				h22.806c19.322,0,35.042,15.719,35.042,35.041c0,18.477-14.373,33.787-32.766,34.972L591.073,459.073z M597.608,367.023
				c-18.4,0-33.37,14.972-33.37,33.371c0,16.354,11.696,30.19,27.812,32.908l0.694,0.117v22.313l29.349-22.007l0.251-0.015
				c17.633-1.011,31.443-15.646,31.443-33.319c0-18.399-14.971-33.371-33.373-33.371L597.608,367.023L597.608,367.023z"/>
		</g>
		<g>
			<path fill="#3D3D3D" d="M610.612,396.352c-0.271-1.321-0.121-2.574,0.512-3.758c0.534-0.995,1.313-1.75,2.314-2.263
				c2.005-1.022,4.602-0.731,6.37,1.098l0.198-0.013c1.063-0.232,2.07-0.615,3.021-1.146l0.164-0.083l0.029,0.013
				c-0.085,0.305-0.218,0.583-0.366,0.858c-0.146,0.281-0.323,0.541-0.519,0.788c-0.192,0.243-0.399,0.473-0.638,0.669
				c-0.235,0.203-0.486,0.392-0.758,0.602c0.541-0.062,1.041-0.169,1.536-0.304c0.485-0.132,0.958-0.302,1.446-0.51
				c-0.131,0.29-0.701,1.009-1.197,1.518c-0.439,0.454-0.916,0.865-1.421,1.235l-0.019,0.228c0.018,0.571,0.005,1.14-0.045,1.705
				c-0.079,0.884-0.226,1.754-0.453,2.607c-0.607,2.305-1.654,4.39-3.188,6.218c-2.112,2.521-4.771,4.157-7.977,4.903
				c-0.858,0.199-1.732,0.316-2.617,0.375c-0.574,0.037-1.149,0.045-1.728,0.021c-1.8-0.078-3.539-0.461-5.206-1.148
				c-0.755-0.313-1.479-0.686-2.173-1.111l-0.148-0.104l-0.011-0.035c1.898,0.201,3.726-0.063,5.479-0.809
				c0.849-0.357,1.999-1.047,2.353-1.399l-0.079-0.039c-0.267-0.025-0.528-0.051-0.793-0.104c-1.665-0.316-3.195-1.476-3.922-3.186
				c-0.057-0.141-0.12-0.275-0.148-0.438c0.266,0.026,0.521,0.058,0.78,0.073c0.261,0.019,0.521,0,0.778-0.028
				c0.26-0.025,0.514-0.071,0.779-0.141l-0.147-0.068c-1.563-0.408-2.729-1.325-3.492-2.749c-0.392-0.729-0.587-1.516-0.606-2.344
				l0.011-0.188c0.265,0.11,0.512,0.23,0.77,0.321c0.251,0.091,0.51,0.162,0.769,0.219c0.264,0.058,0.531,0.108,0.838,0.086
				c-0.112-0.104-0.217-0.168-0.307-0.244c-0.098-0.079-0.191-0.158-0.283-0.241c-0.084-0.08-0.168-0.159-0.248-0.245
				c-0.086-0.088-0.169-0.181-0.247-0.273c-0.079-0.096-0.156-0.192-0.229-0.29c-0.071-0.104-0.142-0.203-0.205-0.309
				c-0.063-0.098-0.121-0.197-0.179-0.302c-0.059-0.109-0.112-0.22-0.166-0.331c-0.05-0.111-0.098-0.226-0.143-0.342
				c-0.041-0.113-0.082-0.232-0.115-0.353c-0.037-0.114-0.064-0.234-0.095-0.356c-0.023-0.111-0.047-0.229-0.064-0.341
				c-0.018-0.121-0.036-0.244-0.047-0.367c-0.011-0.122-0.013-0.246-0.015-0.368c-0.003-0.124-0.003-0.246,0.004-0.37
				c0.003-0.118,0.016-0.229,0.029-0.349c0.014-0.122,0.026-0.244,0.051-0.365c0.021-0.123,0.049-0.242,0.08-0.361
				c0.03-0.119,0.063-0.236,0.103-0.354c0.038-0.111,0.076-0.222,0.121-0.329c0.046-0.113,0.098-0.227,0.149-0.336
				c0.053-0.11,0.114-0.217,0.17-0.322c0.085,0.016,0.109,0.076,0.146,0.12c0.436,0.516,0.896,1.002,1.394,1.456
				c2.041,1.863,4.411,3.102,7.115,3.697c0.709,0.153,1.429,0.253,2.148,0.312c0.083,0.007,0.165,0.008,0.247,0.01L610.612,396.352z
				"/>
		</g>
		<g>
			<path fill="#3D3D3D" d="M678.492,373.036h-3.25l-0.021-0.158c0.002-0.758-0.002-1.521,0.012-2.279
				c0.006-0.186,0.057-0.377,0.123-0.551c0.17-0.438,0.533-0.646,0.973-0.67c0.654-0.039,1.313-0.031,1.969-0.044
				c0.361-0.005,0.314,0.044,0.316-0.325c0.002-0.841-0.002-1.682,0.002-2.521c0.002-0.135-0.029-0.189-0.178-0.201
				c-1.137-0.085-2.272-0.19-3.41-0.021c-1.658,0.246-2.914,1.478-3.198,3.139c-0.067,0.4-0.099,0.813-0.108,1.223
				c-0.017,0.725-0.004,1.445-0.004,2.171v0.231h-2.861l-0.012,0.196c0,0.987,0.004,1.977-0.002,2.961
				c-0.004,0.164,0.047,0.21,0.205,0.209c0.818-0.007,1.645,0.001,2.465-0.007c0.16,0,0.207,0.041,0.207,0.205
				c-0.002,2.698-0.002,5.396,0,8.094c0,0.165-0.047,0.206-0.205,0.206c-3.439-0.003-6.879-0.001-10.32-0.006
				c-0.721,0-1.191-0.47-1.205-1.192c-0.006-0.473,0-0.944,0-1.417c0-6.017-0.002-12.028,0.002-18.046
				c0-0.21,0.018-0.438,0.091-0.628c0.179-0.44,0.522-0.684,1.005-0.712l0.236-0.003c6.445,0,12.893-0.001,19.336,0.003
				c0.17,0,0.348,0.003,0.507,0.047c0.476,0.127,0.798,0.547,0.821,1.036c0.008,0.097,0.008,0.196,0.008,0.294
				c0,6.413,0,12.829-0.004,19.241c0,0.165,0.006,0.335-0.029,0.494c-0.121,0.521-0.563,0.88-1.102,0.882
				c-1.822,0.007-3.645,0.001-5.463,0.006c-0.143,0-0.176-0.053-0.176-0.184c0.002-2.711,0.002-5.422,0-8.131
				c0-0.146,0.047-0.189,0.188-0.188c0.811,0.006,1.617-0.003,2.428,0.007c0.186,0.001,0.25-0.047,0.271-0.24
				c0.092-0.82,0.209-1.64,0.313-2.459C678.445,373.483,678.469,373.271,678.492,373.036"/>
		</g>
		<g>
			<path fill="#3D3D3D" d="M688.925,434.646l-31.618-23.711c-0.334-0.027-0.664-0.066-0.994-0.107l-0.48-0.059l0.188-1.66l0.5,0.063
				c0.377,0.047,0.752,0.094,1.137,0.115l0.252,0.016l29.35,22.006V408.99l0.693-0.115c16.114-2.719,27.813-16.558,27.813-32.907
				c0-18.401-14.971-33.371-33.371-33.371h-22.805c-13.99,0-26.597,8.875-31.364,22.084l-1.571-0.567
				c5.008-13.867,18.244-23.187,32.937-23.187h22.805c19.321,0,35.041,15.719,35.041,35.041c0,16.932-11.946,31.3-28.507,34.431
				v24.249L688.925,434.646L688.925,434.646z"/>
		</g>
	</g>
</g>
<g id="Layer_6" display="none">
	<g display="inline">
		<path fill="#3D3D3D" d="M683.138,408.58c-0.242-2.303-2.143-4.103-4.484-4.17v-2.146c0-1.279-1.004-2.313-2.266-2.386v-2.146
			c0-2.986-1.906-5.534-4.563-6.506c0.014-0.097,0.031-0.191,0.031-0.291c0-18.814-15.309-34.123-34.125-34.123
			c-18.812,0-34.122,15.309-34.122,34.123c0,0.098,0.02,0.194,0.028,0.291c-2.655,0.972-4.558,3.52-4.558,6.506v2.146
			c-1.264,0.069-2.271,1.104-2.271,2.386v11.33c0,1.279,1.007,2.318,2.271,2.387v2.146c0,3.818,3.104,6.934,6.926,6.934h4.531
			c1.325,0,2.398-1.076,2.398-2.4v-29.457c0-1.059-0.688-1.945-1.639-2.266c-0.241-0.078-0.491-0.135-0.761-0.135h-2.129
			c0.072-16.109,13.195-29.191,29.32-29.191c16.124,0,29.247,13.082,29.32,29.191h-2.13c-0.268,0-0.519,0.055-0.758,0.135
			c-0.953,0.318-1.642,1.207-1.642,2.266v29.457c0,1.326,1.072,2.4,2.397,2.4h4.532c3.821,0,6.932-3.109,6.932-6.934v-2.145
			c0.879-0.051,1.625-0.564,1.997-1.311v7.984c0,0.537-0.22,12.719-18.563,13.428c-0.74-1.199-2.003-2.026-3.479-2.182
			c-0.154-0.032-0.317-0.05-0.484-0.05h-6.797c-0.165,0-0.327,0.018-0.483,0.05c-2.342,0.247-4.18,2.21-4.18,4.617
			c0,2.406,1.838,4.369,4.18,4.615c0.156,0.029,0.318,0.047,0.483,0.047h6.797c0.167,0,0.33-0.018,0.484-0.047
			c1.505-0.16,2.784-1.021,3.519-2.262c23.035-0.826,23.324-18.041,23.324-18.219V409.06
			C683.187,408.898,683.169,408.738,683.138,408.58z M608.144,420.262h-2.133c-1.177,0-2.132-0.957-2.132-2.135v-20.395
			c0-1.178,0.955-2.134,2.138-2.134h2.129v24.661L608.144,420.262L608.144,420.262z M671.591,418.127
			c0,1.178-0.955,2.135-2.134,2.135h-2.134v-24.66h2.134c1.179,0,2.134,0.958,2.134,2.133V418.127z"/>
	</g>
</g>
<g id="Layer_5" display="none">
	<g id="Your_Icon_2_" display="inline">
		<path fill="#3D3D3D" d="M641.995,364.504v-14.359h-4v14.359c-23.008,0.768-25.004,14.977-25.004,17.889v43.686
			c0,7.139,7.414,23.777,27.008,23.777c19.613,0,27.008-16.969,27.008-23.777v-43.686
			C667.007,379.482,665.005,365.272,641.995,364.504z M663.007,382.393v17.521c-3.001,0.798-10.004,2.476-21.012,2.655v-4.068
			c2.007-0.684,3.006-2.151,3.006-3.862v-14.306c0-1.709-0.999-3.18-3.006-3.861v-7.983
			C661.007,369.145,663.007,379.229,663.007,382.393z M640.747,394.617c-0.027,0.089-0.303,0.308-0.747,0.308
			c-0.448,0-0.72-0.219-0.747-0.287l-0.003-14.284c0.03-0.09,0.302-0.307,0.75-0.307c0.444,0,0.72,0.217,0.743,0.285
			L640.747,394.617z M637.995,368.487v7.983c-1.998,0.682-3,2.152-3,3.861v14.306c0,1.711,1.002,3.181,3,3.864v4.066
			c-11.002-0.182-18.002-1.857-21.004-2.655v-17.521C616.991,379.229,618.99,369.145,637.995,368.487z M640,445.867
			c-16.675,0-23.009-14.82-23.009-19.791v-22.006c4,1.018,11.423,2.512,23.009,2.512c11.581,0,19.006-1.494,23.007-2.512v22.006
			C663.007,431.439,655.605,445.867,640,445.867z"/>
	</g>
</g>
<g id="Layer_4" display="none">
	<g display="inline">
		<g>
			<g>
				<g>
					<path fill="#3D3D3D" d="M665.449,351.889l-0.021,57.471c0,2.951-0.342,5.818-0.963,8.584c1.188,0.352,2.064,1.438,2.064,2.744
						c0,1.477-1.117,2.682-2.553,2.844c0.486,0.514,0.791,1.201,0.791,1.965c0,1.594-1.283,2.879-2.873,2.879
						c-0.463,0-0.889-0.117-1.279-0.312c-6.6,11.95-19.318,20.049-33.938,20.049c-21.397,0-38.747-17.351-38.747-38.752v-1.564
						c-0.146,0.012-0.286,0.043-0.437,0.043c-3.003,0-5.441-2.436-5.441-5.442s2.438-5.441,5.441-5.441
						c0.148,0,0.288,0.032,0.437,0.044v-30.305c0-4.325,3.507-7.839,7.836-7.839h0.909c0.191-3.873,3.367-6.964,7.293-6.964h32.146
						h13.278h16.055 M668.9,348.44h-3.449h-16.055h-13.278H603.97c-4.646,0-8.623,2.952-10.118,7.127
						c-5.313,0.913-9.368,5.555-9.368,11.124v27.336c-3.424,1.237-5.878,4.521-5.878,8.366c0,3.854,2.465,7.146,5.901,8.374
						c0.746,22.618,19.377,40.792,42.171,40.792c14.557,0,28.036-7.513,35.736-19.759c3.243-0.266,5.806-2.99,5.806-6.307
						c0-0.143-0.006-0.281-0.018-0.424c1.104-1.141,1.775-2.689,1.775-4.385c0-1.621-0.637-3.145-1.697-4.287
						c0.396-2.342,0.598-4.701,0.598-7.041l0.02-57.47L668.9,348.44L668.9,348.44z"/>
				</g>
			</g>
			<g>
				<circle fill="#3D3D3D" cx="649.465" cy="401.269" r="2.875"/>
			</g>
			<g>
				<rect x="656.568" y="351.373" fill="#3D3D3D" width="1.67" height="27.913"/>
			</g>
			<g>
				<rect x="651.656" y="351.373" fill="#3D3D3D" width="1.67" height="27.913"/>
			</g>
			<g>
				<rect x="640.202" y="351.373" fill="#3D3D3D" width="1.669" height="27.913"/>
			</g>
			<g>
				<path fill="none" stroke="#262626" stroke-width="1.6702" stroke-miterlimit="10" d="M616.778,373.263"/>
			</g>
			<g>
				<path fill="#3D3D3D" d="M611.462,407.738l-25.783-11.752l0.69-1.52l23.421,10.676v-14.786
					c-0.081-0.859-0.807-10.649,8.477-11.896l0.111-0.007h46.793v1.67h-46.736c-7.959,1.107-7.023,9.726-6.979,10.093l0.008,0.1
					L611.462,407.738L611.462,407.738z"/>
			</g>
			<g>
				<path fill="#3D3D3D" d="M653.326,423.857h-1.67c0-8.977-7.301-16.275-16.274-16.275v-1.671
					C645.277,405.909,653.326,413.961,653.326,423.857z"/>
			</g>
		</g>
		<g>
			<g>
				<path fill="#3D3D3D" d="M693.865,433.135l-19.521-5.299l19.054,6.795c0.021,0.007,0.04,0.013,0.063,0.019
					c0.416,0.115,0.849-0.133,0.959-0.553C694.531,433.677,694.282,433.246,693.865,433.135z"/>
			</g>
			<g>
				<path fill="#3D3D3D" d="M689.433,440.676l-0.004-0.006l-0.021-0.012l-0.011-0.008l-0.002-0.001l-16.632-11.606l15.716,12.878
					c0.018,0.012,0.031,0.024,0.046,0.033l0.006,0.005c1.165,0.815,1.944,2.037,2.19,3.44c0.242,1.386-0.066,2.774-0.874,3.906
					c-0.144,0.203-0.294,0.388-0.45,0.559c-0.292,0.316-0.271,0.813,0.049,1.109c0.15,0.136,0.34,0.206,0.529,0.206
					c0.213,0,0.426-0.087,0.583-0.255c0.193-0.216,0.386-0.454,0.572-0.707c1.046-1.481,1.448-3.287,1.139-5.088
					C691.948,443.313,690.942,441.733,689.433,440.676z"/>
			</g>
			<g>
				<path fill="#3D3D3D" d="M701.394,420.086c0-0.434-0.354-0.783-0.785-0.783l0,0c-0.434,0-0.785,0.352-0.785,0.785
					c0,1.416-0.549,2.746-1.549,3.75c-0.999,1.002-2.33,1.553-3.743,1.555h-0.006l-20.982,0.785l20.982,0.783h0.002
					c0.02,0,0.04,0,0.06,0l0.012-0.004c1.812-0.021,3.509-0.73,4.786-2.014C700.679,423.648,701.396,421.92,701.394,420.086z"/>
			</g>
		</g>
	</g>
</g>
<g id="Layer_3" display="none">
	<g display="inline">
		<g>
			<path fill="#262626" d="M655.362,427.634c-0.328,0.198-0.436,0.624-0.238,0.956c0.199,0.323,0.628,0.432,0.955,0.232
				c0.02-0.008,0.031-0.021,0.045-0.027l14.959-10.642L655.362,427.634z"/>
			<path fill="#262626" d="M667.275,437.625c0.356,0.133,0.759-0.055,0.893-0.412c0.009-0.018,0.015-0.035,0.019-0.053l4.916-17.318
				l-6.236,16.889C666.731,437.092,666.916,437.49,667.275,437.625z"/>
			<path fill="#262626" d="M660.889,434.387c0.012-0.012,0.021-0.027,0.032-0.041l10.422-14.581l-11.521,13.729
				c-0.247,0.296-0.206,0.734,0.086,0.98C660.2,434.725,660.643,434.682,660.889,434.387z"/>
			<path fill="#EAE0D6" d="M658.3,441h-0.002c-0.822,0-1.628-0.123-2.423-0.096c-0.409,0.016-0.812-0.029-1.213-0.01
				c-0.346,0.021-0.689,0.002-1.029,0.025c-0.533,0.033-1.06,0.062-1.577,0.104c-0.167,0.017-0.331-0.108-0.495-0.091
				c-0.602,0.059-1.44,0.062-2.024,0.062c-0.01,0-1.536,0-1.536,0v-11.538c0-1.601,0.456-2.462-1.141-2.462H633v-25.51
				l21.295-30.358l5.572-7.896c0.518,0.228,1.121,0.354,1.721,0.354c0.521,0,1.034-0.106,1.495-0.281l21.634,28.907l-3.89,7.778
				l-3.042,6.089l-2.345,3.151l-3.298,7.957l1.537,1.145l6.676-5.438l2.354-3.154l12.675-11.587c0.384-0.14,0.762-0.308,1.128-0.518
				l0.863-0.501c3.386-1.954,4.544-6.281,2.59-9.663L667.61,344.22c-0.397-0.695-0.904-1.29-1.475-1.789l-0.53-0.527
				c-3.111-3.113-8.403-3.372-11.867,0.855l-33.69,48.384c-0.289,0.051-0.572,0.114-0.854,0.188
				c-0.015,0.005-0.029,0.007-0.044,0.012c-0.271,0.073-0.537,0.157-0.798,0.251c-0.021,0.008-0.043,0.017-0.064,0.023
				c-0.26,0.096-0.513,0.198-0.76,0.313c-0.019,0.008-0.036,0.02-0.055,0.026c-0.254,0.12-0.5,0.246-0.74,0.385
				c0,0-0.003,0.002-0.006,0.004c-0.982,0.569-1.86,1.297-2.597,2.151c-0.021,0.021-0.041,0.042-0.062,0.063
				c-0.134,0.157-0.257,0.321-0.38,0.486c-0.063,0.084-0.128,0.165-0.188,0.251c-0.104,0.146-0.198,0.299-0.294,0.451
				c-0.069,0.111-0.142,0.225-0.205,0.341c-0.082,0.143-0.157,0.287-0.232,0.434c-0.069,0.137-0.135,0.271-0.196,0.41
				c-0.063,0.14-0.125,0.279-0.181,0.422c-0.063,0.153-0.117,0.312-0.171,0.469c-0.047,0.137-0.094,0.271-0.134,0.409
				c-0.054,0.177-0.096,0.354-0.138,0.53c-0.029,0.129-0.063,0.257-0.09,0.39c-0.041,0.205-0.065,0.415-0.096,0.623
				c-0.015,0.11-0.37,0.219-0.381,0.328c-0.031,0.323-0.389,0.649-0.389,0.982V427h-12.874c-1.599,0-4.126,0.859-4.126,2.462v14.104
				c-6,1.604-12,3.935-17,6.473v0.008v8.913v0.13v0.161l96.639,1.046c-3.207,0-5.324-0.296-8.226-1.296h2.043l1.544,0.918V459h5.584
				c-0.771,0-1.531,0-2.286-0.035l2.286,0.035H701v-4.717C690,449.109,678.454,441,658.3,441z"/>
		</g>
		<g>
			<path fill="none" stroke="#262626" stroke-width="1.6702" stroke-miterlimit="10" d="M698.598,395.221l-15.889,14.524
				l-4.918-3.661l9.604-19.206c2.305-3.097,6.68-3.734,9.771-1.431C700.262,387.751,700.901,392.127,698.598,395.221z"/>
			<path fill="none" stroke="#3D3D3D" stroke-width="3.448" stroke-miterlimit="10" d="M686.847,395.05
				c1.951,3.385,6.281,4.543,9.665,2.591l0.861-0.5c3.388-1.954,4.545-6.281,2.592-9.663L667.61,344.22
				c-1.951-3.386-6.278-4.543-9.663-2.592l-0.866,0.499c-3.379,1.956-4.541,6.279-2.587,9.665L686.847,395.05z"/>
			<path fill="none" stroke="#3D3D3D" stroke-width="3.448" stroke-miterlimit="10" d="M658.299,440.723L658.299,440.723
				c-3.025,0-5.856,0.197-8.545,0.535v-11.796c0-1.603-1.3-2.896-2.896-2.896h-13.552V401.49l28.137-40.401l23.281,31.129
				l-6.937,13.867l-2.349,3.151l-3.298,7.957l1.538,1.145l6.675-5.438l2.354-3.153l12.696-11.606
				c0.375-0.138,0.748-0.292,1.104-0.498l0.863-0.5c3.386-1.954,4.544-6.281,2.59-9.663L667.61,344.22
				c-0.062-0.111-0.146-0.2-0.218-0.306c-0.021-0.032-0.046-0.063-0.065-0.096c-0.259-0.38-0.54-0.729-0.854-1.046
				c-0.023-0.022-0.045-0.051-0.07-0.078l-0.796-0.793c-3.111-3.113-8.403-3.372-11.867,0.855l-33.692,48.385
				c-4.75,0.824-8.369,4.957-8.369,9.946v25.476h-13.549c-1.6,0-2.897,1.296-2.897,2.896v14.216
				c-6.134,1.652-11.451,4.006-16.448,6.367v8.914l123.668,0.105v-3.766C690.304,449.928,678.946,440.723,658.299,440.723z"/>
			<path fill="none" d="M612.693,441.387h-0.003c-14.443,0-24.722,4.307-33.911,8.65v9.213l95.748,1.09
				C654.046,460.34,641.849,441.387,612.693,441.387z"/>
			<path fill="none" stroke="#3D3D3D" stroke-width="0.862" stroke-miterlimit="10" d="M698.598,395.221l-15.889,14.524
				l-4.918-3.661l9.604-19.206c2.305-3.097,6.68-3.734,9.771-1.431C700.262,387.751,700.901,392.127,698.598,395.221"/>
			<path fill="none" stroke="#262626" stroke-width="0.862" stroke-miterlimit="10" d="M616.198,396.666
				c-3.11,3.111-3.11,8.157,0,11.27l0.794,0.794c3.111,3.113,8.159,3.113,11.272,0l38.135-54.762c2.333-4.057,3.111-8.158,0-11.271
				l-0.796-0.793c-3.111-3.113-8.403-3.372-11.867,0.855L616.198,396.666z"/>
			<g>
				<path fill="#EAE0D6" d="M616.198,396.666c-3.11,3.111-3.11,8.157,0,11.27l0.794,0.794c3.111,3.113,8.159,3.113,11.272,0
					l38.135-54.762c2.333-4.057,3.111-8.158,0-11.271l-0.796-0.793c-3.111-3.113-8.403-3.372-11.867,0.855L616.198,396.666z"/>
				<path fill="none" stroke="#3D3D3D" stroke-width="1.724" stroke-miterlimit="10" d="M616.198,396.666
					c-3.11,3.111-3.11,8.157,0,11.27l0.794,0.794c3.111,3.113,8.159,3.113,11.272,0l38.135-54.762c2.333-4.057,3.111-8.158,0-11.271
					l-0.796-0.793c-3.111-3.113-8.403-3.372-11.867,0.855L616.198,396.666z"/>
			</g>
			<polygon fill="none" points="677.791,406.084 675.442,409.236 672.145,417.193 673.683,418.336 680.357,412.9 682.709,409.745 
							"/>
			<polygon fill="none" stroke="#3D3D3D" stroke-width="1.6702" stroke-miterlimit="10" points="677.791,406.084 675.442,409.236 
				672.145,417.193 673.683,418.336 680.357,412.9 682.709,409.745 			"/>
			<line fill="none" x1="675.442" y1="409.236" x2="680.357" y2="412.9"/>
			
				<line fill="none" stroke="#3D3D3D" stroke-width="1.6702" stroke-miterlimit="10" x1="675.442" y1="409.236" x2="680.357" y2="412.9"/>
			<path fill="#3D3D3D" d="M671.08,418.155l-15.72,9.479c-0.328,0.198-0.436,0.624-0.237,0.956c0.198,0.323,0.627,0.432,0.954,0.232
				c0.02-0.008,0.031-0.021,0.046-0.027L671.08,418.155z"/>
			<path fill="#3D3D3D" d="M668.185,437.16l4.916-17.319l-6.236,16.89c-0.133,0.361,0.055,0.76,0.411,0.895s0.759-0.053,0.891-0.41
				C668.175,437.197,668.181,437.178,668.185,437.16"/>
			<path fill="#3D3D3D" d="M671.343,419.765l-11.521,13.729c-0.246,0.293-0.205,0.732,0.087,0.979
				c0.293,0.25,0.733,0.207,0.979-0.086c0.012-0.015,0.021-0.029,0.032-0.043L671.343,419.765z"/>
			<path fill="none" d="M633.308,401.09c0-5.582-4.522-10.105-10.104-10.105h-1.425c-5.583,0-10.104,4.523-10.104,10.105v32.641
				h21.633V401.09z"/>
			<path fill="none" d="M657.433,359.397c0,2.317,1.879,4.192,4.194,4.192c2.313,0,4.193-1.875,4.193-4.192
				c0-2.315-1.88-4.191-4.193-4.191C659.312,355.204,657.433,357.08,657.433,359.397"/>
			<path fill="none" stroke="#3D3D3D" stroke-width="1.8209" stroke-miterlimit="10" d="M655.467,349.105
				c0,2.316,1.878,4.192,4.192,4.192c2.315,0,4.195-1.876,4.195-4.192s-1.88-4.192-4.195-4.192
				C657.345,344.912,655.467,346.787,655.467,349.105z"/>
			<path fill="none" stroke="#3D3D3D" stroke-width="1.6702" stroke-miterlimit="10" d="M689.554,390.029
				c-0.549,2.056,0.671,4.163,2.723,4.712c2.05,0.552,4.161-0.664,4.713-2.72c0.548-2.052-0.671-4.16-2.723-4.712
				C692.213,386.76,690.104,387.979,689.554,390.029z"/>
			<path fill="none" stroke="#262626" stroke-width="0.862" stroke-miterlimit="10" d="M626.44,402.048
				c0,2.124-1.723,3.847-3.846,3.847c-2.126,0-3.851-1.723-3.851-3.847c0-2.125,1.725-3.851,3.851-3.851
				C624.718,398.198,626.44,399.923,626.44,402.048"/>
			<g>
				<path fill="#EAE0D6" d="M633.308,401.09c0-5.582-4.522-10.105-10.104-10.105h-1.425c-5.583,0-10.104,4.523-10.104,10.105v32.641
					h21.633V401.09z"/>
				<path fill="none" stroke="#3D3D3D" stroke-width="1.724" stroke-miterlimit="10" d="M633.308,401.09
					c0-5.582-4.522-10.105-10.104-10.105h-1.425c-5.583,0-10.104,4.523-10.104,10.105v32.641h21.633V401.09z"/>
			</g>
			<g>
				<path fill="#EAE0D6" d="M649.754,441.258v-11.796c0-1.603-1.3-2.896-2.896-2.896h-48.732c-1.6,0-2.897,1.296-2.897,2.896v14.685
					"/>
				<path fill="none" stroke="#3D3D3D" stroke-width="1.724" stroke-miterlimit="10" d="M649.754,441.258v-11.796
					c0-1.603-1.3-2.896-2.896-2.896h-48.732c-1.6,0-2.897,1.296-2.897,2.896v14.685"/>
			</g>
			<path fill="none" stroke="#3D3D3D" stroke-width="0.862" stroke-miterlimit="10" d="M649.754,444.432v-14.97
				c0-1.603-1.3-2.896-2.896-2.896h-48.732c-1.6,0-2.897,1.296-2.897,2.896v14.97H649.754z"/>
			<g>
				<path fill="#EAE0D6" d="M596.465,458.27c20.48,0,32.677-17.547,61.833-17.547l0,0h0.001c20.155,0,32.208,8.387,44.495,13.562
					v4.781h-28.212"/>
				<path fill="none" stroke="#3D3D3D" stroke-width="1.724" stroke-miterlimit="10" d="M596.465,458.27
					c20.48,0,32.677-17.547,61.833-17.547l0,0h0.001c20.155,0,32.208,8.387,44.495,13.562v4.781h-28.212"/>
			</g>
			<polyline fill="none" points="662.115,458.281 662.115,445.969 635.645,445.969 			"/>
			<g>
				<path fill="#EAE0D6" d="M578.78,450.037c9.623-4.615,18.594-8.563,33.911-8.65l0,0h0.003
					c25.772,1.855,40.935,17.934,61.892,17.701H578.78V450.037z"/>
				<path fill="none" stroke="#3D3D3D" stroke-width="1.724" stroke-miterlimit="10" d="M578.78,450.037
					c9.623-4.615,18.594-8.563,33.911-8.65l0,0h0.003c25.772,1.855,40.935,17.934,61.892,17.701H578.78V450.037z"/>
			</g>
			<circle fill="none" stroke="#3D3D3D" stroke-width="1.6702" stroke-miterlimit="10" cx="622.593" cy="402.048" r="3.847"/>
			<polyline fill="none" stroke="#3D3D3D" stroke-width="1.724" stroke-miterlimit="10" points="669.614,459.918 669.614,447.492 
				637.238,447.492 			"/>
		</g>
	</g>
</g>
<g id="Layer_2" display="none">
	<g display="inline">
		<g>
			<g>
				<g>
					<rect x="584.351" y="343.326" fill="#EAE0D6" width="105.602" height="118.719"/>
				</g>
			</g>
			<g>
				<g>
					<g>
						<path fill="#3D3D3D" d="M688.229,345.048V460.32H586.073V345.048H688.229 M691.677,341.601h-3.447H586.073h-3.447v3.447
							V460.32v3.449h3.447h102.156h3.447v-3.449V345.048L691.677,341.601L691.677,341.601z"/>
					</g>
				</g>
			</g>
			<g>
				<path fill="#3D3D3D" d="M679.866,434.742h-85.434v-81.561h85.434V434.742z M595.897,433.281h82.508v-78.635h-82.508V433.281z"/>
			</g>
			<g>
				<g>
					<path fill="#3D3D3D" d="M663.528,386.64h-1.463c0-2.098-1.707-3.805-3.807-3.805h-42.217c-2.1,0-3.807,1.707-3.807,3.805
						h-1.463c0-2.904,2.363-5.268,5.269-5.268h42.218C661.163,381.373,663.528,383.736,663.528,386.64z"/>
				</g>
			</g>
			<g>
				<g>
					<g>
						<path fill="#3D3D3D" d="M656.642,364.791v4.52h0.565c2.81,0,5.087,2.277,5.087,5.084v19.664
							c0.094-0.008,0.184-0.029,0.281-0.029c1.949,0,3.531,1.582,3.531,3.531c0,1.951-1.582,3.534-3.531,3.534
							c-0.1,0-0.188-0.021-0.281-0.029v1.018c0,13.889-11.26,25.145-25.145,25.145c-13.887,0-25.145-11.256-25.145-25.145v-1.018
							c-0.096,0.008-0.188,0.029-0.283,0.029c-1.947,0-3.529-1.583-3.529-3.534c0-1.949,1.582-3.531,3.529-3.531
							c0.098,0,0.188,0.021,0.283,0.029v-19.664c0-2.807,2.273-5.084,5.086-5.084h0.588c0.125-2.514,2.186-4.52,4.729-4.52h20.859
							h8.617H656.642 M660.089,361.341h-3.447h-4.754h-8.617h-20.859c-3.297,0-6.148,1.951-7.441,4.789
							c-3.684,0.947-6.408,4.293-6.408,8.264v16.945c-2.262,1.156-3.814,3.512-3.814,6.221c0,2.73,1.576,5.102,3.865,6.247
							c0.896,14.967,13.355,26.867,28.541,26.867c15.185,0,27.644-11.902,28.539-26.865c2.289-1.146,3.865-3.518,3.865-6.249
							c0-2.709-1.554-5.063-3.814-6.221v-16.945c0-3.691-2.357-6.848-5.65-8.031v-1.57v-3.45L660.089,361.341L660.089,361.341z"/>
					</g>
				</g>
			</g>
			<g>
				<g>
					<path fill="#3D3D3D" d="M622.931,398.642c0,1.121-0.904,2.027-2.021,2.027s-2.025-0.906-2.025-2.027
						c0-1.115,0.908-2.021,2.025-2.021C622.026,396.619,622.931,397.527,622.931,398.642z"/>
				</g>
			</g>
			<g>
				<g>
					<path fill="#3D3D3D" d="M654.573,398.642c0,1.121-0.906,2.027-2.021,2.027c-1.119,0-2.025-0.906-2.025-2.027
						c0-1.115,0.906-2.021,2.025-2.021C653.666,396.619,654.573,397.527,654.573,398.642z"/>
				</g>
			</g>
			<g>
				<g>
					<rect x="656.278" y="364.572" fill="#3D3D3D" width="1.463" height="17.531"/>
				</g>
			</g>
			<g>
				<g>
					<rect x="652.821" y="364.572" fill="#3D3D3D" width="1.463" height="17.531"/>
				</g>
			</g>
			<g>
				<g>
					<rect x="644.753" y="364.572" fill="#3D3D3D" width="1.463" height="17.531"/>
				</g>
			</g>
			<g>
				<g>
					<path fill="none" stroke="#3D3D3D" stroke-width="1.4632" stroke-miterlimit="10" d="M629.522,378.916"/>
				</g>
			</g>
			<path fill="#3D3D3D" d="M637.14,419.02c-5.451,0-10.533-2.934-13.264-7.656l1.268-0.73c2.469,4.271,7.064,6.926,11.996,6.926
				c4.926,0,9.52-2.652,11.99-6.922l1.266,0.732C647.663,416.088,642.587,419.02,637.14,419.02z"/>
		</g>
		<g>
			<g>
				<polygon fill="#EAE0D6" points="684.78,352.31 693.618,364.638 681.294,355.796 668.962,364.638 677.808,352.31 
					668.964,339.982 681.294,348.823 693.62,339.982 				"/>
			</g>
		</g>
		<g>
			<g>
				<path fill="#3D3D3D" d="M697.37,368.39l-16.077-11.533l-16.082,11.533l11.534-16.08l-11.534-16.08l16.082,11.533l16.08-11.533
					l-11.532,16.08L697.37,368.39z M681.294,354.736l8.574,6.152l-6.148-8.578l6.148-8.576l-8.574,6.15l-8.578-6.15l6.15,8.576
					l-6.152,8.578L681.294,354.736z"/>
			</g>
		</g>
	</g>
</g>
</svg>
