<?xml version="1.0" encoding="utf-8"?>
<!-- Generator: Adobe Illustrator 16.0.0, SVG Export Plug-In . SVG Version: 6.00 Build 0)  -->
<!DOCTYPE svg PUBLIC "-//W3C//DTD SVG 1.1//EN" "http://www.w3.org/Graphics/SVG/1.1/DTD/svg11.dtd">
<svg version="1.1" id="Livello_1" xmlns="http://www.w3.org/2000/svg" xmlns:xlink="http://www.w3.org/1999/xlink" x="0px" y="0px"
	 width="122.789px" height="103.119px" viewBox="0 0 122.789 103.119" enable-background="new 0 0 122.789 103.119"
	 xml:space="preserve">
<g id="Layer_1" display="none">
	<g display="inline">
		<polygon fill="#3D3D3D" points="452.109,384.302 470.091,384.302 470.091,390.28 490.846,390.28 507.466,394.854 514.325,394.854 
			526.901,397.142 526.901,402.856 514.325,405.144 507.466,405.144 490.846,409.718 470.091,409.718 470.091,414.202 
			470.091,415.696 452.109,415.696 452.109,420.296 470.091,420.296 474.689,420.296 474.689,415.696 474.689,414.315 
			490.846,414.315 491.466,414.315 492.065,414.151 508.088,409.743 514.325,409.743 514.74,409.743 515.147,409.669 
			527.725,407.382 531.498,406.696 531.498,402.856 531.498,397.142 531.498,393.304 527.725,392.617 515.147,390.33 
			514.74,390.256 514.325,390.256 508.088,390.256 492.065,385.849 491.466,385.683 490.846,385.683 474.689,385.683 
			474.689,384.302 474.689,379.703 470.091,379.703 452.109,379.703 		"/>
		<g opacity="0.2">
			<path fill="#262626" d="M473.38,387.914h10.646v-94.483c0-33.158,26.88-60.039,60.039-60.039h213.141
				c33.157,0,60.038,26.881,60.038,60.039v213.139c0,33.158-26.881,60.039-60.038,60.039H544.065
				c-33.159,0-60.039-26.881-60.039-60.039v-94.483H473.38v165.171h354.511V222.744H473.38V387.914z"/>
		</g>
		<g>
			<path fill="#3D3D3D" d="M823.469,227.166v345.669H477.802V227.166H823.469 M827.891,222.744H473.38v354.513h354.511V222.744
				L827.891,222.744z"/>
		</g>
		<rect x="471" y="391" fill="#EAE0D6" width="21" height="18"/>
		<g>
			<polyline fill="none" stroke="#3D3D3D" stroke-width="2.1419" stroke-miterlimit="10" points="452.109,415.696 470.091,415.696 
				470.091,384.302 452.109,384.302 			"/>
			<g>
				<polygon fill="none" stroke="#3D3D3D" stroke-width="2.1419" stroke-miterlimit="10" points="514.325,394.854 514.325,405.144 
					526.901,402.858 526.901,397.142 				"/>
				
					<rect x="507.466" y="394.854" fill="none" stroke="#3D3D3D" stroke-width="2.1419" stroke-miterlimit="10" width="6.858" height="10.289"/>
				<polygon fill="none" stroke="#3D3D3D" stroke-width="2.1419" stroke-miterlimit="10" points="490.846,409.718 490.846,409.718 
					507.466,405.144 507.466,394.854 490.846,390.28 490.846,390.28 				"/>
			</g>
			<polyline fill="none" stroke="#3D3D3D" stroke-width="2.1419" stroke-miterlimit="10" points="452.109,409.718 490.846,409.718 
				490.846,390.28 452.109,390.28 			"/>
			
				<line fill="none" stroke="#3D3D3D" stroke-width="2.1419" stroke-miterlimit="10" x1="470.091" y1="415.538" x2="470.091" y2="384.302"/>
		</g>
	</g>
</g>
<g id="Layer_7" display="none">
	<g display="inline">
		<g>
			<path fill="#3D3D3D" d="M591.073,459.073v-24.25c-16.56-3.131-28.506-17.497-28.506-34.43c0-19.322,15.719-35.041,35.04-35.041
				h22.806c19.322,0,35.042,15.719,35.042,35.041c0,18.476-14.373,33.787-32.766,34.971L591.073,459.073z M597.608,367.022
				c-18.4,0-33.37,14.972-33.37,33.371c0,16.354,11.696,30.191,27.812,32.908l0.694,0.117v22.314l29.349-22.008l0.251-0.014
				c17.633-1.012,31.443-15.646,31.443-33.32c0-18.399-14.971-33.371-33.373-33.371L597.608,367.022L597.608,367.022z"/>
		</g>
		<g>
			<path fill="#3D3D3D" d="M610.612,396.353c-0.271-1.322-0.121-2.574,0.512-3.758c0.534-0.996,1.313-1.75,2.314-2.264
				c2.005-1.021,4.602-0.73,6.37,1.098l0.198-0.013c1.063-0.231,2.07-0.614,3.021-1.146l0.164-0.084l0.029,0.014
				c-0.085,0.304-0.218,0.582-0.366,0.857c-0.146,0.281-0.323,0.541-0.519,0.789c-0.192,0.242-0.399,0.473-0.638,0.668
				c-0.235,0.203-0.486,0.393-0.758,0.602c0.541-0.061,1.041-0.168,1.536-0.303c0.485-0.133,0.958-0.303,1.446-0.51
				c-0.131,0.289-0.701,1.008-1.197,1.518c-0.439,0.453-0.916,0.865-1.421,1.234l-0.019,0.229c0.018,0.57,0.005,1.139-0.045,1.705
				c-0.079,0.883-0.226,1.754-0.453,2.607c-0.607,2.305-1.654,4.389-3.188,6.217c-2.112,2.521-4.771,4.158-7.977,4.903
				c-0.858,0.199-1.732,0.317-2.617,0.375c-0.574,0.037-1.149,0.046-1.728,0.021c-1.8-0.078-3.539-0.461-5.206-1.148
				c-0.755-0.313-1.479-0.686-2.173-1.111l-0.148-0.104l-0.011-0.035c1.898,0.201,3.726-0.063,5.479-0.809
				c0.849-0.357,1.999-1.047,2.353-1.399l-0.079-0.039c-0.267-0.024-0.528-0.051-0.793-0.103c-1.665-0.317-3.195-1.477-3.922-3.187
				c-0.057-0.141-0.12-0.274-0.148-0.438c0.266,0.027,0.521,0.058,0.78,0.074c0.261,0.018,0.521,0,0.778-0.029
				c0.26-0.025,0.514-0.071,0.779-0.141l-0.147-0.068c-1.563-0.408-2.729-1.325-3.492-2.748c-0.392-0.729-0.587-1.516-0.606-2.344
				l0.011-0.188c0.265,0.11,0.512,0.231,0.77,0.321c0.251,0.091,0.51,0.162,0.769,0.219c0.264,0.059,0.531,0.109,0.838,0.086
				c-0.112-0.104-0.217-0.168-0.307-0.244c-0.098-0.078-0.191-0.158-0.283-0.24c-0.084-0.08-0.168-0.16-0.248-0.246
				c-0.086-0.088-0.169-0.181-0.247-0.273c-0.079-0.096-0.156-0.191-0.229-0.29c-0.071-0.103-0.142-0.203-0.205-0.308
				c-0.063-0.098-0.121-0.198-0.179-0.303c-0.059-0.109-0.112-0.22-0.166-0.33c-0.05-0.111-0.098-0.227-0.143-0.343
				c-0.041-0.112-0.082-0.231-0.115-0.353c-0.037-0.114-0.064-0.234-0.095-0.356c-0.023-0.11-0.047-0.229-0.064-0.341
				c-0.018-0.121-0.036-0.244-0.047-0.367c-0.011-0.121-0.013-0.246-0.015-0.367c-0.003-0.125-0.003-0.246,0.004-0.371
				c0.003-0.117,0.016-0.229,0.029-0.349c0.014-0.122,0.026-0.243,0.051-0.364c0.021-0.123,0.049-0.242,0.08-0.361
				c0.03-0.12,0.063-0.237,0.103-0.354c0.038-0.11,0.076-0.222,0.121-0.329c0.046-0.113,0.098-0.227,0.149-0.336
				c0.053-0.109,0.114-0.217,0.17-0.322c0.085,0.016,0.109,0.076,0.146,0.121c0.436,0.516,0.896,1.002,1.394,1.455
				c2.041,1.863,4.411,3.102,7.115,3.697c0.709,0.154,1.429,0.253,2.148,0.313c0.083,0.006,0.165,0.008,0.247,0.01L610.612,396.353z
				"/>
		</g>
		<g>
			<path fill="#3D3D3D" d="M678.493,373.036h-3.25l-0.021-0.158c0.002-0.758-0.002-1.521,0.012-2.279
				c0.006-0.186,0.057-0.377,0.123-0.551c0.17-0.438,0.533-0.646,0.973-0.67c0.654-0.039,1.313-0.031,1.969-0.044
				c0.361-0.005,0.314,0.044,0.316-0.325c0.002-0.841-0.002-1.682,0.002-2.521c0.002-0.135-0.029-0.189-0.178-0.201
				c-1.137-0.085-2.272-0.189-3.41-0.021c-1.658,0.246-2.914,1.478-3.198,3.139c-0.067,0.4-0.099,0.814-0.108,1.223
				c-0.017,0.725-0.004,1.445-0.004,2.171v0.231h-2.861l-0.012,0.197c0,0.986,0.004,1.976-0.002,2.961
				c-0.004,0.164,0.047,0.209,0.205,0.209c0.818-0.008,1.645,0,2.465-0.008c0.16,0,0.207,0.041,0.207,0.205
				c-0.002,2.698-0.002,5.396,0,8.094c0,0.166-0.047,0.207-0.205,0.207c-3.439-0.004-6.879-0.002-10.32-0.006
				c-0.721,0-1.191-0.471-1.205-1.193c-0.006-0.473,0-0.944,0-1.416c0-6.018-0.002-12.029,0.002-18.047
				c0-0.209,0.018-0.438,0.091-0.627c0.179-0.441,0.522-0.685,1.005-0.713l0.236-0.002c6.445,0,12.893-0.002,19.336,0.002
				c0.17,0,0.348,0.004,0.507,0.047c0.476,0.127,0.798,0.547,0.821,1.037c0.008,0.096,0.008,0.195,0.008,0.293
				c0,6.414,0,12.83-0.004,19.242c0,0.164,0.006,0.334-0.029,0.493c-0.121,0.521-0.563,0.88-1.102,0.882
				c-1.822,0.008-3.645,0.002-5.463,0.006c-0.143,0-0.176-0.053-0.176-0.184c0.002-2.711,0.002-5.422,0-8.131
				c0-0.146,0.047-0.189,0.188-0.188c0.811,0.006,1.617-0.004,2.428,0.006c0.186,0.002,0.25-0.047,0.271-0.24
				c0.092-0.82,0.209-1.639,0.313-2.459C678.445,373.483,678.469,373.271,678.493,373.036"/>
		</g>
		<g>
			<path fill="#3D3D3D" d="M688.925,434.646l-31.618-23.711c-0.334-0.027-0.664-0.066-0.994-0.107l-0.48-0.059l0.188-1.66l0.5,0.063
				c0.377,0.047,0.752,0.094,1.137,0.115l0.252,0.016l29.35,22.006v-22.318l0.693-0.115c16.114-2.719,27.813-16.557,27.813-32.907
				c0-18.401-14.971-33.37-33.371-33.37h-22.805c-13.99,0-26.597,8.875-31.364,22.084l-1.571-0.568
				c5.008-13.867,18.244-23.186,32.937-23.186h22.805c19.321,0,35.041,15.719,35.041,35.04c0,16.933-11.946,31.3-28.507,34.431
				v24.25h-0.004V434.646z"/>
		</g>
	</g>
</g>
<g id="Layer_6" display="none">
	<g display="inline">
		<path fill="#3D3D3D" d="M683.138,408.58c-0.242-2.302-2.143-4.103-4.484-4.17v-2.146c0-1.279-1.004-2.313-2.266-2.387v-2.146
			c0-2.986-1.906-5.533-4.563-6.506c0.014-0.097,0.031-0.191,0.031-0.291c0-18.814-15.309-34.123-34.125-34.123
			c-18.812,0-34.122,15.309-34.122,34.123c0,0.098,0.02,0.194,0.028,0.291c-2.655,0.973-4.558,3.52-4.558,6.506v2.146
			c-1.264,0.07-2.271,1.105-2.271,2.387v11.33c0,1.278,1.007,2.317,2.271,2.387v2.146c0,3.819,3.104,6.935,6.926,6.935h4.531
			c1.325,0,2.398-1.076,2.398-2.4v-29.458c0-1.058-0.688-1.945-1.639-2.265c-0.241-0.078-0.491-0.136-0.761-0.136h-2.129
			c0.072-16.108,13.195-29.19,29.32-29.19c16.124,0,29.247,13.082,29.32,29.19h-2.13c-0.268,0-0.519,0.056-0.758,0.136
			c-0.953,0.317-1.642,1.207-1.642,2.265v29.458c0,1.326,1.072,2.4,2.397,2.4h4.532c3.821,0,6.932-3.109,6.932-6.935v-2.144
			c0.879-0.051,1.625-0.565,1.997-1.312v7.985c0,0.537-0.22,12.719-18.563,13.428c-0.74-1.199-2.003-2.027-3.479-2.182
			c-0.154-0.033-0.317-0.051-0.484-0.051h-6.797c-0.165,0-0.327,0.018-0.483,0.051c-2.342,0.246-4.18,2.209-4.18,4.617
			c0,2.406,1.838,4.369,4.18,4.615c0.156,0.029,0.318,0.047,0.483,0.047h6.797c0.167,0,0.33-0.018,0.484-0.047
			c1.505-0.16,2.784-1.021,3.519-2.262c23.035-0.826,23.324-18.041,23.324-18.219V409.06
			C683.187,408.897,683.169,408.737,683.138,408.58z M608.144,420.263h-2.133c-1.177,0-2.132-0.957-2.132-2.136v-20.394
			c0-1.178,0.955-2.135,2.138-2.135h2.129v24.662L608.144,420.263L608.144,420.263z M671.591,418.127
			c0,1.179-0.955,2.136-2.134,2.136h-2.134v-24.66h2.134c1.179,0,2.134,0.957,2.134,2.133V418.127z"/>
	</g>
</g>
<g id="Layer_5" display="none">
	<g id="Your_Icon_2_" display="inline">
		<path fill="#3D3D3D" d="M641.996,364.504v-14.358h-4v14.358c-23.008,0.769-25.004,14.978-25.004,17.89v43.686
			c0,7.139,7.414,23.777,27.008,23.777c19.613,0,27.008-16.969,27.008-23.777v-43.686
			C667.007,379.481,665.005,365.272,641.996,364.504z M663.007,382.394v17.521c-3.001,0.798-10.004,2.476-21.012,2.655v-4.068
			c2.007-0.684,3.006-2.15,3.006-3.861v-14.307c0-1.709-0.999-3.18-3.006-3.861v-7.982
			C661.007,369.146,663.007,379.229,663.007,382.394z M640.748,394.617c-0.027,0.089-0.303,0.308-0.747,0.308
			c-0.448,0-0.72-0.219-0.747-0.287l-0.003-14.283c0.03-0.09,0.302-0.308,0.75-0.308c0.444,0,0.72,0.218,0.743,0.285
			L640.748,394.617z M637.996,368.487v7.982c-1.998,0.682-3,2.152-3,3.861v14.307c0,1.711,1.002,3.18,3,3.863v4.066
			c-11.002-0.182-18.002-1.857-21.004-2.655v-17.521C616.992,379.229,618.99,369.146,637.996,368.487z M640,445.868
			c-16.675,0-23.009-14.82-23.009-19.791v-22.006c4,1.017,11.423,2.511,23.009,2.511c11.581,0,19.006-1.494,23.007-2.511v22.006
			C663.007,431.438,655.605,445.868,640,445.868z"/>
	</g>
</g>
<g id="Layer_4">
	<g>
		<g>
			<g>
				<g>
					<path fill="#3D3D3D" d="M86.844,3.449L86.824,60.92c0,2.951-0.342,5.818-0.963,8.584c1.188,0.351,2.064,1.438,2.064,2.744
						c0,1.477-1.117,2.682-2.553,2.844c0.486,0.514,0.791,1.201,0.791,1.965c0,1.594-1.283,2.879-2.873,2.879
						c-0.463,0-0.889-0.117-1.279-0.313c-6.6,11.951-19.318,20.049-33.938,20.049c-21.397,0-38.747-17.35-38.747-38.752v-1.564
						c-0.146,0.012-0.286,0.043-0.437,0.043c-3.003,0-5.441-2.436-5.441-5.441c0-3.008,2.438-5.442,5.441-5.442
						c0.148,0,0.288,0.032,0.437,0.044V18.254c0-4.325,3.507-7.838,7.836-7.838h0.909c0.191-3.873,3.367-6.965,7.293-6.965H57.51
						h13.278h16.055 M90.294,0h-3.449H70.791H57.512H25.365c-4.646,0-8.623,2.951-10.118,7.127
						C9.933,8.039,5.878,12.681,5.878,18.25v27.336C2.455,46.824,0,50.107,0,53.953c0,3.854,2.465,7.145,5.901,8.373
						c0.746,22.619,19.377,40.793,42.171,40.793c14.557,0,28.036-7.514,35.736-19.76c3.243-0.266,5.806-2.99,5.806-6.307
						c0-0.143-0.006-0.281-0.018-0.424c1.104-1.141,1.775-2.689,1.775-4.385c0-1.621-0.637-3.145-1.697-4.287
						c0.396-2.342,0.598-4.701,0.598-7.041l0.02-57.469L90.294,0L90.294,0z"/>
				</g>
			</g>
			<g>
				<circle fill="#3D3D3D" cx="70.86" cy="52.828" r="2.875"/>
			</g>
			<g>
				<rect x="77.962" y="2.933" fill="#3D3D3D" width="1.67" height="27.913"/>
			</g>
			<g>
				<rect x="73.051" y="2.933" fill="#3D3D3D" width="1.67" height="27.913"/>
			</g>
			<g>
				<rect x="61.597" y="2.933" fill="#3D3D3D" width="1.669" height="27.913"/>
			</g>
			<g>
				<path fill="none" stroke="#262626" stroke-width="1.6702" stroke-miterlimit="10" d="M38.172,24.822"/>
			</g>
			<g>
				<path fill="#3D3D3D" d="M32.857,59.297L7.074,47.545l0.69-1.52l23.421,10.676V41.916c-0.081-0.86-0.807-10.65,8.477-11.897
					l0.111-0.007h46.793v1.67H39.83c-7.959,1.107-7.023,9.727-6.979,10.093l0.008,0.101L32.857,59.297L32.857,59.297z"/>
			</g>
			<g>
				<path fill="#3D3D3D" d="M74.721,75.416h-1.67c0-8.977-7.301-16.275-16.274-16.275V57.47
					C66.671,57.469,74.721,65.521,74.721,75.416z"/>
			</g>
		</g>
		<g>
			<g>
				<path fill="#3D3D3D" d="M115.259,84.695l-19.521-5.299l19.054,6.795c0.021,0.006,0.04,0.012,0.063,0.018
					c0.416,0.115,0.849-0.133,0.959-0.553C115.925,85.236,115.677,84.807,115.259,84.695z"/>
			</g>
			<g>
				<path fill="#3D3D3D" d="M110.828,92.236l-0.004-0.006l-0.021-0.012l-0.011-0.008l-0.002-0.002L94.159,80.604l15.716,12.877
					c0.018,0.012,0.031,0.025,0.046,0.033l0.006,0.006c1.165,0.814,1.944,2.037,2.19,3.439c0.242,1.387-0.066,2.775-0.874,3.906
					c-0.144,0.203-0.294,0.389-0.45,0.559c-0.292,0.316-0.271,0.814,0.049,1.109c0.15,0.137,0.34,0.207,0.529,0.207
					c0.213,0,0.426-0.088,0.583-0.256c0.193-0.215,0.386-0.453,0.572-0.707c1.046-1.48,1.448-3.287,1.139-5.088
					C113.342,94.873,112.336,93.293,110.828,92.236z"/>
			</g>
			<g>
				<path fill="#3D3D3D" d="M122.789,71.646c0-0.433-0.354-0.782-0.785-0.782l0,0c-0.434,0-0.785,0.352-0.785,0.784
					c0,1.416-0.549,2.747-1.549,3.751c-0.999,1.002-2.33,1.553-3.743,1.555h-0.006l-20.982,0.785l20.982,0.783h0.002
					c0.02,0,0.04,0,0.06,0l0.012-0.004c1.812-0.021,3.509-0.73,4.786-2.014C122.074,75.207,122.791,73.48,122.789,71.646z"/>
			</g>
		</g>
	</g>
</g>
<g id="Layer_3" display="none">
	<g display="inline">
		<g>
			<path fill="#262626" d="M655.362,427.634c-0.328,0.199-0.436,0.625-0.238,0.957c0.199,0.322,0.628,0.432,0.955,0.232
				c0.02-0.008,0.031-0.021,0.045-0.027l14.959-10.643L655.362,427.634z"/>
			<path fill="#262626" d="M667.275,437.626c0.356,0.133,0.759-0.055,0.893-0.412c0.009-0.018,0.015-0.035,0.019-0.053l4.916-17.318
				l-6.236,16.889C666.731,437.093,666.917,437.489,667.275,437.626z"/>
			<path fill="#262626" d="M660.889,434.388c0.012-0.012,0.021-0.027,0.032-0.041l10.422-14.582l-11.521,13.729
				c-0.247,0.297-0.206,0.734,0.086,0.98C660.201,434.726,660.643,434.683,660.889,434.388z"/>
			<path fill="#EAE0D6" d="M658.3,441.001h-0.002c-0.822,0-1.628-0.123-2.423-0.096c-0.409,0.016-0.812-0.029-1.213-0.01
				c-0.346,0.021-0.689,0.002-1.029,0.025c-0.533,0.033-1.06,0.061-1.577,0.104c-0.167,0.018-0.331-0.107-0.495-0.09
				c-0.602,0.059-1.44,0.061-2.024,0.061c-0.01,0-1.536,0-1.536,0v-11.537c0-1.602,0.456-2.463-1.141-2.463H633v-25.51
				l21.295-30.358l5.572-7.896c0.518,0.227,1.121,0.354,1.721,0.354c0.521,0,1.034-0.105,1.495-0.281l21.634,28.907l-3.89,7.778
				l-3.042,6.089l-2.345,3.151l-3.298,7.957l1.537,1.145l6.676-5.438l2.354-3.154l12.675-11.586
				c0.384-0.141,0.762-0.309,1.128-0.518l0.863-0.502c3.386-1.953,4.544-6.281,2.59-9.662L667.61,344.22
				c-0.397-0.695-0.904-1.289-1.475-1.789l-0.53-0.527c-3.111-3.113-8.403-3.371-11.867,0.855l-33.69,48.385
				c-0.289,0.051-0.572,0.113-0.854,0.188c-0.015,0.005-0.029,0.007-0.044,0.012c-0.271,0.073-0.537,0.157-0.798,0.252
				c-0.021,0.008-0.043,0.016-0.064,0.022c-0.26,0.096-0.513,0.198-0.76,0.313c-0.019,0.008-0.036,0.02-0.055,0.026
				c-0.254,0.12-0.5,0.246-0.74,0.386c0,0-0.003,0.002-0.006,0.004c-0.982,0.568-1.86,1.297-2.597,2.15
				c-0.021,0.021-0.041,0.042-0.062,0.064c-0.134,0.156-0.257,0.32-0.38,0.485c-0.063,0.084-0.128,0.165-0.188,0.251
				c-0.104,0.146-0.198,0.299-0.294,0.451c-0.069,0.111-0.142,0.225-0.205,0.341c-0.082,0.144-0.157,0.287-0.232,0.435
				c-0.069,0.136-0.135,0.271-0.196,0.41c-0.063,0.139-0.125,0.278-0.181,0.422c-0.063,0.152-0.117,0.311-0.171,0.469
				c-0.047,0.136-0.094,0.271-0.134,0.408c-0.054,0.177-0.096,0.354-0.138,0.531c-0.029,0.129-0.063,0.256-0.09,0.389
				c-0.041,0.205-0.065,0.416-0.096,0.623c-0.015,0.111-0.37,0.219-0.381,0.328c-0.031,0.324-0.389,0.649-0.389,0.982v25.914
				h-12.874c-1.599,0-4.126,0.859-4.126,2.461v14.104c-6,1.605-12,3.936-17,6.473v0.008v8.914v0.129v0.162l96.639,1.045
				c-3.207,0-5.324-0.295-8.226-1.295h2.043l1.544,0.918v-0.918h5.584c-0.771,0-1.531,0-2.286-0.035l2.286,0.035H701v-4.717
				C690,449.108,678.455,441.001,658.3,441.001z"/>
		</g>
		<g>
			<path fill="none" stroke="#262626" stroke-width="1.6702" stroke-miterlimit="10" d="M698.598,395.222l-15.889,14.523
				l-4.918-3.661l9.604-19.206c2.305-3.096,6.68-3.734,9.771-1.43C700.262,387.751,700.901,392.127,698.598,395.222z"/>
			<path fill="none" stroke="#3D3D3D" stroke-width="3.448" stroke-miterlimit="10" d="M686.847,395.05
				c1.951,3.385,6.281,4.543,9.665,2.592l0.861-0.5c3.388-1.955,4.545-6.281,2.592-9.664L667.61,344.22
				c-1.951-3.386-6.278-4.543-9.663-2.592l-0.866,0.499c-3.379,1.956-4.541,6.28-2.587,9.665L686.847,395.05z"/>
			<path fill="none" stroke="#3D3D3D" stroke-width="3.448" stroke-miterlimit="10" d="M658.299,440.724L658.299,440.724
				c-3.025,0-5.856,0.197-8.545,0.535v-11.797c0-1.602-1.3-2.896-2.896-2.896h-13.552v-25.076l28.137-40.401l23.281,31.129
				l-6.937,13.867l-2.349,3.151l-3.298,7.957l1.538,1.145l6.675-5.438l2.354-3.153l12.696-11.606
				c0.375-0.138,0.748-0.291,1.104-0.498l0.863-0.5c3.386-1.953,4.544-6.281,2.59-9.662l-32.352-43.26
				c-0.062-0.111-0.146-0.199-0.218-0.306c-0.021-0.032-0.046-0.063-0.065-0.095c-0.259-0.381-0.54-0.729-0.854-1.047
				c-0.023-0.022-0.045-0.051-0.07-0.078l-0.796-0.793c-3.111-3.113-8.403-3.371-11.867,0.855l-33.692,48.385
				c-4.75,0.824-8.369,4.957-8.369,9.946v25.476h-13.549c-1.6,0-2.897,1.297-2.897,2.896v14.217
				c-6.134,1.652-11.451,4.006-16.448,6.367v8.914l123.668,0.105v-3.766C690.304,449.929,678.946,440.724,658.299,440.724z"/>
			<path fill="none" d="M612.693,441.388h-0.003c-14.443,0-24.722,4.307-33.911,8.65v9.213l95.748,1.09
				C654.046,460.341,641.849,441.388,612.693,441.388z"/>
			<path fill="none" stroke="#3D3D3D" stroke-width="0.862" stroke-miterlimit="10" d="M698.598,395.222l-15.889,14.523
				l-4.918-3.661l9.604-19.206c2.305-3.096,6.68-3.734,9.771-1.43C700.262,387.751,700.901,392.127,698.598,395.222"/>
			<path fill="none" stroke="#262626" stroke-width="0.862" stroke-miterlimit="10" d="M616.199,396.666
				c-3.11,3.112-3.11,8.157,0,11.271l0.794,0.793c3.111,3.113,8.159,3.113,11.272,0l38.135-54.762c2.333-4.057,3.111-8.158,0-11.271
				l-0.796-0.793c-3.111-3.113-8.403-3.371-11.867,0.855L616.199,396.666z"/>
			<g>
				<path fill="#EAE0D6" d="M616.199,396.666c-3.11,3.112-3.11,8.157,0,11.271l0.794,0.793c3.111,3.113,8.159,3.113,11.272,0
					l38.135-54.762c2.333-4.057,3.111-8.158,0-11.271l-0.796-0.793c-3.111-3.113-8.403-3.371-11.867,0.855L616.199,396.666z"/>
				<path fill="none" stroke="#3D3D3D" stroke-width="1.724" stroke-miterlimit="10" d="M616.199,396.666
					c-3.11,3.112-3.11,8.157,0,11.271l0.794,0.793c3.111,3.113,8.159,3.113,11.272,0l38.135-54.762
					c2.333-4.057,3.111-8.158,0-11.271l-0.796-0.793c-3.111-3.113-8.403-3.371-11.867,0.855L616.199,396.666z"/>
			</g>
			<polygon fill="none" points="677.792,406.084 675.442,409.235 672.145,417.192 673.683,418.336 680.357,412.899 682.709,409.745 
							"/>
			<polygon fill="none" stroke="#3D3D3D" stroke-width="1.6702" stroke-miterlimit="10" points="677.792,406.084 675.442,409.235 
				672.145,417.192 673.683,418.336 680.357,412.899 682.709,409.745 			"/>
			<line fill="none" x1="675.442" y1="409.235" x2="680.357" y2="412.899"/>
			
				<line fill="none" stroke="#3D3D3D" stroke-width="1.6702" stroke-miterlimit="10" x1="675.442" y1="409.235" x2="680.357" y2="412.899"/>
			<path fill="#3D3D3D" d="M671.081,418.155l-15.72,9.479c-0.328,0.199-0.436,0.625-0.237,0.957
				c0.198,0.322,0.627,0.432,0.954,0.232c0.02-0.008,0.031-0.021,0.046-0.027L671.081,418.155z"/>
			<path fill="#3D3D3D" d="M668.185,437.161l4.916-17.32l-6.236,16.891c-0.133,0.361,0.055,0.76,0.411,0.895s0.759-0.053,0.891-0.41
				C668.175,437.196,668.181,437.179,668.185,437.161"/>
			<path fill="#3D3D3D" d="M671.343,419.765l-11.521,13.73c-0.246,0.293-0.205,0.732,0.087,0.979
				c0.293,0.25,0.733,0.207,0.979-0.086c0.012-0.014,0.021-0.029,0.032-0.043L671.343,419.765z"/>
			<path fill="none" d="M633.308,401.09c0-5.582-4.522-10.104-10.104-10.104h-1.425c-5.583,0-10.104,4.522-10.104,10.104v32.642
				h21.633V401.09z"/>
			<path fill="none" d="M657.433,359.397c0,2.316,1.879,4.191,4.194,4.191c2.313,0,4.193-1.875,4.193-4.191s-1.88-4.192-4.193-4.192
				C659.312,355.204,657.433,357.08,657.433,359.397"/>
			<path fill="none" stroke="#3D3D3D" stroke-width="1.8209" stroke-miterlimit="10" d="M655.467,349.104
				c0,2.316,1.878,4.192,4.192,4.192c2.315,0,4.195-1.876,4.195-4.192s-1.88-4.192-4.195-4.192
				C657.345,344.912,655.467,346.787,655.467,349.104z"/>
			<path fill="none" stroke="#3D3D3D" stroke-width="1.6702" stroke-miterlimit="10" d="M689.554,390.028
				c-0.549,2.056,0.671,4.164,2.723,4.713c2.05,0.551,4.161-0.665,4.713-2.721c0.548-2.051-0.671-4.16-2.723-4.711
				C692.213,386.761,690.104,387.979,689.554,390.028z"/>
			<path fill="none" stroke="#262626" stroke-width="0.862" stroke-miterlimit="10" d="M626.44,402.048
				c0,2.124-1.723,3.848-3.846,3.848c-2.126,0-3.851-1.724-3.851-3.848c0-2.125,1.725-3.85,3.851-3.85
				C624.718,398.198,626.44,399.923,626.44,402.048"/>
			<g>
				<path fill="#EAE0D6" d="M633.308,401.09c0-5.582-4.522-10.104-10.104-10.104h-1.425c-5.583,0-10.104,4.522-10.104,10.104v32.642
					h21.633V401.09z"/>
				<path fill="none" stroke="#3D3D3D" stroke-width="1.724" stroke-miterlimit="10" d="M633.308,401.09
					c0-5.582-4.522-10.104-10.104-10.104h-1.425c-5.583,0-10.104,4.522-10.104,10.104v32.642h21.633V401.09z"/>
			</g>
			<g>
				<path fill="#EAE0D6" d="M649.754,441.259v-11.797c0-1.602-1.3-2.896-2.896-2.896h-48.732c-1.6,0-2.897,1.297-2.897,2.896v14.686
					"/>
				<path fill="none" stroke="#3D3D3D" stroke-width="1.724" stroke-miterlimit="10" d="M649.754,441.259v-11.797
					c0-1.602-1.3-2.896-2.896-2.896h-48.732c-1.6,0-2.897,1.297-2.897,2.896v14.686"/>
			</g>
			<path fill="none" stroke="#3D3D3D" stroke-width="0.862" stroke-miterlimit="10" d="M649.754,444.433v-14.971
				c0-1.602-1.3-2.896-2.896-2.896h-48.732c-1.6,0-2.897,1.297-2.897,2.896v14.971H649.754z"/>
			<g>
				<path fill="#EAE0D6" d="M596.465,458.271c20.48,0,32.677-17.547,61.833-17.547l0,0h0.001c20.155,0,32.208,8.387,44.495,13.561
					v4.781h-28.212"/>
				<path fill="none" stroke="#3D3D3D" stroke-width="1.724" stroke-miterlimit="10" d="M596.465,458.271
					c20.48,0,32.677-17.547,61.833-17.547l0,0h0.001c20.155,0,32.208,8.387,44.495,13.561v4.781h-28.212"/>
			</g>
			<polyline fill="none" points="662.115,458.28 662.115,445.97 635.645,445.97 			"/>
			<g>
				<path fill="#EAE0D6" d="M578.78,450.038c9.623-4.615,18.594-8.563,33.911-8.65l0,0h0.003
					c25.772,1.855,40.935,17.934,61.892,17.701H578.78V450.038z"/>
				<path fill="none" stroke="#3D3D3D" stroke-width="1.724" stroke-miterlimit="10" d="M578.78,450.038
					c9.623-4.615,18.594-8.563,33.911-8.65l0,0h0.003c25.772,1.855,40.935,17.934,61.892,17.701H578.78V450.038z"/>
			</g>
			<circle fill="none" stroke="#3D3D3D" stroke-width="1.6702" stroke-miterlimit="10" cx="622.593" cy="402.048" r="3.847"/>
			<polyline fill="none" stroke="#3D3D3D" stroke-width="1.724" stroke-miterlimit="10" points="669.614,459.919 669.614,447.493 
				637.238,447.493 			"/>
		</g>
	</g>
</g>
<g id="Layer_2" display="none">
	<g display="inline">
		<g>
			<g>
				<g>
					<rect x="584.351" y="343.326" fill="#EAE0D6" width="105.602" height="118.72"/>
				</g>
			</g>
			<g>
				<g>
					<g>
						<path fill="#3D3D3D" d="M688.229,345.048v115.271H586.073V345.048H688.229 M691.677,341.601h-3.447H586.073h-3.447v3.447
							v115.271v3.449h3.447h102.156h3.447v-3.449V345.048L691.677,341.601L691.677,341.601z"/>
					</g>
				</g>
			</g>
			<g>
				<path fill="#3D3D3D" d="M679.867,434.743h-85.434v-81.561h85.434V434.743z M595.897,433.28h82.508v-78.635h-82.508V433.28z"/>
			</g>
			<g>
				<g>
					<path fill="#3D3D3D" d="M663.528,386.64h-1.463c0-2.098-1.707-3.805-3.807-3.805h-42.217c-2.1,0-3.807,1.707-3.807,3.805
						h-1.463c0-2.904,2.363-5.268,5.269-5.268h42.218C661.164,381.373,663.528,383.735,663.528,386.64z"/>
				</g>
			</g>
			<g>
				<g>
					<g>
						<path fill="#3D3D3D" d="M656.642,364.791v4.521h0.565c2.81,0,5.087,2.276,5.087,5.084v19.664
							c0.094-0.008,0.184-0.029,0.281-0.029c1.949,0,3.531,1.582,3.531,3.531c0,1.951-1.582,3.533-3.531,3.533
							c-0.1,0-0.188-0.021-0.281-0.029v1.018c0,13.889-11.26,25.145-25.145,25.145c-13.887,0-25.145-11.256-25.145-25.145v-1.018
							c-0.096,0.008-0.188,0.029-0.283,0.029c-1.947,0-3.529-1.582-3.529-3.533c0-1.949,1.582-3.531,3.529-3.531
							c0.098,0,0.188,0.021,0.283,0.029v-19.664c0-2.808,2.273-5.084,5.086-5.084h0.588c0.125-2.515,2.186-4.521,4.729-4.521h20.859
							h8.617H656.642 M660.089,361.341h-3.447h-4.754h-8.617h-20.859c-3.297,0-6.148,1.951-7.441,4.789
							c-3.684,0.947-6.408,4.293-6.408,8.264v16.945c-2.262,1.156-3.814,3.512-3.814,6.221c0,2.73,1.576,5.102,3.865,6.248
							c0.896,14.967,13.355,26.867,28.541,26.867c15.185,0,27.644-11.902,28.539-26.865c2.289-1.146,3.865-3.519,3.865-6.25
							c0-2.709-1.554-5.063-3.814-6.221v-16.945c0-3.691-2.357-6.848-5.65-8.031v-1.57v-3.449h-0.004V361.341z"/>
					</g>
				</g>
			</g>
			<g>
				<g>
					<path fill="#3D3D3D" d="M622.931,398.642c0,1.121-0.904,2.027-2.021,2.027s-2.025-0.906-2.025-2.027
						c0-1.115,0.908-2.021,2.025-2.021C622.026,396.619,622.931,397.526,622.931,398.642z"/>
				</g>
			</g>
			<g>
				<g>
					<path fill="#3D3D3D" d="M654.573,398.642c0,1.121-0.906,2.027-2.021,2.027c-1.119,0-2.025-0.906-2.025-2.027
						c0-1.115,0.906-2.021,2.025-2.021C653.667,396.619,654.573,397.526,654.573,398.642z"/>
				</g>
			</g>
			<g>
				<g>
					<rect x="656.278" y="364.571" fill="#3D3D3D" width="1.463" height="17.531"/>
				</g>
			</g>
			<g>
				<g>
					<rect x="652.821" y="364.571" fill="#3D3D3D" width="1.463" height="17.531"/>
				</g>
			</g>
			<g>
				<g>
					<rect x="644.753" y="364.571" fill="#3D3D3D" width="1.463" height="17.531"/>
				</g>
			</g>
			<g>
				<g>
					<path fill="none" stroke="#3D3D3D" stroke-width="1.4632" stroke-miterlimit="10" d="M629.522,378.916"/>
				</g>
			</g>
			<path fill="#3D3D3D" d="M637.14,419.021c-5.451,0-10.533-2.935-13.264-7.656l1.268-0.731c2.469,4.271,7.064,6.927,11.996,6.927
				c4.926,0,9.52-2.652,11.99-6.922l1.266,0.731C647.664,416.088,642.587,419.021,637.14,419.021z"/>
		</g>
		<g>
			<g>
				<polygon fill="#EAE0D6" points="684.78,352.31 693.619,364.638 681.294,355.796 668.962,364.638 677.808,352.31 
					668.964,339.981 681.294,348.823 693.621,339.981 				"/>
			</g>
		</g>
		<g>
			<g>
				<path fill="#3D3D3D" d="M697.371,368.39l-16.077-11.533l-16.082,11.533l11.534-16.08l-11.534-16.08l16.082,11.533l16.08-11.533
					l-11.532,16.08L697.371,368.39z M681.294,354.735l8.574,6.152l-6.148-8.578l6.148-8.576l-8.574,6.15l-8.578-6.15l6.15,8.576
					l-6.152,8.578L681.294,354.735z"/>
			</g>
		</g>
	</g>
</g>
</svg>
