<?xml version="1.0" encoding="utf-8"?>
<!-- Generator: Adobe Illustrator 16.0.0, SVG Export Plug-In . SVG Version: 6.00 Build 0)  -->
<!DOCTYPE svg PUBLIC "-//W3C//DTD SVG 1.1//EN" "http://www.w3.org/Graphics/SVG/1.1/DTD/svg11.dtd">
<svg version="1.1" id="Layer_1" xmlns="http://www.w3.org/2000/svg" xmlns:xlink="http://www.w3.org/1999/xlink" x="0px" y="0px"
	 width="642px" height="592px" viewBox="0 0 642 592" enable-background="new 0 0 642 592" xml:space="preserve">
<circle fill="none" stroke="#3D3D3D" stroke-miterlimit="10" cx="332.503" cy="19.926" r="5.327"/>
<circle fill="none" stroke="#3D3D3D" stroke-miterlimit="10" cx="312.503" cy="19.926" r="5.327"/>
<circle fill="#3D3D3D" cx="292.503" cy="19.926" r="5.327"/>
<circle fill="none" stroke="#3D3D3D" stroke-miterlimit="10" cx="351.503" cy="19.926" r="5.327"/>
<g>
	<rect x="39.051" y="231.409" fill="none" width="563.902" height="79.091"/>
	<text transform="matrix(1 0 0 1 89.8955 247.0732)"><tspan x="0" y="0" fill="#262626" font-family="'DIN-Regular'" font-size="22" letter-spacing="1">Mettiti in coda e ti avviseremo quando sarà</tspan><tspan x="-41.811" y="26" fill="#262626" font-family="'DIN-Regular'" font-size="22" letter-spacing="1">il tuo turno: puoi navigare in tutto il sito senza mai </tspan><tspan x="29.04" y="52" fill="#262626" font-family="'DIN-Regular'" font-size="22" letter-spacing="1">perdere di vista il tuo tempo d&apos;attesa.</tspan></text>
</g>
<g>
	<rect x="15.689" y="425.191" fill="none" width="610.625" height="92.591"/>
	<text transform="matrix(1 0 0 1 33.3008 440.8555)"><tspan x="0" y="0" fill="#262626" font-family="'DIN-Regular'" font-size="22" letter-spacing="1">Se non vuoi aspettare, puoi registrare il tuo soffio e il </tspan><tspan x="22.187" y="26" fill="#262626" font-family="'DIN-Regular'" font-size="22" letter-spacing="1">sistema lo replicherà in un punto casuale appena </tspan><tspan x="-2.409" y="52" fill="#262626" font-family="'DIN-Regular'" font-size="22" letter-spacing="1">possibile. Non potrai vedere il tuo soffio in streaming.</tspan></text>
</g>
<g>
	<g>
		<rect x="82.549" y="150.134" fill="none" width="476.906" height="64.739"/>
		<text transform="matrix(1 0 0 1 176.6367 201.3984)"><tspan x="0" y="0" fill="#3D3D3D" font-family="'DIN-Bold'" font-size="60" letter-spacing="3">04</tspan><tspan x="71.16" y="0" fill="#3D3D3D" font-family="'DIN-Bold'" font-size="36" letter-spacing="1">min</tspan><tspan x="138.624" y="0" fill="#3D3D3D" font-family="'DIN-Bold'" font-size="72" letter-spacing="3"> </tspan><tspan x="158.927" y="0" fill="#3D3D3D" font-family="'DIN-Bold'" font-size="60" letter-spacing="3">45</tspan><tspan x="230.087" y="0" fill="#3D3D3D" font-family="'DIN-Bold'" font-size="36" letter-spacing="1">sec</tspan></text>
	</g>
</g>
<g>
	<g>
		<g>
			<text transform="matrix(1 0 0 1 119.5869 113.6182)"><tspan x="0" y="0" fill="#262626" font-family="'DIN-Regular'" font-size="22" letter-spacing="1">al momento ci sono 20 utenti in coda,</tspan><tspan x="80.992" y="24" fill="#262626" font-family="'DIN-Regular'" font-size="22" letter-spacing="1">e l&apos;attesa stimata è di </tspan></text>
		</g>
	</g>
</g>
<text transform="matrix(1 0 0 1 227.4458 86.3789)" fill="#3D3D3D" font-family="'DIN-Bold'" font-size="36" letter-spacing="1">Ciao Carlo</text>
<g>
	<rect x="103" y="329" fill="none" stroke="#3D3D3D" stroke-width="2" stroke-miterlimit="10" width="456" height="48"/>
	<rect x="158.227" y="346.08" fill="none" width="349.969" height="21.199"/>
	<text transform="matrix(1 0 0 1 255.877 360.2812)" fill="#3D3D3D" font-family="'DIN-Bold'" font-size="19.9445">partecipa ora</text>
</g>
<g>
	<rect x="103" y="527" fill="none" stroke="#3D3D3D" stroke-width="2" stroke-miterlimit="10" width="456" height="48"/>
	<g>
		<rect x="119.216" y="543.189" fill="none" width="427.981" height="21.157"/>
		<text transform="matrix(1 0 0 1 244.1445 557.3613)" fill="#3D3D3D" font-family="'DIN-Bold'" font-size="19.9048">lascia un soffio</text>
	</g>
</g>
</svg>
